<?xml version="1.0" standalone="no" ?>
<!DOCTYPE svg PUBLIC "-//W3C//DTD SVG 20010904//EN" "http://www.w3.org/TR/2001/REC-SVG-20010904/DTD/svg10.dtd">
<svg version="1.0" xmlns="http://www.w3.org/2000/svg" width="700.000000pt" height="700.000000pt" viewBox="0 0 700.000000 700.000000" preserveAspectRatio="xMidYMid meet">
  <metadata>
Created by potrace 1.11, written by Peter Selinger 2001-2013
</metadata>
  <g transform="translate(0.000000,700.000000) scale(0.100000,-0.100000)" fill="#000000" stroke="none">
    <path d="M1123 6073 c2 -351 7 -656 11 -678 3 -22 8 -56 11 -75 7 -49 17 -111
21 -135 2 -11 7 -33 9 -50 17 -96 101 -372 144 -470 35 -82 120 -254 158 -320
44 -76 1051 -1595 1058 -1595 2 0 45 25 95 55 138 85 345 171 452 190 17 3 34
8 37 10 4 2 26 6 51 10 25 4 47 8 50 10 12 8 164 18 265 19 249 0 442 -40 675
-142 106 -46 129 -59 253 -140 38 -24 72 -40 77 -36 6 7 588 881 879 1319 25
39 49 72 52 75 12 11 157 249 191 315 105 202 197 455 242 665 22 104 24 111
36 203 6 45 14 96 17 112 6 35 15 1295 9 1295 -3 0 -123 -174 -268 -387 -145
-214 -304 -449 -355 -523 -50 -74 -139 -205 -197 -290 -57 -85 -131 -193 -163
-240 -32 -47 -124 -182 -204 -300 -231 -340 -234 -344 -242 -355 -8 -11 -139
-204 -284 -420 -49 -71 -90 -132 -93 -135 -3 -3 -59 -85 -125 -183 -66 -97
-178 -261 -248 -365 -70 -103 -146 -215 -169 -250 -22 -35 -44 -62 -49 -60 -7
3 -106 145 -369 533 -68 100 -187 275 -330 485 -23 34 -152 224 -240 355 -52
77 -98 145 -103 150 -10 14 -58 83 -239 350 -199 294 -445 656 -458 675 -6 8
-73 107 -150 220 -77 113 -144 212 -150 220 -34 49 -250 368 -296 438 -30 45
-57 82 -60 82 -3 0 -4 -287 -1 -637z" />
    <path d="M3468 2605 c-2 -2 -39 -6 -83 -9 -136 -11 -193 -23 -315 -67 -232
-85 -451 -261 -586 -470 -349 -538 -199 -1257 337 -1615 116 -77 278 -151 374
-170 11 -2 45 -9 75 -16 32 -7 125 -12 225 -12 151 0 181 3 271 27 236 61 405
157 570 321 180 181 288 392 332 649 4 23 7 110 6 192 0 140 -3 165 -39 315
-21 93 -109 267 -186 370 -205 275 -502 442 -849 476 -76 8 -129 11 -132 9z" />
  </g>
</svg>