<svg width="240" height="324" viewBox="0 0 240 324" fill="none" xmlns="http://www.w3.org/2000/svg">
  <path fill-rule="evenodd" clip-rule="evenodd" d="M69.5209 181.122C71.3555 180.468 73.1238 179.712 74.7349 178.6C79.3792 175.142 82.4075 169.937 85.2689 165.006C89.2995 157.835 92.1709 150.193 94.1557 142.221C95.0086 138.795 95.2982 134.824 97.236 131.787C101.629 125.429 114.509 126.253 121.349 127.369C125.93 128.18 126.876 133.308 127.916 137.102C128.783 140.255 129.35 143.443 129.826 146.674C130.958 147.419 132.236 148.024 133.455 148.551C146.735 152.625 149.069 160.177 154.142 171.843C162.709 188.799 185.956 195.439 189.467 215.506C191.729 228.755 185.296 241.219 178.663 252.232C172.485 264.263 163.861 270.037 150.127 267.195C137.245 264.304 124.864 259.468 112.209 255.731C106.079 254.223 99.9597 250.302 93.512 251.669C80.2264 254.654 66.5762 256.057 52.9608 255.67C33.8445 256.443 33.8475 238.089 35.8095 223.875C37.1838 201.755 48.3366 187.551 69.5209 181.122V181.122Z" fill="white" />
  <path fill-rule="evenodd" clip-rule="evenodd" d="M68.2427 213.13C66.6453 214.187 65.3019 215.789 64.2234 217.475C68.7259 217.007 73.2206 216.466 77.7054 215.851C77.1183 215.476 76.5257 215.109 75.9196 214.762C73.7082 213.516 70.712 211.497 68.2427 213.13ZM143.05 226.445C143.875 226.122 144.194 224.863 144.516 224.142C145.524 221.88 146.444 219.579 147.401 217.295C143.766 216.259 140.232 215.109 136.467 214.556C132.418 213.963 128.31 213.819 124.224 213.952C115.948 214.222 107.748 215.576 99.6116 217.026C91.4844 218.476 83.3576 219.868 75.1735 220.961C67.1552 222.031 59.1116 222.815 51.053 223.502C49.4873 223.636 46.8767 224.199 45.6176 222.967C44.6206 221.991 44.5883 220.19 45.8358 219.397C46.6128 218.902 47.7387 218.895 48.6264 218.78C49.7445 218.637 50.8669 218.541 51.9917 218.466C52.4499 218.436 52.9082 218.408 53.3666 218.38C49.687 216.992 45.8438 216.235 41.8547 216.446C41.629 217.817 40.6126 219.228 40.0564 220.359C39.0849 222.333 38.3278 224.331 37.8306 226.477C36.7916 230.964 36.7464 235.62 37.0399 240.196C37.3095 244.011 37.8885 248.231 40.8801 250.934C43.1451 252.979 46.3407 253.737 49.3054 253.975C52.7512 254.252 56.2502 253.956 59.6671 253.494C64.4595 252.846 69.2742 251.989 73.9724 250.84C83.0719 248.615 91.7939 245.074 99.8409 240.274C103.765 237.933 107.51 235.3 111.488 233.048C115.541 230.753 119.855 228.973 124.384 227.868C129.452 226.631 134.751 226.103 139.96 226.408C140.864 226.461 142.17 226.789 143.05 226.445ZM148.924 224.148C148.391 225.877 147.983 227.851 146.847 229.304C145.721 230.743 144.022 231.252 142.262 231.38C140.14 231.534 137.993 231.435 135.866 231.514C131.505 231.676 127.203 232.385 123.033 233.685C119.148 234.897 115.541 236.786 112.066 238.883C108.853 240.822 105.735 242.904 102.521 244.837C103.376 245.229 104.222 245.653 105.072 246.023C106.856 246.797 108.65 247.545 110.453 248.274C114.007 249.711 117.577 251.113 121.183 252.416C128.454 255.043 135.845 257.338 143.325 259.293C146.893 260.226 150.511 261.315 154.217 261.47C157.504 261.607 160.548 260.678 163.198 258.723C168.696 254.669 173.07 248.816 176.606 243.044C178.706 239.614 180.539 236.011 182.056 232.285C182.823 230.4 183.518 228.487 184.144 226.552C184.438 225.643 184.716 224.729 184.98 223.811C185.096 223.407 185.207 223.002 185.317 222.597C179.695 220.881 174.007 219.332 168.185 218.472C165.077 218.012 161.927 217.78 158.784 217.814C157.225 217.83 155.666 217.915 154.114 218.076C153.279 218.162 152.447 218.274 151.619 218.412C151.277 218.469 150.925 218.553 150.572 218.615C150.033 220.463 149.49 222.308 148.924 224.148ZM32.7173 216.802C32.4143 216.189 32.2865 215.586 32.1779 214.919C32.0951 214.409 31.8754 213.693 32.0679 213.032C32.2834 212.291 32.8705 211.629 33.292 210.998C33.7574 210.3 34.2224 209.601 34.6867 208.903C35.6157 207.506 36.5425 206.107 37.4679 204.707C41.2468 198.992 45 193.261 48.7591 187.533C52.095 182.45 55.3747 177.321 58.8122 172.306C61.7516 168.017 64.9555 163.8 68.9788 160.465C74.066 156.248 80.1234 154.262 86.4507 152.711C87.1417 151.994 88.0648 151.602 89.0514 151.682C90.4453 150.1 91.5532 148.995 92.0554 146.984C92.296 146.021 92.2206 143.314 93.1584 142.744C94.2724 142.067 94.8542 142.963 95.1615 143.973C96.1893 147.353 95.0096 151.896 92.2948 155.282C93.4386 159.236 94.955 164.856 97.6603 168.024C100.557 171.417 104.563 172.473 108.886 172.542C117.129 172.675 125.364 169.61 131.651 164.299C133.563 162.684 135.337 160.881 136.943 158.964C138.148 157.525 139.572 155.305 140.515 153.627C140.515 152.973 141.287 152.289 133.429 151.76C125.571 151.232 124.975 140.469 124.8 139.004C124.658 137.814 124.055 135.968 124.893 134.998C125.248 134.586 125.978 134.52 126.429 134.8C127.279 135.328 127.558 136.678 127.825 137.595C128.2 138.88 129.424 146.854 131.743 147.777C132.828 148.209 134.074 148.217 135.222 148.297C136.64 148.396 138.061 148.469 139.474 148.634C139.995 148.695 140.563 148.863 141.077 148.868C141.412 148.871 141.757 148.709 142.08 148.595C143.171 148.209 144.261 148.498 145.385 148.649C155.322 149.985 165.554 153.034 174.03 158.521C181.501 163.357 186.764 170.311 190.237 178.442C193.781 186.74 195.812 195.713 197.514 204.547C198.084 207.507 198.582 210.48 199.01 213.464C199.424 216.347 199.941 219.294 200.065 222.207C200.114 223.359 199.838 224.429 199.415 225.482C198.938 226.667 197.81 227.134 196.729 227.687C194.355 228.902 191.85 229.844 189.27 230.511C187.694 233.38 186.367 236.36 185.301 239.454C185.697 240.238 185.705 241.408 185.781 242.17C185.97 244.068 186.05 245.975 186.067 247.881C186.101 251.701 185.872 255.517 185.692 259.332C185.509 263.2 184.902 278.464 184.804 280.328C184.727 281.775 184.83 283.801 184.068 285.086C182.896 287.062 180.004 286.996 178.665 285.394C145.385 292.551 82.8286 290.395 57.634 286.794C54.3559 286.325 55.3853 286.845 54.5516 286.017C53.926 285.394 53.3936 284.329 53.2206 283.473C52.9895 282.33 53.3626 281.295 54.0167 280.371C54.7043 279.398 54.8296 277.824 55.0851 276.668C55.6891 273.935 55.9893 261.932 56.2715 260.602C56.3594 260.188 56.4446 259.75 56.5472 259.311C51.9258 259.749 47.1103 259.749 42.7136 258.203C40.2205 257.326 37.8953 255.949 36.1054 253.982C33.9382 251.601 32.7325 248.603 32.1124 245.474C31.3124 241.439 31.1425 237.26 31.2997 233.158C31.5182 228.31 32.3218 223.395 34.3166 218.944C33.6602 218.334 33.11 217.598 32.7173 216.802Z" fill="black" />
  <path fill-rule="evenodd" clip-rule="evenodd" d="M147.048 59.6854C145.952 58.5092 144.551 57.633 143.019 57.3529C144.419 58.0527 145.788 58.7821 147.048 59.6854ZM149.194 69.8268C149.388 68.9305 149.518 68.0255 149.559 67.1207C149.314 67.4931 148.923 67.7419 148.484 67.8704C148.767 68.5059 149.009 69.1607 149.194 69.8268ZM75.8797 83.8802C77.1443 78.614 83.0446 68.4846 84.4391 66.535C85.9535 61.7075 77.6943 57.8361 82.186 54.0612C84.2197 52.3579 86.9074 51.7551 89.4287 51.1511C106.886 46.9571 125.642 49.0722 141.832 56.7846C144.295 56.2662 146.861 57.2794 148.652 59.059C157.066 67.5189 145.599 82.783 143.092 92.3204C138.79 102.955 147.652 104.744 146.701 113.742C145.963 118.39 141.256 119.619 137.285 120.321C136.648 120.47 135.797 120.493 135.592 121.166C134.948 125.095 132.742 128.839 129.781 131.381C130.04 132.148 129.842 133.08 128.929 133.754C120.654 139.906 110.22 142.985 99.8989 142.431C87.5993 141.772 81.2387 134.719 79.7039 132.903C71.2175 121.438 72.2315 106.311 73.9626 92.6476C75.1686 83.1293 73.6394 93.2093 75.8797 83.8802Z" fill="white" />
  <path fill-rule="evenodd" clip-rule="evenodd" d="M113.805 40.0593C113.419 38.8504 112.324 38.1234 111.071 38.2734C109.962 38.4045 108.775 39.5056 108.91 40.7209C108.936 40.9555 108.969 41.1753 109.01 41.3824L109.004 41.3842V41.3842L108.999 41.3845L109.026 41.4648C109.109 41.8516 109.223 42.1982 109.392 42.5258C109.607 43.1535 109.814 43.7833 110.019 44.4153C109.724 44.4026 109.421 44.4195 109.115 44.4765C108.798 43.665 108.479 42.8555 108.162 42.0418C107.822 41.1731 107.583 40.0572 106.912 39.3851C106.052 38.527 104.56 38.3495 103.512 38.9624C102.405 39.6091 102.01 40.7589 102.251 41.9911C102.373 42.6196 102.793 43.057 103.313 43.3318L103.369 43.3606L103.768 44.3075C103.645 44.2546 103.519 44.206 103.381 44.1659C103.166 44.1025 102.955 44.0623 102.748 44.0454C102.177 43.0119 101.55 42.008 100.901 41.0231C100.155 39.8902 98.6976 39.4084 97.4743 40.1248C96.3799 40.7652 95.7926 42.4476 96.5764 43.5529C97.1722 44.392 97.7363 45.248 98.2919 46.1124C98.1968 46.1293 98.1018 46.1504 98.0109 46.1779C97.9687 46.1209 97.9243 46.0638 97.8778 46.0067C97.2715 45.2543 96.5659 44.69 95.8412 44.0644C95.163 43.4769 94.8504 42.5533 93.9588 42.1073C92.837 41.5472 91.4849 41.8156 90.8173 42.9316C89.3849 45.3219 91.7891 47.0677 93.3271 48.5155C91.9898 47.6806 90.5976 46.9176 89.1694 46.2582C88.3666 45.8884 87.5511 45.5312 86.7229 45.2226C85.4954 44.7661 84.5025 44.9121 83.4947 45.7616C83.0447 46.142 82.8208 46.9728 83.0278 47.5263C83.4292 48.5873 84.063 49.2319 85.1743 49.5384C85.956 49.754 86.7567 49.8998 87.5384 50.1259C88.8483 50.5021 90.1201 50.9608 91.3539 51.5335C91.2652 51.5885 91.1807 51.6477 91.1025 51.7153C90.1814 51.4173 89.2433 51.1594 88.3011 50.9396C86.7384 50.5731 85.1478 50.3254 83.5502 50.1705L83.0195 50.1211C81.1043 49.9372 78.8012 49.5979 77.6257 51.4321C77.2391 52.0365 77.1968 53.0341 77.6257 53.6322C78.4454 54.782 79.2609 55.0102 80.6173 55.0314C79.2821 55.173 77.949 55.3484 76.6222 55.5534C75.7077 55.6929 74.7932 55.851 73.8827 56.0265L73.4278 56.1156C72.3187 56.3375 71.0807 56.4664 70.1278 57.109C68.049 58.5123 69.025 61.2451 71.3278 61.5367C72.4412 61.6762 73.6771 61.2049 74.7694 60.9851C75.83 60.7717 76.8947 60.5836 77.9638 60.4187C78.5173 60.332 79.0708 60.256 79.6264 60.1862C78.4961 60.349 77.3743 60.5793 76.2821 60.9048L75.9787 60.9964C73.8671 61.6402 71.0168 62.6655 70.3581 64.9226C69.9588 66.2942 71.0511 67.4905 72.3736 67.5708C73.6032 67.6448 74.6278 66.9114 75.6715 66.3703C76.4321 65.9772 77.2053 65.6834 78.025 65.4319C78.8722 65.172 79.7363 64.9564 80.6067 64.781C79.8711 65.1864 79.1547 65.632 78.4671 66.1304L78.151 66.364C76.3232 67.7264 73.536 69.8358 74.1799 72.3896C74.3828 73.1948 75.2807 73.9641 76.1426 73.8817C78.3863 73.6725 79.6243 71.2821 81.3166 70.0013C81.7581 69.6674 82.2419 69.3377 82.749 69.0164C80.1842 72.0768 78.1433 75.6148 76.5905 79.269C73.1778 87.3083 72.1309 94.7534 72.1058 103.397L72.1053 103.665C72.1011 108.433 72.2088 113.288 72.6736 118.035C73.1046 122.42 73.8947 126.749 75.8828 130.72C79.2145 137.38 85.7067 142.566 92.8666 144.54C100.833 146.738 109.738 145.02 116.264 139.948C117.929 138.654 115.721 135.846 114.021 137.04C107.229 141.805 98.444 143.315 90.6483 140.089C84.4645 137.532 79.4849 132.031 77.3743 125.696C76.0309 121.667 75.6398 117.37 75.1606 113.17L75.1285 112.891C74.6215 108.499 74.3278 104.077 74.3321 99.6559C74.3384 91.4449 75.5173 84.6859 79.1278 77.238C80.8264 73.7295 83.0299 70.4855 85.6623 67.6384C86.4609 67.8012 87.3102 67.5729 88.1173 67.4863C88.5292 67.4419 88.9412 67.3996 89.3532 67.3616C88.9323 67.6338 88.5196 67.9168 88.1139 68.2065L87.5818 68.5903C85.9167 69.7833 83.8041 71.1421 84.2321 73.4484C84.3483 74.0719 84.9694 74.6447 85.5715 74.7863C87.7539 75.3062 89.2539 73.1843 90.7285 71.9246C92.0109 70.8298 93.3525 69.8492 94.7194 68.8664C95.0299 68.6445 95.3426 68.4225 95.6574 68.2027C95.3616 68.5477 95.074 68.898 94.7933 69.2516L94.3784 69.7776C93.123 71.3491 91.3132 73.3917 92.4314 75.4288C92.7483 76.0037 93.4243 76.3862 94.0792 76.3735C96.3314 76.327 97.2271 73.7697 98.2835 72.155C99.1919 70.7706 100.179 69.4666 101.199 68.1626C101.48 67.8054 101.763 67.4482 102.05 67.091C106.781 67.3362 111.494 67.9618 116.125 68.9615C119.307 69.6484 122.436 70.5384 125.541 71.5125L125.799 71.5946C127.48 72.136 129.212 72.8288 130.424 74.017C130.597 74.8356 130.464 75.6989 130.298 76.5164L130.169 77.1422C129.638 79.7588 129.276 82.3271 129.547 85.0135C129.828 87.7843 130.662 90.2762 131.681 92.8504C132.162 94.0635 132.661 93.8437 132.832 95.1457C132.963 96.1373 132.882 97.161 132.793 98.161L132.718 99.0087C132.53 101.229 132.436 103.651 133.891 105.483C134.117 105.764 134.6 105.652 134.761 105.371C134.824 105.259 134.892 105.151 134.966 105.047C135.667 104.031 136.743 103.452 137.972 103.228C138.129 103.2 138.067 102.991 137.936 102.974C136.897 102.851 135.912 103.111 135.076 103.648C135.472 102.276 138.544 102.943 139.554 103.21L139.588 103.219C140.848 103.557 142.039 104.107 143.089 104.885C145.202 106.449 146.423 108.888 146.362 111.515C146.3 114.097 144.967 116.484 142.677 117.72C141.572 118.316 140.315 118.603 139.064 118.591C137.759 118.578 136.597 118.005 135.289 118.086C134.533 118.132 133.954 118.944 134.391 119.652C134.683 120.125 135.063 120.497 135.502 120.782C134.431 123.253 133.064 125.61 131.488 127.784C130.616 128.991 129.627 130.105 128.539 131.122C127.69 131.916 125.85 132.836 125.953 134.161C125.989 134.639 126.236 134.93 126.671 135.108C128.025 135.661 129.67 133.756 130.575 132.837L130.648 132.764C131.776 131.64 132.805 130.397 133.7 129.078C135.289 126.736 136.276 124.096 136.683 121.324C138.853 121.977 141.726 121.364 143.497 120.563C149.062 118.048 150.881 110.551 147.498 105.559C146.843 104.593 146.024 103.767 145.09 103.099C145.295 102.987 145.487 102.843 145.658 102.661C146.605 101.655 147.274 100.343 147.938 99.1327L148.018 98.988C148.608 97.9228 149.164 96.8409 149.685 95.7423L149.879 95.3295C151.043 92.825 152.064 91.7302 152.894 89.0968C153.693 86.5564 154.322 83.9673 154.73 81.3339L154.838 80.6369C155.074 79.1088 155.297 77.4748 155.125 75.9234C156.31 76.3101 157.502 76.549 158.674 75.9677C159.448 75.5852 159.874 74.4693 159.61 73.6682C159.418 73.0786 159.097 72.6157 158.689 72.2522C158.932 72.1296 159.16 71.9732 159.361 71.7999L159.536 71.648V71.648C160.246 71.0306 160.297 69.8576 159.866 69.0841C159.824 69.0101 159.781 68.934 159.741 68.86C159.331 68.1266 158.484 67.6469 157.648 67.6596C157.512 67.6617 157.377 67.6617 157.24 67.6596C157.631 67.5729 158.013 67.4398 158.376 67.2157C160.016 66.2076 159.809 63.4748 157.825 62.9929C156.993 62.7922 156.074 62.8746 155.157 63.0902C155.191 63.0711 155.224 63.0521 155.258 63.031C155.951 62.6062 156.532 61.7756 156.467 60.9238C156.395 59.9812 156.091 59.3091 155.258 58.8146C154.536 58.3876 153.513 58.3475 152.795 58.8146C152.171 59.2225 151.561 59.6726 150.974 60.1566C151.563 59.4317 152.074 58.6434 152.281 57.8064C152.537 56.7645 152.11 55.6295 151.172 55.08C150.424 54.6425 149.634 54.6911 148.929 55.0293C148.967 54.4819 148.833 53.9239 148.47 53.4293C147.726 52.4151 146.374 51.8315 145.198 52.5713C145.043 52.6685 144.836 52.8355 144.636 53.0405C145.026 51.7956 144.674 50.4895 143.341 49.9273C142.527 49.5828 141.426 49.7561 140.721 50.35C141.169 47.9258 137.592 46.1441 136.202 48.6486C135.886 49.216 135.574 49.8134 135.295 50.4245L135.192 50.6543L135.181 50.6501L135.252 50.4821V50.4821L135.325 50.314C135.712 49.4158 136.204 48.4816 136.339 47.5073C136.538 46.0659 135.895 44.6985 134.328 44.4871C133.519 44.3772 132.619 44.745 132.076 45.3877C132.369 43.1514 129.872 41.5261 128.074 43.1958C127.223 43.9862 126.769 45.1423 126.228 46.1568C125.921 46.7295 125.609 47.3002 125.302 47.8751C125.224 47.7821 125.14 47.6891 125.051 47.5982C125.505 46.2371 125.858 44.8422 126.156 43.4388C126.439 42.1158 125.778 40.742 124.413 40.3681C123.173 40.0255 121.62 40.7908 121.343 42.1117C121.149 43.0415 120.919 43.9611 120.665 44.876C120.492 44.8337 120.321 44.8041 120.152 44.783C120.138 44.6111 120.122 44.4383 120.104 44.2664L120.037 43.655C119.89 42.2581 119.741 40.6635 119.011 39.476C117.767 37.447 114.576 38.2882 114.543 40.687C114.524 41.9277 115.029 43.1577 115.204 44.3857C115.28 44.9204 115.324 45.4614 115.35 46.0025C115.01 44.206 114.543 42.4328 114.002 40.687C113.938 40.4778 113.871 40.2686 113.805 40.0593ZM141.329 109.336C138.529 108.903 135.971 110.464 134.312 112.652C134.01 113.051 134.209 113.616 134.481 113.952C134.678 114.199 134.942 114.229 135.24 114.267C135.582 114.311 136.015 114.034 136.165 113.736C137.232 111.606 139.136 110.259 141.329 109.431C141.369 109.416 141.381 109.344 141.329 109.336ZM137.449 71.165L137.365 71.0739C136.798 70.4861 137.693 69.5883 138.261 70.1774C138.859 70.7975 139.256 71.5507 139.638 72.3141C140.002 73.042 138.909 73.6849 138.543 72.9543L138.377 72.6222C138.116 72.1058 137.837 71.5957 137.449 71.165V71.165ZM145.31 69.9586C144.507 69.8234 144.847 68.6011 145.647 68.736C146.682 68.9106 147.714 69.109 148.75 69.2838C149.552 69.4191 149.212 70.6413 148.413 70.5067C147.377 70.3319 146.345 70.1334 145.31 69.9586ZM97.4858 61.6143C98.2614 61.3554 98.5941 62.5798 97.8228 62.8372C96.757 63.1929 95.6998 63.5575 94.6886 64.0514C93.9583 64.4082 93.315 63.3148 94.0489 62.9564C95.1587 62.4143 96.3158 62.0049 97.4858 61.6143ZM145.493 59.9708C146.25 59.6678 146.579 60.8938 145.83 61.1937L143.092 62.2891V62.2891C142.334 62.5922 142.006 61.3664 142.755 61.0665L145.493 59.9708V59.9708ZM87.9255 56.9934L88.0254 56.9304C88.712 56.4853 89.3481 57.5826 88.6653 58.0254C88.2644 58.2852 87.7771 58.4614 87.41 58.7709L87.3333 58.8393C86.7404 59.3994 85.8423 58.5045 86.4369 57.9425C86.8718 57.5318 87.4224 57.3031 87.9255 56.9934V56.9934Z" fill="black" />
  <path fill-rule="evenodd" clip-rule="evenodd" d="M108.955 122.855C106.368 119.848 102.01 119.638 98.4006 120.39C96.0843 120.873 93.829 121.677 91.4763 121.975C90.3775 122.114 89.2669 122.156 88.1601 122.136C87.0729 122.116 85.984 121.896 84.9006 121.937C84.7341 121.943 84.6712 122.162 84.8155 122.251C86.3018 123.164 88.3039 123.457 90.0596 123.636C90.0541 123.766 90.0463 123.893 90.0283 124C89.9803 124.287 89.9366 124.572 89.9013 124.861C89.8217 125.512 89.7325 126.161 89.6436 126.811C89.4683 128.09 89.4131 129.409 89.1048 130.666L89.051 130.875C88.9796 131.139 88.9633 131.377 88.9872 131.592L88.9158 131.56L88.6902 131.45L88.5424 131.381C88.0028 131.13 87.4879 130.948 86.8536 131.009C86.3706 131.055 85.9652 131.384 85.9622 131.9C85.9502 134.216 89.0694 134.96 90.8535 135.404L91.3767 135.532C93.6477 136.087 95.9665 136.572 98.3022 136.689C102.05 136.875 106.263 135.84 108.714 132.799C111.002 129.961 111.422 125.723 108.955 122.855ZM91.9329 132.583C92.3263 129.098 96.6083 128.906 97.8402 131.117C98.3868 128.035 106.473 130.85 105.841 131.463C103.444 133.785 99.8073 133.994 96.6808 133.564C95.0884 133.345 93.4948 132.989 91.9329 132.583ZM96.6848 123.447L97.7614 123.292L98.1854 123.233C100.854 122.876 103.856 122.691 106.05 124.403C106.851 125.028 107.302 125.843 107.47 126.718C105.394 126.41 103.31 126.175 101.22 125.98L100.65 125.927C99.3421 125.809 98.035 125.685 96.7285 125.555L95.8 125.461L94.8719 125.364C94.5453 125.33 92.3441 125.217 91.9302 125.293C91.8861 124.921 91.8284 124.116 91.735 123.754C93.2988 123.807 94.8558 123.691 96.4105 123.484L96.6848 123.447ZM91.7292 107.866C90.1338 108.836 87.703 111.098 89.4192 113.503C91.4394 115.624 94.348 113.192 95.7813 112.093C97.1104 111.241 98.6036 113.432 97.3705 114.427C87.0134 122.098 82.8102 108.12 90.9223 106.725C91.8154 106.572 92.1472 107.566 91.7292 107.866ZM88.8744 111.953L88.7977 111.911L88.7718 111.895C88.7269 111.866 88.7555 111.869 88.8574 111.905L88.9339 111.932V111.986C88.9143 111.974 88.8934 111.965 88.8744 111.953ZM109.306 103.334L109.307 103.286C109.304 101.939 108.519 98.8614 106.58 98.8614C105.368 98.8614 104.632 100.956 104.505 103.114L104.501 103.202C104.444 104.545 104.813 107.478 106.58 107.478C108.365 107.478 109.288 104.7 109.306 103.334V103.334ZM80.7523 102.911L80.752 102.864C80.755 101.516 81.5397 98.4387 83.4791 98.4387C84.6604 98.4387 85.3893 100.43 85.543 102.53L85.5537 102.692C85.6302 103.989 85.2859 107.056 83.4791 107.056C81.6934 107.056 80.7707 104.277 80.7523 102.911V102.911ZM108.2 89.6724C106.617 89.4317 104.521 89.889 103.783 91.4991C103.454 92.2164 103.844 93.0096 104.672 93.0494C106.675 93.1453 108.472 92.6994 110.23 94.0023C110.987 94.5632 111.623 95.3397 112.157 96.1143L112.359 96.4091L112.526 96.6519C112.888 97.185 113.232 97.7643 113.178 98.4075C113.162 98.5979 113.357 98.7787 113.542 98.771C114.694 98.7237 114.818 97.2785 114.666 96.4105C114.385 94.7996 113.605 93.2873 112.525 92.0693C111.391 90.7902 109.893 89.93 108.2 89.6724ZM86.3991 91.6275C85.3077 90.9256 83.9116 90.656 82.633 90.7593C80.112 90.9624 75.8826 93.1063 76.4393 96.1868C76.611 97.1368 77.9319 97.6381 78.7102 97.111C79.547 96.5444 79.7507 95.6637 80.3735 94.9231C80.8704 94.3315 81.5002 93.9036 82.1746 93.539C82.8393 93.1794 83.6082 92.9615 84.3626 92.882L84.4882 92.8701C84.9422 92.8314 87.2349 92.8417 86.8983 93.6979C86.8324 93.8655 87.0817 93.9982 87.1962 93.8714C87.8991 93.0937 87.103 92.0802 86.3991 91.6275Z" fill="black" />
</svg>