<svg width="240" height="324" viewBox="0 0 240 324" fill="none" xmlns="http://www.w3.org/2000/svg">
  <path fill-rule="evenodd" clip-rule="evenodd" d="M190.838 285.363C189.724 287.056 187.533 286.796 186.592 285.485C175.879 287.981 164.897 286.997 154.036 286.385C123.429 285.139 92.6491 289.045 62.1659 284.959C58.9323 284.312 55.1685 284.622 52.5226 282.378C48.2907 277.417 49.2021 269.885 49.8763 263.842C55.2799 229.78 62.9622 195.406 66.7944 161.125C67.0084 157.859 65.6633 153.802 64.4574 150.732C64.1595 150.161 62.2769 149.602 61.3 148.943C58.3018 146.79 58.788 142.932 61.387 140.668C69.802 134.734 81.5163 136.808 90.443 138.997C92.1537 132.569 94.0767 128.342 97.3339 127.923C103.533 127.126 118.572 124.691 123.204 127.923C125.421 129.469 126.843 134.917 128.438 137.571C140.072 137.365 163.684 121.794 168.538 139.328C172.482 139.6 176.389 143.045 175.634 147.178C180.749 151.7 176.715 158.48 176.786 164.108C177.458 176.049 183.917 186.728 186.604 198.263C192.746 220.636 199.698 261.331 192.08 283.169C192.244 283.083 192.602 283.212 192.37 283.394C191.508 283.637 191.395 284.724 190.838 285.363Z" fill="white" />
  <path fill-rule="evenodd" clip-rule="evenodd" d="M57.0842 279.674C58.5129 268.199 59.5065 254.346 59.5179 242.775C59.519 241.686 57.8289 241.687 57.8278 242.775C57.8164 254.346 56.8228 268.199 55.394 279.674C55.2597 280.752 56.9515 280.739 57.0842 279.674ZM67.6685 208.524C69.8762 209.874 72.7754 208.937 74.9604 208.043C75.9552 207.636 75.517 206.001 74.5112 206.413C72.8483 207.093 70.4179 208.096 68.6629 207.146C66.9113 206.199 66.8323 203.592 66.8192 201.872C66.8109 200.782 65.121 200.783 65.129 201.872C65.1468 204.212 65.4597 207.172 67.6685 208.524ZM71.7549 261.035C73.9823 259.893 75.8829 258.332 77.4125 256.35C78.0773 255.488 76.6084 254.647 75.953 255.496C74.6068 257.241 72.8529 258.575 70.9018 259.575C69.9325 260.072 70.7888 261.531 71.7549 261.035ZM82.4612 202.026C86.2831 217.347 88.8478 232.942 90.1049 248.684C90.3605 251.879 90.5401 255.071 90.6415 258.264C90.7429 259.097 90.8401 259.932 90.9309 260.766C91.2753 263.924 91.5394 267.132 91.5162 270.311C91.5056 271.738 91.4612 273.158 91.364 274.58C91.5331 274.105 91.6894 273.627 91.8415 273.152C92.1521 272.177 92.357 271.167 92.6739 270.199C92.9359 269.398 93.2739 268.631 93.5887 267.855V267.853C93.4936 264.676 93.7091 261.47 93.819 258.308C93.9605 254.212 94.1359 250.121 94.2267 246.023C94.4084 237.826 94.3176 229.624 94.0218 221.432C93.4281 204.926 91.9281 188.497 90.4155 172.058C89.995 167.487 89.5429 162.918 89.2302 158.337C88.9155 153.709 88.7887 149.072 88.7528 144.431C88.7507 144.097 89.2577 144.008 89.3507 144.331C89.4331 143.23 89.5788 142.131 89.8218 141.068C86.1774 143.393 82.3345 145.403 78.5676 147.516C76.5838 148.63 74.6084 149.763 72.5633 150.761C71.4394 151.31 70.3049 151.815 69.1471 152.293C67.9471 152.788 66.8 153.468 65.4795 153.123C65.3654 153.094 65.2577 153.052 65.1542 152.997C65.3042 153.282 65.4542 153.565 65.5978 153.853C66.0964 154.844 66.5718 155.839 67.0323 156.843C67.1549 156.934 67.2626 157.059 67.3471 157.222C67.5711 157.659 67.7887 158.101 68 158.549C68.0422 158.509 68.0845 158.469 68.1267 158.428C68.3042 158.262 68.5493 158.513 68.3929 158.695C68.3211 158.777 68.2514 158.858 68.1816 158.94C69.5591 161.905 70.6788 165.023 71.8324 168.066C73.25 171.807 74.5936 175.575 75.8591 179.369C78.3542 186.832 80.5556 194.392 82.4612 202.026ZM137.101 257.627C144.145 261.4 150.727 265.91 157.058 270.775C157.921 271.438 158.762 269.968 157.911 269.315C151.58 264.45 144.998 259.94 137.954 256.167C136.995 255.653 136.142 257.113 137.101 257.627ZM160.892 213.43C161.258 213.402 161.614 213.19 161.707 212.809C162.278 210.472 162.725 207.926 162.194 205.542C161.957 204.479 160.328 204.932 160.564 205.992C160.983 207.871 160.65 209.903 160.216 211.778C154.072 212.047 148.011 209.841 142.133 208.36C141.076 208.094 140.63 209.725 141.684 209.991C147.919 211.562 154.368 213.913 160.892 213.43ZM38.5894 275.77C38.5831 275.755 38.5767 275.738 38.5725 275.724C38.2112 274.629 38.2028 273.357 38.1627 272.209C38.0929 270.167 38.1669 268.121 38.3507 266.086C38.7394 261.802 39.576 257.588 40.5753 253.409C42.5549 245.133 45.3521 237.08 46.8711 228.692C49.8521 212.226 49.1444 195.081 54.9944 179.198C57.4261 172.595 60.8993 166.248 65.619 161.003C65.2746 159.954 64.9387 158.904 64.6113 157.849C64.0387 156.015 63.4535 154.121 63.1007 152.232C63.0922 152.181 63.0817 152.128 63.0753 152.075C61.0662 151.209 59.2387 149.575 58.926 147.402C58.7908 146.464 58.9472 145.424 59.3528 144.517C58.5246 143.752 57.9922 142.759 58.119 141.427C58.3556 138.921 61.2817 138.276 63.3183 137.786C65.6338 137.23 68.0359 137.076 70.4042 137.338C71.6 137.469 72.7831 137.689 73.9387 138.018C74.9422 138.304 76.0345 138.597 76.8394 139.286C76.9345 139.367 76.8563 139.523 76.7422 139.523C75.1134 139.517 73.4908 138.919 71.845 138.84C70.1211 138.76 68.4014 138.902 66.7113 139.257C65.0591 139.604 63.4113 140.111 61.9091 140.895C61.4866 141.117 60.8676 141.267 61.3641 141.715C61.7274 142.043 62.4415 142.07 62.9084 142.119C63.9415 142.226 64.8331 142.831 64.9641 143.934C65.0803 144.908 64.4993 146.012 63.4641 146.231C63.407 146.244 63.3542 146.259 63.3077 146.278C63.2803 146.331 63.238 146.375 63.2422 146.303C63.2422 146.303 63.2401 146.301 63.2401 146.303C63.2148 146.458 63.2063 146.519 63.2063 146.529C63.2127 146.517 63.2232 146.464 63.2317 146.422C63.2253 146.46 63.2127 146.521 63.1958 146.612C63.219 146.513 63.2 146.756 63.219 146.794C63.7683 147.808 65.3929 148.094 66.3394 148.531C66.5232 148.615 66.6817 148.715 66.8169 148.827C67.0408 148.749 67.269 148.67 67.4993 148.584C68.6338 148.159 69.7662 147.747 70.9155 147.364C73.1338 146.622 75.3796 145.961 77.5979 145.217C81.7979 143.809 85.8584 142.032 89.9803 140.421C90.1113 139.935 90.2634 139.46 90.4429 138.997C90.4789 138.9 90.6521 138.868 90.6711 138.997C90.7345 139.407 90.7852 139.819 90.8275 140.233C90.8444 140.271 90.8486 140.314 90.8401 140.354C91.0789 142.763 91.0155 145.23 91.138 147.637C91.2901 150.638 91.7148 153.618 91.8352 156.621V156.676C92.2789 159.24 92.6803 161.812 93.0437 164.393C93.4514 164.266 93.9183 164.291 94.3958 164.547C97.7718 166.35 101.566 167.354 105.384 167.578C107.306 167.69 109.21 167.627 111.122 167.405C112.379 167.261 113.617 166.999 114.857 166.749C114.204 164.012 113.503 161.288 112.711 158.591C112.058 156.374 111.331 154.168 110.433 152.035C109.527 149.881 108.399 147.825 107.349 145.737C106.865 144.771 107.435 143.294 108.692 143.395C109.064 143.425 109.436 143.448 109.81 143.465C113.448 143.638 117.232 143.233 120.823 142.871C124.911 142.457 129.054 142.028 133.106 141.354C133.406 141.305 133.529 141.713 133.233 141.812C131.311 142.459 129.411 143.19 127.44 143.674C125.412 144.175 123.371 144.632 121.313 144.989C119.342 145.329 117.363 145.614 115.377 145.855C114.082 146.014 112.772 146.094 111.468 146.2C113.224 149.007 114.434 152.172 115.489 155.29C116.843 159.293 117.838 163.412 118.812 167.523C120.895 176.334 122.613 185.234 123.956 194.189C124.92 200.61 125.699 207.056 126.285 213.519C126.458 211.556 126.669 209.599 126.908 207.644C127.706 201.153 128.873 194.705 130.432 188.354C130.292 188.108 130.227 187.815 130.273 187.529C130.554 185.784 131.294 184.264 131.942 182.645C132.587 180.384 133.282 178.137 134.03 175.907C134.879 172.87 135.832 169.879 137.051 166.959C137.982 164.733 139.045 162.564 140.228 160.462C141.642 157.522 143.194 154.646 144.899 151.896C144.988 151.64 145.132 151.401 145.337 151.2C145.647 150.71 145.962 150.226 146.283 149.746C146.492 149.433 147.092 149.624 146.934 150.021C146.86 150.207 146.786 150.393 146.71 150.577C153.654 148.84 160.463 151.496 167.078 153.458C168.747 153.954 170.433 154.402 172.144 154.726C173.49 154.979 175.058 155.288 176.399 155.009C177.297 154.823 177.694 154.415 177.257 153.455C176.805 152.462 175.571 151.809 174.5 151.37C174.096 151.283 173.699 151.128 173.317 150.896C172.425 150.355 172.035 149.226 172.455 148.265C172.837 147.396 173.953 146.648 174.939 147.045C175.081 147.102 175.22 147.157 175.36 147.212C175.375 147.191 175.392 147.161 175.406 147.119C175.548 146.732 175.609 147.195 175.548 146.641C175.446 145.737 174.489 144.915 173.834 144.397C172.206 143.106 169.852 142.15 167.75 142.639C167.592 142.674 167.433 142.719 167.277 142.774C165.111 143.524 164.057 140.405 165.787 139.242C165.893 139.172 166.026 139.084 166.172 138.98C166.892 138.479 167.946 137.636 167.659 136.875C167.304 135.93 165.211 135.387 164.418 135.066C161.554 133.903 158.458 133.244 155.37 133.109C152.262 132.973 149.114 133.316 146.116 134.155C144.646 134.565 143.135 135.188 141.745 135.818C140.496 136.383 137.78 137.129 137.606 138.71C137.568 139.058 137.072 139.177 136.964 138.796C136.113 135.761 139.417 133.802 141.597 132.549C143.027 131.724 144.65 131.211 146.22 130.706C147.724 130.22 149.26 129.862 150.827 129.647C154.193 129.186 157.599 129.245 160.937 129.892C163.977 130.482 167.359 131.488 169.816 133.445C171.325 134.645 172.007 136.556 171.401 138.42C171.38 138.481 171.358 138.545 171.337 138.606C174.052 139.092 176.621 140.648 178.339 142.816C179.75 144.598 180.489 147.077 179.226 149.15C179.279 149.188 179.332 149.228 179.382 149.271C180.587 150.234 181.482 151.634 181.749 153.164C182.27 156.182 180.447 158.293 177.897 159.101C178.529 159.718 179.135 160.373 179.729 161.028C181.058 162.497 182.327 164.097 183.447 165.729C185.716 169.034 187.656 172.633 189.352 176.26C192.84 183.708 195.039 191.725 196.206 199.853C196.793 203.949 197.186 208.066 197.336 212.2C197.509 216.913 197.334 221.629 197.425 226.344C197.513 230.875 198.014 235.297 199.026 239.714C199.996 243.939 201.289 248.079 202.459 252.249C203.78 256.945 205.233 261.62 205.93 266.462C206.283 268.926 206.537 271.397 206.34 273.889C206.142 276.427 205.22 278.598 204.371 280.959C204.156 281.561 203.499 281.804 202.973 281.675C202.854 282.806 202.427 283.909 201.792 284.865C200.442 286.889 198.363 288.181 195.982 288.65C193.299 289.176 190.533 289.051 187.816 288.954C184.869 288.849 181.92 288.753 178.973 288.631C175.887 288.503 172.802 288.372 169.716 288.241C169.818 285.077 169.94 281.914 170.077 278.752C170.821 261.657 171.993 244.552 172.024 227.435C172.084 227.4 172.142 227.358 172.198 227.304C173.588 225.961 175.293 225.078 176.895 224.027C177.802 223.432 176.954 221.969 176.042 222.567C174.691 223.454 173.284 224.241 172.018 225.234C172.01 223.452 171.995 221.671 171.959 219.889C171.938 218.8 170.248 218.8 170.269 219.889C170.375 225.259 170.34 230.631 170.218 236.001C169.825 253.403 168.589 270.773 168.026 288.168C159.745 287.814 151.463 287.458 143.18 287.155C136.442 286.91 129.705 286.665 122.968 286.42C121.554 286.37 120.76 285.359 120.587 284.038C120.27 281.607 120.865 279.095 122.213 277.051C122.353 276.84 122.518 276.652 122.701 276.491C122.67 275.035 122.611 273.576 122.693 272.12C122.815 269.897 122.999 267.673 123.16 265.452C123.485 261.003 123.737 256.546 123.836 252.086C124.039 243.167 123.891 234.24 123.386 225.334C122.374 207.54 120.018 189.861 116.163 172.456C115.882 171.188 115.599 169.92 115.305 168.654C112.307 170.211 108.661 170.771 105.384 170.792C101.277 170.818 97.2606 169.873 93.5507 168.155C93.576 168.347 93.6014 168.537 93.6246 168.73C94.6599 176.972 95.5324 185.232 96.2929 193.502C97.8099 209.99 98.7394 226.545 98.6106 243.106C98.5746 247.694 98.3993 252.268 98.1817 256.85C97.9599 261.51 97.6197 266.435 96.3225 270.93C96.1789 271.427 95.8598 271.712 95.4922 271.816C95.4732 272.471 95.431 273.128 95.3845 273.775C95.2345 275.878 94.8056 280.247 93.8887 282.153C92.9951 284.013 91.5056 285.488 89.6063 286.3C87.1936 287.329 84.5845 287.033 82.0366 286.868C70.9577 286.145 59.8873 285.177 48.8148 284.328C47.2725 284.209 45.7303 284.093 44.1901 283.973C42.819 283.867 41.4014 283.774 40.1845 283.062C38.8007 282.252 37.7211 278.277 38.1986 276.632C38.2852 276.332 38.4162 276.036 38.5894 275.77Z" fill="black" />
  <path fill-rule="evenodd" clip-rule="evenodd" d="M72.976 97.8957C73.0601 93.161 73.153 88.3317 73.8565 83.6431C74.5444 79.0593 76.4367 74.916 79.6886 71.5875C86.5955 64.5172 96.6075 62.7902 105.927 61.2076L121.861 58.5017C126.722 57.6764 131.908 56.3571 136.819 57.5276C139.239 58.1044 141.294 59.4443 143.173 61.0297C144.983 62.5577 146.93 64.1987 148.157 66.2545C149.386 68.3132 149.808 70.7199 150.208 73.0483C150.658 75.6735 151.008 78.3192 151.257 80.9712C151.756 86.2846 151.824 91.6378 151.462 96.9622C151.287 99.5447 151.008 102.12 150.653 104.683C150.476 105.955 150.277 107.223 150.051 108.486C149.985 108.859 149.935 109.272 149.867 109.688C150.369 111.118 150.655 112.599 150.632 114.074C150.564 118.418 146.899 121.152 143.204 122.621C141.062 123.472 138.823 124.05 136.718 125.001C134.503 126.002 132.996 127.623 131.482 129.473C128.595 133.002 125.337 136.173 121.616 138.818C113.728 144.428 103.736 147.081 94.1651 145.067C91.8686 144.584 89.5518 143.834 87.4875 142.703C85.3081 141.51 83.6693 139.78 82.2931 137.735C79.7378 133.939 77.9053 129.665 76.5189 125.315C75.1049 120.878 74.1012 116.433 73.5538 111.806C73.0083 107.194 72.8934 102.536 72.976 97.8957Z" fill="white" />
  <path fill-rule="evenodd" clip-rule="evenodd" d="M123.822 42.0087C117.228 41.1014 108.127 44.0503 104.844 49.9965C89.1664 46.2991 69.3932 46.178 56.4718 58.4864C42.989 73.0869 59.9242 92.3378 71.1537 96.678C70.3361 100.653 71.6109 126.117 80.6309 137.476C87.7895 147.1 104.46 151.542 112.174 140.046L112.234 139.952C113.061 138.624 112.349 138.667 111.501 139.654C103.947 146.299 93.6765 146.413 85.7622 139.4C70.9295 126.582 72.4589 95.1517 79.5169 76.969C99.6148 74.7608 121.133 80.8547 135.015 95.9893L134.076 101.642C133.916 102.606 133.734 103.568 133.596 104.534C133.507 105.154 133.497 105.769 133.926 106.271C135.342 107.926 137.729 105.439 139.692 104.45C140.272 104.368 140.853 104.337 141.423 104.377C150.857 105.593 148.998 123.902 138.629 120.693C137.758 120.15 137.009 120.315 136.671 121.103C134.2 123.368 132.57 127.407 128.463 131.298C127.015 132.757 125.696 133.978 124.066 135.149C123.109 136.117 120.221 137.105 121.136 138.762C122.868 142.533 133.079 130.688 134.884 127.412C140.54 129.646 146.808 128.887 152.67 128.341C183.593 126.733 179.465 94.1237 154.118 73.5358C149.347 70.0219 144.083 67.1554 138.611 64.9495C137.864 64.6483 138.19 63.4212 138.948 63.7266C142.568 65.1864 146.098 66.9239 149.463 68.9349L149.468 67.7327C149.473 65.7077 149.441 63.5994 149.089 61.7492C148.913 60.4672 148.618 59.0979 148.163 58.0677C147.6 54.9095 138.787 44.0689 123.822 42.0087ZM141.835 108.58C141.358 108.127 140.467 108.668 140.042 108.654C138.955 108.803 137.922 109.262 137.117 109.829C136.585 110.127 136.212 110.407 135.901 110.664L135.892 110.662C135.895 110.662 135.898 110.664 135.9 110.665L135.871 110.685C135.417 111.007 133.757 112.822 134.806 112.334C134.884 112.233 134.964 112.135 135.045 112.039C135.054 112.052 135.066 112.065 135.08 112.078L135.021 112.165C134.13 113.506 135.669 112.093 135.906 111.718C135.917 111.727 135.929 111.733 135.942 111.74L135.634 112.115C135.591 112.168 135.557 112.211 135.529 112.247L135.463 112.31C134.433 113.323 134.401 114.235 135.598 112.737C135.551 112.807 135.513 112.882 135.508 112.949L135.437 113.039C134.497 114.251 135.261 113.821 135.729 113.303L135.768 113.258L135.76 113.271C135.325 113.94 136.187 113.47 136.34 113.112L136.346 113.096C136.512 112.96 136.614 112.808 136.649 112.77L136.656 112.763C137.464 111.935 138.636 111.234 139.631 110.915C139.775 110.888 139.921 110.866 140.069 110.85C140.667 110.717 141.272 110.625 141.884 110.576C141.959 110.567 142.034 110.512 142.091 110.441C143.016 110.41 142.73 110.031 142.347 109.96L142.34 109.959L142.416 109.953C143.009 109.895 143.415 109.682 142.815 109.551L142.739 109.536C142.748 109.521 142.756 109.507 142.764 109.492C143.278 109.436 142.943 108.936 142.658 109.057C142.778 108.665 142.229 108.86 142.161 108.802C142.108 108.744 142.044 108.693 142.006 108.69C141.841 108.574 141.921 108.584 141.835 108.58ZM138.691 102.226L138.812 102.296C138.909 102.353 139.009 102.391 139.11 102.413C138.968 102.474 138.827 102.539 138.689 102.609C138.691 102.524 138.692 102.438 138.692 102.353L138.691 102.226Z" fill="black" />
  <path fill-rule="evenodd" clip-rule="evenodd" d="M96.848 128.274C98.2682 127.695 99.5353 126.728 100.462 125.493C100.784 125.063 100.867 124.61 100.8 124.195C100.724 123.729 100.448 123.306 100.072 123.023C99.6948 122.739 99.2229 122.598 98.7667 122.67C98.3703 122.732 97.9757 122.949 97.6634 123.399L97.5982 123.489C97.0474 124.235 96.3297 124.846 95.5119 125.241C94.7237 125.621 93.8422 125.798 92.9299 125.695C91.1925 125.499 89.995 124.559 88.7221 123.282C88.5644 123.121 88.4065 122.955 88.2479 122.786C88.1477 122.633 88.0087 122.534 87.8543 122.483C87.6829 122.425 87.489 122.429 87.3114 122.491C87.1402 122.55 86.9871 122.664 86.8844 122.815C86.7868 122.958 86.7315 123.135 86.7494 123.339C86.8659 124.661 87.5573 125.842 88.5393 126.769C89.63 127.799 91.0757 128.511 92.4368 128.761C93.9364 129.036 95.4644 128.839 96.848 128.274ZM91.7294 107.866C90.1341 108.836 87.7032 111.098 89.4195 113.503C91.4396 115.624 94.3482 113.193 95.7815 112.093C97.1106 111.241 98.6038 113.433 97.3707 114.428C87.0136 122.099 82.8105 108.12 90.9225 106.726C91.8157 106.572 92.1474 107.566 91.7294 107.866ZM110.289 98.9429C110.113 96.7541 106.781 96.257 106.449 98.423C106.153 100.363 106.502 102.145 107.376 103.892C108.21 105.561 110.308 104.783 110.467 103.263C110.68 101.226 110.399 100.304 110.289 98.9429ZM84.9239 97.9738C84.4593 97.3652 83.7885 96.9496 82.9849 97.1845C80.4739 97.9185 81.214 101.485 82.0959 103.22C82.575 104.163 84.1238 104.402 84.8238 103.572C85.9646 102.219 86.5109 99.5156 85.0606 98.1825C85.0213 98.1136 84.9776 98.044 84.9239 97.9738ZM107.411 89.3654L107.014 89.2959C105.787 89.0836 104.262 88.8796 103.394 89.8665C102.933 90.3898 102.775 91.3624 103.394 91.8633C104.482 92.7446 105.686 92.4031 106.99 92.4777C108.065 92.5394 109.098 92.7174 110.133 93.0135C112.405 93.663 114.256 94.8486 116.196 96.1506C116.451 96.3213 116.71 95.9956 116.589 95.7574C115.469 93.563 113.299 91.7604 111.125 90.6616C109.964 90.0751 108.695 89.5885 107.411 89.3654ZM87.2128 88.3823L86.9092 88.4445C83.6056 89.1353 79.3134 90.5153 77.749 93.7615C77.6894 94.2205 77.7523 94.3189 77.8036 94.3832L77.8206 94.4046C77.8628 94.4595 77.8965 94.5351 78.0954 94.5976C78.1506 94.5844 78.2063 94.5705 78.2626 94.5557C78.9798 94.3677 79.5471 94.1087 80.0964 93.84L80.692 93.5465C81.3829 93.2076 82.08 92.881 82.8187 92.6399C84.3952 92.1254 86.0168 91.7631 87.6635 91.5696C88.0204 91.5277 88.3641 91.4072 88.6352 91.2006C88.8926 91.0046 89.0892 90.7332 89.1788 90.3724C89.295 89.9056 89.2616 89.5521 89.0112 89.1309C88.8229 88.8146 88.5535 88.5953 88.2441 88.4694C87.9288 88.3411 87.5697 88.3108 87.2128 88.3823Z" fill="black" />
  <path fill-rule="evenodd" clip-rule="evenodd" d="M70.9294 112.228C71.6296 111.288 72.8881 110.054 74.1612 110.12C74.3241 110.129 74.3851 110.305 74.2873 110.424C73.8709 110.933 73.3019 111.295 72.8847 111.814C72.391 112.429 72.0345 113.17 71.8028 113.92C71.466 115.009 71.3731 116.241 71.6733 117.349C72.2023 119.301 73.8749 120.732 75.6998 121.462C77.5062 122.186 79.6797 122.433 81.388 121.373C83.9095 119.809 86.0481 117.554 89.2174 117.509C89.9587 117.499 90.4812 117.838 90.7924 118.323C91.105 117.856 91.6209 117.525 92.3437 117.517C95.8966 117.477 98.5484 119.923 101.53 121.449C103.546 122.48 106.153 122.16 108.232 121.478C110.194 120.836 112.323 119.546 113.062 117.51C113.471 116.385 113.379 115.071 112.96 113.963C112.684 113.234 112.259 112.529 111.732 111.956C111.186 111.362 110.468 110.988 109.908 110.425C109.794 110.309 109.884 110.13 110.035 110.12C112.411 109.959 114.556 112.797 115.004 114.856C115.446 116.884 114.787 118.906 113.454 120.453C110.743 123.599 105.723 124.636 101.816 123.712C98.6532 122.964 95.6496 121.241 92.3437 121.488C91.619 121.543 91.0989 121.241 90.785 120.782C90.4706 121.254 89.9471 121.562 89.2174 121.492C86.1362 121.193 83.3862 123.376 80.3955 123.909C78.0143 124.333 75.4421 123.761 73.4017 122.478C71.2689 121.136 69.7677 118.984 69.6688 116.419C69.6119 114.943 70.0448 113.416 70.9294 112.228Z" fill="black" />
</svg>