<svg width="174" height="235" viewBox="0 0 174 235" fill="none" xmlns="http://www.w3.org/2000/svg">
  <path fill-rule="evenodd" clip-rule="evenodd" d="M123.597 131.37C122.267 130.895 120.985 130.347 119.817 129.541C116.45 127.032 114.254 123.257 112.18 119.681C109.258 114.479 107.176 108.936 105.737 103.154C105.118 100.67 104.908 97.7893 103.504 95.5868C100.319 90.9749 90.9804 91.5725 86.0215 92.382C82.7008 92.97 82.0145 96.6893 81.2603 99.4413C80.6323 101.728 80.2212 104.041 79.8761 106.384C79.0551 106.924 78.1283 107.363 77.2448 107.745C67.6167 110.7 65.9245 116.178 62.2471 124.639C56.0359 136.938 39.182 141.753 36.6362 156.309C34.9959 165.918 39.6603 174.958 44.4694 182.947C48.948 191.672 55.2006 195.86 65.1579 193.799C74.4974 191.702 83.4731 188.194 92.6482 185.484C97.0921 184.391 101.529 181.546 106.204 182.538C115.836 184.703 125.732 185.721 135.603 185.44C149.462 186.001 149.46 172.688 148.038 162.378C147.041 146.334 138.956 136.033 123.597 131.37V131.37Z" fill="white" />
  <path fill-rule="evenodd" clip-rule="evenodd" d="M124.524 154.585C125.682 155.352 126.656 156.514 127.438 157.737C124.174 157.397 120.915 157.005 117.663 156.559C118.089 156.287 118.519 156.021 118.958 155.769C120.561 154.865 122.734 153.401 124.524 154.585ZM70.2888 164.242C69.6907 164.008 69.4592 163.095 69.2261 162.572C68.4952 160.931 67.8281 159.263 67.1341 157.606C69.7692 156.854 72.3318 156.02 75.0615 155.62C77.9967 155.189 80.9752 155.085 83.9375 155.182C89.9378 155.378 95.8823 156.359 101.781 157.411C107.674 158.463 113.566 159.472 119.499 160.265C125.312 161.041 131.144 161.61 136.986 162.108C138.122 162.206 140.014 162.614 140.927 161.72C141.65 161.012 141.673 159.706 140.769 159.13C140.206 158.772 139.389 158.766 138.746 158.684C137.935 158.579 137.121 158.51 136.306 158.456C135.974 158.434 135.641 158.413 135.309 158.393C137.977 157.387 140.763 156.838 143.655 156.991C143.819 157.985 144.556 159.008 144.959 159.828C145.663 161.26 146.212 162.709 146.573 164.266C147.326 167.52 147.359 170.897 147.146 174.216C146.95 176.984 146.531 180.045 144.362 182.005C142.72 183.488 140.403 184.038 138.253 184.211C135.755 184.411 133.218 184.197 130.741 183.862C127.267 183.392 123.776 182.77 120.37 181.937C113.773 180.323 107.449 177.755 101.615 174.273C98.7701 172.575 96.0553 170.665 93.1712 169.032C90.2323 167.368 87.1052 166.076 83.8216 165.275C80.1469 164.378 76.3054 163.995 72.5286 164.216C71.8732 164.254 70.9263 164.492 70.2888 164.242ZM66.0305 162.576C66.4167 163.831 66.7122 165.262 67.5364 166.316C68.3527 167.36 69.5844 167.729 70.8603 167.822C72.3987 167.934 73.9552 167.862 75.497 167.919C78.6592 168.037 81.778 168.551 84.801 169.494C87.618 170.373 90.2331 171.743 92.7521 173.264C95.0815 174.67 97.3426 176.18 99.6728 177.582C99.0526 177.867 98.4394 178.175 97.8229 178.443C96.5299 179.005 95.2289 179.547 93.922 180.075C91.345 181.118 88.757 182.135 86.1426 183.08C80.8708 184.985 75.5123 186.65 70.0894 188.068C67.503 188.744 64.8798 189.534 62.1927 189.647C59.81 189.746 57.603 189.072 55.6814 187.654C51.6956 184.714 48.5246 180.469 45.9611 176.282C44.4382 173.794 43.1091 171.181 42.0098 168.478C41.4538 167.112 40.9496 165.724 40.4957 164.32C40.2828 163.661 40.081 162.998 39.8898 162.332C39.8057 162.039 39.7251 161.746 39.6453 161.452C43.721 160.207 47.8451 159.083 52.066 158.46C54.3196 158.126 56.6031 157.958 58.8814 157.982C60.0122 157.994 61.1425 158.056 62.2673 158.172C62.8728 158.235 63.4758 158.316 64.0763 158.416C64.3244 158.458 64.5794 158.519 64.8352 158.564C65.226 159.904 65.6199 161.242 66.0305 162.576ZM150.28 157.249C150.499 156.804 150.592 156.367 150.671 155.883C150.731 155.513 150.89 154.993 150.751 154.514C150.594 153.977 150.169 153.497 149.863 153.039C149.526 152.532 149.189 152.026 148.852 151.519C148.178 150.506 147.507 149.491 146.836 148.476C144.096 144.331 141.375 140.174 138.65 136.019C136.231 132.332 133.853 128.612 131.361 124.975C129.23 121.865 126.907 118.806 123.99 116.387C120.302 113.328 115.91 111.887 111.323 110.763C110.822 110.243 110.153 109.959 109.438 110.016C108.427 108.869 107.624 108.068 107.26 106.609C107.085 105.91 107.14 103.947 106.46 103.534C105.652 103.043 105.231 103.693 105.008 104.425C104.263 106.876 105.118 110.172 107.086 112.627C106.257 115.496 105.157 119.572 103.196 121.87C101.096 124.33 98.1913 125.096 95.0575 125.147C89.0811 125.243 83.1111 123.02 78.5526 119.167C77.167 117.997 75.8803 116.689 74.716 115.298C73.8428 114.254 72.8098 112.644 72.1267 111.427C72.1267 110.953 71.5671 110.457 77.264 110.073C82.9609 109.69 83.3929 101.883 83.5196 100.821C83.6225 99.9581 84.0603 98.6189 83.4528 97.9155C83.195 97.6167 82.666 97.5685 82.3391 97.7715C81.7228 98.1546 81.5203 99.1341 81.3265 99.7993C81.0551 100.731 80.1678 106.514 78.4864 107.184C77.6993 107.498 76.7965 107.503 75.9639 107.561C74.9357 107.633 73.9053 107.686 72.8812 107.806C72.5035 107.85 72.0915 107.972 71.7188 107.976C71.4764 107.978 71.2262 107.86 70.9919 107.777C70.2009 107.497 69.4106 107.707 68.5957 107.817C61.3913 108.786 53.9731 110.997 47.828 114.977C42.4116 118.484 38.5957 123.528 36.0778 129.426C33.5087 135.444 32.0361 141.953 30.802 148.36C30.3886 150.507 30.0276 152.663 29.7174 154.827C29.4177 156.919 29.0427 159.056 28.953 161.169C28.9174 162.004 29.117 162.781 29.4241 163.544C29.77 164.403 30.5874 164.742 31.3715 165.143C33.0927 166.025 34.9083 166.708 36.779 167.192C37.9218 169.273 38.8835 171.434 39.6564 173.678C39.3697 174.247 39.3637 175.096 39.3086 175.648C39.1718 177.025 39.1133 178.408 39.101 179.79C39.0764 182.561 39.2429 185.329 39.3734 188.096C39.5057 190.902 39.9456 201.972 40.0173 203.324C40.073 204.374 39.998 205.843 40.5508 206.776C41.4002 208.209 43.4968 208.161 44.4679 206.999C68.5957 212.19 113.949 210.626 132.215 208.014C134.592 207.675 133.846 208.051 134.45 207.451C134.903 206.999 135.289 206.227 135.415 205.606C135.582 204.777 135.312 204.026 134.838 203.355C134.339 202.65 134.248 201.508 134.063 200.67C133.625 198.688 133.408 189.982 133.203 189.017C133.139 188.717 133.078 188.399 133.003 188.081C136.354 188.399 139.845 188.399 143.032 187.277C144.84 186.641 146.526 185.642 147.823 184.216C149.395 182.488 150.269 180.314 150.718 178.045C151.298 175.118 151.422 172.087 151.308 169.112C151.149 165.596 150.567 162.03 149.12 158.802C149.596 158.36 149.995 157.826 150.28 157.249Z" fill="black" />
  <path fill-rule="evenodd" clip-rule="evenodd" d="M75.4256 31.6583C85.0774 31.1309 93.6287 28.4168 100.423 34.4911C100.423 34.4911 111.414 26.2765 113.248 29.4052C114.476 31.5016 112.772 34.3159 113.229 36.9028C116.209 41.9861 116.04 50.5902 116.209 52.6065C116.633 57.6888 119.308 76.8132 119.308 81.3546C119.308 83.6727 117.398 89.7439 116.209 93.1225C113.562 100.643 108.509 104.475 100.222 104.475C91.9354 104.475 78.41 97.5435 74.0722 91.3892C73.6921 90.8499 71.2337 92.4234 68.6623 89.6939C65.8767 86.7369 64.3313 81.0969 64.3313 77.7349C64.3313 73.4686 61.5764 70.51 61.8968 65.049C62.6125 52.8532 65.0976 32.2225 75.4256 31.6583Z" fill="white" />
  <path fill-rule="evenodd" clip-rule="evenodd" d="M74.3468 17.479C74.4724 17.4713 74.5995 17.4774 74.7266 17.4898C74.866 17.496 75.0054 17.5096 75.1448 17.5374C75.854 17.6736 76.4865 18.0492 76.9767 18.5781C76.9905 18.5919 77.0012 18.6074 77.0135 18.621C77.2432 18.7942 77.4561 18.9906 77.6476 19.1989C77.6813 19.1667 77.7134 19.1347 77.7487 19.1025C77.8498 19.0134 77.9554 18.9291 78.0657 18.8496C78.5272 18.4535 79.0686 18.1656 79.651 18.0018L79.7307 17.9802C79.746 17.9756 79.7613 17.9726 79.7766 17.9695C80.1902 17.8317 80.6252 17.7612 81.0632 17.7626C81.5871 17.7457 82.1124 17.8317 82.6026 18.0339C83.1831 18.2747 83.6886 18.6547 84.1128 19.1117C84.3916 19.3386 84.6351 19.5883 84.8925 19.8628C85.424 20.4314 85.8436 21.0967 86.1086 21.8296C86.1454 21.9323 86.1776 22.0379 86.2067 22.1437C86.8546 22.0687 87.5055 22.0151 88.1565 21.9889C88.8871 21.9446 89.6177 21.9291 90.3499 21.9538C92.3671 22.0195 94.3399 22.3753 96.2499 23.0268C96.6329 23.1401 97.0051 23.2842 97.3635 23.462C97.9256 23.6858 98.4571 23.971 98.958 24.3159L99.3846 24.5691C99.599 24.6966 99.8133 24.8257 100.021 24.9582C100.516 25.2757 100.984 25.6311 101.429 26.0144C101.897 26.3932 102.34 26.8055 102.761 27.2377C102.876 27.3546 102.986 27.4731 103.095 27.5924C104.066 28.1168 104.928 28.7882 105.733 29.589C106.371 29.2218 107.031 28.8888 107.713 28.5928C108.416 28.2877 109.309 27.9735 110.046 27.7667C110.708 27.5812 111.362 27.454 112.025 27.3603C112.327 27.3082 112.63 27.2668 112.935 27.2315L112.922 27.2363V27.2363C113.137 27.2131 113.35 27.1932 113.566 27.1748L113.56 27.1733V27.1733C113.651 27.1658 113.745 27.158 113.837 27.1518L114.06 27.1336V27.1336C114.128 27.1275 114.226 27.2852 114.232 27.3404L114.24 27.3971V27.3971C114.29 27.454 114.336 27.5168 114.368 27.5551C114.408 27.5519 114.448 27.549 114.488 27.5473C114.607 27.5367 114.745 27.7497 114.816 27.8309L114.879 27.9058C114.952 27.9932 115.024 28.0938 115.036 28.2034C115.114 28.8397 115.188 29.4773 115.255 30.115C115.281 30.5979 115.255 31.0762 115.176 31.5498C115.116 32.0097 115.055 32.4696 114.993 32.9279C114.895 33.25 114.799 33.5719 114.702 33.8937C114.664 34.0165 114.621 34.1374 114.58 34.2585C114.335 35.0673 114.048 35.8546 113.706 36.6176C113.955 36.8938 114.188 37.1802 114.404 37.4759C114.456 37.5291 114.508 37.582 114.557 37.6371C114.57 37.6158 114.59 37.5959 114.612 37.585C114.685 37.5528 114.739 37.5912 114.785 37.6542C115.267 38.1154 115.618 38.6536 115.836 39.2682L115.971 39.5887C115.994 39.6423 116.016 39.6959 116.038 39.7495C116.211 40.2157 116.344 40.694 116.454 41.1782C116.553 41.5593 116.624 41.9456 116.67 42.3361C117 43.4479 117.262 44.5854 117.509 45.7075C117.548 45.8841 117.529 46.0417 117.473 46.1759L117.617 46.3167V46.3167L117.864 46.5624C118.278 46.9756 118.7 47.41 119.008 47.9017C119.326 48.4122 119.561 48.9579 119.821 49.4992L119.877 49.6142V49.6142L119.992 49.8447C120.116 50.0965 120.175 50.2356 120.285 50.5399C120.467 51.0475 120.566 51.5578 120.611 52.096C120.679 52.8792 120.67 53.733 120.327 54.4612C120.325 54.4673 120.322 54.4721 120.319 54.4765C120.163 55.1803 119.777 55.8332 119.19 56.2501C119.064 56.3683 118.93 56.4741 118.786 56.5582C118.44 56.7613 118.123 56.7795 117.746 56.6855L117.698 56.6732C117.651 56.6609 117.608 56.6502 117.566 56.641C117.628 56.6916 117.658 56.7515 117.566 56.7943C117.478 56.8372 117.398 56.8618 117.323 56.871C117.355 56.9124 117.358 56.9568 117.291 56.9936C117.144 57.0718 117.024 57.0965 116.902 57.0748L116.927 57.288C117.128 58.9006 117.308 59.2196 117.465 60.9518C117.57 62.7253 117.735 64.4943 117.963 66.2558L118.042 66.8958C118.294 68.9245 118.577 70.968 119.011 72.9638C119.23 73.836 119.418 74.7144 119.578 75.5989C119.803 76.2719 119.961 76.9602 120.048 77.6623C120.175 78.3766 120.262 79.0971 120.313 79.8237C120.489 80.2883 120.575 80.7603 120.57 81.2417C120.593 81.8886 120.572 82.5341 120.503 83.1764C120.464 83.8446 120.373 84.5068 120.227 85.1629C120.097 86.0629 119.859 86.9321 119.519 87.7752C119.247 88.7163 118.913 89.6393 118.533 90.542C117.943 91.9401 117.231 93.2385 116.421 94.5185C115.661 95.7188 114.846 96.8746 113.915 97.9494C112.711 99.338 111.339 100.61 109.835 101.683C108.977 102.318 108.072 102.888 107.125 103.376C105.967 103.974 104.791 104.512 103.536 104.875C102.754 105.102 101.957 105.258 101.151 105.378C99.5691 105.612 97.9302 105.577 96.3388 105.303C95.3125 105.165 94.3032 104.926 93.3489 104.584C92.5647 104.302 91.8172 103.978 91.0698 103.613C90.6853 103.428 90.3146 103.213 89.9593 102.973C89.3619 102.585 88.8029 102.147 88.2821 101.662C88.1121 101.516 87.9467 101.368 87.7843 101.211C87.7062 101.142 87.7491 101.04 87.8394 101.015L87.867 101.012V101.012C87.8318 100.98 87.795 100.948 87.7598 100.914C87.7521 100.908 87.746 100.9 87.7399 100.892C87.723 100.877 87.7046 100.862 87.6893 100.847C87.6296 100.794 87.6893 100.678 87.7414 100.65C87.7613 100.64 87.7874 100.638 87.8165 100.641C87.8103 100.635 87.8057 100.63 87.7996 100.626C87.7935 100.621 87.792 100.609 87.7935 100.597L87.7705 100.578V100.578C87.6924 100.509 87.7322 100.408 87.8241 100.382C87.869 100.368 87.943 100.375 88.0202 100.392L88.0493 100.399L87.9972 100.35C87.9053 100.27 87.9344 100.181 88.0477 100.154C88.1323 100.159 88.2159 100.17 88.2985 100.19L88.3602 100.207C88.3908 100.215 88.4199 100.224 88.4506 100.233C88.3985 100.186 88.3464 100.14 88.2959 100.092C88.2453 100.048 88.2989 99.9206 88.3449 99.8947C88.4077 99.8594 88.5302 99.9083 88.5869 99.9497C88.7263 99.9652 88.9101 100.026 88.9775 100.085C89.1628 100.262 89.3543 100.433 89.5488 100.598C89.6667 100.635 89.7786 100.684 89.8643 100.758C90.0849 100.969 90.3146 101.169 90.549 101.362L90.7271 101.484C90.757 101.505 90.7869 101.525 90.817 101.544C91.154 101.742 91.491 101.938 91.8264 102.136C93.0564 102.553 94.2863 102.97 95.5147 103.385L95.6771 103.434V103.434L96.8703 103.581V103.581C97.6545 103.664 98.4403 103.66 99.2245 103.569C99.8127 103.577 100.396 103.518 100.971 103.399C101.946 103.233 102.904 102.99 103.835 102.649C104.907 102.258 105.929 101.743 106.926 101.188C107.284 100.987 107.637 100.774 107.983 100.549C108.095 100.47 108.206 100.388 108.318 100.305C109.055 99.7519 109.759 99.1618 110.438 98.5378C110.757 98.2451 111.063 97.9402 111.359 97.6244C111.401 97.5782 111.443 97.5339 111.484 97.4878C111.767 97.1781 112.042 96.8579 112.304 96.5266L112.553 96.2447V96.2447C113.561 94.9892 114.457 93.6387 115.263 92.2482C116.062 90.8701 116.721 89.4199 117.245 87.9192C117.413 87.3842 117.56 86.8417 117.683 86.2929C117.91 85.6335 118.058 84.9577 118.127 84.2678C118.15 84.1328 118.168 83.9979 118.187 83.863L118.197 83.6504C118.199 83.6149 118.2 83.5794 118.201 83.5441C118.231 83.3297 118.257 83.1149 118.277 82.9003C118.289 82.6843 118.297 82.468 118.299 82.2519L118.282 80.9259V80.9259C118.277 80.8845 118.273 80.8417 118.27 80.7986L118.236 80.506C118.162 79.9019 118.106 79.2964 118.032 78.6925C118.032 78.6893 118.032 78.6847 118.031 78.6801C118.003 78.4548 117.974 78.2279 117.94 78.001C117.923 77.8661 117.902 77.7312 117.882 77.5963L117.844 77.3604V77.3604C117.773 76.95 117.686 76.5429 117.582 76.1395L117.536 75.9668L117.269 74.6255L116.969 73.3056C116.775 72.4211 116.612 71.5305 116.484 70.6322C116.251 69.2006 116.052 67.7671 115.879 66.3277C115.869 66.2587 115.86 66.1882 115.853 66.1192C115.676 64.7842 115.549 63.4442 115.467 62.0998C115.355 60.7755 115.29 59.4478 115.274 58.1189C115.272 58.059 115.312 58.0101 115.359 57.9823L115.355 57.7268C115.349 57.5008 115.345 57.772 115.343 57.5143L115.34 56.8055C115.341 56.7464 115.341 56.7053 115.342 56.7023C114.524 56.759 113.974 56.7126 113.184 56.6709L113.05 56.664C112.325 56.6304 111.605 56.5507 110.89 56.431C110.887 56.468 110.862 56.4939 110.821 56.5015C110.747 56.5046 110.678 56.5046 110.608 56.5063L110.634 56.6058V56.6058C110.636 56.6565 110.613 56.6885 110.564 56.7023L110.359 56.7115C110.086 56.723 109.813 56.7284 109.542 56.6916C109.298 56.6596 109.061 56.6027 108.825 56.5352C108.68 56.5107 108.531 56.4772 108.379 56.4341C107.99 56.3222 107.604 56.1719 107.214 56.0525C106.816 55.9681 106.411 55.9406 105.988 56.0416C105.541 56.1474 105.163 56.339 104.694 56.2225C104.601 56.1997 104.51 56.1644 104.42 56.1275L104.336 56.1217C104.322 56.1204 104.308 56.1188 104.293 56.1168C103.804 56.0464 103.369 55.7367 102.904 55.571C102.741 55.5314 102.58 55.5414 102.422 55.6072L102.383 55.6248L102.228 55.7398C102.166 55.8133 102.104 55.8875 102.043 55.962L101.952 56.0738C101.785 56.2808 101.608 56.4663 101.392 56.6012C101.131 56.8418 100.822 56.9829 100.453 56.9921C100.243 56.9982 100.035 56.9537 99.8326 56.8895C99.0698 57.1256 98.2534 57.1731 97.4921 56.9432C97.1904 56.897 96.8948 56.8159 96.6114 56.6885C96.4782 56.6288 96.3449 56.5582 96.2162 56.4801C95.6786 56.7071 95.1701 57.0089 94.6509 57.2697L94.5339 57.3285C94.0034 57.593 93.4163 57.8509 92.8159 57.8123C92.0592 57.7631 91.3164 57.6621 90.575 57.5347C90.5689 57.5347 90.5613 57.5332 90.5551 57.5317L90.4531 57.5147V57.5147L90.0822 57.4495V57.4495L89.7832 57.3938V57.3938L89.6303 57.4525C88.4026 57.9173 87.0574 58.28 85.8237 57.9548C85.2861 57.889 84.7822 57.7079 84.3273 57.3998C84.312 57.3891 84.2966 57.3784 84.2813 57.3661C84.2093 57.3293 84.1419 57.2881 84.0822 57.2436L84.0694 57.2336V57.2336L84.0577 57.2235L84.0516 57.2205C83.3792 56.911 82.9932 56.2517 83.0606 55.5129C83.0192 55.2782 83.0207 55.0483 83.0667 54.8032C82.8477 55.0621 82.624 55.3182 82.3973 55.5726C81.5681 56.5718 80.7561 57.591 80.0042 58.6521L79.8318 58.8977C79.4182 59.4816 79.0337 60.0857 78.6784 60.7079C78.3185 61.3226 77.9493 61.9314 77.5679 62.5323C77.072 63.0807 76.5926 63.6423 76.1305 64.2177L75.9336 64.4652L75.2689 65.3405C74.7986 65.8986 74.408 66.5087 74.1002 67.1708C73.8474 67.6416 73.6146 68.1214 73.4048 68.6134C73.3374 68.762 73.2731 68.9122 73.2103 69.0624C72.9943 69.6496 72.812 70.2476 72.6696 70.8652C72.5552 71.3122 72.473 71.7654 72.4242 72.2249L72.4092 72.3784C72.3908 72.5591 72.377 72.74 72.3694 72.9209C72.4138 72.9471 72.4505 72.973 72.4781 72.999L72.5899 73.039V73.039L72.6803 73.0659C72.8213 73.1097 73.0646 73.2001 73.0065 73.3118L72.7109 73.876V73.876C72.7416 73.9082 72.7554 73.9418 72.7354 73.9787C72.5379 74.3572 72.3387 74.7359 72.1396 75.1147C72.1335 75.1285 72.1228 75.139 72.112 75.1468C72.2821 75.2249 72.4475 75.3107 72.6052 75.4042C72.9131 75.5883 73.1398 75.8013 73.3496 76.0496C73.5702 76.1816 73.7785 76.3257 73.9746 76.4911C74.2166 76.7456 74.428 77.0247 74.6072 77.3265C74.7726 77.6117 74.9074 77.9091 75.0115 78.2202C75.0575 78.3843 75.0789 78.5544 75.0774 78.7276C74.8921 80.0369 73.3956 79.14 73.3665 79.025C73.1613 78.234 72.9254 77.7345 72.3954 77.1458L72.3816 77.1364V77.1364C72.0753 77.0016 71.772 76.8682 71.4549 76.7639C71.4075 76.7731 71.3585 76.7794 71.3094 76.7869C71.3646 76.8653 71.337 76.9419 71.2252 76.9556C70.7427 77.0508 70.2556 77.0767 69.7655 77.0353L69.0211 76.9297V76.9297C68.7123 77.0482 68.4172 77.2003 68.139 77.3816L68.0469 77.443L68.0301 77.4553C67.3117 78.0332 66.7573 78.8012 66.3774 79.6382C66.3437 79.7128 66.3114 79.7881 66.2804 79.8641L66.2349 79.9785L66.2319 79.9847C65.7356 81.9362 66.1783 84.0791 67.085 85.8497C67.5798 86.6422 68.096 87.4194 68.6351 88.1813L69.1589 88.8667V88.8667C69.4683 89.1579 69.7716 89.4567 70.0672 89.7633C70.1132 89.8094 70.1622 89.8553 70.2112 89.8997C70.3674 90.0024 70.5267 90.093 70.6891 90.1697C70.7519 90.191 70.8162 90.2109 70.8806 90.2279C71.193 90.378 71.5208 90.4579 71.8654 90.4671C72.3206 90.4972 72.7624 90.4438 73.1894 90.3081L73.2746 90.2799L73.3374 90.2569C73.5702 90.1082 73.7862 89.9227 73.9914 89.705C74.0374 89.6575 74.1232 89.6575 74.2212 89.6836C74.2748 89.6284 74.3284 89.5701 74.3789 89.5073C74.4142 89.469 74.4693 89.4676 74.5122 89.4966C74.6577 89.4798 75.0514 89.7037 74.9487 89.8215C74.9319 89.8491 74.9104 89.8737 74.8921 89.8997C74.961 89.935 75.0299 89.9748 75.0912 90.0164C75.4128 90.1057 75.888 90.4269 75.8494 90.5236L75.8448 90.5313C75.7703 90.6722 75.6736 90.7904 75.5545 90.8842L75.5139 90.9145L75.4236 90.9774C75.5507 91.0572 75.6579 91.1491 75.6043 91.2135C75.5798 91.261 75.5537 91.3071 75.5231 91.3485C75.7835 91.6704 76.0424 91.9953 76.2997 92.3202C76.557 92.8784 76.8756 93.3994 77.2555 93.8823C77.5725 94.4066 77.9539 94.8773 78.3996 95.2972C78.4364 95.3342 78.4747 95.3694 78.5114 95.4047C78.8398 95.6475 79.1834 95.8749 79.5412 96.0934L79.6954 96.1865C79.7766 96.2354 79.9129 96.2967 79.8486 96.4147C79.841 96.4301 79.8318 96.4425 79.821 96.4515C80.0462 96.5988 80.279 96.7382 80.5195 96.8671L80.5423 96.8811C80.6332 96.9392 80.7563 97.0446 80.6267 97.1306C80.5164 97.2042 80.2239 97.0049 80.086 96.9129C80.06 96.9129 80.0293 96.9054 79.9987 96.8962C80.0447 96.9206 80.0899 96.9472 80.1359 96.9731L80.2055 97.0112C80.2591 97.0432 80.5226 97.218 80.3387 97.2917C80.2484 97.2992 80.1657 97.2762 80.0891 97.2241C79.9987 97.1797 79.9099 97.1323 79.8226 97.0831C79.8532 97.1306 79.8532 97.1781 79.7766 97.2089C79.7506 97.2103 79.7245 97.2089 79.6985 97.2059C79.8792 97.3208 80.0646 97.428 80.256 97.5292L80.287 97.5486C80.3679 97.6011 80.4969 97.7009 80.4031 97.7869C80.2974 97.8817 80.0064 97.6794 79.9313 97.6336L79.7077 97.5001V97.5001C79.6908 97.5077 79.6725 97.5108 79.6526 97.5125C79.7199 97.5539 79.7827 97.5983 79.8517 97.638L79.9454 97.6891C80.0629 97.7541 80.2289 97.8609 80.1687 97.9676C80.1086 98.0732 79.93 97.9863 79.8146 97.9178L79.6905 97.8409C79.6851 97.8375 79.6796 97.8343 79.674 97.8312L79.6692 97.8496C79.6682 97.8526 79.6668 97.8557 79.6648 97.8588C79.6074 97.9588 79.4629 97.8932 79.3633 97.8355L79.2834 97.7869C79.1476 97.705 79.0132 97.6239 78.8796 97.5422L78.6799 97.419H78.6769C77.9861 97.0034 77.3474 96.5896 76.7454 96.0562C76.3855 95.7372 76.05 95.3999 75.7314 95.0397C75.0912 94.3177 74.6148 93.4916 74.1553 92.6484C74.1477 92.6345 74.1584 92.5992 74.1768 92.5609C74.1262 92.4568 74.0772 92.3509 74.0282 92.2421C73.5564 92.374 73.0295 92.4124 72.544 92.3802C72.2836 92.3632 72.0263 92.3172 71.7705 92.2482C70.9541 92.1348 70.1668 91.7622 69.4867 91.3162C69.4438 91.2886 69.4055 91.2579 69.3657 91.2305C69.0854 91.0724 68.8189 90.8886 68.5662 90.6785C68.073 90.2707 67.6027 89.8169 67.1754 89.3433C66.866 88.9755 66.5735 88.5937 66.2993 88.1982C66.0205 87.8073 65.7387 87.4165 65.4568 87.0255C64.6742 85.7991 64.1733 84.3873 63.9788 82.9448C63.8838 82.413 63.8348 81.8748 63.8455 81.3382C63.8532 80.9504 63.8961 80.558 63.9711 80.1672C63.9267 80.1242 63.8823 80.0814 63.8379 80.0369C63.8133 80.0797 63.7888 80.1105 63.7735 80.095L63.4225 79.7432C63.1734 79.492 63.0064 79.3071 62.7197 78.9009C62.2633 78.2524 61.9232 77.5396 61.6705 76.7886C61.4882 76.2521 61.3672 75.6418 61.3198 75.0518C61.3044 74.9535 61.2891 74.8539 61.2769 74.7527C61.1788 73.9541 61.2692 73.1891 61.3902 72.4012C61.3979 72.3492 61.4239 72.317 61.4591 72.3C61.468 72.2376 61.4786 72.1736 61.489 72.1096C60.4744 71.0347 59.7443 69.7392 59.8038 68.1747C59.8225 67.6817 59.9236 67.1958 60.1166 66.742L60.14 66.6908V66.6908C59.2932 66.5605 58.6214 65.9651 58.1167 65.2272C58.072 65.1918 58.0286 65.1561 57.987 65.1205C57.0845 64.3491 56.4588 63.2569 56.0304 62.1032C55.7236 61.4333 55.5203 60.7174 55.4341 59.9749C55.428 59.9218 55.4243 59.8692 55.4195 59.8165C55.21 58.6424 55.1567 57.4565 55.2535 56.2883C55.0432 55.5652 54.8721 54.8294 54.7549 54.0764C54.6998 53.7179 54.6615 53.359 54.6324 53.0003L54.6293 52.9805L54.6247 52.916L54.6118 52.7551C54.6098 52.7284 54.6079 52.7019 54.6064 52.6753C54.3475 49.3917 55.0812 46.1603 56.2943 43.1189C56.4 42.8454 56.5091 42.5726 56.6217 42.302L56.7411 42.0192V42.0192C57.9588 40.054 59.7873 38.4645 61.336 36.7857C61.8704 36.2066 61.0061 35.3371 60.4697 35.9186C59.4407 37.0339 58.3368 38.1022 57.3401 39.2487C57.1641 39.2616 56.9878 39.2664 56.812 39.2576C56.5057 39.2421 56.2085 39.1932 55.9205 39.1149C55.2022 39.0091 54.5482 38.7194 53.9539 38.2932C53.1589 37.9224 52.4804 37.2233 52.413 36.3111C52.4053 36.2192 52.4068 36.1287 52.413 36.0384C52.3395 35.5922 52.4053 35.1248 52.5922 34.6939C52.6243 34.5759 52.6657 34.4594 52.7178 34.3444C52.8694 34.0025 53.1191 33.6746 53.4239 33.4522C53.4316 33.4476 53.4377 33.4447 53.4438 33.4399C53.476 33.4064 53.5066 33.3725 53.5418 33.342C53.5939 33.2943 53.6491 33.25 53.7073 33.2086C53.5005 32.8682 53.3136 32.5188 53.1543 32.1461C52.9812 31.7415 52.8924 31.3308 52.8434 30.8968C52.8235 30.7251 52.8158 30.555 52.8127 30.385C52.8036 30.3066 52.7974 30.2269 52.7913 30.1472C52.753 29.5401 52.8235 28.9103 53.0502 28.3429C53.067 28.3001 53.0885 28.2571 53.1084 28.2126C53.1513 28.0839 53.1987 27.9552 53.2569 27.8294C53.4836 27.3465 53.8053 26.9372 54.202 26.6015C54.4164 26.3854 54.6569 26.1937 54.9188 26.0312C55.0735 25.9347 55.2497 25.8488 55.435 25.7783C55.7658 25.6036 56.1901 25.4441 56.5348 25.432C56.5761 25.4303 56.6129 25.4351 56.6527 25.4351C56.6849 24.555 56.7982 23.5969 57.1459 22.7998C57.3481 22.222 57.6514 21.7085 58.1078 21.3389C58.3725 21.0624 58.6987 20.8378 59.1058 20.691L59.1785 20.6659L59.206 20.6583C59.5721 20.4805 59.9673 20.4099 60.3732 20.4116C60.8465 20.387 61.3289 20.476 61.741 20.6935C61.8267 20.7395 61.9186 20.7962 62.006 20.8576C62.0718 20.7257 62.1453 20.5924 62.2296 20.4592C62.5252 19.9853 62.8821 19.573 63.2956 19.1974C63.3446 19.1529 63.3983 19.1131 63.4503 19.0703C63.651 18.8879 63.8639 18.7193 64.0845 18.566C64.5608 18.2347 65.0831 17.9881 65.6315 17.8285C66.2645 17.5944 66.9325 17.4857 67.6007 17.5085L67.7391 17.5144V17.5144C67.7697 17.5173 67.8003 17.5188 67.8294 17.5204C68.4927 17.5634 69.1467 17.7259 69.7716 17.971C70.4195 18.2272 70.9679 18.6149 71.4779 19.0594C71.5974 18.894 71.7337 18.7375 71.9007 18.5903C71.9482 18.5491 71.9987 18.5122 72.0462 18.4738C72.0829 18.4371 72.1212 18.4018 72.1611 18.3665C72.3433 18.2056 72.5363 18.0661 72.7477 17.9419C72.9851 17.8026 73.2409 17.706 73.5059 17.6462C73.7755 17.5541 74.0588 17.4974 74.3468 17.479ZM71.1994 80.6745C71.2265 80.673 72.6451 81.2054 73.3519 81.5496L73.3866 81.5667C74.2015 81.9714 74.5936 82.2626 75.3257 82.7823C75.3748 82.8175 75.4253 82.8712 75.4253 82.9233C75.4253 83.6802 75.2415 84.6057 74.6058 84.1957C74.5139 84.1364 74.4214 84.0785 74.3281 84.0215L74.1877 83.9366L74.1831 83.9381C74.1846 83.9381 74.1862 83.9366 74.1877 83.9351C72.803 83.0904 71.3403 82.4282 69.7963 81.9545C69.6907 81.9162 70.4733 80.7327 70.6893 80.7986C70.5652 80.7496 71.1787 80.6757 71.1994 80.6745ZM85.7474 47.2433C84.8267 47.3419 83.906 47.4389 82.9853 47.5338C82.3986 47.6013 81.8104 47.6611 81.2223 47.7116C80.3385 47.7777 79.4547 47.7883 78.574 47.6672C78.2615 47.6244 77.9552 47.563 77.6519 47.4878C77.4451 47.6396 77.2307 47.7822 77.0117 47.9187L74.5793 49.7811V49.7811C72.9481 51.0643 71.3521 52.4239 69.9153 53.9247C67.4061 56.5466 65.3624 59.614 64.0775 63.0118C63.9609 63.0806 63.8708 63.2006 63.8408 63.3847C63.6138 64.7774 62.95 66.0476 62.7101 67.4346C62.4739 68.8008 62.7881 69.9621 63.6455 71.045C63.8286 71.2763 64.2035 71.2641 64.4336 71.1079C64.487 71.213 64.7186 71.2086 64.8 70.7441C65.1812 70.331 65.5073 69.8979 65.7282 69.3617C65.8908 68.9668 65.6174 68.693 65.2857 68.6392C65.4235 68.1425 65.579 67.6503 65.7537 67.1633C66.2715 65.716 66.9301 64.3335 67.7587 63.0366C68.4878 61.896 69.3318 60.9026 70.2385 59.9062C70.2493 59.8924 70.2676 59.888 70.2875 59.8849L70.4759 59.6763V59.6763C70.502 59.6471 70.5556 59.6502 70.6153 59.6655C70.672 59.6057 70.7271 59.5444 70.7853 59.4846C70.842 59.4233 70.9048 59.4417 70.94 59.4908C71.0365 59.4693 71.2127 59.5735 71.2663 59.6074C71.3582 59.6686 71.3873 59.7376 71.3092 59.825C71.2954 59.8404 71.2816 59.8558 71.2678 59.8694C71.3735 59.914 71.4777 59.9736 71.5588 60.0321C71.8422 60.0948 72.2404 60.3584 72.1715 60.4367C72.026 60.5884 71.8851 60.7433 71.7457 60.9011C71.8682 60.9871 71.9479 61.0712 71.9157 61.1082C71.3184 61.7381 70.767 62.405 70.2615 63.1116C69.8771 63.6389 69.5294 64.1877 69.2184 64.7595C68.7559 65.5689 68.3637 66.4013 68.016 67.2567C67.967 67.3871 67.9196 67.5173 67.8736 67.6476C67.3651 69.0717 66.9852 70.5494 66.8244 72.0548L66.8177 72.1563C66.7877 72.6986 66.776 74.1505 66.7202 74.4967C67.0587 74.6638 67.411 74.8064 67.7771 74.923C67.846 74.943 67.9165 74.9614 67.9869 74.9782C68.0268 74.9614 68.0681 74.9474 68.1095 74.9352C68.4465 74.7987 68.7987 74.7006 69.1587 74.6531C69.4013 74.621 69.6427 74.6099 69.8839 74.6168L69.9873 74.6209C70.0946 74.624 70.2002 74.6316 70.3075 74.6425C70.3013 74.581 70.2983 74.5214 70.2937 74.4599C70.263 74.44 70.2401 74.4126 70.2385 74.3756C70.1665 73.6858 70.165 72.996 70.2339 72.3062C70.2799 71.9459 70.3335 71.5872 70.3917 71.2287C70.4514 70.9342 70.5204 70.6446 70.5954 70.3547C70.7945 69.5424 71.0595 68.7497 71.3812 67.9742C72.2971 65.762 73.6098 63.7677 74.9301 61.7841C75.8935 60.3356 76.8049 58.8546 77.802 57.4305C78.6506 56.2179 79.542 55.0238 80.4932 53.8894C81.4428 52.7567 82.4461 51.6666 83.529 50.6581C83.7036 50.497 83.8798 50.3406 84.059 50.186C85.0852 49.2662 86.2003 48.5103 87.3613 47.7685C87.4057 47.7394 87.4854 47.7716 87.5512 47.8266L87.7385 47.7114C87.7699 47.6922 87.8014 47.6733 87.8331 47.6549C87.8622 47.6367 87.8943 47.6672 87.9112 47.6933C87.9908 47.6519 88.0705 47.6122 88.1501 47.5721C88.2082 47.5252 88.2681 47.4808 88.3266 47.4345C87.4656 47.3911 86.6059 47.3267 85.7474 47.2433ZM96.5453 37.024C95.8499 36.8846 95.1515 36.8645 94.4499 36.9688C94.156 37.0118 93.8635 37.0637 93.5734 37.1264C94.2321 37.7012 94.7619 38.4369 95.1058 39.2835C95.4774 40.1987 93.9952 40.5931 93.6288 39.6911C93.2754 38.821 92.6066 38.1536 91.7986 37.7535C91.624 37.8511 91.4547 37.9569 91.2931 38.074C91.0818 38.2457 90.8826 38.4312 90.6958 38.6351C90.2883 39.0782 89.9146 39.6698 89.6695 40.2554C89.5746 40.5742 89.5041 40.9023 89.4597 41.2395C89.4505 41.3162 89.4413 41.3944 89.4337 41.4725C89.2826 43.059 89.7359 44.6025 90.5156 45.9684L90.5463 45.9688V45.9688C91.2423 45.5911 91.9709 45.2729 92.7207 45.0136C93.3211 44.6091 93.9445 44.2349 94.5863 43.8961C95.9506 43.1758 97.3916 42.6204 98.8765 42.2407L99.0481 42.1976C99.3978 42.1082 99.7507 42.0294 100.105 41.9605L100.318 41.9203H100.321L100.298 41.6918V41.6918C100.178 40.795 99.8277 39.9626 99.3743 39.1932C99.0343 38.6122 98.5212 38.0175 97.9514 37.5422L97.9483 37.5406C97.6896 37.3934 97.4176 37.2717 97.1377 37.1711L97.0324 37.1343L96.5453 37.024ZM77.8743 35.6613C76.4284 35.5247 74.9825 35.5385 73.5366 35.6566C72.5916 35.7502 71.6526 35.8804 70.7183 36.0459C70.0857 36.1548 69.4654 36.3081 68.8558 36.4983L69.2044 37.204C69.7872 38.3793 70.3841 39.5469 71.0874 40.657C71.4504 41.2288 71.8441 41.7732 72.273 42.2957C72.5624 42.6698 72.881 43.0164 73.2303 43.3351C73.3222 43.4471 73.4202 43.5529 73.5198 43.6555C73.8383 43.9283 74.1814 44.1675 74.5567 44.3652C74.8576 44.5846 75.1718 44.7762 75.4993 44.9442L75.6228 45.0061L76.7715 45.4475C76.8328 45.4648 76.8947 45.4822 76.9569 45.4987L77.0503 45.5227L77.2249 45.5594L77.356 45.4882C77.3779 45.4764 77.4 45.4648 77.4225 45.4536C77.4593 45.4338 77.4853 45.4722 77.493 45.4996C77.496 45.5105 77.4914 45.5256 77.4838 45.541L77.6512 45.4504V45.4504C77.939 45.5673 78.2444 45.6609 78.572 45.7225C78.7203 45.7502 78.8689 45.7715 79.0176 45.7898L79.0375 45.8031C79.0409 45.8054 79.0442 45.808 79.0476 45.8109H79.2103V45.8109C80.3554 45.9215 81.5167 45.7754 82.66 45.5698C84.2777 45.407 85.8952 45.2275 87.5117 45.0596C87.5424 45.0567 87.5546 45.0704 87.5546 45.092L87.6542 45.0828V45.0828C87.7982 45.0673 87.9667 45.308 87.8579 45.3955C87.9452 45.4475 88.0295 45.5227 88.0923 45.581L88.129 45.5778C87.9069 45.1424 87.7354 44.6871 87.6128 44.2136L87.4566 43.4194V43.4194C87.4137 43.1235 87.3892 42.8079 87.3846 42.4966C87.3739 42.354 87.3662 42.2208 87.3662 42.1041C87.3662 41.9938 87.3678 41.8834 87.3724 41.7732C87.0676 41.6473 86.7582 41.5371 86.4426 41.4434C85.5466 41.3332 84.6521 41.2227 83.756 41.1138C83.2184 41.1338 82.6808 41.1721 82.1447 41.2319C81.5366 41.2855 80.9301 41.3545 80.3251 41.4373C80.2684 41.4434 80.1673 41.3668 80.106 41.2779L79.8472 41.3133V41.3133C79.7124 41.3301 79.5715 41.0602 79.7491 41.005C79.8135 40.9795 79.8778 40.9553 79.9421 40.932L80.0386 40.8977L79.9835 40.9038C79.9651 40.9055 79.9421 40.9008 79.9161 40.8917C79.7736 40.91 79.6312 40.9284 79.4903 40.9452C79.3116 40.9675 79.3522 40.7317 79.4775 40.6762L79.5378 40.654C79.4319 40.5879 79.3387 40.4071 79.4697 40.348L79.4872 40.3412C79.5485 40.3169 79.6082 40.2968 79.6695 40.2738C79.6649 40.254 79.6649 40.2355 79.671 40.2188L79.4183 40.2508V40.2508C79.3952 40.2538 79.5051 40.0924 79.5577 40.0605L79.5669 40.0561L79.6879 40.0193C79.7063 39.9672 79.8043 39.8522 79.838 39.8417C80.2822 39.702 80.6957 39.5765 81.1277 39.4797C81.1491 39.4537 81.1736 39.4337 81.2012 39.4276C81.4708 39.3632 81.7434 39.3126 82.016 39.2699C82.0344 39.2421 82.0528 39.2223 82.0742 39.2207C82.7497 39.1348 83.4267 39.1149 84.1068 39.161C84.237 39.1731 84.3672 39.1871 84.4974 39.2038C84.747 39.2315 84.9967 39.2668 85.2448 39.3143C85.8664 39.4211 86.4734 39.5834 87.0646 39.8022L87.2008 39.8538C87.3494 39.9091 87.4964 39.9672 87.6419 40.0302C87.7155 39.7681 87.8074 39.5104 87.9161 39.2576C87.933 39.2084 87.9513 39.161 87.9712 39.1135L87.8227 39.0244V39.0244C87.7905 39.0858 87.7246 39.1333 87.6818 39.1074C86.6172 38.3884 85.4914 37.7889 84.3044 37.3106C83.6396 37.0163 82.9596 36.7666 82.2626 36.5579C81.9149 36.4462 81.5642 36.345 81.2119 36.2484C81.0358 36.2115 80.8596 36.1747 80.6804 36.144C79.7599 35.8957 78.824 35.7349 77.8743 35.6613ZM112.952 38.0945C112.823 38.318 112.688 38.5394 112.546 38.7577C111.853 39.8183 111.023 40.8137 110.081 41.6815C110.327 41.6809 110.572 41.6902 110.814 41.7129C111.231 41.7523 111.639 41.8216 112.038 41.9186C112.07 41.8927 112.106 41.8797 112.135 41.9002L112.239 41.9721V41.9721C113.093 42.2028 113.895 42.5655 114.622 43.0515L114.609 42.9555C114.606 42.9395 114.604 42.9235 114.601 42.9075C114.613 42.719 114.616 42.5303 114.61 42.3432C114.46 41.238 114.085 40.2201 113.656 39.1901C113.648 39.1702 113.654 39.1443 113.666 39.1179C113.45 38.7641 113.213 38.422 112.952 38.0945ZM113.149 29.4052C112.829 29.4635 112.512 29.5386 112.197 29.6321C111.604 29.7212 111.029 29.8775 110.475 30.0997C109.711 30.371 108.969 30.6868 108.231 31.0211C106.797 31.6709 105.453 32.4927 104.229 33.483C104.151 33.5426 104.076 33.6041 104 33.6654C103.726 33.9029 103.46 34.1512 103.207 34.4134C102.942 34.7015 102.676 34.9899 102.411 35.2795C102.086 35.6199 101.712 35.9279 101.418 36.2958C101.358 36.3709 101.306 36.4537 101.259 36.5366L101.432 36.5963V36.5963C101.577 36.6453 101.553 36.9182 101.409 36.8783C101.36 36.8645 101.314 36.8477 101.268 36.8294C101.288 36.8555 101.302 36.8815 101.305 36.9044C101.314 36.978 101.257 37.0793 101.167 37.0532C101.125 37.0423 101.084 37.027 101.043 37.0102C101.031 37.0577 101.021 37.1052 101.021 37.1512C101.029 37.1543 101.037 37.1573 101.046 37.159C101.147 37.1943 101.337 37.352 101.364 37.4595C101.386 37.5422 101.315 37.631 101.225 37.6065C101.158 37.5881 101.092 37.5605 101.027 37.5298C101.07 37.5714 101.104 37.6158 101.107 37.6541C101.113 37.7247 101.052 37.8241 100.968 37.8013C100.811 37.7582 100.686 37.6925 100.582 37.6097C100.554 37.6463 100.514 37.6755 100.482 37.6664L100.422 37.648V37.648C100.439 37.6632 100.454 37.6793 100.468 37.6951L100.49 37.7184C100.913 38.1752 101.282 38.6811 101.577 39.2254C101.591 39.2099 101.608 39.1961 101.629 39.1793C101.767 39.0628 101.91 38.9493 102.052 38.8391L102.095 38.8014V38.8014L102.139 38.7638L101.819 38.8696L101.826 38.8613C101.849 38.8323 101.919 38.7357 101.952 38.7035L101.96 38.6964C102.4 38.3026 102.879 37.9682 103.397 37.6955C103.732 37.4777 104.085 37.2937 104.454 37.142C105.335 36.7327 106.232 36.4217 107.154 36.1335C107.292 36.089 107.43 36.0415 107.568 35.9984C107.608 35.9846 107.615 36.0015 107.609 36.0291L107.681 36.0076V36.0076C107.81 35.9662 108.029 36.1931 107.941 36.2989C107.994 36.3418 108.046 36.3896 108.091 36.4345L108.124 36.4675L108.161 36.4568C108.27 36.423 108.455 36.5937 108.572 36.7146L108.658 36.8063C108.724 36.8768 108.853 37.0224 108.695 37.0793L108.498 37.1466V37.1466C108.504 37.1864 108.487 37.2202 108.426 37.2432C108.357 37.2662 108.289 37.2907 108.222 37.3154C108.263 37.351 108.303 37.3881 108.342 37.4257L108.401 37.4823C108.47 37.5532 108.635 37.7093 108.49 37.7783L108.471 37.7858L108.283 37.8533C108.308 37.9085 108.301 37.9607 108.219 37.9912C107.119 38.3653 106.045 38.8038 104.996 39.3021C104.21 39.7373 103.38 40.0624 102.506 40.2753C102.434 40.2985 102.277 40.1896 102.213 40.0808L102.082 40.1192C102.061 40.1256 102.039 40.1317 102.017 40.1374L101.995 40.1421V40.1421C102.159 40.579 102.28 41.0525 102.348 41.5109C102.355 41.5523 102.362 41.5953 102.366 41.6367C102.538 41.6228 102.708 41.6105 102.879 41.6015C104.066 41.5385 105.267 41.5768 106.457 41.7178C106.938 41.4312 107.401 41.1169 107.843 40.7767C107.978 40.6724 108.112 40.565 108.243 40.4562C109.034 39.7694 109.749 38.9985 110.383 38.166C110.97 37.3949 111.48 36.5671 111.909 35.6996C112.288 34.8855 112.602 34.0393 112.84 33.1655C113.057 32.3669 113.132 31.5897 113.188 30.7634C113.206 30.6285 113.218 30.4938 113.229 30.3587L113.228 30.3009V30.3009L113.226 30.2729C113.211 29.9833 113.181 29.6934 113.149 29.4052ZM101.926 39.6714C101.891 39.6837 101.854 39.6959 101.818 39.7066C101.839 39.7542 101.859 39.8003 101.879 39.8477L101.881 39.8467V39.8467L102.026 39.7327V39.7327C101.995 39.7189 101.96 39.6976 101.926 39.6714ZM112.935 27.2316C113.21 27.1289 113.419 27.1089 113.56 27.1733C113.351 27.1886 113.143 27.2086 112.935 27.2316Z" fill="black" />
  <path fill-rule="evenodd" clip-rule="evenodd" d="M103.785 93.0384C102.756 92.618 101.837 91.9168 101.165 91.021C100.932 90.7096 100.871 90.3808 100.92 90.08C100.975 89.7418 101.175 89.4353 101.448 89.2297C101.721 89.0235 102.063 88.9218 102.394 88.9736C102.682 89.0187 102.968 89.1761 103.194 89.5027L103.241 89.5681C103.641 90.1087 104.161 90.5523 104.754 90.8383C105.325 91.1138 105.964 91.2425 106.626 91.1677C107.885 91.0253 108.754 90.3435 109.676 89.4176C109.791 89.3007 109.905 89.1802 110.02 89.0577C110.093 88.9467 110.194 88.8753 110.306 88.8378C110.43 88.7963 110.57 88.7986 110.699 88.8436C110.823 88.887 110.934 88.9691 111.009 89.0785C111.08 89.1825 111.12 89.3109 111.107 89.4586C111.022 90.4181 110.521 91.2744 109.809 91.9468C109.018 92.6936 107.97 93.2102 106.983 93.3914C105.896 93.591 104.788 93.448 103.785 93.0384V93.0384ZM107.496 78.2364C108.653 78.94 110.415 80.5808 109.171 82.3251C107.706 83.8632 105.598 82.0997 104.558 81.3021C103.595 80.684 102.512 82.2738 103.406 82.9955C110.915 88.5594 113.962 78.4204 108.081 77.4091C107.434 77.2977 107.193 78.0187 107.496 78.2364ZM94.0401 71.7642C94.1679 70.1767 96.5838 69.8162 96.8241 71.3871C97.0393 72.7944 96.786 74.0871 96.1527 75.3541C95.5475 76.5645 94.0264 75.9998 93.9114 74.8976C93.7572 73.4202 93.9606 72.7518 94.0401 71.7642ZM112.43 71.0614C112.767 70.6199 113.253 70.3185 113.836 70.4888C115.656 71.0212 115.12 73.6078 114.481 74.8668C114.133 75.5505 113.01 75.7238 112.503 75.1219C111.676 74.1402 111.28 72.1797 112.331 71.2127C112.36 71.1627 112.391 71.1123 112.43 71.0614ZM96.127 64.8176L96.4145 64.7672C97.3041 64.6133 98.4102 64.4653 99.0395 65.1811C99.3733 65.5606 99.4881 66.2661 99.0395 66.6294C98.2504 67.2686 97.3779 67.0209 96.4323 67.075C95.6529 67.1198 94.9039 67.2489 94.1533 67.4636C92.5064 67.9347 91.1645 68.7947 89.7579 69.739C89.5733 69.8628 89.385 69.6266 89.473 69.4538C90.285 67.8622 91.8585 66.5547 93.4346 65.7578C94.2758 65.3324 95.1963 64.9795 96.127 64.8176ZM110.771 64.1046L110.991 64.1497C113.386 64.6507 116.498 65.6517 117.632 68.0062C117.675 68.3391 117.63 68.4105 117.592 68.4571L117.58 68.4726C117.549 68.5124 117.525 68.5673 117.381 68.6126C117.341 68.603 117.3 68.5929 117.26 68.5822C116.74 68.4459 116.328 68.258 115.93 68.0631L115.498 67.8502C114.997 67.6044 114.492 67.3675 113.956 67.1926C112.813 66.8195 111.638 66.5567 110.444 66.4163C110.185 66.3859 109.936 66.2985 109.739 66.1488C109.553 66.0066 109.41 65.8097 109.345 65.548C109.261 65.2094 109.285 64.953 109.467 64.6475C109.603 64.4181 109.799 64.2591 110.023 64.1678C110.252 64.0747 110.512 64.0527 110.771 64.1046Z" fill="black" />
</svg>