<svg width="25" height="25" viewBox="0 0 25 25" fill="none" xmlns="http://www.w3.org/2000/svg">
  <rect width="25" height="25" fill="white" />
  <path d="M4 1H21.1386L19.1799 4.86873H6.2035L4 1Z" fill="#629E41" />
  <path fill-rule="evenodd" clip-rule="evenodd" d="M12.5693 13.6046L21.1386 1V4.71318C21.1386 6.60525 20.5779 8.45546 19.5265 10.0326L16.0099 15.3076C15.0242 14.5619 13.7926 14.119 12.4566 14.119C11.1882 14.119 10.0139 14.5182 9.0548 15.1967L5.61215 10.0326C4.56073 8.45546 4 6.60525 4 4.71318V1L12.5693 13.6046Z" fill="#336319" />
  <path d="M12.4566 24.1468C10.1027 24.1468 8.19455 22.2564 8.19455 19.9246C8.19455 17.5927 10.1027 15.7023 12.4566 15.7023C14.8104 15.7023 16.7186 17.5927 16.7186 19.9246C16.7186 22.2564 14.8104 24.1468 12.4566 24.1468Z" fill="#FFD600" />
</svg>