<svg width="443" height="239" viewBox="0 0 443 239" fill="none" xmlns="http://www.w3.org/2000/svg">
  <rect width="443" height="239" rx="10" fill="white" />
  <rect x="31" y="31" width="380" height="177" rx="9" fill="#FEFCBF" stroke="#D69E2E" stroke-width="2" />
  <path d="M61.0679 54.408C61.0679 55.3467 60.9132 56.1733 60.6039 56.888C60.2945 57.592 59.8252 58.1413 59.1959 58.536C58.5665 58.9307 57.7665 59.128 56.7959 59.128C55.8359 59.128 55.0359 58.9307 54.3959 58.536C53.7559 58.1413 53.2759 57.5867 52.9559 56.872C52.6465 56.1573 52.4919 55.3307 52.4919 54.392C52.4919 53.464 52.6465 52.648 52.9559 51.944C53.2759 51.24 53.7559 50.6907 54.3959 50.296C55.0359 49.9013 55.8359 49.704 56.7959 49.704C57.7665 49.704 58.5665 49.9013 59.1959 50.296C59.8252 50.6907 60.2945 51.2453 60.6039 51.96C60.9132 52.664 61.0679 53.48 61.0679 54.408ZM53.9639 54.408C53.9639 55.4747 54.1879 56.328 54.6359 56.968C55.0945 57.608 55.8092 57.928 56.7799 57.928C57.7612 57.928 58.4759 57.608 58.9239 56.968C59.3719 56.328 59.5959 55.4747 59.5959 54.408C59.5959 53.2987 59.3612 52.44 58.8919 51.832C58.4225 51.2133 57.7185 50.904 56.7799 50.904C55.8092 50.904 55.0945 51.224 54.6359 51.864C54.1879 52.4933 53.9639 53.3413 53.9639 54.408ZM64.4093 49.848V57.832H68.4893V59H63.0173V49.848H64.4093ZM75.6356 49.848L72.5636 55.448V59H71.1396V55.512L68.0676 49.848H69.6036L71.8596 54.216L74.1316 49.848H75.6356ZM86.2061 49.848V59H84.8941V53.256C84.8941 53.0427 84.8941 52.808 84.8941 52.552C84.9048 52.2853 84.9155 52.04 84.9261 51.816C84.9368 51.592 84.9475 51.4267 84.9581 51.32H84.9101L82.0941 59H80.8781L78.0621 51.304H78.0141C78.0141 51.4107 78.0195 51.5813 78.0301 51.816C78.0408 52.04 78.0515 52.2853 78.0621 52.552C78.0728 52.8187 78.0781 53.0747 78.0781 53.32V59H76.8141V49.848H78.7501L81.5021 57.272H81.5341L84.2701 49.848H86.2061ZM91.2354 49.848C92.3767 49.848 93.23 50.0827 93.7954 50.552C94.3607 51.0213 94.6434 51.704 94.6434 52.6C94.6434 53.5067 94.3447 54.2213 93.7474 54.744C93.15 55.2667 92.2754 55.528 91.1234 55.528H89.9874V59H88.5954V49.848H91.2354ZM89.9874 54.392H90.9794C91.6727 54.392 92.2167 54.2693 92.6114 54.024C93.0167 53.7787 93.2194 53.3307 93.2194 52.68C93.2194 52.1147 93.054 51.6933 92.7234 51.416C92.3927 51.128 91.8807 50.984 91.1874 50.984H89.9874V54.392Z" fill="#B7791F" />
  <path d="M56.576 71.576C58.0693 71.576 59.1573 71.8693 59.84 72.456C60.5227 73.0427 60.864 73.8693 60.864 74.936C60.864 75.5653 60.72 76.1573 60.432 76.712C60.1547 77.256 59.68 77.6987 59.008 78.04C58.3467 78.3813 57.4453 78.552 56.304 78.552H54.992V83H53.552V71.576H56.576ZM56.448 72.808H54.992V77.32H56.144C57.232 77.32 58.0427 77.144 58.576 76.792C59.1093 76.44 59.376 75.8427 59.376 75C59.376 74.264 59.1413 73.7147 58.672 73.352C58.2027 72.9893 57.4613 72.808 56.448 72.808ZM67.0475 74.264C67.2075 74.264 67.3782 74.2747 67.5595 74.296C67.7515 74.3067 67.9168 74.328 68.0555 74.36L67.8795 75.656C67.7408 75.624 67.5862 75.5973 67.4155 75.576C67.2555 75.5547 67.1008 75.544 66.9515 75.544C66.5142 75.544 66.1035 75.6667 65.7195 75.912C65.3355 76.1467 65.0262 76.4827 64.7915 76.92C64.5675 77.3467 64.4555 77.848 64.4555 78.424V83H63.0475V74.424H64.1995L64.3595 75.992H64.4235C64.7008 75.5227 65.0582 75.1173 65.4955 74.776C65.9328 74.4347 66.4502 74.264 67.0475 74.264ZM72.5924 74.28C73.6377 74.28 74.411 74.5093 74.9124 74.968C75.4137 75.4267 75.6644 76.1573 75.6644 77.16V83H74.6404L74.3684 81.784H74.3044C73.931 82.2533 73.5364 82.6 73.1204 82.824C72.715 83.048 72.1497 83.16 71.4244 83.16C70.6457 83.16 70.0004 82.9573 69.4884 82.552C68.9764 82.136 68.7204 81.4907 68.7204 80.616C68.7204 79.7627 69.0564 79.1067 69.7284 78.648C70.4004 78.1787 71.435 77.9227 72.8324 77.88L74.2884 77.832V77.32C74.2884 76.6053 74.1337 76.1093 73.8244 75.832C73.515 75.5547 73.0777 75.416 72.5124 75.416C72.0644 75.416 71.6377 75.4853 71.2324 75.624C70.827 75.752 70.4484 75.9013 70.0964 76.072L69.6644 75.016C70.0377 74.8133 70.4804 74.6427 70.9924 74.504C71.5044 74.3547 72.0377 74.28 72.5924 74.28ZM74.2724 78.808L73.0084 78.856C71.9417 78.8987 71.2004 79.0693 70.7844 79.368C70.379 79.6667 70.1764 80.088 70.1764 80.632C70.1764 81.112 70.3204 81.464 70.6084 81.688C70.907 81.912 71.2857 82.024 71.7444 82.024C72.4697 82.024 73.0724 81.8267 73.5524 81.432C74.0324 81.0267 74.2724 80.408 74.2724 79.576V78.808ZM74.7364 70.744V70.904C74.6084 71.096 74.411 71.3467 74.1444 71.656C73.8777 71.9547 73.5897 72.2587 73.2804 72.568C72.9817 72.8667 72.7044 73.112 72.4484 73.304H71.5204V73.112C71.6804 72.9093 71.851 72.6693 72.0324 72.392C72.2244 72.1147 72.411 71.832 72.5924 71.544C72.7737 71.2453 72.923 70.9787 73.0404 70.744H74.7364ZM80.2011 83L76.9531 74.424H78.4571L80.2811 79.48C80.3665 79.7147 80.4571 79.976 80.5531 80.264C80.6491 80.552 80.7345 80.8293 80.8091 81.096C80.8838 81.352 80.9371 81.5707 80.9691 81.752H81.0331C81.0758 81.5707 81.1345 81.3467 81.2091 81.08C81.2945 80.8133 81.3851 80.536 81.4811 80.248C81.5878 79.96 81.6785 79.704 81.7531 79.48L83.5771 74.424H85.0811L81.8171 83H80.2011ZM89.7501 74.264C90.4861 74.264 91.1155 74.424 91.6381 74.744C92.1715 75.064 92.5768 75.5173 92.8541 76.104C93.1421 76.68 93.2861 77.3573 93.2861 78.136V78.984H87.4141C87.4355 79.9547 87.6808 80.696 88.1501 81.208C88.6301 81.7093 89.2968 81.96 90.1501 81.96C90.6941 81.96 91.1741 81.912 91.5901 81.816C92.0168 81.7093 92.4541 81.56 92.9021 81.368V82.6C92.4648 82.792 92.0328 82.9307 91.6061 83.016C91.1795 83.112 90.6728 83.16 90.0861 83.16C89.2755 83.16 88.5555 82.9947 87.9261 82.664C87.3075 82.3333 86.8221 81.8427 86.4701 81.192C86.1288 80.5307 85.9581 79.7253 85.9581 78.776C85.9581 77.8373 86.1128 77.032 86.4221 76.36C86.7421 75.688 87.1848 75.1707 87.7501 74.808C88.3261 74.4453 88.9928 74.264 89.7501 74.264ZM89.7341 75.416C89.0621 75.416 88.5288 75.6347 88.1341 76.072C87.7501 76.4987 87.5208 77.096 87.4461 77.864H91.8141C91.8035 77.1387 91.6328 76.552 91.3021 76.104C90.9715 75.6453 90.4488 75.416 89.7341 75.416ZM88.9021 73.304C88.7635 73.0587 88.5768 72.7973 88.3421 72.52C88.1075 72.232 87.8621 71.9493 87.6061 71.672C87.3501 71.3947 87.1261 71.1547 86.9341 70.952V70.744H87.8941C88.1715 70.9253 88.4595 71.144 88.7581 71.4C89.0568 71.656 89.3395 71.928 89.6061 72.216C89.8941 71.928 90.1875 71.656 90.4861 71.4C90.7848 71.144 91.0728 70.9253 91.3501 70.744H92.3421V70.952C92.1395 71.1547 91.9048 71.3947 91.6381 71.672C91.3821 71.9493 91.1315 72.232 90.8861 72.52C90.6515 72.7973 90.4701 73.0587 90.3421 73.304H88.9021ZM101.034 70.84V73.8C101.034 74.1627 101.023 74.504 101.002 74.824C100.991 75.1333 100.975 75.3787 100.954 75.56H101.034C101.279 75.1973 101.615 74.8933 102.042 74.648C102.468 74.4027 103.018 74.28 103.69 74.28C104.756 74.28 105.61 74.6533 106.25 75.4C106.9 76.136 107.226 77.24 107.226 78.712C107.226 80.184 106.9 81.2933 106.25 82.04C105.599 82.7867 104.746 83.16 103.69 83.16C103.018 83.16 102.468 83.0373 102.042 82.792C101.615 82.5467 101.279 82.2533 101.034 81.912H100.922L100.634 83H99.6256V70.84H101.034ZM103.45 75.448C102.543 75.448 101.914 75.7093 101.562 76.232C101.21 76.7547 101.034 77.5653 101.034 78.664V78.728C101.034 79.784 101.204 80.5947 101.546 81.16C101.898 81.7147 102.543 81.992 103.482 81.992C104.25 81.992 104.82 81.7093 105.194 81.144C105.578 80.5787 105.77 79.7627 105.77 78.696C105.77 76.5307 104.996 75.448 103.45 75.448ZM107.813 74.424H109.317L111.173 79.304C111.333 79.7307 111.477 80.1413 111.605 80.536C111.733 80.92 111.829 81.288 111.893 81.64H111.957C112.021 81.3733 112.122 81.0267 112.261 80.6C112.4 80.1627 112.544 79.7253 112.693 79.288L114.437 74.424H115.957L112.261 84.184C111.962 84.9947 111.573 85.64 111.093 86.12C110.624 86.6 109.973 86.84 109.141 86.84C108.885 86.84 108.661 86.824 108.469 86.792C108.277 86.7707 108.112 86.744 107.973 86.712V85.592C108.09 85.6133 108.229 85.6347 108.389 85.656C108.56 85.6773 108.736 85.688 108.917 85.688C109.408 85.688 109.802 85.5493 110.101 85.272C110.41 84.9947 110.65 84.6267 110.821 84.168L111.269 83.032L107.813 74.424ZM118.721 83H117.313V70.84H118.721V83ZM128.894 78.696C128.894 80.1147 128.531 81.2133 127.806 81.992C127.091 82.7707 126.121 83.16 124.894 83.16C124.137 83.16 123.459 82.9893 122.862 82.648C122.275 82.296 121.811 81.7893 121.47 81.128C121.129 80.456 120.958 79.6453 120.958 78.696C120.958 77.2773 121.315 76.184 122.03 75.416C122.745 74.648 123.715 74.264 124.942 74.264C125.721 74.264 126.403 74.44 126.99 74.792C127.587 75.1333 128.051 75.6347 128.382 76.296C128.723 76.9467 128.894 77.7467 128.894 78.696ZM122.414 78.696C122.414 79.7093 122.611 80.5147 123.006 81.112C123.411 81.6987 124.051 81.992 124.926 81.992C125.79 81.992 126.425 81.6987 126.83 81.112C127.235 80.5147 127.438 79.7093 127.438 78.696C127.438 77.6827 127.235 76.888 126.83 76.312C126.425 75.736 125.785 75.448 124.91 75.448C124.035 75.448 123.401 75.736 123.006 76.312C122.611 76.888 122.414 77.6827 122.414 78.696ZM140.866 80.632C140.866 81.464 140.557 82.0933 139.938 82.52C139.319 82.9467 138.487 83.16 137.442 83.16C136.845 83.16 136.327 83.112 135.89 83.016C135.463 82.92 135.085 82.7867 134.754 82.616V81.336C135.095 81.5067 135.506 81.6667 135.986 81.816C136.477 81.9547 136.973 82.024 137.474 82.024C138.189 82.024 138.706 81.912 139.026 81.688C139.346 81.4533 139.506 81.144 139.506 80.76C139.506 80.5467 139.447 80.3547 139.33 80.184C139.213 80.0133 138.999 79.8427 138.69 79.672C138.391 79.5013 137.959 79.3093 137.394 79.096C136.839 78.8827 136.365 78.6693 135.97 78.456C135.575 78.2427 135.271 77.9867 135.058 77.688C134.845 77.3893 134.738 77.0053 134.738 76.536C134.738 75.8107 135.031 75.2507 135.618 74.856C136.215 74.4613 136.994 74.264 137.954 74.264C138.477 74.264 138.962 74.3173 139.41 74.424C139.869 74.52 140.295 74.6587 140.69 74.84L140.21 75.96C139.847 75.8107 139.469 75.6827 139.074 75.576C138.679 75.4693 138.274 75.416 137.858 75.416C137.282 75.416 136.839 75.512 136.53 75.704C136.231 75.8853 136.082 76.136 136.082 76.456C136.082 76.6907 136.151 76.8933 136.29 77.064C136.429 77.224 136.658 77.384 136.978 77.544C137.309 77.6933 137.746 77.8747 138.29 78.088C138.834 78.2907 139.298 78.4987 139.682 78.712C140.066 78.9253 140.359 79.1867 140.562 79.496C140.765 79.7947 140.866 80.1733 140.866 80.632ZM145.802 82.008C146.015 82.008 146.234 81.992 146.458 81.96C146.682 81.9173 146.863 81.8747 147.002 81.832V82.904C146.853 82.9787 146.639 83.0373 146.362 83.08C146.085 83.1333 145.818 83.16 145.562 83.16C145.114 83.16 144.698 83.0853 144.314 82.936C143.941 82.776 143.637 82.504 143.402 82.12C143.167 81.736 143.05 81.1973 143.05 80.504V75.512H141.834V74.84L143.066 74.28L143.626 72.456H144.458V74.424H146.938V75.512H144.458V80.472C144.458 80.9947 144.581 81.384 144.826 81.64C145.082 81.8853 145.407 82.008 145.802 82.008ZM151.967 74.28C153.013 74.28 153.786 74.5093 154.287 74.968C154.789 75.4267 155.039 76.1573 155.039 77.16V83H154.015L153.743 81.784H153.679C153.306 82.2533 152.911 82.6 152.495 82.824C152.09 83.048 151.525 83.16 150.799 83.16C150.021 83.16 149.375 82.9573 148.863 82.552C148.351 82.136 148.095 81.4907 148.095 80.616C148.095 79.7627 148.431 79.1067 149.103 78.648C149.775 78.1787 150.81 77.9227 152.207 77.88L153.663 77.832V77.32C153.663 76.6053 153.509 76.1093 153.199 75.832C152.89 75.5547 152.453 75.416 151.887 75.416C151.439 75.416 151.013 75.4853 150.607 75.624C150.202 75.752 149.823 75.9013 149.471 76.072L149.039 75.016C149.413 74.8133 149.855 74.6427 150.367 74.504C150.879 74.3547 151.413 74.28 151.967 74.28ZM153.647 78.808L152.383 78.856C151.317 78.8987 150.575 79.0693 150.159 79.368C149.754 79.6667 149.551 80.088 149.551 80.632C149.551 81.112 149.695 81.464 149.983 81.688C150.282 81.912 150.661 82.024 151.119 82.024C151.845 82.024 152.447 81.8267 152.927 81.432C153.407 81.0267 153.647 80.408 153.647 79.576V78.808ZM161.816 74.264C162.84 74.264 163.613 74.5147 164.136 75.016C164.659 75.5067 164.92 76.3067 164.92 77.416V83H163.528V77.512C163.528 76.136 162.888 75.448 161.608 75.448C160.659 75.448 160.003 75.7147 159.64 76.248C159.277 76.7813 159.096 77.5493 159.096 78.552V83H157.688V74.424H158.824L159.032 75.592H159.112C159.389 75.144 159.773 74.8133 160.264 74.6C160.755 74.376 161.272 74.264 161.816 74.264ZM175.035 78.696C175.035 80.1147 174.672 81.2133 173.947 81.992C173.232 82.7707 172.261 83.16 171.035 83.16C170.277 83.16 169.6 82.9893 169.003 82.648C168.416 82.296 167.952 81.7893 167.611 81.128C167.269 80.456 167.099 79.6453 167.099 78.696C167.099 77.2773 167.456 76.184 168.171 75.416C168.885 74.648 169.856 74.264 171.083 74.264C171.861 74.264 172.544 74.44 173.131 74.792C173.728 75.1333 174.192 75.6347 174.523 76.296C174.864 76.9467 175.035 77.7467 175.035 78.696ZM168.555 78.696C168.555 79.7093 168.752 80.5147 169.147 81.112C169.552 81.6987 170.192 81.992 171.067 81.992C171.931 81.992 172.565 81.6987 172.971 81.112C173.376 80.5147 173.579 79.7093 173.579 78.696C173.579 77.6827 173.376 76.888 172.971 76.312C172.565 75.736 171.925 75.448 171.051 75.448C170.176 75.448 169.541 75.736 169.147 76.312C168.752 76.888 168.555 77.6827 168.555 78.696ZM178.842 83L175.594 74.424H177.098L178.922 79.48C179.007 79.7147 179.098 79.976 179.194 80.264C179.29 80.552 179.375 80.8293 179.45 81.096C179.524 81.352 179.578 81.5707 179.61 81.752H179.674C179.716 81.5707 179.775 81.3467 179.85 81.08C179.935 80.8133 180.026 80.536 180.122 80.248C180.228 79.96 180.319 79.704 180.394 79.48L182.218 74.424H183.722L180.458 83H178.842ZM188.391 74.264C189.127 74.264 189.756 74.424 190.279 74.744C190.812 75.064 191.217 75.5173 191.495 76.104C191.783 76.68 191.927 77.3573 191.927 78.136V78.984H186.055C186.076 79.9547 186.321 80.696 186.791 81.208C187.271 81.7093 187.937 81.96 188.791 81.96C189.335 81.96 189.815 81.912 190.231 81.816C190.657 81.7093 191.095 81.56 191.543 81.368V82.6C191.105 82.792 190.673 82.9307 190.247 83.016C189.82 83.112 189.313 83.16 188.727 83.16C187.916 83.16 187.196 82.9947 186.567 82.664C185.948 82.3333 185.463 81.8427 185.111 81.192C184.769 80.5307 184.599 79.7253 184.599 78.776C184.599 77.8373 184.753 77.032 185.063 76.36C185.383 75.688 185.825 75.1707 186.391 74.808C186.967 74.4453 187.633 74.264 188.391 74.264ZM188.375 75.416C187.703 75.416 187.169 75.6347 186.775 76.072C186.391 76.4987 186.161 77.096 186.087 77.864H190.455C190.444 77.1387 190.273 76.552 189.943 76.104C189.612 75.6453 189.089 75.416 188.375 75.416ZM198.238 74.264C199.262 74.264 200.035 74.5147 200.558 75.016C201.081 75.5067 201.342 76.3067 201.342 77.416V83H199.95V77.512C199.95 76.136 199.31 75.448 198.03 75.448C197.081 75.448 196.425 75.7147 196.062 76.248C195.699 76.7813 195.518 77.5493 195.518 78.552V83H194.11V74.424H195.246L195.454 75.592H195.534C195.811 75.144 196.195 74.8133 196.686 74.6C197.177 74.376 197.694 74.264 198.238 74.264ZM211.457 78.696C211.457 80.1147 211.094 81.2133 210.369 81.992C209.654 82.7707 208.683 83.16 207.457 83.16C206.699 83.16 206.022 82.9893 205.425 82.648C204.838 82.296 204.374 81.7893 204.033 81.128C203.691 80.456 203.521 79.6453 203.521 78.696C203.521 77.2773 203.878 76.184 204.593 75.416C205.307 74.648 206.278 74.264 207.505 74.264C208.283 74.264 208.966 74.44 209.553 74.792C210.15 75.1333 210.614 75.6347 210.945 76.296C211.286 76.9467 211.457 77.7467 211.457 78.696ZM204.977 78.696C204.977 79.7093 205.174 80.5147 205.569 81.112C205.974 81.6987 206.614 81.992 207.489 81.992C208.353 81.992 208.987 81.6987 209.393 81.112C209.798 80.5147 210.001 79.7093 210.001 78.696C210.001 77.6827 209.798 76.888 209.393 76.312C208.987 75.736 208.347 75.448 207.473 75.448C206.598 75.448 205.963 75.736 205.569 76.312C205.174 76.888 204.977 77.6827 204.977 78.696ZM227.252 74.264C228.223 74.264 228.948 74.5147 229.428 75.016C229.908 75.5067 230.148 76.3067 230.148 77.416V83H228.756V77.48C228.756 76.1253 228.175 75.448 227.012 75.448C226.18 75.448 225.583 75.688 225.22 76.168C224.868 76.648 224.692 77.3467 224.692 78.264V83H223.3V77.48C223.3 76.1253 222.714 75.448 221.54 75.448C220.676 75.448 220.079 75.7147 219.748 76.248C219.418 76.7813 219.252 77.5493 219.252 78.552V83H217.844V74.424H218.98L219.188 75.592H219.268C219.535 75.144 219.892 74.8133 220.34 74.6C220.799 74.376 221.284 74.264 221.796 74.264C223.14 74.264 224.015 74.744 224.42 75.704H224.5C224.788 75.2133 225.178 74.8507 225.668 74.616C226.17 74.3813 226.698 74.264 227.252 74.264ZM234.206 83H232.798V74.424H234.206V83ZM235.758 70.744V70.904C235.63 71.096 235.432 71.3467 235.166 71.656C234.899 71.9547 234.611 72.2587 234.302 72.568C234.003 72.8667 233.726 73.112 233.47 73.304H232.542V73.112C232.702 72.9093 232.872 72.6693 233.054 72.392C233.246 72.1147 233.432 71.832 233.614 71.544C233.795 71.2453 233.944 70.9787 234.062 70.744H235.758ZM242.507 80.632C242.507 81.464 242.197 82.0933 241.579 82.52C240.96 82.9467 240.128 83.16 239.083 83.16C238.485 83.16 237.968 83.112 237.531 83.016C237.104 82.92 236.725 82.7867 236.395 82.616V81.336C236.736 81.5067 237.147 81.6667 237.627 81.816C238.117 81.9547 238.613 82.024 239.115 82.024C239.829 82.024 240.347 81.912 240.667 81.688C240.987 81.4533 241.147 81.144 241.147 80.76C241.147 80.5467 241.088 80.3547 240.971 80.184C240.853 80.0133 240.64 79.8427 240.331 79.672C240.032 79.5013 239.6 79.3093 239.035 79.096C238.48 78.8827 238.005 78.6693 237.611 78.456C237.216 78.2427 236.912 77.9867 236.699 77.688C236.485 77.3893 236.379 77.0053 236.379 76.536C236.379 75.8107 236.672 75.2507 237.259 74.856C237.856 74.4613 238.635 74.264 239.595 74.264C240.117 74.264 240.603 74.3173 241.051 74.424C241.509 74.52 241.936 74.6587 242.331 74.84L241.851 75.96C241.488 75.8107 241.109 75.6827 240.715 75.576C240.32 75.4693 239.915 75.416 239.499 75.416C238.923 75.416 238.48 75.512 238.171 75.704C237.872 75.8853 237.723 76.136 237.723 76.456C237.723 76.6907 237.792 76.8933 237.931 77.064C238.069 77.224 238.299 77.384 238.619 77.544C238.949 77.6933 239.387 77.8747 239.931 78.088C240.475 78.2907 240.939 78.4987 241.323 78.712C241.707 78.9253 242 79.1867 242.203 79.496C242.405 79.7947 242.507 80.1733 242.507 80.632ZM247.443 82.008C247.656 82.008 247.875 81.992 248.099 81.96C248.323 81.9173 248.504 81.8747 248.643 81.832V82.904C248.493 82.9787 248.28 83.0373 248.003 83.08C247.725 83.1333 247.459 83.16 247.203 83.16C246.755 83.16 246.339 83.0853 245.955 82.936C245.581 82.776 245.277 82.504 245.043 82.12C244.808 81.736 244.691 81.1973 244.691 80.504V75.512H243.475V74.84L244.707 74.28L245.267 72.456H246.099V74.424H248.579V75.512H246.099V80.472C246.099 80.9947 246.221 81.384 246.467 81.64C246.723 81.8853 247.048 82.008 247.443 82.008ZM257.816 78.696C257.816 80.1147 257.453 81.2133 256.728 81.992C256.013 82.7707 255.043 83.16 253.816 83.16C253.059 83.16 252.381 82.9893 251.784 82.648C251.197 82.296 250.733 81.7893 250.392 81.128C250.051 80.456 249.88 79.6453 249.88 78.696C249.88 77.2773 250.237 76.184 250.952 75.416C251.667 74.648 252.637 74.264 253.864 74.264C254.643 74.264 255.325 74.44 255.912 74.792C256.509 75.1333 256.973 75.6347 257.304 76.296C257.645 76.9467 257.816 77.7467 257.816 78.696ZM251.336 78.696C251.336 79.7093 251.533 80.5147 251.928 81.112C252.333 81.6987 252.973 81.992 253.848 81.992C254.712 81.992 255.347 81.6987 255.752 81.112C256.157 80.5147 256.36 79.7093 256.36 78.696C256.36 77.6827 256.157 76.888 255.752 76.312C255.347 75.736 254.707 75.448 253.832 75.448C252.957 75.448 252.323 75.736 251.928 76.312C251.533 76.888 251.336 77.6827 251.336 78.696ZM265.596 70.84V77.192C265.596 77.3627 265.585 77.5867 265.564 77.864C265.553 78.1413 265.542 78.3813 265.532 78.584H265.596C265.66 78.4987 265.756 78.376 265.884 78.216C266.012 78.056 266.14 77.896 266.268 77.736C266.406 77.5653 266.524 77.4267 266.62 77.32L269.356 74.424H271.004L267.532 78.088L271.244 83H269.548L266.572 79L265.596 79.848V83H264.204V70.84H265.596ZM280.207 78.696C280.207 80.1147 279.844 81.2133 279.119 81.992C278.404 82.7707 277.433 83.16 276.207 83.16C275.449 83.16 274.772 82.9893 274.175 82.648C273.588 82.296 273.124 81.7893 272.783 81.128C272.441 80.456 272.271 79.6453 272.271 78.696C272.271 77.2773 272.628 76.184 273.343 75.416C274.057 74.648 275.028 74.264 276.255 74.264C277.033 74.264 277.716 74.44 278.303 74.792C278.9 75.1333 279.364 75.6347 279.695 76.296C280.036 76.9467 280.207 77.7467 280.207 78.696ZM273.727 78.696C273.727 79.7093 273.924 80.5147 274.319 81.112C274.724 81.6987 275.364 81.992 276.239 81.992C277.103 81.992 277.737 81.6987 278.143 81.112C278.548 80.5147 278.751 79.7093 278.751 78.696C278.751 77.6827 278.548 76.888 278.143 76.312C277.737 75.736 277.097 75.448 276.223 75.448C275.348 75.448 274.713 75.736 274.319 76.312C273.924 76.888 273.727 77.6827 273.727 78.696ZM286.566 74.264C287.59 74.264 288.363 74.5147 288.886 75.016C289.409 75.5067 289.67 76.3067 289.67 77.416V83H288.278V77.512C288.278 76.136 287.638 75.448 286.358 75.448C285.409 75.448 284.753 75.7147 284.39 76.248C284.027 76.7813 283.846 77.5493 283.846 78.552V83H282.438V74.424H283.574L283.782 75.592H283.862C284.139 75.144 284.523 74.8133 285.014 74.6C285.505 74.376 286.022 74.264 286.566 74.264ZM295.577 74.28C296.622 74.28 297.395 74.5093 297.897 74.968C298.398 75.4267 298.649 76.1573 298.649 77.16V83H297.625L297.353 81.784H297.289C296.915 82.2533 296.521 82.6 296.105 82.824C295.699 83.048 295.134 83.16 294.409 83.16C293.63 83.16 292.985 82.9573 292.473 82.552C291.961 82.136 291.705 81.4907 291.705 80.616C291.705 79.7627 292.041 79.1067 292.713 78.648C293.385 78.1787 294.419 77.9227 295.817 77.88L297.273 77.832V77.32C297.273 76.6053 297.118 76.1093 296.809 75.832C296.499 75.5547 296.062 75.416 295.497 75.416C295.049 75.416 294.622 75.4853 294.217 75.624C293.811 75.752 293.433 75.9013 293.081 76.072L292.649 75.016C293.022 74.8133 293.465 74.6427 293.977 74.504C294.489 74.3547 295.022 74.28 295.577 74.28ZM297.257 78.808L295.993 78.856C294.926 78.8987 294.185 79.0693 293.769 79.368C293.363 79.6667 293.161 80.088 293.161 80.632C293.161 81.112 293.305 81.464 293.593 81.688C293.891 81.912 294.27 82.024 294.729 82.024C295.454 82.024 296.057 81.8267 296.537 81.432C297.017 81.0267 297.257 80.408 297.257 79.576V78.808ZM297.721 70.744V70.904C297.593 71.096 297.395 71.3467 297.129 71.656C296.862 71.9547 296.574 72.2587 296.265 72.568C295.966 72.8667 295.689 73.112 295.433 73.304H294.505V73.112C294.665 72.9093 294.835 72.6693 295.017 72.392C295.209 72.1147 295.395 71.832 295.577 71.544C295.758 71.2453 295.907 70.9787 296.025 70.744H297.721ZM305.426 74.264C306.45 74.264 307.223 74.5147 307.746 75.016C308.268 75.5067 308.53 76.3067 308.53 77.416V83H307.138V77.512C307.138 76.136 306.498 75.448 305.218 75.448C304.268 75.448 303.612 75.7147 303.25 76.248C302.887 76.7813 302.706 77.5493 302.706 78.552V83H301.298V74.424H302.434L302.642 75.592H302.722C302.999 75.144 303.383 74.8133 303.874 74.6C304.364 74.376 304.882 74.264 305.426 74.264ZM312.596 83H311.188V74.424H312.596V83ZM314.148 70.744V70.904C314.02 71.096 313.823 71.3467 313.556 71.656C313.289 71.9547 313.001 72.2587 312.692 72.568C312.393 72.8667 312.116 73.112 311.86 73.304H310.932V73.112C311.092 72.9093 311.263 72.6693 311.444 72.392C311.636 72.1147 311.823 71.832 312.004 71.544C312.185 71.2453 312.335 70.9787 312.452 70.744H314.148ZM57.488 98.264C58.512 98.264 59.2853 98.5147 59.808 99.016C60.3307 99.5067 60.592 100.307 60.592 101.416V107H59.2V101.512C59.2 100.136 58.56 99.448 57.28 99.448C56.3307 99.448 55.6747 99.7147 55.312 100.248C54.9493 100.781 54.768 101.549 54.768 102.552V107H53.36V98.424H54.496L54.704 99.592H54.784C55.0613 99.144 55.4453 98.8133 55.936 98.6C56.4267 98.376 56.944 98.264 57.488 98.264ZM66.4986 98.28C67.544 98.28 68.3173 98.5093 68.8186 98.968C69.32 99.4267 69.5706 100.157 69.5706 101.16V107H68.5466L68.2746 105.784H68.2106C67.8373 106.253 67.4426 106.6 67.0266 106.824C66.6213 107.048 66.056 107.16 65.3306 107.16C64.552 107.16 63.9066 106.957 63.3946 106.552C62.8826 106.136 62.6266 105.491 62.6266 104.616C62.6266 103.763 62.9626 103.107 63.6346 102.648C64.3066 102.179 65.3413 101.923 66.7386 101.88L68.1946 101.832V101.32C68.1946 100.605 68.04 100.109 67.7306 99.832C67.4213 99.5547 66.984 99.416 66.4186 99.416C65.9706 99.416 65.544 99.4853 65.1386 99.624C64.7333 99.752 64.3546 99.9013 64.0026 100.072L63.5706 99.016C63.944 98.8133 64.3866 98.6427 64.8986 98.504C65.4106 98.3547 65.944 98.28 66.4986 98.28ZM68.1786 102.808L66.9146 102.856C65.848 102.899 65.1066 103.069 64.6906 103.368C64.2853 103.667 64.0826 104.088 64.0826 104.632C64.0826 105.112 64.2266 105.464 64.5146 105.688C64.8133 105.912 65.192 106.024 65.6506 106.024C66.376 106.024 66.9786 105.827 67.4586 105.432C67.9386 105.027 68.1786 104.408 68.1786 103.576V102.808ZM68.6426 94.744V94.904C68.5146 95.096 68.3173 95.3467 68.0506 95.656C67.784 95.9547 67.496 96.2587 67.1866 96.568C66.888 96.8667 66.6106 97.112 66.3546 97.304H65.4266V97.112C65.5866 96.9093 65.7573 96.6693 65.9386 96.392C66.1306 96.1147 66.3173 95.832 66.4986 95.544C66.68 95.2453 66.8293 94.9787 66.9466 94.744H68.6426ZM77.8034 104.632C77.8034 105.464 77.494 106.093 76.8754 106.52C76.2567 106.947 75.4247 107.16 74.3794 107.16C73.782 107.16 73.2647 107.112 72.8274 107.016C72.4007 106.92 72.022 106.787 71.6914 106.616V105.336C72.0327 105.507 72.4434 105.667 72.9234 105.816C73.414 105.955 73.91 106.024 74.4114 106.024C75.126 106.024 75.6434 105.912 75.9634 105.688C76.2834 105.453 76.4434 105.144 76.4434 104.76C76.4434 104.547 76.3847 104.355 76.2674 104.184C76.15 104.013 75.9367 103.843 75.6274 103.672C75.3287 103.501 74.8967 103.309 74.3314 103.096C73.7767 102.883 73.302 102.669 72.9074 102.456C72.5127 102.243 72.2087 101.987 71.9954 101.688C71.782 101.389 71.6754 101.005 71.6754 100.536C71.6754 99.8107 71.9687 99.2507 72.5554 98.856C73.1527 98.4613 73.9314 98.264 74.8914 98.264C75.414 98.264 75.8994 98.3173 76.3474 98.424C76.806 98.52 77.2327 98.6587 77.6274 98.84L77.1474 99.96C76.7847 99.8107 76.406 99.6827 76.0114 99.576C75.6167 99.4693 75.2114 99.416 74.7954 99.416C74.2194 99.416 73.7767 99.512 73.4674 99.704C73.1687 99.8853 73.0194 100.136 73.0194 100.456C73.0194 100.691 73.0887 100.893 73.2274 101.064C73.366 101.224 73.5954 101.384 73.9154 101.544C74.246 101.693 74.6834 101.875 75.2274 102.088C75.7714 102.291 76.2354 102.499 76.6194 102.712C77.0034 102.925 77.2967 103.187 77.4994 103.496C77.702 103.795 77.8034 104.173 77.8034 104.632ZM81.2836 107H79.8756V94.84H81.2836V107ZM87.3126 98.264C88.0486 98.264 88.678 98.424 89.2006 98.744C89.734 99.064 90.1393 99.5173 90.4166 100.104C90.7046 100.68 90.8486 101.357 90.8486 102.136V102.984H84.9766C84.998 103.955 85.2433 104.696 85.7126 105.208C86.1926 105.709 86.8593 105.96 87.7126 105.96C88.2566 105.96 88.7366 105.912 89.1526 105.816C89.5793 105.709 90.0166 105.56 90.4646 105.368V106.6C90.0273 106.792 89.5953 106.931 89.1686 107.016C88.742 107.112 88.2353 107.16 87.6486 107.16C86.838 107.16 86.118 106.995 85.4886 106.664C84.87 106.333 84.3846 105.843 84.0326 105.192C83.6913 104.531 83.5206 103.725 83.5206 102.776C83.5206 101.837 83.6753 101.032 83.9846 100.36C84.3046 99.688 84.7473 99.1707 85.3126 98.808C85.8886 98.4453 86.5553 98.264 87.3126 98.264ZM87.2966 99.416C86.6246 99.416 86.0913 99.6347 85.6966 100.072C85.3126 100.499 85.0833 101.096 85.0086 101.864H89.3766C89.366 101.139 89.1953 100.552 88.8646 100.104C88.534 99.6453 88.0113 99.416 87.2966 99.416ZM96.0719 107.16C95.0052 107.16 94.1519 106.792 93.5119 106.056C92.8719 105.309 92.5519 104.2 92.5519 102.728C92.5519 101.256 92.8719 100.147 93.5119 99.4C94.1625 98.6427 95.0212 98.264 96.0879 98.264C96.7492 98.264 97.2879 98.3867 97.7039 98.632C98.1305 98.8773 98.4772 99.176 98.7439 99.528H98.8399C98.8292 99.3893 98.8079 99.1867 98.7759 98.92C98.7545 98.6427 98.7439 98.424 98.7439 98.264V94.84H100.152V107H99.0159L98.8079 105.848H98.7439C98.4879 106.211 98.1465 106.52 97.7199 106.776C97.2932 107.032 96.7439 107.16 96.0719 107.16ZM96.2959 105.992C97.2025 105.992 97.8372 105.747 98.1999 105.256C98.5732 104.755 98.7599 104.003 98.7599 103V102.744C98.7599 101.677 98.5839 100.861 98.2319 100.296C97.8799 99.72 97.2292 99.432 96.2799 99.432C95.5225 99.432 94.9519 99.736 94.5679 100.344C94.1945 100.941 94.0079 101.747 94.0079 102.76C94.0079 103.784 94.1945 104.579 94.5679 105.144C94.9519 105.709 95.5279 105.992 96.2959 105.992ZM110.044 98.424V107H108.892L108.684 105.864H108.62C108.342 106.312 107.958 106.643 107.468 106.856C106.977 107.059 106.454 107.16 105.9 107.16C104.865 107.16 104.086 106.915 103.564 106.424C103.041 105.923 102.78 105.128 102.78 104.04V98.424H104.204V103.944C104.204 105.309 104.838 105.992 106.108 105.992C107.057 105.992 107.713 105.725 108.076 105.192C108.449 104.659 108.636 103.891 108.636 102.888V98.424H110.044ZM112.654 96.104C112.654 95.7947 112.734 95.5707 112.894 95.432C113.054 95.2827 113.252 95.208 113.486 95.208C113.7 95.208 113.886 95.2827 114.046 95.432C114.217 95.5707 114.302 95.7947 114.302 96.104C114.302 96.4027 114.217 96.6267 114.046 96.776C113.886 96.9253 113.7 97 113.486 97C113.252 97 113.054 96.9253 112.894 96.776C112.734 96.6267 112.654 96.4027 112.654 96.104ZM111.758 110.84C111.492 110.84 111.257 110.819 111.054 110.776C110.852 110.744 110.676 110.701 110.526 110.648V109.512C110.686 109.555 110.852 109.592 111.022 109.624C111.193 109.656 111.38 109.672 111.582 109.672C111.924 109.672 112.206 109.576 112.43 109.384C112.654 109.203 112.766 108.851 112.766 108.328V98.424H114.174V108.28C114.174 109.08 113.982 109.704 113.598 110.152C113.214 110.611 112.601 110.84 111.758 110.84ZM118.299 107H116.891V98.424H118.299V107ZM119.851 94.744V94.904C119.723 95.096 119.526 95.3467 119.259 95.656C118.993 95.9547 118.705 96.2587 118.395 96.568C118.097 96.8667 117.819 97.112 117.563 97.304H116.635V97.112C116.795 96.9093 116.966 96.6693 117.147 96.392C117.339 96.1147 117.526 95.832 117.707 95.544C117.889 95.2453 118.038 94.9787 118.155 94.744H119.851ZM124.456 107.16C123.699 107.16 123.022 107.005 122.424 106.696C121.838 106.387 121.374 105.907 121.032 105.256C120.702 104.605 120.536 103.773 120.536 102.76C120.536 101.704 120.712 100.845 121.064 100.184C121.416 99.5227 121.891 99.0373 122.488 98.728C123.096 98.4187 123.784 98.264 124.552 98.264C124.99 98.264 125.411 98.312 125.816 98.408C126.222 98.4933 126.552 98.6 126.808 98.728L126.376 99.896C126.12 99.8 125.822 99.7093 125.48 99.624C125.139 99.5387 124.819 99.496 124.52 99.496C122.835 99.496 121.992 100.579 121.992 102.744C121.992 103.779 122.195 104.573 122.6 105.128C123.016 105.672 123.63 105.944 124.44 105.944C124.91 105.944 125.32 105.896 125.672 105.8C126.035 105.704 126.366 105.587 126.664 105.448V106.696C126.376 106.845 126.056 106.957 125.704 107.032C125.363 107.117 124.947 107.16 124.456 107.16ZM130.112 107H128.704V98.424H130.112V107ZM131.664 94.744V94.904C131.536 95.096 131.338 95.3467 131.072 95.656C130.805 95.9547 130.517 96.2587 130.208 96.568C129.909 96.8667 129.632 97.112 129.376 97.304H128.448V97.112C128.608 96.9093 128.778 96.6693 128.96 96.392C129.152 96.1147 129.338 95.832 129.52 95.544C129.701 95.2453 129.85 94.9787 129.968 94.744H131.664ZM134.237 94.84V98.408C134.237 98.8347 134.21 99.2347 134.157 99.608H134.253C134.53 99.1707 134.903 98.84 135.373 98.616C135.853 98.392 136.37 98.28 136.925 98.28C137.97 98.28 138.754 98.5307 139.277 99.032C139.799 99.5227 140.061 100.317 140.061 101.416V107H138.669V101.512C138.669 100.136 138.029 99.448 136.749 99.448C135.789 99.448 135.127 99.72 134.765 100.264C134.413 100.797 134.237 101.565 134.237 102.568V107H132.829V94.84H134.237ZM150.175 102.696C150.175 104.115 149.813 105.213 149.087 105.992C148.373 106.771 147.402 107.16 146.175 107.16C145.418 107.16 144.741 106.989 144.143 106.648C143.557 106.296 143.093 105.789 142.751 105.128C142.41 104.456 142.239 103.645 142.239 102.696C142.239 101.277 142.597 100.184 143.311 99.416C144.026 98.648 144.997 98.264 146.223 98.264C147.002 98.264 147.685 98.44 148.271 98.792C148.869 99.1333 149.333 99.6347 149.663 100.296C150.005 100.947 150.175 101.747 150.175 102.696ZM143.695 102.696C143.695 103.709 143.893 104.515 144.287 105.112C144.693 105.699 145.333 105.992 146.207 105.992C147.071 105.992 147.706 105.699 148.111 105.112C148.517 104.515 148.719 103.709 148.719 102.696C148.719 101.683 148.517 100.888 148.111 100.312C147.706 99.736 147.066 99.448 146.191 99.448C145.317 99.448 144.682 99.736 144.287 100.312C143.893 100.888 143.695 101.683 143.695 102.696ZM163.731 98.424V107H162.579L162.371 105.864H162.307C162.03 106.312 161.646 106.643 161.155 106.856C160.664 107.059 160.142 107.16 159.587 107.16C158.552 107.16 157.774 106.915 157.251 106.424C156.728 105.923 156.467 105.128 156.467 104.04V98.424H157.891V103.944C157.891 105.309 158.526 105.992 159.795 105.992C160.744 105.992 161.4 105.725 161.763 105.192C162.136 104.659 162.323 103.891 162.323 102.888V98.424H163.731ZM162.403 94.744V94.904C162.275 95.096 162.078 95.3467 161.811 95.656C161.544 95.9547 161.256 96.2587 160.947 96.568C160.648 96.8667 160.371 97.112 160.115 97.304H159.187V97.112C159.347 96.9093 159.518 96.6693 159.699 96.392C159.891 96.1147 160.078 95.832 160.259 95.544C160.44 95.2453 160.59 94.9787 160.707 94.744H162.403ZM172.038 104.632C172.038 105.464 171.728 106.093 171.11 106.52C170.491 106.947 169.659 107.16 168.614 107.16C168.016 107.16 167.499 107.112 167.062 107.016C166.635 106.92 166.256 106.787 165.926 106.616V105.336C166.267 105.507 166.678 105.667 167.158 105.816C167.648 105.955 168.144 106.024 168.646 106.024C169.36 106.024 169.878 105.912 170.198 105.688C170.518 105.453 170.678 105.144 170.678 104.76C170.678 104.547 170.619 104.355 170.502 104.184C170.384 104.013 170.171 103.843 169.862 103.672C169.563 103.501 169.131 103.309 168.566 103.096C168.011 102.883 167.536 102.669 167.142 102.456C166.747 102.243 166.443 101.987 166.23 101.688C166.016 101.389 165.91 101.005 165.91 100.536C165.91 99.8107 166.203 99.2507 166.79 98.856C167.387 98.4613 168.166 98.264 169.126 98.264C169.648 98.264 170.134 98.3173 170.582 98.424C171.04 98.52 171.467 98.6587 171.862 98.84L171.382 99.96C171.019 99.8107 170.64 99.6827 170.246 99.576C169.851 99.4693 169.446 99.416 169.03 99.416C168.454 99.416 168.011 99.512 167.702 99.704C167.403 99.8853 167.254 100.136 167.254 100.456C167.254 100.691 167.323 100.893 167.462 101.064C167.6 101.224 167.83 101.384 168.15 101.544C168.48 101.693 168.918 101.875 169.462 102.088C170.006 102.291 170.47 102.499 170.854 102.712C171.238 102.925 171.531 103.187 171.734 103.496C171.936 103.795 172.038 104.173 172.038 104.632ZM176.974 106.008C177.187 106.008 177.406 105.992 177.63 105.96C177.854 105.917 178.035 105.875 178.174 105.832V106.904C178.025 106.979 177.811 107.037 177.534 107.08C177.257 107.133 176.99 107.16 176.734 107.16C176.286 107.16 175.87 107.085 175.486 106.936C175.113 106.776 174.809 106.504 174.574 106.12C174.339 105.736 174.222 105.197 174.222 104.504V99.512H173.006V98.84L174.238 98.28L174.798 96.456H175.63V98.424H178.11V99.512H175.63V104.472C175.63 104.995 175.753 105.384 175.998 105.64C176.254 105.885 176.579 106.008 176.974 106.008ZM183.891 98.264C184.051 98.264 184.222 98.2747 184.403 98.296C184.595 98.3067 184.761 98.328 184.899 98.36L184.723 99.656C184.585 99.624 184.43 99.5973 184.259 99.576C184.099 99.5547 183.945 99.544 183.795 99.544C183.358 99.544 182.947 99.6667 182.563 99.912C182.179 100.147 181.87 100.483 181.635 100.92C181.411 101.347 181.299 101.848 181.299 102.424V107H179.891V98.424H181.043L181.203 99.992H181.267C181.545 99.5227 181.902 99.1173 182.339 98.776C182.777 98.4347 183.294 98.264 183.891 98.264ZM181.635 97.304C181.497 97.0587 181.31 96.7973 181.075 96.52C180.841 96.232 180.595 95.9493 180.339 95.672C180.083 95.3947 179.859 95.1547 179.667 94.952V94.744H180.627C180.905 94.9253 181.193 95.144 181.491 95.4C181.79 95.656 182.073 95.928 182.339 96.216C182.627 95.928 182.921 95.656 183.219 95.4C183.518 95.144 183.806 94.9253 184.083 94.744H185.075V94.952C184.873 95.1547 184.638 95.3947 184.371 95.672C184.115 95.9493 183.865 96.232 183.619 96.52C183.385 96.7973 183.203 97.0587 183.075 97.304H181.635ZM189.5 98.264C190.236 98.264 190.865 98.424 191.388 98.744C191.921 99.064 192.327 99.5173 192.604 100.104C192.892 100.68 193.036 101.357 193.036 102.136V102.984H187.164C187.185 103.955 187.431 104.696 187.9 105.208C188.38 105.709 189.047 105.96 189.9 105.96C190.444 105.96 190.924 105.912 191.34 105.816C191.767 105.709 192.204 105.56 192.652 105.368V106.6C192.215 106.792 191.783 106.931 191.356 107.016C190.929 107.112 190.423 107.16 189.836 107.16C189.025 107.16 188.305 106.995 187.676 106.664C187.057 106.333 186.572 105.843 186.22 105.192C185.879 104.531 185.708 103.725 185.708 102.776C185.708 101.837 185.863 101.032 186.172 100.36C186.492 99.688 186.935 99.1707 187.5 98.808C188.076 98.4453 188.743 98.264 189.5 98.264ZM189.484 99.416C188.812 99.416 188.279 99.6347 187.884 100.072C187.5 100.499 187.271 101.096 187.196 101.864H191.564C191.553 101.139 191.383 100.552 191.052 100.104C190.721 99.6453 190.199 99.416 189.484 99.416ZM198.259 107.16C197.193 107.16 196.339 106.792 195.699 106.056C195.059 105.309 194.739 104.2 194.739 102.728C194.739 101.256 195.059 100.147 195.699 99.4C196.35 98.6427 197.209 98.264 198.275 98.264C198.937 98.264 199.475 98.3867 199.891 98.632C200.318 98.8773 200.665 99.176 200.931 99.528H201.027C201.017 99.3893 200.995 99.1867 200.963 98.92C200.942 98.6427 200.931 98.424 200.931 98.264V94.84H202.339V107H201.203L200.995 105.848H200.931C200.675 106.211 200.334 106.52 199.907 106.776C199.481 107.032 198.931 107.16 198.259 107.16ZM198.483 105.992C199.39 105.992 200.025 105.747 200.387 105.256C200.761 104.755 200.947 104.003 200.947 103V102.744C200.947 101.677 200.771 100.861 200.419 100.296C200.067 99.72 199.417 99.432 198.467 99.432C197.71 99.432 197.139 99.736 196.755 100.344C196.382 100.941 196.195 101.747 196.195 102.76C196.195 103.784 196.382 104.579 196.755 105.144C197.139 105.709 197.715 105.992 198.483 105.992ZM209.191 98.264C210.215 98.264 210.988 98.5147 211.511 99.016C212.034 99.5067 212.295 100.307 212.295 101.416V107H210.903V101.512C210.903 100.136 210.263 99.448 208.983 99.448C208.034 99.448 207.378 99.7147 207.015 100.248C206.652 100.781 206.471 101.549 206.471 102.552V107H205.063V98.424H206.199L206.407 99.592H206.487C206.764 99.144 207.148 98.8133 207.639 98.6C208.13 98.376 208.647 98.264 209.191 98.264ZM216.362 107H214.954V98.424H216.362V107ZM217.914 94.744V94.904C217.786 95.096 217.588 95.3467 217.322 95.656C217.055 95.9547 216.767 96.2587 216.458 96.568C216.159 96.8667 215.882 97.112 215.626 97.304H214.698V97.112C214.858 96.9093 215.028 96.6693 215.21 96.392C215.402 96.1147 215.588 95.832 215.77 95.544C215.951 95.2453 216.1 94.9787 216.218 94.744H217.914ZM220.487 94.84V98.408C220.487 98.8347 220.46 99.2347 220.407 99.608H220.503C220.78 99.1707 221.153 98.84 221.623 98.616C222.103 98.392 222.62 98.28 223.175 98.28C224.22 98.28 225.004 98.5307 225.527 99.032C226.049 99.5227 226.311 100.317 226.311 101.416V107H224.919V101.512C224.919 100.136 224.279 99.448 222.999 99.448C222.039 99.448 221.377 99.72 221.015 100.264C220.663 100.797 220.487 101.565 220.487 102.568V107H219.079V94.84H220.487ZM236.425 102.696C236.425 104.115 236.063 105.213 235.337 105.992C234.623 106.771 233.652 107.16 232.425 107.16C231.668 107.16 230.991 106.989 230.393 106.648C229.807 106.296 229.343 105.789 229.001 105.128C228.66 104.456 228.489 103.645 228.489 102.696C228.489 101.277 228.847 100.184 229.561 99.416C230.276 98.648 231.247 98.264 232.473 98.264C233.252 98.264 233.935 98.44 234.521 98.792C235.119 99.1333 235.583 99.6347 235.913 100.296C236.255 100.947 236.425 101.747 236.425 102.696ZM229.945 102.696C229.945 103.709 230.143 104.515 230.537 105.112C230.943 105.699 231.583 105.992 232.457 105.992C233.321 105.992 233.956 105.699 234.361 105.112C234.767 104.515 234.969 103.709 234.969 102.696C234.969 101.683 234.767 100.888 234.361 100.312C233.956 99.736 233.316 99.448 232.441 99.448C231.567 99.448 230.932 99.736 230.537 100.312C230.143 100.888 229.945 101.683 229.945 102.696ZM245.853 107.16C244.786 107.16 243.933 106.792 243.293 106.056C242.653 105.309 242.333 104.2 242.333 102.728C242.333 101.256 242.653 100.147 243.293 99.4C243.944 98.6427 244.802 98.264 245.869 98.264C246.53 98.264 247.069 98.3867 247.485 98.632C247.912 98.8773 248.258 99.176 248.525 99.528H248.621C248.61 99.3893 248.589 99.1867 248.557 98.92C248.536 98.6427 248.525 98.424 248.525 98.264V94.84H249.933V107H248.797L248.589 105.848H248.525C248.269 106.211 247.928 106.52 247.501 106.776C247.074 107.032 246.525 107.16 245.853 107.16ZM246.077 105.992C246.984 105.992 247.618 105.747 247.981 105.256C248.354 104.755 248.541 104.003 248.541 103V102.744C248.541 101.677 248.365 100.861 248.013 100.296C247.661 99.72 247.01 99.432 246.061 99.432C245.304 99.432 244.733 99.736 244.349 100.344C243.976 100.941 243.789 101.747 243.789 102.76C243.789 103.784 243.976 104.579 244.349 105.144C244.733 105.709 245.309 105.992 246.077 105.992ZM255.969 98.264C256.705 98.264 257.334 98.424 257.857 98.744C258.39 99.064 258.796 99.5173 259.073 100.104C259.361 100.68 259.505 101.357 259.505 102.136V102.984H253.633C253.654 103.955 253.9 104.696 254.369 105.208C254.849 105.709 255.516 105.96 256.369 105.96C256.913 105.96 257.393 105.912 257.809 105.816C258.236 105.709 258.673 105.56 259.121 105.368V106.6C258.684 106.792 258.252 106.931 257.825 107.016C257.398 107.112 256.892 107.16 256.305 107.16C255.494 107.16 254.774 106.995 254.145 106.664C253.526 106.333 253.041 105.843 252.689 105.192C252.348 104.531 252.177 103.725 252.177 102.776C252.177 101.837 252.332 101.032 252.641 100.36C252.961 99.688 253.404 99.1707 253.969 98.808C254.545 98.4453 255.212 98.264 255.969 98.264ZM255.953 99.416C255.281 99.416 254.748 99.6347 254.353 100.072C253.969 100.499 253.74 101.096 253.665 101.864H258.033C258.022 101.139 257.852 100.552 257.521 100.104C257.19 99.6453 256.668 99.416 255.953 99.416ZM263.096 94.84V97.8C263.096 98.1627 263.085 98.504 263.064 98.824C263.053 99.1333 263.037 99.3787 263.016 99.56H263.096C263.341 99.1973 263.677 98.8933 264.104 98.648C264.531 98.4027 265.08 98.28 265.752 98.28C266.819 98.28 267.672 98.6533 268.312 99.4C268.963 100.136 269.288 101.24 269.288 102.712C269.288 104.184 268.963 105.293 268.312 106.04C267.661 106.787 266.808 107.16 265.752 107.16C265.08 107.16 264.531 107.037 264.104 106.792C263.677 106.547 263.341 106.253 263.096 105.912H262.984L262.696 107H261.688V94.84H263.096ZM265.512 99.448C264.605 99.448 263.976 99.7093 263.624 100.232C263.272 100.755 263.096 101.565 263.096 102.664V102.728C263.096 103.784 263.267 104.595 263.608 105.16C263.96 105.715 264.605 105.992 265.544 105.992C266.312 105.992 266.883 105.709 267.256 105.144C267.64 104.579 267.832 103.763 267.832 102.696C267.832 100.531 267.059 99.448 265.512 99.448ZM274.78 98.28C275.825 98.28 276.599 98.5093 277.1 98.968C277.601 99.4267 277.852 100.157 277.852 101.16V107H276.828L276.556 105.784H276.492C276.119 106.253 275.724 106.6 275.308 106.824C274.903 107.048 274.337 107.16 273.612 107.16C272.833 107.16 272.188 106.957 271.676 106.552C271.164 106.136 270.908 105.491 270.908 104.616C270.908 103.763 271.244 103.107 271.916 102.648C272.588 102.179 273.623 101.923 275.02 101.88L276.476 101.832V101.32C276.476 100.605 276.321 100.109 276.012 99.832C275.703 99.5547 275.265 99.416 274.7 99.416C274.252 99.416 273.825 99.4853 273.42 99.624C273.015 99.752 272.636 99.9013 272.284 100.072L271.852 99.016C272.225 98.8133 272.668 98.6427 273.18 98.504C273.692 98.3547 274.225 98.28 274.78 98.28ZM276.46 102.808L275.196 102.856C274.129 102.899 273.388 103.069 272.972 103.368C272.567 103.667 272.364 104.088 272.364 104.632C272.364 105.112 272.508 105.464 272.796 105.688C273.095 105.912 273.473 106.024 273.932 106.024C274.657 106.024 275.26 105.827 275.74 105.432C276.22 105.027 276.46 104.408 276.46 103.576V102.808ZM283.365 106.008C283.578 106.008 283.797 105.992 284.021 105.96C284.245 105.917 284.426 105.875 284.565 105.832V106.904C284.415 106.979 284.202 107.037 283.925 107.08C283.647 107.133 283.381 107.16 283.125 107.16C282.677 107.16 282.261 107.085 281.877 106.936C281.503 106.776 281.199 106.504 280.965 106.12C280.73 105.736 280.613 105.197 280.613 104.504V99.512H279.397V98.84L280.629 98.28L281.189 96.456H282.021V98.424H284.501V99.512H282.021V104.472C282.021 104.995 282.143 105.384 282.389 105.64C282.645 105.885 282.97 106.008 283.365 106.008ZM290.41 98.264C291.434 98.264 292.207 98.5147 292.73 99.016C293.253 99.5067 293.514 100.307 293.514 101.416V107H292.122V101.512C292.122 100.136 291.482 99.448 290.202 99.448C289.253 99.448 288.597 99.7147 288.234 100.248C287.871 100.781 287.69 101.549 287.69 102.552V107H286.282V98.424H287.418L287.626 99.592H287.706C287.983 99.144 288.367 98.8133 288.858 98.6C289.349 98.376 289.866 98.264 290.41 98.264ZM297.581 107H296.173V98.424H297.581V107ZM299.133 94.744V94.904C299.005 95.096 298.807 95.3467 298.541 95.656C298.274 95.9547 297.986 96.2587 297.677 96.568C297.378 96.8667 297.101 97.112 296.845 97.304H295.917V97.112C296.077 96.9093 296.247 96.6693 296.429 96.392C296.621 96.1147 296.807 95.832 296.989 95.544C297.17 95.2453 297.319 94.9787 297.437 94.744H299.133ZM301.706 94.84V98.408C301.706 98.8347 301.679 99.2347 301.626 99.608H301.722C301.999 99.1707 302.372 98.84 302.842 98.616C303.322 98.392 303.839 98.28 304.394 98.28C305.439 98.28 306.223 98.5307 306.746 99.032C307.268 99.5227 307.53 100.317 307.53 101.416V107H306.138V101.512C306.138 100.136 305.498 99.448 304.218 99.448C303.258 99.448 302.596 99.72 302.234 100.264C301.882 100.797 301.706 101.565 301.706 102.568V107H300.298V94.84H301.706ZM317.644 102.696C317.644 104.115 317.281 105.213 316.556 105.992C315.841 106.771 314.871 107.16 313.644 107.16C312.887 107.16 312.209 106.989 311.612 106.648C311.025 106.296 310.561 105.789 310.22 105.128C309.879 104.456 309.708 103.645 309.708 102.696C309.708 101.277 310.065 100.184 310.78 99.416C311.495 98.648 312.465 98.264 313.692 98.264C314.471 98.264 315.153 98.44 315.74 98.792C316.337 99.1333 316.801 99.6347 317.132 100.296C317.473 100.947 317.644 101.747 317.644 102.696ZM311.164 102.696C311.164 103.709 311.361 104.515 311.756 105.112C312.161 105.699 312.801 105.992 313.676 105.992C314.54 105.992 315.175 105.699 315.58 105.112C315.985 104.515 316.188 103.709 316.188 102.696C316.188 101.683 315.985 100.888 315.58 100.312C315.175 99.736 314.535 99.448 313.66 99.448C312.785 99.448 312.151 99.736 311.756 100.312C311.361 100.888 311.164 101.683 311.164 102.696ZM326.896 106.008C327.109 106.008 327.328 105.992 327.552 105.96C327.776 105.917 327.957 105.875 328.096 105.832V106.904C327.947 106.979 327.733 107.037 327.456 107.08C327.179 107.133 326.912 107.16 326.656 107.16C326.208 107.16 325.792 107.085 325.408 106.936C325.035 106.776 324.731 106.504 324.496 106.12C324.261 105.736 324.144 105.197 324.144 104.504V99.512H322.928V98.84L324.16 98.28L324.72 96.456H325.552V98.424H328.032V99.512H325.552V104.472C325.552 104.995 325.675 105.384 325.92 105.64C326.176 105.885 326.501 106.008 326.896 106.008ZM336.981 98.424V107H335.829L335.621 105.864H335.557C335.28 106.312 334.896 106.643 334.405 106.856C333.914 107.059 333.392 107.16 332.837 107.16C331.802 107.16 331.024 106.915 330.501 106.424C329.978 105.923 329.717 105.128 329.717 104.04V98.424H331.141V103.944C331.141 105.309 331.776 105.992 333.045 105.992C333.994 105.992 334.65 105.725 335.013 105.192C335.386 104.659 335.573 103.891 335.573 102.888V98.424H336.981ZM343.704 98.264C343.864 98.264 344.034 98.2747 344.216 98.296C344.408 98.3067 344.573 98.328 344.712 98.36L344.536 99.656C344.397 99.624 344.242 99.5973 344.072 99.576C343.912 99.5547 343.757 99.544 343.608 99.544C343.17 99.544 342.76 99.6667 342.376 99.912C341.992 100.147 341.682 100.483 341.448 100.92C341.224 101.347 341.112 101.848 341.112 102.424V107H339.704V98.424H340.856L341.016 99.992H341.08C341.357 99.5227 341.714 99.1173 342.152 98.776C342.589 98.4347 343.106 98.264 343.704 98.264ZM350.441 98.264C351.465 98.264 352.238 98.5147 352.761 99.016C353.284 99.5067 353.545 100.307 353.545 101.416V107H352.153V101.512C352.153 100.136 351.513 99.448 350.233 99.448C349.284 99.448 348.628 99.7147 348.265 100.248C347.902 100.781 347.721 101.549 347.721 102.552V107H346.313V98.424H347.449L347.657 99.592H347.737C348.014 99.144 348.398 98.8133 348.889 98.6C349.38 98.376 349.897 98.264 350.441 98.264ZM359.452 98.28C360.497 98.28 361.27 98.5093 361.772 98.968C362.273 99.4267 362.524 100.157 362.524 101.16V107H361.5L361.228 105.784H361.164C360.79 106.253 360.396 106.6 359.98 106.824C359.574 107.048 359.009 107.16 358.284 107.16C357.505 107.16 356.86 106.957 356.348 106.552C355.836 106.136 355.58 105.491 355.58 104.616C355.58 103.763 355.916 103.107 356.588 102.648C357.26 102.179 358.294 101.923 359.692 101.88L361.148 101.832V101.32C361.148 100.605 360.993 100.109 360.684 99.832C360.374 99.5547 359.937 99.416 359.372 99.416C358.924 99.416 358.497 99.4853 358.092 99.624C357.686 99.752 357.308 99.9013 356.956 100.072L356.524 99.016C356.897 98.8133 357.34 98.6427 357.852 98.504C358.364 98.3547 358.897 98.28 359.452 98.28ZM361.132 102.808L359.868 102.856C358.801 102.899 358.06 103.069 357.644 103.368C357.238 103.667 357.036 104.088 357.036 104.632C357.036 105.112 357.18 105.464 357.468 105.688C357.766 105.912 358.145 106.024 358.604 106.024C359.329 106.024 359.932 105.827 360.412 105.432C360.892 105.027 361.132 104.408 361.132 103.576V102.808ZM365.061 96.104C365.061 95.7947 365.141 95.5707 365.301 95.432C365.461 95.2827 365.658 95.208 365.893 95.208C366.106 95.208 366.293 95.2827 366.453 95.432C366.623 95.5707 366.709 95.7947 366.709 96.104C366.709 96.4027 366.623 96.6267 366.453 96.776C366.293 96.9253 366.106 97 365.893 97C365.658 97 365.461 96.9253 365.301 96.776C365.141 96.6267 365.061 96.4027 365.061 96.104ZM364.165 110.84C363.898 110.84 363.663 110.819 363.46 110.776C363.258 110.744 363.082 110.701 362.932 110.648V109.512C363.092 109.555 363.258 109.592 363.428 109.624C363.599 109.656 363.786 109.672 363.989 109.672C364.33 109.672 364.613 109.576 364.837 109.384C365.061 109.203 365.173 108.851 365.173 108.328V98.424H366.581V108.28C366.581 109.08 366.389 109.704 366.005 110.152C365.621 110.611 365.007 110.84 364.165 110.84ZM372.61 98.264C373.346 98.264 373.975 98.424 374.498 98.744C375.031 99.064 375.436 99.5173 375.714 100.104C376.002 100.68 376.146 101.357 376.146 102.136V102.984H370.274C370.295 103.955 370.54 104.696 371.01 105.208C371.49 105.709 372.156 105.96 373.01 105.96C373.554 105.96 374.034 105.912 374.45 105.816C374.876 105.709 375.314 105.56 375.762 105.368V106.6C375.324 106.792 374.892 106.931 374.466 107.016C374.039 107.112 373.532 107.16 372.946 107.16C372.135 107.16 371.415 106.995 370.786 106.664C370.167 106.333 369.682 105.843 369.33 105.192C368.988 104.531 368.818 103.725 368.818 102.776C368.818 101.837 368.972 101.032 369.282 100.36C369.602 99.688 370.044 99.1707 370.61 98.808C371.186 98.4453 371.852 98.264 372.61 98.264ZM372.594 99.416C371.922 99.416 371.388 99.6347 370.994 100.072C370.61 100.499 370.38 101.096 370.306 101.864H374.674C374.663 101.139 374.492 100.552 374.162 100.104C373.831 99.6453 373.308 99.416 372.594 99.416ZM378.121 106.136C378.121 105.741 378.217 105.464 378.409 105.304C378.601 105.144 378.83 105.064 379.097 105.064C379.374 105.064 379.609 105.144 379.801 105.304C380.003 105.464 380.105 105.741 380.105 106.136C380.105 106.52 380.003 106.797 379.801 106.968C379.609 107.139 379.374 107.224 379.097 107.224C378.83 107.224 378.601 107.139 378.409 106.968C378.217 106.797 378.121 106.52 378.121 106.136ZM61.904 131H60.208L56.16 125.544L54.992 126.568V131H53.552V119.576H54.992V125.208C55.312 124.845 55.6373 124.483 55.968 124.12C56.2987 123.757 56.6293 123.395 56.96 123.032L60.048 119.576H61.728L57.2 124.552L61.904 131ZM66.5783 122.264C67.3143 122.264 67.9436 122.424 68.4663 122.744C68.9996 123.064 69.4049 123.517 69.6823 124.104C69.9703 124.68 70.1143 125.357 70.1143 126.136V126.984H64.2423C64.2636 127.955 64.5089 128.696 64.9783 129.208C65.4583 129.709 66.1249 129.96 66.9783 129.96C67.5223 129.96 68.0023 129.912 68.4183 129.816C68.8449 129.709 69.2823 129.56 69.7303 129.368V130.6C69.2929 130.792 68.8609 130.931 68.4343 131.016C68.0076 131.112 67.5009 131.16 66.9143 131.16C66.1036 131.16 65.3836 130.995 64.7543 130.664C64.1356 130.333 63.6503 129.843 63.2983 129.192C62.9569 128.531 62.7863 127.725 62.7863 126.776C62.7863 125.837 62.9409 125.032 63.2503 124.36C63.5703 123.688 64.0129 123.171 64.5783 122.808C65.1543 122.445 65.8209 122.264 66.5783 122.264ZM66.5623 123.416C65.8903 123.416 65.3569 123.635 64.9623 124.072C64.5783 124.499 64.3489 125.096 64.2743 125.864H68.6423C68.6316 125.139 68.4609 124.552 68.1303 124.104C67.7996 123.645 67.2769 123.416 66.5623 123.416ZM76.3775 122.264C77.4335 122.264 78.2815 122.632 78.9215 123.368C79.5722 124.104 79.8975 125.213 79.8975 126.696C79.8975 128.157 79.5722 129.267 78.9215 130.024C78.2815 130.781 77.4282 131.16 76.3615 131.16C75.7002 131.16 75.1508 131.037 74.7135 130.792C74.2868 130.536 73.9508 130.243 73.7055 129.912H73.6095C73.6308 130.093 73.6522 130.323 73.6735 130.6C73.6948 130.877 73.7055 131.117 73.7055 131.32V134.84H72.2975V122.424H73.4495L73.6415 123.592H73.7055C73.9615 123.219 74.2975 122.904 74.7135 122.648C75.1295 122.392 75.6842 122.264 76.3775 122.264ZM76.1215 123.448C75.2468 123.448 74.6282 123.693 74.2655 124.184C73.9135 124.675 73.7268 125.421 73.7055 126.424V126.696C73.7055 127.752 73.8762 128.568 74.2175 129.144C74.5695 129.709 75.2148 129.992 76.1535 129.992C76.6762 129.992 77.1028 129.848 77.4335 129.56C77.7748 129.272 78.0255 128.883 78.1855 128.392C78.3562 127.891 78.4415 127.32 78.4415 126.68C78.4415 125.699 78.2495 124.915 77.8655 124.328C77.4922 123.741 76.9108 123.448 76.1215 123.448ZM86.2693 122.264C87.2933 122.264 88.0666 122.515 88.5893 123.016C89.1119 123.507 89.3733 124.307 89.3733 125.416V131H87.9813V125.512C87.9813 124.136 87.3413 123.448 86.0613 123.448C85.1119 123.448 84.4559 123.715 84.0933 124.248C83.7306 124.781 83.5493 125.549 83.5493 126.552V131H82.1413V122.424H83.2773L83.4853 123.592H83.5653C83.8426 123.144 84.2266 122.813 84.7173 122.6C85.2079 122.376 85.7253 122.264 86.2693 122.264ZM95.3439 122.264C96.0799 122.264 96.7092 122.424 97.2319 122.744C97.7652 123.064 98.1705 123.517 98.4479 124.104C98.7359 124.68 98.8799 125.357 98.8799 126.136V126.984H93.0079C93.0292 127.955 93.2745 128.696 93.7439 129.208C94.2239 129.709 94.8905 129.96 95.7439 129.96C96.2879 129.96 96.7679 129.912 97.1839 129.816C97.6105 129.709 98.0479 129.56 98.4959 129.368V130.6C98.0585 130.792 97.6265 130.931 97.1999 131.016C96.7732 131.112 96.2665 131.16 95.6799 131.16C94.8692 131.16 94.1492 130.995 93.5199 130.664C92.9012 130.333 92.4159 129.843 92.0639 129.192C91.7225 128.531 91.5519 127.725 91.5519 126.776C91.5519 125.837 91.7065 125.032 92.0159 124.36C92.3359 123.688 92.7785 123.171 93.3439 122.808C93.9199 122.445 94.5865 122.264 95.3439 122.264ZM95.3279 123.416C94.6559 123.416 94.1225 123.635 93.7279 124.072C93.3439 124.499 93.1145 125.096 93.0399 125.864H97.4079C97.3972 125.139 97.2265 124.552 96.8959 124.104C96.5652 123.645 96.0425 123.416 95.3279 123.416ZM94.4959 121.304C94.3572 121.059 94.1705 120.797 93.9359 120.52C93.7012 120.232 93.4559 119.949 93.1999 119.672C92.9439 119.395 92.7199 119.155 92.5279 118.952V118.744H93.4879C93.7652 118.925 94.0532 119.144 94.3519 119.4C94.6505 119.656 94.9332 119.928 95.1999 120.216C95.4879 119.928 95.7812 119.656 96.0799 119.4C96.3785 119.144 96.6665 118.925 96.9439 118.744H97.9359V118.952C97.7332 119.155 97.4985 119.395 97.2319 119.672C96.9759 119.949 96.7252 120.232 96.4799 120.52C96.2452 120.797 96.0639 121.059 95.9359 121.304H94.4959ZM103.927 130.008C104.14 130.008 104.359 129.992 104.583 129.96C104.807 129.917 104.988 129.875 105.127 129.832V130.904C104.978 130.979 104.764 131.037 104.487 131.08C104.21 131.133 103.943 131.16 103.687 131.16C103.239 131.16 102.823 131.085 102.439 130.936C102.066 130.776 101.762 130.504 101.527 130.12C101.292 129.736 101.175 129.197 101.175 128.504V123.512H99.9591V122.84L101.191 122.28L101.751 120.456H102.583V122.424H105.063V123.512H102.583V128.472C102.583 128.995 102.706 129.384 102.951 129.64C103.207 129.885 103.532 130.008 103.927 130.008ZM110.156 122.264C110.892 122.264 111.522 122.424 112.044 122.744C112.578 123.064 112.983 123.517 113.26 124.104C113.548 124.68 113.692 125.357 113.692 126.136V126.984H107.82C107.842 127.955 108.087 128.696 108.556 129.208C109.036 129.709 109.703 129.96 110.556 129.96C111.1 129.96 111.58 129.912 111.996 129.816C112.423 129.709 112.86 129.56 113.308 129.368V130.6C112.871 130.792 112.439 130.931 112.012 131.016C111.586 131.112 111.079 131.16 110.492 131.16C109.682 131.16 108.962 130.995 108.332 130.664C107.714 130.333 107.228 129.843 106.876 129.192C106.535 128.531 106.364 127.725 106.364 126.776C106.364 125.837 106.519 125.032 106.828 124.36C107.148 123.688 107.591 123.171 108.156 122.808C108.732 122.445 109.399 122.264 110.156 122.264ZM110.14 123.416C109.468 123.416 108.935 123.635 108.54 124.072C108.156 124.499 107.927 125.096 107.852 125.864H112.22C112.21 125.139 112.039 124.552 111.708 124.104C111.378 123.645 110.855 123.416 110.14 123.416ZM124.112 122.264C125.168 122.264 126.016 122.632 126.656 123.368C127.307 124.104 127.632 125.213 127.632 126.696C127.632 128.157 127.307 129.267 126.656 130.024C126.016 130.781 125.163 131.16 124.096 131.16C123.435 131.16 122.885 131.037 122.448 130.792C122.021 130.536 121.685 130.243 121.44 129.912H121.344C121.365 130.093 121.387 130.323 121.408 130.6C121.429 130.877 121.44 131.117 121.44 131.32V134.84H120.032V122.424H121.184L121.376 123.592H121.44C121.696 123.219 122.032 122.904 122.448 122.648C122.864 122.392 123.419 122.264 124.112 122.264ZM123.856 123.448C122.981 123.448 122.363 123.693 122 124.184C121.648 124.675 121.461 125.421 121.44 126.424V126.696C121.44 127.752 121.611 128.568 121.952 129.144C122.304 129.709 122.949 129.992 123.888 129.992C124.411 129.992 124.837 129.848 125.168 129.56C125.509 129.272 125.76 128.883 125.92 128.392C126.091 127.891 126.176 127.32 126.176 126.68C126.176 125.699 125.984 124.915 125.6 124.328C125.227 123.741 124.645 123.448 123.856 123.448ZM133.876 122.264C134.036 122.264 134.206 122.275 134.388 122.296C134.58 122.307 134.745 122.328 134.884 122.36L134.708 123.656C134.569 123.624 134.414 123.597 134.244 123.576C134.084 123.555 133.929 123.544 133.78 123.544C133.342 123.544 132.932 123.667 132.548 123.912C132.164 124.147 131.854 124.483 131.62 124.92C131.396 125.347 131.284 125.848 131.284 126.424V131H129.876V122.424H131.028L131.188 123.992H131.252C131.529 123.523 131.886 123.117 132.324 122.776C132.761 122.435 133.278 122.264 133.876 122.264ZM143.628 126.696C143.628 128.115 143.266 129.213 142.541 129.992C141.826 130.771 140.855 131.16 139.629 131.16C138.871 131.16 138.194 130.989 137.597 130.648C137.01 130.296 136.546 129.789 136.205 129.128C135.863 128.456 135.693 127.645 135.693 126.696C135.693 125.277 136.05 124.184 136.765 123.416C137.479 122.648 138.45 122.264 139.677 122.264C140.455 122.264 141.138 122.44 141.725 122.792C142.322 123.133 142.786 123.635 143.117 124.296C143.458 124.947 143.628 125.747 143.628 126.696ZM137.149 126.696C137.149 127.709 137.346 128.515 137.741 129.112C138.146 129.699 138.786 129.992 139.661 129.992C140.525 129.992 141.159 129.699 141.565 129.112C141.97 128.515 142.173 127.709 142.173 126.696C142.173 125.683 141.97 124.888 141.565 124.312C141.159 123.736 140.519 123.448 139.645 123.448C138.77 123.448 138.135 123.736 137.741 124.312C137.346 124.888 137.149 125.683 137.149 126.696ZM151.904 131L148.656 122.424H150.16L151.984 127.48C152.07 127.715 152.16 127.976 152.256 128.264C152.352 128.552 152.438 128.829 152.512 129.096C152.587 129.352 152.64 129.571 152.672 129.752H152.736C152.779 129.571 152.838 129.347 152.912 129.08C152.998 128.813 153.088 128.536 153.184 128.248C153.291 127.96 153.382 127.704 153.456 127.48L155.28 122.424H156.784L153.52 131H151.904ZM159.549 131H158.141V122.424H159.549V131ZM161.101 118.744V118.904C160.973 119.096 160.776 119.347 160.509 119.656C160.243 119.955 159.955 120.259 159.645 120.568C159.347 120.867 159.069 121.112 158.813 121.304H157.885V121.112C158.045 120.909 158.216 120.669 158.397 120.392C158.589 120.115 158.776 119.832 158.957 119.544C159.139 119.245 159.288 118.979 159.405 118.744H161.101ZM165.706 131.16C164.949 131.16 164.272 131.005 163.674 130.696C163.088 130.387 162.624 129.907 162.282 129.256C161.952 128.605 161.786 127.773 161.786 126.76C161.786 125.704 161.962 124.845 162.314 124.184C162.666 123.523 163.141 123.037 163.738 122.728C164.346 122.419 165.034 122.264 165.802 122.264C166.24 122.264 166.661 122.312 167.066 122.408C167.472 122.493 167.802 122.6 168.058 122.728L167.626 123.896C167.37 123.8 167.072 123.709 166.73 123.624C166.389 123.539 166.069 123.496 165.77 123.496C164.085 123.496 163.242 124.579 163.242 126.744C163.242 127.779 163.445 128.573 163.85 129.128C164.266 129.672 164.88 129.944 165.69 129.944C166.16 129.944 166.57 129.896 166.922 129.8C167.285 129.704 167.616 129.587 167.914 129.448V130.696C167.626 130.845 167.306 130.957 166.954 131.032C166.613 131.117 166.197 131.16 165.706 131.16ZM173.266 122.264C174.002 122.264 174.631 122.424 175.154 122.744C175.687 123.064 176.092 123.517 176.37 124.104C176.658 124.68 176.802 125.357 176.802 126.136V126.984H170.93C170.951 127.955 171.196 128.696 171.666 129.208C172.146 129.709 172.812 129.96 173.666 129.96C174.21 129.96 174.69 129.912 175.106 129.816C175.532 129.709 175.97 129.56 176.418 129.368V130.6C175.98 130.792 175.548 130.931 175.122 131.016C174.695 131.112 174.188 131.16 173.602 131.16C172.791 131.16 172.071 130.995 171.442 130.664C170.823 130.333 170.338 129.843 169.986 129.192C169.644 128.531 169.474 127.725 169.474 126.776C169.474 125.837 169.628 125.032 169.938 124.36C170.258 123.688 170.7 123.171 171.266 122.808C171.842 122.445 172.508 122.264 173.266 122.264ZM173.25 123.416C172.578 123.416 172.044 123.635 171.65 124.072C171.266 124.499 171.036 125.096 170.962 125.864H175.33C175.319 125.139 175.148 124.552 174.818 124.104C174.487 123.645 173.964 123.416 173.25 123.416ZM183.861 119.208C184.075 119.208 184.261 119.283 184.421 119.432C184.592 119.571 184.677 119.795 184.677 120.104C184.677 120.403 184.592 120.627 184.421 120.776C184.261 120.925 184.075 121 183.861 121C183.627 121 183.429 120.925 183.269 120.776C183.109 120.627 183.029 120.403 183.029 120.104C183.029 119.795 183.109 119.571 183.269 119.432C183.429 119.283 183.627 119.208 183.861 119.208ZM184.549 122.424V131H183.141V122.424H184.549ZM191.394 122.264C192.418 122.264 193.192 122.515 193.714 123.016C194.237 123.507 194.498 124.307 194.498 125.416V131H193.106V125.512C193.106 124.136 192.466 123.448 191.186 123.448C190.237 123.448 189.581 123.715 189.218 124.248C188.856 124.781 188.674 125.549 188.674 126.552V131H187.266V122.424H188.402L188.61 123.592H188.69C188.968 123.144 189.352 122.813 189.842 122.6C190.333 122.376 190.85 122.264 191.394 122.264ZM201.109 123.512H198.949V131H197.541V123.512H196.037V122.856L197.541 122.376V121.88C197.541 120.771 197.786 119.976 198.277 119.496C198.768 119.005 199.45 118.76 200.325 118.76C200.666 118.76 200.976 118.792 201.253 118.856C201.541 118.909 201.786 118.973 201.989 119.048L201.621 120.152C201.45 120.099 201.253 120.045 201.029 119.992C200.805 119.939 200.576 119.912 200.341 119.912C199.872 119.912 199.52 120.072 199.285 120.392C199.061 120.701 198.949 121.192 198.949 121.864V122.424H201.109V123.512ZM210.113 126.696C210.113 128.115 209.75 129.213 209.025 129.992C208.31 130.771 207.34 131.16 206.113 131.16C205.356 131.16 204.678 130.989 204.081 130.648C203.494 130.296 203.03 129.789 202.689 129.128C202.348 128.456 202.177 127.645 202.177 126.696C202.177 125.277 202.534 124.184 203.249 123.416C203.964 122.648 204.934 122.264 206.161 122.264C206.94 122.264 207.622 122.44 208.209 122.792C208.806 123.133 209.27 123.635 209.601 124.296C209.942 124.947 210.113 125.747 210.113 126.696ZM203.633 126.696C203.633 127.709 203.83 128.515 204.225 129.112C204.63 129.699 205.27 129.992 206.145 129.992C207.009 129.992 207.644 129.699 208.049 129.112C208.454 128.515 208.657 127.709 208.657 126.696C208.657 125.683 208.454 124.888 208.049 124.312C207.644 123.736 207.004 123.448 206.129 123.448C205.254 123.448 204.62 123.736 204.225 124.312C203.83 124.888 203.633 125.683 203.633 126.696ZM216.344 122.264C216.504 122.264 216.675 122.275 216.856 122.296C217.048 122.307 217.214 122.328 217.352 122.36L217.176 123.656C217.038 123.624 216.883 123.597 216.712 123.576C216.552 123.555 216.398 123.544 216.248 123.544C215.811 123.544 215.4 123.667 215.016 123.912C214.632 124.147 214.323 124.483 214.088 124.92C213.864 125.347 213.752 125.848 213.752 126.424V131H212.344V122.424H213.496L213.656 123.992H213.72C213.998 123.523 214.355 123.117 214.792 122.776C215.23 122.435 215.747 122.264 216.344 122.264ZM228.362 122.264C229.332 122.264 230.058 122.515 230.538 123.016C231.018 123.507 231.258 124.307 231.258 125.416V131H229.866V125.48C229.866 124.125 229.284 123.448 228.122 123.448C227.29 123.448 226.692 123.688 226.33 124.168C225.978 124.648 225.802 125.347 225.802 126.264V131H224.41V125.48C224.41 124.125 223.823 123.448 222.65 123.448C221.786 123.448 221.188 123.715 220.858 124.248C220.527 124.781 220.362 125.549 220.362 126.552V131H218.954V122.424H220.09L220.298 123.592H220.378C220.644 123.144 221.002 122.813 221.45 122.6C221.908 122.376 222.394 122.264 222.906 122.264C224.25 122.264 225.124 122.744 225.53 123.704H225.61C225.898 123.213 226.287 122.851 226.778 122.616C227.279 122.381 227.807 122.264 228.362 122.264ZM237.155 122.28C238.2 122.28 238.974 122.509 239.475 122.968C239.976 123.427 240.227 124.157 240.227 125.16V131H239.203L238.931 129.784H238.867C238.494 130.253 238.099 130.6 237.683 130.824C237.278 131.048 236.712 131.16 235.987 131.16C235.208 131.16 234.563 130.957 234.051 130.552C233.539 130.136 233.283 129.491 233.283 128.616C233.283 127.763 233.619 127.107 234.291 126.648C234.963 126.179 235.998 125.923 237.395 125.88L238.851 125.832V125.32C238.851 124.605 238.696 124.109 238.387 123.832C238.078 123.555 237.64 123.416 237.075 123.416C236.627 123.416 236.2 123.485 235.795 123.624C235.39 123.752 235.011 123.901 234.659 124.072L234.227 123.016C234.6 122.813 235.043 122.643 235.555 122.504C236.067 122.355 236.6 122.28 237.155 122.28ZM238.835 126.808L237.571 126.856C236.504 126.899 235.763 127.069 235.347 127.368C234.942 127.667 234.739 128.088 234.739 128.632C234.739 129.112 234.883 129.464 235.171 129.688C235.47 129.912 235.848 130.024 236.307 130.024C237.032 130.024 237.635 129.827 238.115 129.432C238.595 129.027 238.835 128.408 238.835 127.576V126.808ZM246.316 131.16C245.558 131.16 244.881 131.005 244.284 130.696C243.697 130.387 243.233 129.907 242.892 129.256C242.561 128.605 242.396 127.773 242.396 126.76C242.396 125.704 242.572 124.845 242.924 124.184C243.276 123.523 243.75 123.037 244.348 122.728C244.956 122.419 245.644 122.264 246.412 122.264C246.849 122.264 247.27 122.312 247.676 122.408C248.081 122.493 248.412 122.6 248.668 122.728L248.236 123.896C247.98 123.8 247.681 123.709 247.34 123.624C246.998 123.539 246.678 123.496 246.38 123.496C244.694 123.496 243.852 124.579 243.852 126.744C243.852 127.779 244.054 128.573 244.46 129.128C244.876 129.672 245.489 129.944 246.3 129.944C246.769 129.944 247.18 129.896 247.532 129.8C247.894 129.704 248.225 129.587 248.524 129.448V130.696C248.236 130.845 247.916 130.957 247.564 131.032C247.222 131.117 246.806 131.16 246.316 131.16ZM251.971 131H250.563V122.424H251.971V131ZM253.523 118.744V118.904C253.395 119.096 253.198 119.347 252.931 119.656C252.664 119.955 252.376 120.259 252.067 120.568C251.768 120.867 251.491 121.112 251.235 121.304H250.307V121.112C250.467 120.909 250.638 120.669 250.819 120.392C251.011 120.115 251.198 119.832 251.379 119.544C251.56 119.245 251.71 118.979 251.827 118.744H253.523ZM254.48 130.136C254.48 129.741 254.576 129.464 254.768 129.304C254.96 129.144 255.189 129.064 255.456 129.064C255.733 129.064 255.968 129.144 256.16 129.304C256.363 129.464 256.464 129.741 256.464 130.136C256.464 130.52 256.363 130.797 256.16 130.968C255.968 131.139 255.733 131.224 255.456 131.224C255.189 131.224 254.96 131.139 254.768 130.968C254.576 130.797 254.48 130.52 254.48 130.136Z" fill="black" />
  <path d="M31 153H222.56V208H40C35.0294 208 31 203.971 31 199V153Z" fill="#FFFFF0" stroke="#D69E2E" stroke-width="2" />
  <path d="M112.185 181.272C112.185 182.456 111.982 183.491 111.577 184.376C111.182 185.251 110.595 185.933 109.817 186.424C109.038 186.915 108.073 187.16 106.921 187.16C105.737 187.16 104.75 186.915 103.961 186.424C103.182 185.933 102.601 185.245 102.217 184.36C101.833 183.475 101.641 182.44 101.641 181.256C101.641 180.083 101.833 179.059 102.217 178.184C102.601 177.309 103.182 176.627 103.961 176.136C104.75 175.645 105.742 175.4 106.937 175.4C108.078 175.4 109.038 175.645 109.817 176.136C110.595 176.616 111.182 177.299 111.577 178.184C111.982 179.059 112.185 180.088 112.185 181.272ZM103.161 181.272C103.161 182.712 103.465 183.848 104.073 184.68C104.681 185.501 105.63 185.912 106.921 185.912C108.222 185.912 109.171 185.501 109.769 184.68C110.366 183.848 110.665 182.712 110.665 181.272C110.665 179.832 110.366 178.707 109.769 177.896C109.171 177.075 108.227 176.664 106.937 176.664C105.646 176.664 104.691 177.075 104.073 177.896C103.465 178.707 103.161 179.832 103.161 181.272ZM117.389 186.008C117.602 186.008 117.821 185.992 118.045 185.96C118.269 185.917 118.45 185.875 118.589 185.832V186.904C118.439 186.979 118.226 187.037 117.949 187.08C117.671 187.133 117.405 187.16 117.149 187.16C116.701 187.16 116.285 187.085 115.901 186.936C115.527 186.776 115.223 186.504 114.989 186.12C114.754 185.736 114.637 185.197 114.637 184.504V179.512H113.421V178.84L114.653 178.28L115.213 176.456H116.045V178.424H118.525V179.512H116.045V184.472C116.045 184.995 116.167 185.384 116.413 185.64C116.669 185.885 116.994 186.008 117.389 186.008ZM123.618 178.264C124.354 178.264 124.983 178.424 125.506 178.744C126.039 179.064 126.445 179.517 126.722 180.104C127.01 180.68 127.154 181.357 127.154 182.136V182.984H121.282C121.303 183.955 121.549 184.696 122.018 185.208C122.498 185.709 123.165 185.96 124.018 185.96C124.562 185.96 125.042 185.912 125.458 185.816C125.885 185.709 126.322 185.56 126.77 185.368V186.6C126.333 186.792 125.901 186.931 125.474 187.016C125.047 187.112 124.541 187.16 123.954 187.16C123.143 187.16 122.423 186.995 121.794 186.664C121.175 186.333 120.69 185.843 120.338 185.192C119.997 184.531 119.826 183.725 119.826 182.776C119.826 181.837 119.981 181.032 120.29 180.36C120.61 179.688 121.053 179.171 121.618 178.808C122.194 178.445 122.861 178.264 123.618 178.264ZM123.602 179.416C122.93 179.416 122.397 179.635 122.002 180.072C121.618 180.499 121.389 181.096 121.314 181.864H125.682C125.671 181.139 125.501 180.552 125.17 180.104C124.839 179.645 124.317 179.416 123.602 179.416ZM130.913 187L127.665 178.424H129.169L130.993 183.48C131.078 183.715 131.169 183.976 131.265 184.264C131.361 184.552 131.446 184.829 131.521 185.096C131.595 185.352 131.649 185.571 131.681 185.752H131.745C131.787 185.571 131.846 185.347 131.921 185.08C132.006 184.813 132.097 184.536 132.193 184.248C132.299 183.96 132.39 183.704 132.465 183.48L134.289 178.424H135.793L132.529 187H130.913ZM141.15 178.264C141.31 178.264 141.48 178.275 141.662 178.296C141.854 178.307 142.019 178.328 142.158 178.36L141.982 179.656C141.843 179.624 141.688 179.597 141.518 179.576C141.358 179.555 141.203 179.544 141.054 179.544C140.616 179.544 140.206 179.667 139.822 179.912C139.438 180.147 139.128 180.483 138.894 180.92C138.67 181.347 138.558 181.848 138.558 182.424V187H137.15V178.424H138.302L138.462 179.992H138.526C138.803 179.523 139.16 179.117 139.598 178.776C140.035 178.435 140.552 178.264 141.15 178.264ZM138.894 177.304C138.755 177.059 138.568 176.797 138.334 176.52C138.099 176.232 137.854 175.949 137.598 175.672C137.342 175.395 137.118 175.155 136.926 174.952V174.744H137.886C138.163 174.925 138.451 175.144 138.75 175.4C139.048 175.656 139.331 175.928 139.598 176.216C139.886 175.928 140.179 175.656 140.478 175.4C140.776 175.144 141.064 174.925 141.342 174.744H142.334V174.952C142.131 175.155 141.896 175.395 141.63 175.672C141.374 175.949 141.123 176.232 140.878 176.52C140.643 176.797 140.462 177.059 140.334 177.304H138.894ZM145.167 187H143.759V178.424H145.167V187ZM146.719 174.744V174.904C146.591 175.096 146.394 175.347 146.127 175.656C145.861 175.955 145.573 176.259 145.263 176.568C144.965 176.867 144.687 177.112 144.431 177.304H143.503V177.112C143.663 176.909 143.834 176.669 144.015 176.392C144.207 176.115 144.394 175.832 144.575 175.544C144.757 175.245 144.906 174.979 145.023 174.744H146.719ZM150.748 186.008C150.962 186.008 151.18 185.992 151.404 185.96C151.628 185.917 151.81 185.875 151.948 185.832V186.904C151.799 186.979 151.586 187.037 151.308 187.08C151.031 187.133 150.764 187.16 150.508 187.16C150.06 187.16 149.644 187.085 149.26 186.936C148.887 186.776 148.583 186.504 148.348 186.12C148.114 185.736 147.996 185.197 147.996 184.504V179.512H146.78V178.84L148.012 178.28L148.572 176.456H149.404V178.424H151.884V179.512H149.404V184.472C149.404 184.995 149.527 185.384 149.772 185.64C150.028 185.885 150.354 186.008 150.748 186.008Z" fill="black" />
  <path d="M411 153H222.512V208H402C406.971 208 411 203.971 411 199V153Z" fill="#FFFFF0" stroke="#D69E2E" stroke-width="2" />
  <path d="M243.498 175.576C244.991 175.576 246.079 175.869 246.762 176.456C247.445 177.043 247.786 177.869 247.786 178.936C247.786 179.565 247.642 180.157 247.354 180.712C247.077 181.256 246.602 181.699 245.93 182.04C245.269 182.381 244.367 182.552 243.226 182.552H241.914V187H240.474V175.576H243.498ZM243.37 176.808H241.914V181.32H243.066C244.154 181.32 244.965 181.144 245.498 180.792C246.031 180.44 246.298 179.843 246.298 179C246.298 178.264 246.063 177.715 245.594 177.352C245.125 176.989 244.383 176.808 243.37 176.808ZM253.97 178.264C254.13 178.264 254.3 178.275 254.482 178.296C254.674 178.307 254.839 178.328 254.978 178.36L254.802 179.656C254.663 179.624 254.508 179.597 254.338 179.576C254.178 179.555 254.023 179.544 253.874 179.544C253.436 179.544 253.026 179.667 252.642 179.912C252.258 180.147 251.948 180.483 251.714 180.92C251.49 181.347 251.378 181.848 251.378 182.424V187H249.97V178.424H251.122L251.282 179.992H251.346C251.623 179.523 251.98 179.117 252.418 178.776C252.855 178.435 253.372 178.264 253.97 178.264ZM251.714 177.304C251.575 177.059 251.388 176.797 251.154 176.52C250.919 176.232 250.674 175.949 250.418 175.672C250.162 175.395 249.938 175.155 249.746 174.952V174.744H250.706C250.983 174.925 251.271 175.144 251.57 175.4C251.868 175.656 252.151 175.928 252.418 176.216C252.706 175.928 252.999 175.656 253.298 175.4C253.596 175.144 253.884 174.925 254.162 174.744H255.154V174.952C254.951 175.155 254.716 175.395 254.45 175.672C254.194 175.949 253.943 176.232 253.698 176.52C253.463 176.797 253.282 177.059 253.154 177.304H251.714ZM257.299 175.208C257.512 175.208 257.699 175.283 257.859 175.432C258.03 175.571 258.115 175.795 258.115 176.104C258.115 176.403 258.03 176.627 257.859 176.776C257.699 176.925 257.512 177 257.299 177C257.064 177 256.867 176.925 256.707 176.776C256.547 176.627 256.467 176.403 256.467 176.104C256.467 175.795 256.547 175.571 256.707 175.432C256.867 175.283 257.064 175.208 257.299 175.208ZM257.987 178.424V187H256.579V178.424H257.987ZM264.784 178.264C265.84 178.264 266.688 178.632 267.328 179.368C267.979 180.104 268.304 181.213 268.304 182.696C268.304 184.157 267.979 185.267 267.328 186.024C266.688 186.781 265.835 187.16 264.768 187.16C264.107 187.16 263.557 187.037 263.12 186.792C262.693 186.536 262.357 186.243 262.112 185.912H262.016C262.037 186.093 262.059 186.323 262.08 186.6C262.101 186.877 262.112 187.117 262.112 187.32V190.84H260.704V178.424H261.856L262.048 179.592H262.112C262.368 179.219 262.704 178.904 263.12 178.648C263.536 178.392 264.091 178.264 264.784 178.264ZM264.528 179.448C263.653 179.448 263.035 179.693 262.672 180.184C262.32 180.675 262.133 181.421 262.112 182.424V182.696C262.112 183.752 262.283 184.568 262.624 185.144C262.976 185.709 263.621 185.992 264.56 185.992C265.083 185.992 265.509 185.848 265.84 185.56C266.181 185.272 266.432 184.883 266.592 184.392C266.763 183.891 266.848 183.32 266.848 182.68C266.848 181.699 266.656 180.915 266.272 180.328C265.899 179.741 265.317 179.448 264.528 179.448ZM278.004 182.696C278.004 184.115 277.641 185.213 276.916 185.992C276.201 186.771 275.23 187.16 274.004 187.16C273.246 187.16 272.569 186.989 271.972 186.648C271.385 186.296 270.921 185.789 270.58 185.128C270.238 184.456 270.068 183.645 270.068 182.696C270.068 181.277 270.425 180.184 271.14 179.416C271.854 178.648 272.825 178.264 274.052 178.264C274.83 178.264 275.513 178.44 276.1 178.792C276.697 179.133 277.161 179.635 277.492 180.296C277.833 180.947 278.004 181.747 278.004 182.696ZM271.524 182.696C271.524 183.709 271.721 184.515 272.116 185.112C272.521 185.699 273.161 185.992 274.036 185.992C274.9 185.992 275.534 185.699 275.94 185.112C276.345 184.515 276.548 183.709 276.548 182.696C276.548 181.683 276.345 180.888 275.94 180.312C275.534 179.736 274.894 179.448 274.02 179.448C273.145 179.448 272.51 179.736 272.116 180.312C271.721 180.888 271.524 181.683 271.524 182.696ZM289.643 178.264C290.614 178.264 291.339 178.515 291.819 179.016C292.299 179.507 292.539 180.307 292.539 181.416V187H291.147V181.48C291.147 180.125 290.566 179.448 289.403 179.448C288.571 179.448 287.974 179.688 287.611 180.168C287.259 180.648 287.083 181.347 287.083 182.264V187H285.691V181.48C285.691 180.125 285.105 179.448 283.931 179.448C283.067 179.448 282.47 179.715 282.139 180.248C281.809 180.781 281.643 181.549 281.643 182.552V187H280.235V178.424H281.371L281.579 179.592H281.659C281.926 179.144 282.283 178.813 282.731 178.6C283.19 178.376 283.675 178.264 284.187 178.264C285.531 178.264 286.406 178.744 286.811 179.704H286.891C287.179 179.213 287.569 178.851 288.059 178.616C288.561 178.381 289.089 178.264 289.643 178.264ZM298.5 178.264C299.236 178.264 299.866 178.424 300.388 178.744C300.922 179.064 301.327 179.517 301.604 180.104C301.892 180.68 302.036 181.357 302.036 182.136V182.984H296.164C296.186 183.955 296.431 184.696 296.9 185.208C297.38 185.709 298.047 185.96 298.9 185.96C299.444 185.96 299.924 185.912 300.34 185.816C300.767 185.709 301.204 185.56 301.652 185.368V186.6C301.215 186.792 300.783 186.931 300.356 187.016C299.93 187.112 299.423 187.16 298.836 187.16C298.026 187.16 297.306 186.995 296.676 186.664C296.058 186.333 295.572 185.843 295.22 185.192C294.879 184.531 294.708 183.725 294.708 182.776C294.708 181.837 294.863 181.032 295.172 180.36C295.492 179.688 295.935 179.171 296.5 178.808C297.076 178.445 297.743 178.264 298.5 178.264ZM298.484 179.416C297.812 179.416 297.279 179.635 296.884 180.072C296.5 180.499 296.271 181.096 296.196 181.864H300.564C300.554 181.139 300.383 180.552 300.052 180.104C299.722 179.645 299.199 179.416 298.484 179.416ZM308.348 178.264C309.372 178.264 310.145 178.515 310.668 179.016C311.19 179.507 311.452 180.307 311.452 181.416V187H310.06V181.512C310.06 180.136 309.42 179.448 308.14 179.448C307.19 179.448 306.534 179.715 306.172 180.248C305.809 180.781 305.628 181.549 305.628 182.552V187H304.22V178.424H305.356L305.564 179.592H305.644C305.921 179.144 306.305 178.813 306.796 178.6C307.286 178.376 307.804 178.264 308.348 178.264ZM321.566 182.696C321.566 184.115 321.204 185.213 320.478 185.992C319.764 186.771 318.793 187.16 317.566 187.16C316.809 187.16 316.132 186.989 315.534 186.648C314.948 186.296 314.484 185.789 314.142 185.128C313.801 184.456 313.63 183.645 313.63 182.696C313.63 181.277 313.988 180.184 314.702 179.416C315.417 178.648 316.388 178.264 317.614 178.264C318.393 178.264 319.076 178.44 319.662 178.792C320.26 179.133 320.724 179.635 321.054 180.296C321.396 180.947 321.566 181.747 321.566 182.696ZM315.086 182.696C315.086 183.709 315.284 184.515 315.678 185.112C316.084 185.699 316.724 185.992 317.598 185.992C318.462 185.992 319.097 185.699 319.502 185.112C319.908 184.515 320.11 183.709 320.11 182.696C320.11 181.683 319.908 180.888 319.502 180.312C319.097 179.736 318.457 179.448 317.582 179.448C316.708 179.448 316.073 179.736 315.678 180.312C315.284 180.888 315.086 181.683 315.086 182.696ZM330.966 178.424V187H329.814L329.606 185.864H329.542C329.264 186.312 328.88 186.643 328.39 186.856C327.899 187.059 327.376 187.16 326.822 187.16C325.787 187.16 325.008 186.915 324.486 186.424C323.963 185.923 323.702 185.128 323.702 184.04V178.424H325.126V183.944C325.126 185.309 325.76 185.992 327.03 185.992C327.979 185.992 328.635 185.725 328.998 185.192C329.371 184.659 329.558 183.891 329.558 182.888V178.424H330.966ZM336.552 186.008C336.766 186.008 336.984 185.992 337.208 185.96C337.432 185.917 337.614 185.875 337.752 185.832V186.904C337.603 186.979 337.39 187.037 337.112 187.08C336.835 187.133 336.568 187.16 336.312 187.16C335.864 187.16 335.448 187.085 335.064 186.936C334.691 186.776 334.387 186.504 334.152 186.12C333.918 185.736 333.8 185.197 333.8 184.504V179.512H332.584V178.84L333.816 178.28L334.376 176.456H335.208V178.424H337.688V179.512H335.208V184.472C335.208 184.995 335.331 185.384 335.576 185.64C335.832 185.885 336.158 186.008 336.552 186.008ZM347.706 178.264C348.762 178.264 349.61 178.632 350.25 179.368C350.901 180.104 351.226 181.213 351.226 182.696C351.226 184.157 350.901 185.267 350.25 186.024C349.61 186.781 348.757 187.16 347.69 187.16C347.029 187.16 346.479 187.037 346.042 186.792C345.615 186.536 345.279 186.243 345.034 185.912H344.938C344.959 186.093 344.981 186.323 345.002 186.6C345.023 186.877 345.034 187.117 345.034 187.32V190.84H343.626V178.424H344.778L344.97 179.592H345.034C345.29 179.219 345.626 178.904 346.042 178.648C346.458 178.392 347.013 178.264 347.706 178.264ZM347.45 179.448C346.575 179.448 345.957 179.693 345.594 180.184C345.242 180.675 345.055 181.421 345.034 182.424V182.696C345.034 183.752 345.205 184.568 345.546 185.144C345.898 185.709 346.543 185.992 347.482 185.992C348.005 185.992 348.431 185.848 348.762 185.56C349.103 185.272 349.354 184.883 349.514 184.392C349.685 183.891 349.77 183.32 349.77 182.68C349.77 181.699 349.578 180.915 349.194 180.328C348.821 179.741 348.239 179.448 347.45 179.448ZM360.926 182.696C360.926 184.115 360.563 185.213 359.838 185.992C359.123 186.771 358.152 187.16 356.926 187.16C356.168 187.16 355.491 186.989 354.894 186.648C354.307 186.296 353.843 185.789 353.502 185.128C353.16 184.456 352.99 183.645 352.99 182.696C352.99 181.277 353.347 180.184 354.062 179.416C354.776 178.648 355.747 178.264 356.974 178.264C357.752 178.264 358.435 178.44 359.022 178.792C359.619 179.133 360.083 179.635 360.414 180.296C360.755 180.947 360.926 181.747 360.926 182.696ZM354.446 182.696C354.446 183.709 354.643 184.515 355.038 185.112C355.443 185.699 356.083 185.992 356.958 185.992C357.822 185.992 358.456 185.699 358.862 185.112C359.267 184.515 359.47 183.709 359.47 182.696C359.47 181.683 359.267 180.888 358.862 180.312C358.456 179.736 357.816 179.448 356.942 179.448C356.067 179.448 355.432 179.736 355.038 180.312C354.643 180.888 354.446 181.683 354.446 182.696ZM368.537 187H362.265V186.072L366.873 179.512H362.537V178.424H368.425V179.48L363.881 185.912H368.537V187ZM373.556 187.16C372.49 187.16 371.636 186.792 370.996 186.056C370.356 185.309 370.036 184.2 370.036 182.728C370.036 181.256 370.356 180.147 370.996 179.4C371.647 178.643 372.506 178.264 373.572 178.264C374.234 178.264 374.772 178.387 375.188 178.632C375.615 178.877 375.962 179.176 376.228 179.528H376.324C376.314 179.389 376.292 179.187 376.26 178.92C376.239 178.643 376.228 178.424 376.228 178.264V174.84H377.636V187H376.5L376.292 185.848H376.228C375.972 186.211 375.631 186.52 375.204 186.776C374.778 187.032 374.228 187.16 373.556 187.16ZM373.78 185.992C374.687 185.992 375.322 185.747 375.684 185.256C376.058 184.755 376.244 184.003 376.244 183V182.744C376.244 181.677 376.068 180.861 375.716 180.296C375.364 179.72 374.714 179.432 373.764 179.432C373.007 179.432 372.436 179.736 372.052 180.344C371.679 180.941 371.492 181.747 371.492 182.76C371.492 183.784 371.679 184.579 372.052 185.144C372.436 185.709 373.012 185.992 373.78 185.992ZM383.672 178.264C384.408 178.264 385.038 178.424 385.56 178.744C386.094 179.064 386.499 179.517 386.776 180.104C387.064 180.68 387.208 181.357 387.208 182.136V182.984H381.336C381.358 183.955 381.603 184.696 382.072 185.208C382.552 185.709 383.219 185.96 384.072 185.96C384.616 185.96 385.096 185.912 385.512 185.816C385.939 185.709 386.376 185.56 386.824 185.368V186.6C386.387 186.792 385.955 186.931 385.528 187.016C385.102 187.112 384.595 187.16 384.008 187.16C383.198 187.16 382.478 186.995 381.848 186.664C381.23 186.333 380.744 185.843 380.392 185.192C380.051 184.531 379.88 183.725 379.88 182.776C379.88 181.837 380.035 181.032 380.344 180.36C380.664 179.688 381.107 179.171 381.672 178.808C382.248 178.445 382.915 178.264 383.672 178.264ZM383.656 179.416C382.984 179.416 382.451 179.635 382.056 180.072C381.672 180.499 381.443 181.096 381.368 181.864H385.736C385.726 181.139 385.555 180.552 385.224 180.104C384.894 179.645 384.371 179.416 383.656 179.416ZM382.824 177.304C382.686 177.059 382.499 176.797 382.264 176.52C382.03 176.232 381.784 175.949 381.528 175.672C381.272 175.395 381.048 175.155 380.856 174.952V174.744H381.816C382.094 174.925 382.382 175.144 382.68 175.4C382.979 175.656 383.262 175.928 383.528 176.216C383.816 175.928 384.11 175.656 384.408 175.4C384.707 175.144 384.995 174.925 385.272 174.744H386.264V174.952C386.062 175.155 385.827 175.395 385.56 175.672C385.304 175.949 385.054 176.232 384.808 176.52C384.574 176.797 384.392 177.059 384.264 177.304H382.824ZM389.279 176.104C389.279 175.795 389.359 175.571 389.519 175.432C389.679 175.283 389.877 175.208 390.111 175.208C390.325 175.208 390.511 175.283 390.671 175.432C390.842 175.571 390.927 175.795 390.927 176.104C390.927 176.403 390.842 176.627 390.671 176.776C390.511 176.925 390.325 177 390.111 177C389.877 177 389.679 176.925 389.519 176.776C389.359 176.627 389.279 176.403 389.279 176.104ZM388.383 190.84C388.117 190.84 387.882 190.819 387.679 190.776C387.477 190.744 387.301 190.701 387.151 190.648V189.512C387.311 189.555 387.477 189.592 387.647 189.624C387.818 189.656 388.005 189.672 388.207 189.672C388.549 189.672 388.831 189.576 389.055 189.384C389.279 189.203 389.391 188.851 389.391 188.328V178.424H390.799V188.28C390.799 189.08 390.607 189.704 390.223 190.152C389.839 190.611 389.226 190.84 388.383 190.84ZM394.236 175.208C394.45 175.208 394.636 175.283 394.796 175.432C394.967 175.571 395.052 175.795 395.052 176.104C395.052 176.403 394.967 176.627 394.796 176.776C394.636 176.925 394.45 177 394.236 177C394.002 177 393.804 176.925 393.644 176.776C393.484 176.627 393.404 176.403 393.404 176.104C393.404 175.795 393.484 175.571 393.644 175.432C393.804 175.283 394.002 175.208 394.236 175.208ZM394.924 178.424V187H393.516V178.424H394.924Z" fill="black" />
</svg>