<svg fill="none" height="239" viewBox="0 0 443 239" width="443" xmlns="http://www.w3.org/2000/svg"><rect fill="#fff" height="239" rx="10" width="443"/><rect fill="#fefcbf" height="177" rx="9" stroke="#d69e2e" stroke-width="2" width="380" x="31" y="31"/><path d="m61.0679 54.408c0 .9387-.1547 1.7653-.464 2.48-.3094.704-.7787 1.2533-1.408 1.648-.6294.3947-1.4294.592-2.4.592-.96 0-1.76-.1973-2.4-.592s-1.12-.9493-1.44-1.664c-.3094-.7147-.464-1.5413-.464-2.48 0-.928.1546-1.744.464-2.448.32-.704.8-1.2533 1.44-1.648s1.44-.592 2.4-.592c.9706 0 1.7706.1973 2.4.592.6293.3947 1.0986.9493 1.408 1.664.3093.704.464 1.52.464 2.448zm-7.104 0c0 1.0667.224 1.92.672 2.56.4586.64 1.1733.96 2.144.96.9813 0 1.696-.32 2.144-.96s.672-1.4933.672-2.56c0-1.1093-.2347-1.968-.704-2.576-.4694-.6187-1.1734-.928-2.112-.928-.9707 0-1.6854.32-2.144.96-.448.6293-.672 1.4773-.672 2.544zm10.4454-4.56v7.984h4.08v1.168h-5.472v-9.152zm11.2263 0-3.072 5.6v3.552h-1.424v-3.488l-3.072-5.664h1.536l2.256 4.368 2.272-4.368zm10.5705 0v9.152h-1.312v-5.744c0-.2133 0-.448 0-.704.0107-.2667.0214-.512.032-.736.0107-.224.0214-.3893.032-.496h-.048l-2.816 7.68h-1.216l-2.816-7.696h-.048c0 .1067.0054.2773.016.512.0107.224.0214.4693.032.736.0107.2667.016.5227.016.768v5.68h-1.264v-9.152h1.936l2.752 7.424h.032l2.736-7.424zm5.0293 0c1.1413 0 1.9946.2347 2.56.704.5653.4693.848 1.152.848 2.048 0 .9067-.2987 1.6213-.896 2.144-.5974.5227-1.472.784-2.624.784h-1.136v3.472h-1.392v-9.152zm-1.248 4.544h.992c.6933 0 1.2373-.1227 1.632-.368.4053-.2453.608-.6933.608-1.344 0-.5653-.1654-.9867-.496-1.264-.3307-.288-.8427-.432-1.536-.432h-1.2z" fill="#b7791f"/><path d="m56.576 71.576c1.4933 0 2.5813.2933 3.264.88s1.024 1.4133 1.024 2.48c0 .6293-.144 1.2213-.432 1.776-.2773.544-.752.9867-1.424 1.328-.6613.3413-1.5627.512-2.704.512h-1.312v4.448h-1.44v-11.424zm-.128 1.232h-1.456v4.512h1.152c1.088 0 1.8987-.176 2.432-.528s.8-.9493.8-1.792c0-.736-.2347-1.2853-.704-1.648s-1.2107-.544-2.224-.544zm10.5995 1.456c.16 0 .3307.0107.512.032.192.0107.3573.032.496.064l-.176 1.296c-.1387-.032-.2933-.0587-.464-.08-.16-.0213-.3147-.032-.464-.032-.4373 0-.848.1227-1.232.368-.384.2347-.6933.5707-.928 1.008-.224.4267-.336.928-.336 1.504v4.576h-1.408v-8.576h1.152l.16 1.568h.064c.2773-.4693.6347-.8747 1.072-1.216s.9547-.512 1.552-.512zm5.5449.016c1.0453 0 1.8186.2293 2.32.688.5013.4587.752 1.1893.752 2.192v5.84h-1.024l-.272-1.216h-.064c-.3734.4693-.768.816-1.184 1.04-.4054.224-.9707.336-1.696.336-.7787 0-1.424-.2027-1.936-.608-.512-.416-.768-1.0613-.768-1.936 0-.8533.336-1.5093 1.008-1.968.672-.4693 1.7066-.7253 3.104-.768l1.456-.048v-.512c0-.7147-.1547-1.2107-.464-1.488-.3094-.2773-.7467-.416-1.312-.416-.448 0-.8747.0693-1.28.208-.4054.128-.784.2773-1.136.448l-.432-1.056c.3733-.2027.816-.3733 1.328-.512.512-.1493 1.0453-.224 1.6-.224zm1.68 4.528-1.264.048c-1.0667.0427-1.808.2133-2.224.512-.4054.2987-.608.72-.608 1.264 0 .48.144.832.432 1.056.2986.224.6773.336 1.136.336.7253 0 1.328-.1973 1.808-.592.48-.4053.72-1.024.72-1.856zm.464-8.064v.16c-.128.192-.3254.4427-.592.752-.2667.2987-.5547.6027-.864.912-.2987.2987-.576.544-.832.736h-.928v-.192c.16-.2027.3306-.4427.512-.72.192-.2773.3786-.56.56-.848.1813-.2987.3306-.5653.448-.8zm5.4647 12.256-3.248-8.576h1.504l1.824 5.056c.0854.2347.176.496.272.784s.1814.5653.256.832c.0747.256.128.4747.16.656h.064c.0427-.1813.1014-.4053.176-.672.0854-.2667.176-.544.272-.832.1067-.288.1974-.544.272-.768l1.824-5.056h1.504l-3.264 8.576zm9.549-8.736c.736 0 1.3654.16 1.888.48.5334.32.9387.7733 1.216 1.36.288.576.432 1.2533.432 2.032v.848h-5.872c.0214.9707.2667 1.712.736 2.224.48.5013 1.1467.752 2 .752.544 0 1.024-.048 1.44-.144.4267-.1067.864-.256 1.312-.448v1.232c-.4373.192-.8693.3307-1.296.416-.4266.096-.9333.144-1.52.144-.8106 0-1.5306-.1653-2.16-.496-.6186-.3307-1.104-.8213-1.456-1.472-.3413-.6613-.512-1.4667-.512-2.416 0-.9387.1547-1.744.464-2.416.32-.672.7627-1.1893 1.328-1.552.576-.3627 1.2427-.544 2-.544zm-.016 1.152c-.672 0-1.2053.2187-1.6.656-.384.4267-.6133 1.024-.688 1.792h4.368c-.0106-.7253-.1813-1.312-.512-1.76-.3306-.4587-.8533-.688-1.568-.688zm-.832-2.112c-.1386-.2453-.3253-.5067-.56-.784-.2346-.288-.48-.5707-.736-.848s-.48-.5173-.672-.72v-.208h.96c.2774.1813.5654.4.864.656.2987.256.5814.528.848.816.288-.288.5814-.56.88-.816.2987-.256.5867-.4747.864-.656h.992v.208c-.2026.2027-.4373.4427-.704.72-.256.2773-.5066.56-.752.848-.2346.2773-.416.5387-.544.784zm12.1319-2.464v2.96c0 .3627-.011.704-.032 1.024-.011.3093-.027.5547-.048.736h.08c.245-.3627.581-.6667 1.008-.912.426-.2453.976-.368 1.648-.368 1.066 0 1.92.3733 2.56 1.12.65.736.976 1.84.976 3.312s-.326 2.5813-.976 3.328c-.651.7467-1.504 1.12-2.56 1.12-.672 0-1.222-.1227-1.648-.368-.427-.2453-.763-.5387-1.008-.88h-.112l-.288 1.088h-1.0084v-12.16zm2.416 4.608c-.907 0-1.536.2613-1.888.784s-.528 1.3333-.528 2.432v.064c0 1.056.17 1.8667.512 2.432.352.5547.997.832 1.936.832.768 0 1.338-.2827 1.712-.848.384-.5653.576-1.3813.576-2.448 0-2.1653-.774-3.248-2.32-3.248zm4.363-1.024h1.504l1.856 4.88c.16.4267.304.8373.432 1.232.128.384.224.752.288 1.104h.064c.064-.2667.165-.6133.304-1.04.139-.4373.283-.8747.432-1.312l1.744-4.864h1.52l-3.696 9.76c-.299.8107-.688 1.456-1.168 1.936-.469.48-1.12.72-1.952.72-.256 0-.48-.016-.672-.048-.192-.0213-.357-.048-.496-.08v-1.12c.117.0213.256.0427.416.064.171.0213.347.032.528.032.491 0 .885-.1387 1.184-.416.309-.2773.549-.6453.72-1.104l.448-1.136zm10.908 8.576h-1.408v-12.16h1.408zm10.173-4.304c0 1.4187-.363 2.5173-1.088 3.296-.715.7787-1.685 1.168-2.912 1.168-.757 0-1.435-.1707-2.032-.512-.587-.352-1.051-.8587-1.392-1.52-.341-.672-.512-1.4827-.512-2.432 0-1.4187.357-2.512 1.072-3.28s1.685-1.152 2.912-1.152c.779 0 1.461.176 2.048.528.597.3413 1.061.8427 1.392 1.504.341.6507.512 1.4507.512 2.4zm-6.48 0c0 1.0133.197 1.8187.592 2.416.405.5867 1.045.88 1.92.88.864 0 1.499-.2933 1.904-.88.405-.5973.608-1.4027.608-2.416s-.203-1.808-.608-2.384-1.045-.864-1.92-.864-1.509.288-1.904.864-.592 1.3707-.592 2.384zm18.452 1.936c0 .832-.309 1.4613-.928 1.888s-1.451.64-2.496.64c-.597 0-1.115-.048-1.552-.144-.427-.096-.805-.2293-1.136-.4v-1.28c.341.1707.752.3307 1.232.48.491.1387.987.208 1.488.208.715 0 1.232-.112 1.552-.336.32-.2347.48-.544.48-.928 0-.2133-.059-.4053-.176-.576s-.331-.3413-.64-.512c-.299-.1707-.731-.3627-1.296-.576-.555-.2133-1.029-.4267-1.424-.64s-.699-.4693-.912-.768-.32-.6827-.32-1.152c0-.7253.293-1.2853.88-1.68.597-.3947 1.376-.592 2.336-.592.523 0 1.008.0533 1.456.16.459.096.885.2347 1.28.416l-.48 1.12c-.363-.1493-.741-.2773-1.136-.384s-.8-.16-1.216-.16c-.576 0-1.019.096-1.328.288-.299.1813-.448.432-.448.752 0 .2347.069.4373.208.608.139.16.368.32.688.48.331.1493.768.3307 1.312.544.544.2027 1.008.4107 1.392.624s.677.4747.88.784c.203.2987.304.6773.304 1.136zm4.936 1.376c.213 0 .432-.016.656-.048.224-.0427.405-.0853.544-.128v1.072c-.149.0747-.363.1333-.64.176-.277.0533-.544.08-.8.08-.448 0-.864-.0747-1.248-.224-.373-.16-.677-.432-.912-.816s-.352-.9227-.352-1.616v-4.992h-1.216v-.672l1.232-.56.56-1.824h.832v1.968h2.48v1.088h-2.48v4.96c0 .5227.123.912.368 1.168.256.2453.581.368.976.368zm6.165-7.728c1.046 0 1.819.2293 2.32.688.502.4587.752 1.1893.752 2.192v5.84h-1.024l-.272-1.216h-.064c-.373.4693-.768.816-1.184 1.04-.405.224-.97.336-1.696.336-.778 0-1.424-.2027-1.936-.608-.512-.416-.768-1.0613-.768-1.936 0-.8533.336-1.5093 1.008-1.968.672-.4693 1.707-.7253 3.104-.768l1.456-.048v-.512c0-.7147-.154-1.2107-.464-1.488-.309-.2773-.746-.416-1.312-.416-.448 0-.874.0693-1.28.208-.405.128-.784.2773-1.136.448l-.432-1.056c.374-.2027.816-.3733 1.328-.512.512-.1493 1.046-.224 1.6-.224zm1.68 4.528-1.264.048c-1.066.0427-1.808.2133-2.224.512-.405.2987-.608.72-.608 1.264 0 .48.144.832.432 1.056.299.224.678.336 1.136.336.726 0 1.328-.1973 1.808-.592.48-.4053.72-1.024.72-1.856zm8.169-4.544c1.024 0 1.797.2507 2.32.752.523.4907.784 1.2907.784 2.4v5.584h-1.392v-5.488c0-1.376-.64-2.064-1.92-2.064-.949 0-1.605.2667-1.968.8s-.544 1.3013-.544 2.304v4.448h-1.408v-8.576h1.136l.208 1.168h.08c.277-.448.661-.7787 1.152-.992.491-.224 1.008-.336 1.552-.336zm13.219 4.432c0 1.4187-.363 2.5173-1.088 3.296-.715.7787-1.686 1.168-2.912 1.168-.758 0-1.435-.1707-2.032-.512-.587-.352-1.051-.8587-1.392-1.52-.342-.672-.512-1.4827-.512-2.432 0-1.4187.357-2.512 1.072-3.28.714-.768 1.685-1.152 2.912-1.152.778 0 1.461.176 2.048.528.597.3413 1.061.8427 1.392 1.504.341.6507.512 1.4507.512 2.4zm-6.48 0c0 1.0133.197 1.8187.592 2.416.405.5867 1.045.88 1.92.88.864 0 1.498-.2933 1.904-.88.405-.5973.608-1.4027.608-2.416s-.203-1.808-.608-2.384c-.406-.576-1.046-.864-1.92-.864-.875 0-1.51.288-1.904.864-.395.576-.592 1.3707-.592 2.384zm10.287 4.304-3.248-8.576h1.504l1.824 5.056c.085.2347.176.496.272.784s.181.5653.256.832c.074.256.128.4747.16.656h.064c.042-.1813.101-.4053.176-.672.085-.2667.176-.544.272-.832.106-.288.197-.544.272-.768l1.824-5.056h1.504l-3.264 8.576zm9.549-8.736c.736 0 1.365.16 1.888.48.533.32.938.7733 1.216 1.36.288.576.432 1.2533.432 2.032v.848h-5.872c.021.9707.266 1.712.736 2.224.48.5013 1.146.752 2 .752.544 0 1.024-.048 1.44-.144.426-.1067.864-.256 1.312-.448v1.232c-.438.192-.87.3307-1.296.416-.427.096-.934.144-1.52.144-.811 0-1.531-.1653-2.16-.496-.619-.3307-1.104-.8213-1.456-1.472-.342-.6613-.512-1.4667-.512-2.416 0-.9387.154-1.744.464-2.416.32-.672.762-1.1893 1.328-1.552.576-.3627 1.242-.544 2-.544zm-.016 1.152c-.672 0-1.206.2187-1.6.656-.384.4267-.614 1.024-.688 1.792h4.368c-.011-.7253-.182-1.312-.512-1.76-.331-.4587-.854-.688-1.568-.688zm9.863-1.152c1.024 0 1.797.2507 2.32.752.523.4907.784 1.2907.784 2.4v5.584h-1.392v-5.488c0-1.376-.64-2.064-1.92-2.064-.949 0-1.605.2667-1.968.8s-.544 1.3013-.544 2.304v4.448h-1.408v-8.576h1.136l.208 1.168h.08c.277-.448.661-.7787 1.152-.992.491-.224 1.008-.336 1.552-.336zm13.219 4.432c0 1.4187-.363 2.5173-1.088 3.296-.715.7787-1.686 1.168-2.912 1.168-.758 0-1.435-.1707-2.032-.512-.587-.352-1.051-.8587-1.392-1.52-.342-.672-.512-1.4827-.512-2.432 0-1.4187.357-2.512 1.072-3.28.714-.768 1.685-1.152 2.912-1.152.778 0 1.461.176 2.048.528.597.3413 1.061.8427 1.392 1.504.341.6507.512 1.4507.512 2.4zm-6.48 0c0 1.0133.197 1.8187.592 2.416.405.5867 1.045.88 1.92.88.864 0 1.498-.2933 1.904-.88.405-.5973.608-1.4027.608-2.416s-.203-1.808-.608-2.384c-.406-.576-1.046-.864-1.92-.864-.875 0-1.51.288-1.904.864-.395.576-.592 1.3707-.592 2.384zm22.275-4.432c.971 0 1.696.2507 2.176.752.48.4907.72 1.2907.72 2.4v5.584h-1.392v-5.52c0-1.3547-.581-2.032-1.744-2.032-.832 0-1.429.24-1.792.72-.352.48-.528 1.1787-.528 2.096v4.736h-1.392v-5.52c0-1.3547-.586-2.032-1.76-2.032-.864 0-1.461.2667-1.792.8-.33.5333-.496 1.3013-.496 2.304v4.448h-1.408v-8.576h1.136l.208 1.168h.08c.267-.448.624-.7787 1.072-.992.459-.224.944-.336 1.456-.336 1.344 0 2.219.48 2.624 1.44h.08c.288-.4907.678-.8533 1.168-1.088.502-.2347 1.03-.352 1.584-.352zm6.954 8.736h-1.408v-8.576h1.408zm1.552-12.256v.16c-.128.192-.326.4427-.592.752-.267.2987-.555.6027-.864.912-.299.2987-.576.544-.832.736h-.928v-.192c.16-.2027.33-.4427.512-.72.192-.2773.378-.56.56-.848.181-.2987.33-.5653.448-.8zm6.749 9.888c0 .832-.31 1.4613-.928 1.888-.619.4267-1.451.64-2.496.64-.598 0-1.115-.048-1.552-.144-.427-.096-.806-.2293-1.136-.4v-1.28c.341.1707.752.3307 1.232.48.49.1387.986.208 1.488.208.714 0 1.232-.112 1.552-.336.32-.2347.48-.544.48-.928 0-.2133-.059-.4053-.176-.576-.118-.1707-.331-.3413-.64-.512-.299-.1707-.731-.3627-1.296-.576-.555-.2133-1.03-.4267-1.424-.64-.395-.2133-.699-.4693-.912-.768-.214-.2987-.32-.6827-.32-1.152 0-.7253.293-1.2853.88-1.68.597-.3947 1.376-.592 2.336-.592.522 0 1.008.0533 1.456.16.458.096.885.2347 1.28.416l-.48 1.12c-.363-.1493-.742-.2773-1.136-.384-.395-.1067-.8-.16-1.216-.16-.576 0-1.019.096-1.328.288-.299.1813-.448.432-.448.752 0 .2347.069.4373.208.608.138.16.368.32.688.48.33.1493.768.3307 1.312.544.544.2027 1.008.4107 1.392.624s.677.4747.88.784c.202.2987.304.6773.304 1.136zm4.936 1.376c.213 0 .432-.016.656-.048.224-.0427.405-.0853.544-.128v1.072c-.15.0747-.363.1333-.64.176-.278.0533-.544.08-.8.08-.448 0-.864-.0747-1.248-.224-.374-.16-.678-.432-.912-.816-.235-.384-.352-.9227-.352-1.616v-4.992h-1.216v-.672l1.232-.56.56-1.824h.832v1.968h2.48v1.088h-2.48v4.96c0 .5227.122.912.368 1.168.256.2453.581.368.976.368zm10.373-3.312c0 1.4187-.363 2.5173-1.088 3.296-.715.7787-1.685 1.168-2.912 1.168-.757 0-1.435-.1707-2.032-.512-.587-.352-1.051-.8587-1.392-1.52-.341-.672-.512-1.4827-.512-2.432 0-1.4187.357-2.512 1.072-3.28s1.685-1.152 2.912-1.152c.779 0 1.461.176 2.048.528.597.3413 1.061.8427 1.392 1.504.341.6507.512 1.4507.512 2.4zm-6.48 0c0 1.0133.197 1.8187.592 2.416.405.5867 1.045.88 1.92.88.864 0 1.499-.2933 1.904-.88.405-.5973.608-1.4027.608-2.416s-.203-1.808-.608-2.384-1.045-.864-1.92-.864-1.509.288-1.904.864-.592 1.3707-.592 2.384zm14.26-7.856v6.352c0 .1707-.011.3947-.032.672-.011.2773-.022.5173-.032.72h.064c.064-.0853.16-.208.288-.368s.256-.32.384-.48c.138-.1707.256-.3093.352-.416l2.736-2.896h1.648l-3.472 3.664 3.712 4.912h-1.696l-2.976-4-.976.848v3.152h-1.392v-12.16zm14.611 7.856c0 1.4187-.363 2.5173-1.088 3.296-.715.7787-1.686 1.168-2.912 1.168-.758 0-1.435-.1707-2.032-.512-.587-.352-1.051-.8587-1.392-1.52-.342-.672-.512-1.4827-.512-2.432 0-1.4187.357-2.512 1.072-3.28.714-.768 1.685-1.152 2.912-1.152.778 0 1.461.176 2.048.528.597.3413 1.061.8427 1.392 1.504.341.6507.512 1.4507.512 2.4zm-6.48 0c0 1.0133.197 1.8187.592 2.416.405.5867 1.045.88 1.92.88.864 0 1.498-.2933 1.904-.88.405-.5973.608-1.4027.608-2.416s-.203-1.808-.608-2.384c-.406-.576-1.046-.864-1.92-.864-.875 0-1.51.288-1.904.864-.395.576-.592 1.3707-.592 2.384zm12.839-4.432c1.024 0 1.797.2507 2.32.752.523.4907.784 1.2907.784 2.4v5.584h-1.392v-5.488c0-1.376-.64-2.064-1.92-2.064-.949 0-1.605.2667-1.968.8s-.544 1.3013-.544 2.304v4.448h-1.408v-8.576h1.136l.208 1.168h.08c.277-.448.661-.7787 1.152-.992.491-.224 1.008-.336 1.552-.336zm9.011.016c1.045 0 1.818.2293 2.32.688.501.4587.752 1.1893.752 2.192v5.84h-1.024l-.272-1.216h-.064c-.374.4693-.768.816-1.184 1.04-.406.224-.971.336-1.696.336-.779 0-1.424-.2027-1.936-.608-.512-.416-.768-1.0613-.768-1.936 0-.8533.336-1.5093 1.008-1.968.672-.4693 1.706-.7253 3.104-.768l1.456-.048v-.512c0-.7147-.155-1.2107-.464-1.488-.31-.2773-.747-.416-1.312-.416-.448 0-.875.0693-1.28.208-.406.128-.784.2773-1.136.448l-.432-1.056c.373-.2027.816-.3733 1.328-.512.512-.1493 1.045-.224 1.6-.224zm1.68 4.528-1.264.048c-1.067.0427-1.808.2133-2.224.512-.406.2987-.608.72-.608 1.264 0 .48.144.832.432 1.056.298.224.677.336 1.136.336.725 0 1.328-.1973 1.808-.592.48-.4053.72-1.024.72-1.856zm.464-8.064v.16c-.128.192-.326.4427-.592.752-.267.2987-.555.6027-.864.912-.299.2987-.576.544-.832.736h-.928v-.192c.16-.2027.33-.4427.512-.72.192-.2773.378-.56.56-.848.181-.2987.33-.5653.448-.8zm7.705 3.52c1.024 0 1.797.2507 2.32.752.522.4907.784 1.2907.784 2.4v5.584h-1.392v-5.488c0-1.376-.64-2.064-1.92-2.064-.95 0-1.606.2667-1.968.8-.363.5333-.544 1.3013-.544 2.304v4.448h-1.408v-8.576h1.136l.208 1.168h.08c.277-.448.661-.7787 1.152-.992.49-.224 1.008-.336 1.552-.336zm7.17 8.736h-1.408v-8.576h1.408zm1.552-12.256v.16c-.128.192-.325.4427-.592.752-.267.2987-.555.6027-.864.912-.299.2987-.576.544-.832.736h-.928v-.192c.16-.2027.331-.4427.512-.72.192-.2773.379-.56.56-.848.181-.2987.331-.5653.448-.8zm-256.66 27.52c1.024 0 1.7973.2507 2.32.752.5227.4907.784 1.291.784 2.4v5.584h-1.392v-5.488c0-1.376-.64-2.064-1.92-2.064-.9493 0-1.6053.2667-1.968.8-.3627.533-.544 1.301-.544 2.304v4.448h-1.408v-8.576h1.136l.208 1.168h.08c.2773-.448.6613-.7787 1.152-.992.4907-.224 1.008-.336 1.552-.336zm9.0106.016c1.0454 0 1.8187.2293 2.32.688.5014.4587.752 1.189.752 2.192v5.84h-1.024l-.272-1.216h-.064c-.3733.469-.768.816-1.184 1.04-.4053.224-.9706.336-1.696.336-.7786 0-1.424-.203-1.936-.608-.512-.416-.768-1.061-.768-1.936 0-.853.336-1.509 1.008-1.968.672-.469 1.7067-.725 3.104-.768l1.456-.048v-.512c0-.715-.1546-1.211-.464-1.488-.3093-.2773-.7466-.416-1.312-.416-.448 0-.8746.0693-1.28.208-.4053.128-.784.2773-1.136.448l-.432-1.056c.3734-.2027.816-.3733 1.328-.512.512-.1493 1.0454-.224 1.6-.224zm1.68 4.528-1.264.048c-1.0666.043-1.808.213-2.224.512-.4053.299-.608.72-.608 1.264 0 .48.144.832.432 1.056.2987.224.6774.336 1.136.336.7254 0 1.328-.197 1.808-.592.48-.405.72-1.024.72-1.856zm.464-8.064v.16c-.128.192-.3253.4427-.592.752-.2666.2987-.5546.6027-.864.912-.2986.2987-.576.544-.832.736h-.928v-.192c.16-.2027.3307-.4427.512-.72.192-.2773.3787-.56.56-.848.1814-.2987.3307-.5653.448-.8zm9.1608 9.888c0 .832-.3094 1.461-.928 1.888-.6187.427-1.4507.64-2.496.64-.5974 0-1.1147-.048-1.552-.144-.4267-.096-.8054-.229-1.136-.4v-1.28c.3413.171.752.331 1.232.48.4906.139.9866.208 1.488.208.7146 0 1.232-.112 1.552-.336.32-.235.48-.544.48-.928 0-.213-.0587-.405-.176-.576-.1174-.171-.3307-.341-.64-.512-.2987-.171-.7307-.363-1.296-.576-.5547-.213-1.0294-.427-1.424-.64-.3947-.213-.6987-.469-.912-.768-.2134-.299-.32-.683-.32-1.152 0-.7253.2933-1.2853.88-1.68.5973-.3947 1.376-.592 2.336-.592.5226 0 1.008.0533 1.456.16.4586.096.8853.2347 1.28.416l-.48 1.12c-.3627-.1493-.7414-.2773-1.136-.384-.3947-.1067-.8-.16-1.216-.16-.576 0-1.0187.096-1.328.288-.2987.1813-.448.432-.448.752 0 .235.0693.437.208.608.1386.16.368.32.688.48.3306.149.768.331 1.312.544.544.203 1.008.411 1.392.624s.6773.475.88.784c.2026.299.304.677.304 1.136zm3.4802 2.368h-1.408v-12.16h1.408zm6.029-8.736c.736 0 1.3654.16 1.888.48.5334.32.9387.7733 1.216 1.36.288.576.432 1.253.432 2.032v.848h-5.872c.0214.971.2667 1.712.736 2.224.48.501 1.1467.752 2 .752.544 0 1.024-.048 1.44-.144.4267-.107.864-.256 1.312-.448v1.232c-.4373.192-.8693.331-1.296.416-.4266.096-.9333.144-1.52.144-.8106 0-1.5306-.165-2.16-.496-.6186-.331-1.104-.821-1.456-1.472-.3413-.661-.512-1.467-.512-2.416 0-.939.1547-1.744.464-2.416.32-.672.7627-1.1893 1.328-1.552.576-.3627 1.2427-.544 2-.544zm-.016 1.152c-.672 0-1.2053.2187-1.6.656-.384.427-.6133 1.024-.688 1.792h4.368c-.0106-.725-.1813-1.312-.512-1.76-.3306-.4587-.8533-.688-1.568-.688zm8.7753 7.744c-1.0667 0-1.92-.368-2.56-1.104-.64-.747-.96-1.856-.96-3.328s.32-2.581.96-3.328c.6506-.7573 1.5093-1.136 2.576-1.136.6613 0 1.2.1227 1.616.368.4266.2453.7733.544 1.04.896h.096c-.0107-.1387-.032-.3413-.064-.608-.0214-.2773-.032-.496-.032-.656v-3.424h1.4081v12.16h-1.1361l-.208-1.152h-.064c-.256.363-.5974.672-1.024.928-.4267.256-.976.384-1.648.384zm.224-1.168c.9066 0 1.5413-.245 1.904-.736.3733-.501.56-1.253.56-2.256v-.256c0-1.067-.176-1.883-.528-2.448-.352-.576-1.0027-.864-1.952-.864-.7574 0-1.328.304-1.712.912-.3734.597-.56 1.403-.56 2.416 0 1.024.1866 1.819.56 2.384.384.565.96.848 1.728.848zm13.7481-7.568v8.576h-1.152l-.208-1.136h-.064c-.278.448-.662.779-1.152.992-.491.203-1.014.304-1.568.304-1.035 0-1.814-.245-2.336-.736-.523-.501-.784-1.296-.784-2.384v-5.616h1.424v5.52c0 1.365.634 2.048 1.904 2.048.949 0 1.605-.267 1.968-.8.373-.533.56-1.301.56-2.304v-4.464zm2.61-2.32c0-.3093.08-.5333.24-.672.16-.1493.358-.224.592-.224.214 0 .4.0747.56.224.171.1387.256.3627.256.672 0 .2987-.085.5227-.256.672-.16.1493-.346.224-.56.224-.234 0-.432-.0747-.592-.224s-.24-.3733-.24-.672zm-.896 14.736c-.266 0-.501-.021-.704-.064-.202-.032-.378-.075-.528-.128v-1.136c.16.043.326.08.496.112.171.032.358.048.56.048.342 0 .624-.096.848-.288.224-.181.336-.533.336-1.056v-9.904h1.408v9.856c0 .8-.192 1.424-.576 1.872-.384.459-.997.688-1.84.688zm6.541-3.84h-1.408v-8.576h1.408zm1.552-12.256v.16c-.128.192-.325.4427-.592.752-.266.2987-.554.6027-.864.912-.298.2987-.576.544-.832.736h-.928v-.192c.16-.2027.331-.4427.512-.72.192-.2773.379-.56.56-.848.182-.2987.331-.5653.448-.8zm4.605 12.416c-.757 0-1.434-.155-2.032-.464-.586-.309-1.05-.789-1.392-1.44-.33-.651-.496-1.483-.496-2.496 0-1.056.176-1.915.528-2.576.352-.6613.827-1.1467 1.424-1.456.608-.3093 1.296-.464 2.064-.464.438 0 .859.048 1.264.144.406.0853.736.192.992.32l-.432 1.168c-.256-.096-.554-.1867-.896-.272-.341-.0853-.661-.128-.96-.128-1.685 0-2.528 1.083-2.528 3.248 0 1.035.203 1.829.608 2.384.416.544 1.03.816 1.84.816.47 0 .88-.048 1.232-.144.363-.096.694-.213.992-.352v1.248c-.288.149-.608.261-.96.336-.341.085-.757.128-1.248.128zm5.656-.16h-1.408v-8.576h1.408zm1.552-12.256v.16c-.128.192-.326.4427-.592.752-.267.2987-.555.6027-.864.912-.299.2987-.576.544-.832.736h-.928v-.192c.16-.2027.33-.4427.512-.72.192-.2773.378-.56.56-.848.181-.2987.33-.5653.448-.8zm2.573.096v3.568c0 .4267-.027.8267-.08 1.2h.096c.277-.4373.65-.768 1.12-.992.48-.224.997-.336 1.552-.336 1.045 0 1.829.2507 2.352.752.522.4907.784 1.285.784 2.384v5.584h-1.392v-5.488c0-1.376-.64-2.064-1.92-2.064-.96 0-1.622.272-1.984.816-.352.533-.528 1.301-.528 2.304v4.432h-1.408v-12.16zm15.938 7.856c0 1.419-.362 2.517-1.088 3.296-.714.779-1.685 1.168-2.912 1.168-.757 0-1.434-.171-2.032-.512-.586-.352-1.05-.859-1.392-1.52-.341-.672-.512-1.483-.512-2.432 0-1.419.358-2.512 1.072-3.28.715-.768 1.686-1.152 2.912-1.152.779 0 1.462.176 2.048.528.598.3413 1.062.8427 1.392 1.504.342.651.512 1.451.512 2.4zm-6.48 0c0 1.013.198 1.819.592 2.416.406.587 1.046.88 1.92.88.864 0 1.499-.293 1.904-.88.406-.597.608-1.403.608-2.416s-.202-1.808-.608-2.384c-.405-.576-1.045-.864-1.92-.864-.874 0-1.509.288-1.904.864-.394.576-.592 1.371-.592 2.384zm20.036-4.272v8.576h-1.152l-.208-1.136h-.064c-.277.448-.661.779-1.152.992-.491.203-1.013.304-1.568.304-1.035 0-1.813-.245-2.336-.736-.523-.501-.784-1.296-.784-2.384v-5.616h1.424v5.52c0 1.365.635 2.048 1.904 2.048.949 0 1.605-.267 1.968-.8.373-.533.56-1.301.56-2.304v-4.464zm-1.328-3.68v.16c-.128.192-.325.4427-.592.752-.267.2987-.555.6027-.864.912-.299.2987-.576.544-.832.736h-.928v-.192c.16-.2027.331-.4427.512-.72.192-.2773.379-.56.56-.848.181-.2987.331-.5653.448-.8zm9.635 9.888c0 .832-.31 1.461-.928 1.888-.619.427-1.451.64-2.496.64-.598 0-1.115-.048-1.552-.144-.427-.096-.806-.229-1.136-.4v-1.28c.341.171.752.331 1.232.48.49.139.986.208 1.488.208.714 0 1.232-.112 1.552-.336.32-.235.48-.544.48-.928 0-.213-.059-.405-.176-.576-.118-.171-.331-.341-.64-.512-.299-.171-.731-.363-1.296-.576-.555-.213-1.03-.427-1.424-.64-.395-.213-.699-.469-.912-.768-.214-.299-.32-.683-.32-1.152 0-.7253.293-1.2853.88-1.68.597-.3947 1.376-.592 2.336-.592.522 0 1.008.0533 1.456.16.458.096.885.2347 1.28.416l-.48 1.12c-.363-.1493-.742-.2773-1.136-.384-.395-.1067-.8-.16-1.216-.16-.576 0-1.019.096-1.328.288-.299.1813-.448.432-.448.752 0 .235.069.437.208.608.138.16.368.32.688.48.33.149.768.331 1.312.544.544.203 1.008.411 1.392.624s.677.475.88.784c.202.299.304.677.304 1.136zm4.936 1.376c.213 0 .432-.016.656-.048.224-.043.405-.085.544-.128v1.072c-.149.075-.363.133-.64.176-.277.053-.544.08-.8.08-.448 0-.864-.075-1.248-.224-.373-.16-.677-.432-.912-.816s-.352-.923-.352-1.616v-4.992h-1.216v-.672l1.232-.56.56-1.824h.832v1.968h2.48v1.088h-2.48v4.96c0 .523.123.912.368 1.168.256.245.581.368.976.368zm6.917-7.744c.16 0 .331.0107.512.032.192.0107.358.032.496.064l-.176 1.296c-.138-.032-.293-.0587-.464-.08-.16-.0213-.314-.032-.464-.032-.437 0-.848.1227-1.232.368-.384.235-.693.571-.928 1.008-.224.427-.336.928-.336 1.504v4.576h-1.408v-8.576h1.152l.16 1.568h.064c.278-.4693.635-.8747 1.072-1.216.438-.3413.955-.512 1.552-.512zm-2.256-.96c-.138-.2453-.325-.5067-.56-.784-.234-.288-.48-.5707-.736-.848s-.48-.5173-.672-.72v-.208h.96c.278.1813.566.4.864.656.299.256.582.528.848.816.288-.288.582-.56.88-.816.299-.256.587-.4747.864-.656h.992v.208c-.202.2027-.437.4427-.704.72-.256.2773-.506.56-.752.848-.234.2773-.416.5387-.544.784zm7.865.96c.736 0 1.365.16 1.888.48.533.32.939.7733 1.216 1.36.288.576.432 1.253.432 2.032v.848h-5.872c.021.971.267 1.712.736 2.224.48.501 1.147.752 2 .752.544 0 1.024-.048 1.44-.144.427-.107.864-.256 1.312-.448v1.232c-.437.192-.869.331-1.296.416-.427.096-.933.144-1.52.144-.811 0-1.531-.165-2.16-.496-.619-.331-1.104-.821-1.456-1.472-.341-.661-.512-1.467-.512-2.416 0-.939.155-1.744.464-2.416.32-.672.763-1.1893 1.328-1.552.576-.3627 1.243-.544 2-.544zm-.016 1.152c-.672 0-1.205.2187-1.6.656-.384.427-.613 1.024-.688 1.792h4.368c-.011-.725-.181-1.312-.512-1.76-.331-.4587-.853-.688-1.568-.688zm8.775 7.744c-1.066 0-1.92-.368-2.56-1.104-.64-.747-.96-1.856-.96-3.328s.32-2.581.96-3.328c.651-.7573 1.51-1.136 2.576-1.136.662 0 1.2.1227 1.616.368.427.2453.774.544 1.04.896h.096c-.01-.1387-.032-.3413-.064-.608-.021-.2773-.032-.496-.032-.656v-3.424h1.408v12.16h-1.136l-.208-1.152h-.064c-.256.363-.597.672-1.024.928-.426.256-.976.384-1.648.384zm.224-1.168c.907 0 1.542-.245 1.904-.736.374-.501.56-1.253.56-2.256v-.256c0-1.067-.176-1.883-.528-2.448-.352-.576-1.002-.864-1.952-.864-.757 0-1.328.304-1.712.912-.373.597-.56 1.403-.56 2.416 0 1.024.187 1.819.56 2.384.384.565.96.848 1.728.848zm10.708-7.728c1.024 0 1.797.2507 2.32.752.523.4907.784 1.291.784 2.4v5.584h-1.392v-5.488c0-1.376-.64-2.064-1.92-2.064-.949 0-1.605.2667-1.968.8-.363.533-.544 1.301-.544 2.304v4.448h-1.408v-8.576h1.136l.208 1.168h.08c.277-.448.661-.7787 1.152-.992.491-.224 1.008-.336 1.552-.336zm7.171 8.736h-1.408v-8.576h1.408zm1.552-12.256v.16c-.128.192-.326.4427-.592.752-.267.2987-.555.6027-.864.912-.299.2987-.576.544-.832.736h-.928v-.192c.16-.2027.33-.4427.512-.72.192-.2773.378-.56.56-.848.181-.2987.33-.5653.448-.8zm2.573.096v3.568c0 .4267-.027.8267-.08 1.2h.096c.277-.4373.65-.768 1.12-.992.48-.224.997-.336 1.552-.336 1.045 0 1.829.2507 2.352.752.522.4907.784 1.285.784 2.384v5.584h-1.392v-5.488c0-1.376-.64-2.064-1.92-2.064-.96 0-1.622.272-1.984.816-.352.533-.528 1.301-.528 2.304v4.432h-1.408v-12.16zm15.938 7.856c0 1.419-.362 2.517-1.088 3.296-.714.779-1.685 1.168-2.912 1.168-.757 0-1.434-.171-2.032-.512-.586-.352-1.05-.859-1.392-1.52-.341-.672-.512-1.483-.512-2.432 0-1.419.358-2.512 1.072-3.28.715-.768 1.686-1.152 2.912-1.152.779 0 1.462.176 2.048.528.598.3413 1.062.8427 1.392 1.504.342.651.512 1.451.512 2.4zm-6.48 0c0 1.013.198 1.819.592 2.416.406.587 1.046.88 1.92.88.864 0 1.499-.293 1.904-.88.406-.597.608-1.403.608-2.416s-.202-1.808-.608-2.384c-.405-.576-1.045-.864-1.92-.864-.874 0-1.509.288-1.904.864-.394.576-.592 1.371-.592 2.384zm15.908 4.464c-1.067 0-1.92-.368-2.56-1.104-.64-.747-.96-1.856-.96-3.328s.32-2.581.96-3.328c.651-.7573 1.509-1.136 2.576-1.136.661 0 1.2.1227 1.616.368.427.2453.773.544 1.04.896h.096c-.011-.1387-.032-.3413-.064-.608-.021-.2773-.032-.496-.032-.656v-3.424h1.408v12.16h-1.136l-.208-1.152h-.064c-.256.363-.597.672-1.024.928s-.976.384-1.648.384zm.224-1.168c.907 0 1.541-.245 1.904-.736.373-.501.56-1.253.56-2.256v-.256c0-1.067-.176-1.883-.528-2.448-.352-.576-1.003-.864-1.952-.864-.757 0-1.328.304-1.712.912-.373.597-.56 1.403-.56 2.416 0 1.024.187 1.819.56 2.384.384.565.96.848 1.728.848zm9.892-7.728c.736 0 1.365.16 1.888.48.533.32.939.7733 1.216 1.36.288.576.432 1.253.432 2.032v.848h-5.872c.021.971.267 1.712.736 2.224.48.501 1.147.752 2 .752.544 0 1.024-.048 1.44-.144.427-.107.864-.256 1.312-.448v1.232c-.437.192-.869.331-1.296.416-.427.096-.933.144-1.52.144-.811 0-1.531-.165-2.16-.496-.619-.331-1.104-.821-1.456-1.472-.341-.661-.512-1.467-.512-2.416 0-.939.155-1.744.464-2.416.32-.672.763-1.1893 1.328-1.552.576-.3627 1.243-.544 2-.544zm-.016 1.152c-.672 0-1.205.2187-1.6.656-.384.427-.613 1.024-.688 1.792h4.368c-.011-.725-.181-1.312-.512-1.76-.331-.4587-.853-.688-1.568-.688zm7.143-4.576v2.96c0 .3627-.011.704-.032 1.024-.011.3093-.027.5547-.048.736h.08c.245-.3627.581-.6667 1.008-.912s.976-.368 1.648-.368c1.067 0 1.92.3733 2.56 1.12.651.736.976 1.84.976 3.312s-.325 2.581-.976 3.328-1.504 1.12-2.56 1.12c-.672 0-1.221-.123-1.648-.368s-.763-.539-1.008-.88h-.112l-.288 1.088h-1.008v-12.16zm2.416 4.608c-.907 0-1.536.2613-1.888.784-.352.523-.528 1.333-.528 2.432v.064c0 1.056.171 1.867.512 2.432.352.555.997.832 1.936.832.768 0 1.339-.283 1.712-.848.384-.565.576-1.381.576-2.448 0-2.165-.773-3.248-2.32-3.248zm9.268-1.168c1.045 0 1.819.2293 2.32.688s.752 1.189.752 2.192v5.84h-1.024l-.272-1.216h-.064c-.373.469-.768.816-1.184 1.04-.405.224-.971.336-1.696.336-.779 0-1.424-.203-1.936-.608-.512-.416-.768-1.061-.768-1.936 0-.853.336-1.509 1.008-1.968.672-.469 1.707-.725 3.104-.768l1.456-.048v-.512c0-.715-.155-1.211-.464-1.488-.309-.2773-.747-.416-1.312-.416-.448 0-.875.0693-1.28.208-.405.128-.784.2773-1.136.448l-.432-1.056c.373-.2027.816-.3733 1.328-.512.512-.1493 1.045-.224 1.6-.224zm1.68 4.528-1.264.048c-1.067.043-1.808.213-2.224.512-.405.299-.608.72-.608 1.264 0 .48.144.832.432 1.056.299.224.677.336 1.136.336.725 0 1.328-.197 1.808-.592.48-.405.72-1.024.72-1.856zm6.905 3.2c.213 0 .432-.016.656-.048.224-.043.405-.085.544-.128v1.072c-.15.075-.363.133-.64.176-.278.053-.544.08-.8.08-.448 0-.864-.075-1.248-.224-.374-.16-.678-.432-.912-.816-.235-.384-.352-.923-.352-1.616v-4.992h-1.216v-.672l1.232-.56.56-1.824h.832v1.968h2.48v1.088h-2.48v4.96c0 .523.122.912.368 1.168.256.245.581.368.976.368zm7.045-7.744c1.024 0 1.797.2507 2.32.752.523.4907.784 1.291.784 2.4v5.584h-1.392v-5.488c0-1.376-.64-2.064-1.92-2.064-.949 0-1.605.2667-1.968.8-.363.533-.544 1.301-.544 2.304v4.448h-1.408v-8.576h1.136l.208 1.168h.08c.277-.448.661-.7787 1.152-.992.491-.224 1.008-.336 1.552-.336zm7.171 8.736h-1.408v-8.576h1.408zm1.552-12.256v.16c-.128.192-.326.4427-.592.752-.267.2987-.555.6027-.864.912-.299.2987-.576.544-.832.736h-.928v-.192c.16-.2027.33-.4427.512-.72.192-.2773.378-.56.56-.848.181-.2987.33-.5653.448-.8zm2.573.096v3.568c0 .4267-.027.8267-.08 1.2h.096c.277-.4373.65-.768 1.12-.992.48-.224.997-.336 1.552-.336 1.045 0 1.829.2507 2.352.752.522.4907.784 1.285.784 2.384v5.584h-1.392v-5.488c0-1.376-.64-2.064-1.92-2.064-.96 0-1.622.272-1.984.816-.352.533-.528 1.301-.528 2.304v4.432h-1.408v-12.16zm15.938 7.856c0 1.419-.363 2.517-1.088 3.296-.715.779-1.685 1.168-2.912 1.168-.757 0-1.435-.171-2.032-.512-.587-.352-1.051-.859-1.392-1.52-.341-.672-.512-1.483-.512-2.432 0-1.419.357-2.512 1.072-3.28s1.685-1.152 2.912-1.152c.779 0 1.461.176 2.048.528.597.3413 1.061.8427 1.392 1.504.341.651.512 1.451.512 2.4zm-6.48 0c0 1.013.197 1.819.592 2.416.405.587 1.045.88 1.92.88.864 0 1.499-.293 1.904-.88.405-.597.608-1.403.608-2.416s-.203-1.808-.608-2.384-1.045-.864-1.92-.864-1.509.288-1.904.864-.592 1.371-.592 2.384zm15.732 3.312c.213 0 .432-.016.656-.048.224-.043.405-.085.544-.128v1.072c-.149.075-.363.133-.64.176-.277.053-.544.08-.8.08-.448 0-.864-.075-1.248-.224-.373-.16-.677-.432-.912-.816s-.352-.923-.352-1.616v-4.992h-1.216v-.672l1.232-.56.56-1.824h.832v1.968h2.48v1.088h-2.48v4.96c0 .523.123.912.368 1.168.256.245.581.368.976.368zm10.085-7.584v8.576h-1.152l-.208-1.136h-.064c-.277.448-.661.779-1.152.992-.491.203-1.013.304-1.568.304-1.035 0-1.813-.245-2.336-.736-.523-.501-.784-1.296-.784-2.384v-5.616h1.424v5.52c0 1.365.635 2.048 1.904 2.048.949 0 1.605-.267 1.968-.8.373-.533.56-1.301.56-2.304v-4.464zm6.723-.16c.16 0 .33.0107.512.032.192.0107.357.032.496.064l-.176 1.296c-.139-.032-.294-.0587-.464-.08-.16-.0213-.315-.032-.464-.032-.438 0-.848.1227-1.232.368-.384.235-.694.571-.928 1.008-.224.427-.336.928-.336 1.504v4.576h-1.408v-8.576h1.152l.16 1.568h.064c.277-.4693.634-.8747 1.072-1.216.437-.3413.954-.512 1.552-.512zm6.737 0c1.024 0 1.797.2507 2.32.752.523.4907.784 1.291.784 2.4v5.584h-1.392v-5.488c0-1.376-.64-2.064-1.92-2.064-.949 0-1.605.2667-1.968.8-.363.533-.544 1.301-.544 2.304v4.448h-1.408v-8.576h1.136l.208 1.168h.08c.277-.448.661-.7787 1.152-.992.491-.224 1.008-.336 1.552-.336zm9.011.016c1.045 0 1.818.2293 2.32.688.501.4587.752 1.189.752 2.192v5.84h-1.024l-.272-1.216h-.064c-.374.469-.768.816-1.184 1.04-.406.224-.971.336-1.696.336-.779 0-1.424-.203-1.936-.608-.512-.416-.768-1.061-.768-1.936 0-.853.336-1.509 1.008-1.968.672-.469 1.706-.725 3.104-.768l1.456-.048v-.512c0-.715-.155-1.211-.464-1.488-.31-.2773-.747-.416-1.312-.416-.448 0-.875.0693-1.28.208-.406.128-.784.2773-1.136.448l-.432-1.056c.373-.2027.816-.3733 1.328-.512.512-.1493 1.045-.224 1.6-.224zm1.68 4.528-1.264.048c-1.067.043-1.808.213-2.224.512-.406.299-.608.72-.608 1.264 0 .48.144.832.432 1.056.298.224.677.336 1.136.336.725 0 1.328-.197 1.808-.592.48-.405.72-1.024.72-1.856zm3.929-6.704c0-.3093.08-.5333.24-.672.16-.1493.357-.224.592-.224.213 0 .4.0747.56.224.17.1387.256.3627.256.672 0 .2987-.086.5227-.256.672-.16.1493-.347.224-.56.224-.235 0-.432-.0747-.592-.224s-.24-.3733-.24-.672zm-.896 14.736c-.267 0-.502-.021-.705-.064-.202-.032-.378-.075-.528-.128v-1.136c.16.043.326.08.496.112.171.032.358.048.561.048.341 0 .624-.096.848-.288.224-.181.336-.533.336-1.056v-9.904h1.408v9.856c0 .8-.192 1.424-.576 1.872-.384.459-.998.688-1.84.688zm8.445-12.576c.736 0 1.365.16 1.888.48.533.32.938.7733 1.216 1.36.288.576.432 1.253.432 2.032v.848h-5.872c.021.971.266 1.712.736 2.224.48.501 1.146.752 2 .752.544 0 1.024-.048 1.44-.144.426-.107.864-.256 1.312-.448v1.232c-.438.192-.87.331-1.296.416-.427.096-.934.144-1.52.144-.811 0-1.531-.165-2.16-.496-.619-.331-1.104-.821-1.456-1.472-.342-.661-.512-1.467-.512-2.416 0-.939.154-1.744.464-2.416.32-.672.762-1.1893 1.328-1.552.576-.3627 1.242-.544 2-.544zm-.016 1.152c-.672 0-1.206.2187-1.6.656-.384.427-.614 1.024-.688 1.792h4.368c-.011-.725-.182-1.312-.512-1.76-.331-.4587-.854-.688-1.568-.688zm5.527 6.72c0-.395.096-.672.288-.832s.421-.24.688-.24c.277 0 .512.08.704.24.202.16.304.437.304.832 0 .384-.102.661-.304.832-.192.171-.427.256-.704.256-.267 0-.496-.085-.688-.256s-.288-.448-.288-.832zm-316.217 24.864h-1.696l-4.048-5.456-1.168 1.024v4.432h-1.44v-11.424h1.44v5.632c.32-.363.6453-.725.976-1.088s.6613-.725.992-1.088l3.088-3.456h1.68l-4.528 4.976zm4.6743-8.736c.736 0 1.3653.16 1.888.48.5333.32.9386.773 1.216 1.36.288.576.432 1.253.432 2.032v.848h-5.872c.0213.971.2666 1.712.736 2.224.48.501 1.1466.752 2 .752.544 0 1.024-.048 1.44-.144.4266-.107.864-.256 1.312-.448v1.232c-.4374.192-.8694.331-1.296.416-.4267.096-.9334.144-1.52.144-.8107 0-1.5307-.165-2.16-.496-.6187-.331-1.104-.821-1.456-1.472-.3414-.661-.512-1.467-.512-2.416 0-.939.1546-1.744.464-2.416.32-.672.7626-1.189 1.328-1.552.576-.363 1.2426-.544 2-.544zm-.016 1.152c-.672 0-1.2054.219-1.6.656-.384.427-.6134 1.024-.688 1.792h4.368c-.0107-.725-.1814-1.312-.512-1.76-.3307-.459-.8534-.688-1.568-.688zm9.8152-1.152c1.056 0 1.904.368 2.544 1.104.6507.736.976 1.845.976 3.328 0 1.461-.3253 2.571-.976 3.328-.64.757-1.4933 1.136-2.56 1.136-.6613 0-1.2107-.123-1.648-.368-.4267-.256-.7627-.549-1.008-.88h-.096c.0213.181.0427.411.064.688s.032.517.032.72v3.52h-1.408v-12.416h1.152l.192 1.168h.064c.256-.373.592-.688 1.008-.944s.9707-.384 1.664-.384zm-.256 1.184c-.8747 0-1.4933.245-1.856.736-.352.491-.5387 1.237-.56 2.24v.272c0 1.056.1707 1.872.512 2.448.352.565.9973.848 1.936.848.5227 0 .9493-.144 1.28-.432.3413-.288.592-.677.752-1.168.1707-.501.256-1.072.256-1.712 0-.981-.192-1.765-.576-2.352-.3733-.587-.9547-.88-1.744-.88zm10.1478-1.184c1.024 0 1.7973.251 2.32.752.5226.491.784 1.291.784 2.4v5.584h-1.392v-5.488c0-1.376-.64-2.064-1.92-2.064-.9494 0-1.6054.267-1.968.8-.3627.533-.544 1.301-.544 2.304v4.448h-1.408v-8.576h1.136l.208 1.168h.08c.2773-.448.6613-.779 1.152-.992.4906-.224 1.008-.336 1.552-.336zm9.0746 0c.736 0 1.3653.16 1.888.48.5333.32.9386.773 1.216 1.36.288.576.432 1.253.432 2.032v.848h-5.872c.0213.971.2666 1.712.736 2.224.48.501 1.1466.752 2 .752.544 0 1.024-.048 1.44-.144.4266-.107.864-.256 1.312-.448v1.232c-.4374.192-.8694.331-1.296.416-.4267.096-.9334.144-1.52.144-.8107 0-1.5307-.165-2.16-.496-.6187-.331-1.104-.821-1.456-1.472-.3414-.661-.512-1.467-.512-2.416 0-.939.1546-1.744.464-2.416.32-.672.7626-1.189 1.328-1.552.576-.363 1.2426-.544 2-.544zm-.016 1.152c-.672 0-1.2054.219-1.6.656-.384.427-.6134 1.024-.688 1.792h4.368c-.0107-.725-.1814-1.312-.512-1.76-.3307-.459-.8534-.688-1.568-.688zm-.832-2.112c-.1387-.245-.3254-.507-.56-.784-.2347-.288-.48-.571-.736-.848s-.48-.517-.672-.72v-.208h.96c.2773.181.5653.4.864.656.2986.256.5813.528.848.816.288-.288.5813-.56.88-.816.2986-.256.5866-.475.864-.656h.992v.208c-.2027.203-.4374.443-.704.72-.256.277-.5067.56-.752.848-.2347.277-.416.539-.544.784zm9.4311 8.704c.213 0 .432-.016.656-.048.224-.043.405-.085.544-.128v1.072c-.149.075-.363.133-.64.176-.277.053-.544.08-.8.08-.448 0-.864-.075-1.248-.224-.373-.16-.677-.432-.912-.816s-.352-.923-.352-1.616v-4.992h-1.2159v-.672l1.2319-.56.56-1.824h.832v1.968h2.48v1.088h-2.48v4.96c0 .523.123.912.368 1.168.256.245.581.368.976.368zm6.229-7.744c.736 0 1.366.16 1.888.48.534.32.939.773 1.216 1.36.288.576.432 1.253.432 2.032v.848h-5.872c.022.971.267 1.712.736 2.224.48.501 1.147.752 2 .752.544 0 1.024-.048 1.44-.144.427-.107.864-.256 1.312-.448v1.232c-.437.192-.869.331-1.296.416-.426.096-.933.144-1.52.144-.81 0-1.53-.165-2.16-.496-.618-.331-1.104-.821-1.456-1.472-.341-.661-.512-1.467-.512-2.416 0-.939.155-1.744.464-2.416.32-.672.763-1.189 1.328-1.552.576-.363 1.243-.544 2-.544zm-.016 1.152c-.672 0-1.205.219-1.6.656-.384.427-.613 1.024-.688 1.792h4.368c-.01-.725-.181-1.312-.512-1.76-.33-.459-.853-.688-1.568-.688zm13.972-1.152c1.056 0 1.904.368 2.544 1.104.651.736.976 1.845.976 3.328 0 1.461-.325 2.571-.976 3.328-.64.757-1.493 1.136-2.56 1.136-.661 0-1.211-.123-1.648-.368-.427-.256-.763-.549-1.008-.88h-.096c.021.181.043.411.064.688s.032.517.032.72v3.52h-1.408v-12.416h1.152l.192 1.168h.064c.256-.373.592-.688 1.008-.944s.971-.384 1.664-.384zm-.256 1.184c-.875 0-1.493.245-1.856.736-.352.491-.539 1.237-.56 2.24v.272c0 1.056.171 1.872.512 2.448.352.565.997.848 1.936.848.523 0 .949-.144 1.28-.432.341-.288.592-.677.752-1.168.171-.501.256-1.072.256-1.712 0-.981-.192-1.765-.576-2.352-.373-.587-.955-.88-1.744-.88zm10.02-1.184c.16 0 .33.011.512.032.192.011.357.032.496.064l-.176 1.296c-.139-.032-.294-.059-.464-.08-.16-.021-.315-.032-.464-.032-.438 0-.848.123-1.232.368-.384.235-.694.571-.928 1.008-.224.427-.336.928-.336 1.504v4.576h-1.408v-8.576h1.152l.16 1.568h.064c.277-.469.634-.875 1.072-1.216.437-.341.954-.512 1.552-.512zm9.752 4.432c0 1.419-.362 2.517-1.087 3.296-.715.779-1.686 1.168-2.912 1.168-.758 0-1.435-.171-2.032-.512-.587-.352-1.051-.859-1.392-1.52-.342-.672-.512-1.483-.512-2.432 0-1.419.357-2.512 1.072-3.28.714-.768 1.685-1.152 2.912-1.152.778 0 1.461.176 2.048.528.597.341 1.061.843 1.392 1.504.341.651.511 1.451.511 2.4zm-6.479 0c0 1.013.197 1.819.592 2.416.405.587 1.045.88 1.92.88.864 0 1.498-.293 1.904-.88.405-.597.608-1.403.608-2.416s-.203-1.808-.608-2.384c-.406-.576-1.046-.864-1.92-.864-.875 0-1.51.288-1.904.864-.395.576-.592 1.371-.592 2.384zm14.755 4.304-3.248-8.576h1.504l1.824 5.056c.086.235.176.496.272.784s.182.565.256.832c.075.256.128.475.16.656h.064c.043-.181.102-.405.176-.672.086-.267.176-.544.272-.832.107-.288.198-.544.272-.768l1.824-5.056h1.504l-3.264 8.576zm7.645 0h-1.408v-8.576h1.408zm1.552-12.256v.16c-.128.192-.325.443-.592.752-.266.299-.554.603-.864.912-.298.299-.576.544-.832.736h-.928v-.192c.16-.203.331-.443.512-.72.192-.277.379-.56.56-.848.182-.299.331-.565.448-.8zm4.605 12.416c-.757 0-1.434-.155-2.032-.464-.586-.309-1.05-.789-1.392-1.44-.33-.651-.496-1.483-.496-2.496 0-1.056.176-1.915.528-2.576s.827-1.147 1.424-1.456c.608-.309 1.296-.464 2.064-.464.438 0 .859.048 1.264.144.406.085.736.192.992.32l-.432 1.168c-.256-.096-.554-.187-.896-.272-.341-.085-.661-.128-.96-.128-1.685 0-2.528 1.083-2.528 3.248 0 1.035.203 1.829.608 2.384.416.544 1.03.816 1.84.816.47 0 .88-.048 1.232-.144.363-.096.694-.213.992-.352v1.248c-.288.149-.608.261-.96.336-.341.085-.757.128-1.248.128zm7.56-8.896c.736 0 1.365.16 1.888.48.533.32.938.773 1.216 1.36.288.576.432 1.253.432 2.032v.848h-5.872c.021.971.266 1.712.736 2.224.48.501 1.146.752 2 .752.544 0 1.024-.048 1.44-.144.426-.107.864-.256 1.312-.448v1.232c-.438.192-.87.331-1.296.416-.427.096-.934.144-1.52.144-.811 0-1.531-.165-2.16-.496-.619-.331-1.104-.821-1.456-1.472-.342-.661-.512-1.467-.512-2.416 0-.939.154-1.744.464-2.416.32-.672.762-1.189 1.328-1.552.576-.363 1.242-.544 2-.544zm-.016 1.152c-.672 0-1.206.219-1.6.656-.384.427-.614 1.024-.688 1.792h4.368c-.011-.725-.182-1.312-.512-1.76-.331-.459-.854-.688-1.568-.688zm10.611-4.208c.214 0 .4.075.56.224.171.139.256.363.256.672 0 .299-.085.523-.256.672-.16.149-.346.224-.56.224-.234 0-.432-.075-.592-.224s-.24-.373-.24-.672c0-.309.08-.533.24-.672.16-.149.358-.224.592-.224zm.688 3.216v8.576h-1.408v-8.576zm6.845-.16c1.024 0 1.798.251 2.32.752.523.491.784 1.291.784 2.4v5.584h-1.392v-5.488c0-1.376-.64-2.064-1.92-2.064-.949 0-1.605.267-1.968.8-.362.533-.544 1.301-.544 2.304v4.448h-1.408v-8.576h1.136l.208 1.168h.08c.278-.448.662-.779 1.152-.992.491-.224 1.008-.336 1.552-.336zm9.715 1.248h-2.16v7.488h-1.408v-7.488h-1.504v-.656l1.504-.48v-.496c0-1.109.245-1.904.736-2.384.491-.491 1.173-.736 2.048-.736.341 0 .651.032.928.096.288.053.533.117.736.192l-.368 1.104c-.171-.053-.368-.107-.592-.16s-.453-.08-.688-.08c-.469 0-.821.16-1.056.48-.224.309-.336.8-.336 1.472v.56h2.16zm9.004 3.184c0 1.419-.363 2.517-1.088 3.296-.715.779-1.685 1.168-2.912 1.168-.757 0-1.435-.171-2.032-.512-.587-.352-1.051-.859-1.392-1.52-.341-.672-.512-1.483-.512-2.432 0-1.419.357-2.512 1.072-3.28s1.685-1.152 2.912-1.152c.779 0 1.461.176 2.048.528.597.341 1.061.843 1.392 1.504.341.651.512 1.451.512 2.4zm-6.48 0c0 1.013.197 1.819.592 2.416.405.587 1.045.88 1.92.88.864 0 1.499-.293 1.904-.88.405-.597.608-1.403.608-2.416s-.203-1.808-.608-2.384-1.045-.864-1.92-.864-1.509.288-1.904.864-.592 1.371-.592 2.384zm12.711-4.432c.16 0 .331.011.512.032.192.011.358.032.496.064l-.176 1.296c-.138-.032-.293-.059-.464-.08-.16-.021-.314-.032-.464-.032-.437 0-.848.123-1.232.368-.384.235-.693.571-.928 1.008-.224.427-.336.928-.336 1.504v4.576h-1.408v-8.576h1.152l.16 1.568h.064c.278-.469.635-.875 1.072-1.216.438-.341.955-.512 1.552-.512zm12.018 0c.97 0 1.696.251 2.176.752.48.491.72 1.291.72 2.4v5.584h-1.392v-5.52c0-1.355-.582-2.032-1.744-2.032-.832 0-1.43.24-1.792.72-.352.48-.528 1.179-.528 2.096v4.736h-1.392v-5.52c0-1.355-.587-2.032-1.76-2.032-.864 0-1.462.267-1.792.8-.331.533-.496 1.301-.496 2.304v4.448h-1.408v-8.576h1.136l.208 1.168h.08c.266-.448.624-.779 1.072-.992.458-.224.944-.336 1.456-.336 1.344 0 2.218.48 2.624 1.44h.08c.288-.491.677-.853 1.168-1.088.501-.235 1.029-.352 1.584-.352zm8.793.016c1.045 0 1.819.229 2.32.688s.752 1.189.752 2.192v5.84h-1.024l-.272-1.216h-.064c-.373.469-.768.816-1.184 1.04-.405.224-.971.336-1.696.336-.779 0-1.424-.203-1.936-.608-.512-.416-.768-1.061-.768-1.936 0-.853.336-1.509 1.008-1.968.672-.469 1.707-.725 3.104-.768l1.456-.048v-.512c0-.715-.155-1.211-.464-1.488s-.747-.416-1.312-.416c-.448 0-.875.069-1.28.208-.405.128-.784.277-1.136.448l-.432-1.056c.373-.203.816-.373 1.328-.512.512-.149 1.045-.224 1.6-.224zm1.68 4.528-1.264.048c-1.067.043-1.808.213-2.224.512-.405.299-.608.72-.608 1.264 0 .48.144.832.432 1.056.299.224.677.336 1.136.336.725 0 1.328-.197 1.808-.592.48-.405.72-1.024.72-1.856zm7.481 4.352c-.758 0-1.435-.155-2.032-.464-.587-.309-1.051-.789-1.392-1.44-.331-.651-.496-1.483-.496-2.496 0-1.056.176-1.915.528-2.576s.826-1.147 1.424-1.456c.608-.309 1.296-.464 2.064-.464.437 0 .858.048 1.264.144.405.085.736.192.992.32l-.432 1.168c-.256-.096-.555-.187-.896-.272-.342-.085-.662-.128-.96-.128-1.686 0-2.528 1.083-2.528 3.248 0 1.035.202 1.829.608 2.384.416.544 1.029.816 1.84.816.469 0 .88-.048 1.232-.144.362-.096.693-.213.992-.352v1.248c-.288.149-.608.261-.96.336-.342.085-.758.128-1.248.128zm5.655-.16h-1.408v-8.576h1.408zm1.552-12.256v.16c-.128.192-.325.443-.592.752-.267.299-.555.603-.864.912-.299.299-.576.544-.832.736h-.928v-.192c.16-.203.331-.443.512-.72.192-.277.379-.56.56-.848.181-.299.331-.565.448-.8zm.957 11.392c0-.395.096-.672.288-.832s.421-.24.688-.24c.277 0 .512.08.704.24.203.16.304.437.304.832 0 .384-.101.661-.304.832-.192.171-.427.256-.704.256-.267 0-.496-.085-.688-.256s-.288-.448-.288-.832z" fill="#000"/><path d="m31 153h191.56v55h-182.56c-4.9706 0-9-4.029-9-9z" fill="ivory" stroke="#d69e2e" stroke-width="2"/><path d="m112.185 181.272c0 1.184-.203 2.219-.608 3.104-.395.875-.982 1.557-1.76 2.048-.779.491-1.744.736-2.896.736-1.184 0-2.171-.245-2.96-.736-.779-.491-1.36-1.179-1.744-2.064s-.576-1.92-.576-3.104c0-1.173.192-2.197.576-3.072s.965-1.557 1.744-2.048c.789-.491 1.781-.736 2.976-.736 1.141 0 2.101.245 2.88.736.778.48 1.365 1.163 1.76 2.048.405.875.608 1.904.608 3.088zm-9.024 0c0 1.44.304 2.576.912 3.408.608.821 1.557 1.232 2.848 1.232 1.301 0 2.25-.411 2.848-1.232.597-.832.896-1.968.896-3.408s-.299-2.565-.896-3.376c-.598-.821-1.542-1.232-2.832-1.232-1.291 0-2.246.411-2.864 1.232-.608.811-.912 1.936-.912 3.376zm14.228 4.736c.213 0 .432-.016.656-.048.224-.043.405-.085.544-.128v1.072c-.15.075-.363.133-.64.176-.278.053-.544.08-.8.08-.448 0-.864-.075-1.248-.224-.374-.16-.678-.432-.912-.816-.235-.384-.352-.923-.352-1.616v-4.992h-1.216v-.672l1.232-.56.56-1.824h.832v1.968h2.48v1.088h-2.48v4.96c0 .523.122.912.368 1.168.256.245.581.368.976.368zm6.229-7.744c.736 0 1.365.16 1.888.48.533.32.939.773 1.216 1.36.288.576.432 1.253.432 2.032v.848h-5.872c.021.971.267 1.712.736 2.224.48.501 1.147.752 2 .752.544 0 1.024-.048 1.44-.144.427-.107.864-.256 1.312-.448v1.232c-.437.192-.869.331-1.296.416-.427.096-.933.144-1.52.144-.811 0-1.531-.165-2.16-.496-.619-.331-1.104-.821-1.456-1.472-.341-.661-.512-1.467-.512-2.416 0-.939.155-1.744.464-2.416.32-.672.763-1.189 1.328-1.552.576-.363 1.243-.544 2-.544zm-.016 1.152c-.672 0-1.205.219-1.6.656-.384.427-.613 1.024-.688 1.792h4.368c-.011-.725-.181-1.312-.512-1.76-.331-.459-.853-.688-1.568-.688zm7.311 7.584-3.248-8.576h1.504l1.824 5.056c.085.235.176.496.272.784s.181.565.256.832c.074.256.128.475.16.656h.064c.042-.181.101-.405.176-.672.085-.267.176-.544.272-.832.106-.288.197-.544.272-.768l1.824-5.056h1.504l-3.264 8.576zm10.237-8.736c.16 0 .33.011.512.032.192.011.357.032.496.064l-.176 1.296c-.139-.032-.294-.059-.464-.08-.16-.021-.315-.032-.464-.032-.438 0-.848.123-1.232.368-.384.235-.694.571-.928 1.008-.224.427-.336.928-.336 1.504v4.576h-1.408v-8.576h1.152l.16 1.568h.064c.277-.469.634-.875 1.072-1.216.437-.341.954-.512 1.552-.512zm-2.256-.96c-.139-.245-.326-.507-.56-.784-.235-.288-.48-.571-.736-.848s-.48-.517-.672-.72v-.208h.96c.277.181.565.4.864.656.298.256.581.528.848.816.288-.288.581-.56.88-.816.298-.256.586-.475.864-.656h.992v.208c-.203.203-.438.443-.704.72-.256.277-.507.56-.752.848-.235.277-.416.539-.544.784zm6.273 9.696h-1.408v-8.576h1.408zm1.552-12.256v.16c-.128.192-.325.443-.592.752-.266.299-.554.603-.864.912-.298.299-.576.544-.832.736h-.928v-.192c.16-.203.331-.443.512-.72.192-.277.379-.56.56-.848.182-.299.331-.565.448-.8zm4.029 11.264c.214 0 .432-.016.656-.048.224-.043.406-.085.544-.128v1.072c-.149.075-.362.133-.64.176-.277.053-.544.08-.8.08-.448 0-.864-.075-1.248-.224-.373-.16-.677-.432-.912-.816-.234-.384-.352-.923-.352-1.616v-4.992h-1.216v-.672l1.232-.56.56-1.824h.832v1.968h2.48v1.088h-2.48v4.96c0 .523.123.912.368 1.168.256.245.582.368.976.368z" fill="#000"/><path d="m411 153h-188.488v55h179.488c4.971 0 9-4.029 9-9z" fill="ivory" stroke="#d69e2e" stroke-width="2"/><path d="m243.498 175.576c1.493 0 2.581.293 3.264.88s1.024 1.413 1.024 2.48c0 .629-.144 1.221-.432 1.776-.277.544-.752.987-1.424 1.328-.661.341-1.563.512-2.704.512h-1.312v4.448h-1.44v-11.424zm-.128 1.232h-1.456v4.512h1.152c1.088 0 1.899-.176 2.432-.528s.8-.949.8-1.792c0-.736-.235-1.285-.704-1.648s-1.211-.544-2.224-.544zm10.6 1.456c.16 0 .33.011.512.032.192.011.357.032.496.064l-.176 1.296c-.139-.032-.294-.059-.464-.08-.16-.021-.315-.032-.464-.032-.438 0-.848.123-1.232.368-.384.235-.694.571-.928 1.008-.224.427-.336.928-.336 1.504v4.576h-1.408v-8.576h1.152l.16 1.568h.064c.277-.469.634-.875 1.072-1.216.437-.341.954-.512 1.552-.512zm-2.256-.96c-.139-.245-.326-.507-.56-.784-.235-.288-.48-.571-.736-.848s-.48-.517-.672-.72v-.208h.96c.277.181.565.4.864.656.298.256.581.528.848.816.288-.288.581-.56.88-.816.298-.256.586-.475.864-.656h.992v.208c-.203.203-.438.443-.704.72-.256.277-.507.56-.752.848-.235.277-.416.539-.544.784zm5.585-2.096c.213 0 .4.075.56.224.171.139.256.363.256.672 0 .299-.085.523-.256.672-.16.149-.347.224-.56.224-.235 0-.432-.075-.592-.224s-.24-.373-.24-.672c0-.309.08-.533.24-.672.16-.149.357-.224.592-.224zm.688 3.216v8.576h-1.408v-8.576zm6.797-.16c1.056 0 1.904.368 2.544 1.104.651.736.976 1.845.976 3.328 0 1.461-.325 2.571-.976 3.328-.64.757-1.493 1.136-2.56 1.136-.661 0-1.211-.123-1.648-.368-.427-.256-.763-.549-1.008-.88h-.096c.021.181.043.411.064.688s.032.517.032.72v3.52h-1.408v-12.416h1.152l.192 1.168h.064c.256-.373.592-.688 1.008-.944s.971-.384 1.664-.384zm-.256 1.184c-.875 0-1.493.245-1.856.736-.352.491-.539 1.237-.56 2.24v.272c0 1.056.171 1.872.512 2.448.352.565.997.848 1.936.848.523 0 .949-.144 1.28-.432.341-.288.592-.677.752-1.168.171-.501.256-1.072.256-1.712 0-.981-.192-1.765-.576-2.352-.373-.587-.955-.88-1.744-.88zm13.476 3.248c0 1.419-.363 2.517-1.088 3.296-.715.779-1.686 1.168-2.912 1.168-.758 0-1.435-.171-2.032-.512-.587-.352-1.051-.859-1.392-1.52-.342-.672-.512-1.483-.512-2.432 0-1.419.357-2.512 1.072-3.28.714-.768 1.685-1.152 2.912-1.152.778 0 1.461.176 2.048.528.597.341 1.061.843 1.392 1.504.341.651.512 1.451.512 2.4zm-6.48 0c0 1.013.197 1.819.592 2.416.405.587 1.045.88 1.92.88.864 0 1.498-.293 1.904-.88.405-.597.608-1.403.608-2.416s-.203-1.808-.608-2.384c-.406-.576-1.046-.864-1.92-.864-.875 0-1.51.288-1.904.864-.395.576-.592 1.371-.592 2.384zm18.119-4.432c.971 0 1.696.251 2.176.752.48.491.72 1.291.72 2.4v5.584h-1.392v-5.52c0-1.355-.581-2.032-1.744-2.032-.832 0-1.429.24-1.792.72-.352.48-.528 1.179-.528 2.096v4.736h-1.392v-5.52c0-1.355-.586-2.032-1.76-2.032-.864 0-1.461.267-1.792.8-.33.533-.496 1.301-.496 2.304v4.448h-1.408v-8.576h1.136l.208 1.168h.08c.267-.448.624-.779 1.072-.992.459-.224.944-.336 1.456-.336 1.344 0 2.219.48 2.624 1.44h.08c.288-.491.678-.853 1.168-1.088.502-.235 1.03-.352 1.584-.352zm8.857 0c.736 0 1.366.16 1.888.48.534.32.939.773 1.216 1.36.288.576.432 1.253.432 2.032v.848h-5.872c.022.971.267 1.712.736 2.224.48.501 1.147.752 2 .752.544 0 1.024-.048 1.44-.144.427-.107.864-.256 1.312-.448v1.232c-.437.192-.869.331-1.296.416-.426.096-.933.144-1.52.144-.81 0-1.53-.165-2.16-.496-.618-.331-1.104-.821-1.456-1.472-.341-.661-.512-1.467-.512-2.416 0-.939.155-1.744.464-2.416.32-.672.763-1.189 1.328-1.552.576-.363 1.243-.544 2-.544zm-.016 1.152c-.672 0-1.205.219-1.6.656-.384.427-.613 1.024-.688 1.792h4.368c-.01-.725-.181-1.312-.512-1.76-.33-.459-.853-.688-1.568-.688zm9.864-1.152c1.024 0 1.797.251 2.32.752.522.491.784 1.291.784 2.4v5.584h-1.392v-5.488c0-1.376-.64-2.064-1.92-2.064-.95 0-1.606.267-1.968.8-.363.533-.544 1.301-.544 2.304v4.448h-1.408v-8.576h1.136l.208 1.168h.08c.277-.448.661-.779 1.152-.992.49-.224 1.008-.336 1.552-.336zm13.218 4.432c0 1.419-.362 2.517-1.088 3.296-.714.779-1.685 1.168-2.912 1.168-.757 0-1.434-.171-2.032-.512-.586-.352-1.05-.859-1.392-1.52-.341-.672-.512-1.483-.512-2.432 0-1.419.358-2.512 1.072-3.28.715-.768 1.686-1.152 2.912-1.152.779 0 1.462.176 2.048.528.598.341 1.062.843 1.392 1.504.342.651.512 1.451.512 2.4zm-6.48 0c0 1.013.198 1.819.592 2.416.406.587 1.046.88 1.92.88.864 0 1.499-.293 1.904-.88.406-.597.608-1.403.608-2.416s-.202-1.808-.608-2.384c-.405-.576-1.045-.864-1.92-.864-.874 0-1.509.288-1.904.864-.394.576-.592 1.371-.592 2.384zm15.88-4.272v8.576h-1.152l-.208-1.136h-.064c-.278.448-.662.779-1.152.992-.491.203-1.014.304-1.568.304-1.035 0-1.814-.245-2.336-.736-.523-.501-.784-1.296-.784-2.384v-5.616h1.424v5.52c0 1.365.634 2.048 1.904 2.048.949 0 1.605-.267 1.968-.8.373-.533.56-1.301.56-2.304v-4.464zm5.586 7.584c.214 0 .432-.016.656-.048.224-.043.406-.085.544-.128v1.072c-.149.075-.362.133-.64.176-.277.053-.544.08-.8.08-.448 0-.864-.075-1.248-.224-.373-.16-.677-.432-.912-.816-.234-.384-.352-.923-.352-1.616v-4.992h-1.216v-.672l1.232-.56.56-1.824h.832v1.968h2.48v1.088h-2.48v4.96c0 .523.123.912.368 1.168.256.245.582.368.976.368zm11.154-7.744c1.056 0 1.904.368 2.544 1.104.651.736.976 1.845.976 3.328 0 1.461-.325 2.571-.976 3.328-.64.757-1.493 1.136-2.56 1.136-.661 0-1.211-.123-1.648-.368-.427-.256-.763-.549-1.008-.88h-.096c.021.181.043.411.064.688s.032.517.032.72v3.52h-1.408v-12.416h1.152l.192 1.168h.064c.256-.373.592-.688 1.008-.944s.971-.384 1.664-.384zm-.256 1.184c-.875 0-1.493.245-1.856.736-.352.491-.539 1.237-.56 2.24v.272c0 1.056.171 1.872.512 2.448.352.565.997.848 1.936.848.523 0 .949-.144 1.28-.432.341-.288.592-.677.752-1.168.171-.501.256-1.072.256-1.712 0-.981-.192-1.765-.576-2.352-.373-.587-.955-.88-1.744-.88zm13.476 3.248c0 1.419-.363 2.517-1.088 3.296-.715.779-1.686 1.168-2.912 1.168-.758 0-1.435-.171-2.032-.512-.587-.352-1.051-.859-1.392-1.52-.342-.672-.512-1.483-.512-2.432 0-1.419.357-2.512 1.072-3.28.714-.768 1.685-1.152 2.912-1.152.778 0 1.461.176 2.048.528.597.341 1.061.843 1.392 1.504.341.651.512 1.451.512 2.4zm-6.48 0c0 1.013.197 1.819.592 2.416.405.587 1.045.88 1.92.88.864 0 1.498-.293 1.904-.88.405-.597.608-1.403.608-2.416s-.203-1.808-.608-2.384c-.406-.576-1.046-.864-1.92-.864-.875 0-1.51.288-1.904.864-.395.576-.592 1.371-.592 2.384zm14.091 4.304h-6.272v-.928l4.608-6.56h-4.336v-1.088h5.888v1.056l-4.544 6.432h4.656zm5.019.16c-1.066 0-1.92-.368-2.56-1.104-.64-.747-.96-1.856-.96-3.328s.32-2.581.96-3.328c.651-.757 1.51-1.136 2.576-1.136.662 0 1.2.123 1.616.368.427.245.774.544 1.04.896h.096c-.01-.139-.032-.341-.064-.608-.021-.277-.032-.496-.032-.656v-3.424h1.408v12.16h-1.136l-.208-1.152h-.064c-.256.363-.597.672-1.024.928-.426.256-.976.384-1.648.384zm.224-1.168c.907 0 1.542-.245 1.904-.736.374-.501.56-1.253.56-2.256v-.256c0-1.067-.176-1.883-.528-2.448-.352-.576-1.002-.864-1.952-.864-.757 0-1.328.304-1.712.912-.373.597-.56 1.403-.56 2.416 0 1.024.187 1.819.56 2.384.384.565.96.848 1.728.848zm9.892-7.728c.736 0 1.366.16 1.888.48.534.32.939.773 1.216 1.36.288.576.432 1.253.432 2.032v.848h-5.872c.022.971.267 1.712.736 2.224.48.501 1.147.752 2 .752.544 0 1.024-.048 1.44-.144.427-.107.864-.256 1.312-.448v1.232c-.437.192-.869.331-1.296.416-.426.096-.933.144-1.52.144-.81 0-1.53-.165-2.16-.496-.618-.331-1.104-.821-1.456-1.472-.341-.661-.512-1.467-.512-2.416 0-.939.155-1.744.464-2.416.32-.672.763-1.189 1.328-1.552.576-.363 1.243-.544 2-.544zm-.016 1.152c-.672 0-1.205.219-1.6.656-.384.427-.613 1.024-.688 1.792h4.368c-.01-.725-.181-1.312-.512-1.76-.33-.459-.853-.688-1.568-.688zm-.832-2.112c-.138-.245-.325-.507-.56-.784-.234-.288-.48-.571-.736-.848s-.48-.517-.672-.72v-.208h.96c.278.181.566.4.864.656.299.256.582.528.848.816.288-.288.582-.56.88-.816.299-.256.587-.475.864-.656h.992v.208c-.202.203-.437.443-.704.72-.256.277-.506.56-.752.848-.234.277-.416.539-.544.784zm6.455-1.2c0-.309.08-.533.24-.672.16-.149.358-.224.592-.224.214 0 .4.075.56.224.171.139.256.363.256.672 0 .299-.085.523-.256.672-.16.149-.346.224-.56.224-.234 0-.432-.075-.592-.224s-.24-.373-.24-.672zm-.896 14.736c-.266 0-.501-.021-.704-.064-.202-.032-.378-.075-.528-.128v-1.136c.16.043.326.08.496.112.171.032.358.048.56.048.342 0 .624-.096.848-.288.224-.181.336-.533.336-1.056v-9.904h1.408v9.856c0 .8-.192 1.424-.576 1.872-.384.459-.997.688-1.84.688zm5.853-15.632c.214 0 .4.075.56.224.171.139.256.363.256.672 0 .299-.085.523-.256.672-.16.149-.346.224-.56.224-.234 0-.432-.075-.592-.224s-.24-.373-.24-.672c0-.309.08-.533.24-.672.16-.149.358-.224.592-.224zm.688 3.216v8.576h-1.408v-8.576z" fill="#000"/></svg>