<svg fill="none" height="481" viewBox="0 0 680 481" width="680" xmlns="http://www.w3.org/2000/svg" xmlns:xlink="http://www.w3.org/1999/xlink"><filter id="a" color-interpolation-filters="sRGB" filterUnits="userSpaceOnUse" height="181" width="380" x="310" y="36"><feFlood flood-opacity="0" result="BackgroundImageFix"/><feColorMatrix in="SourceAlpha" type="matrix" values="0 0 0 0 0 0 0 0 0 0 0 0 0 0 0 0 0 0 127 0"/><feOffset dy="12"/><feGaussianBlur stdDeviation="20"/><feColorMatrix type="matrix" values="0 0 0 0 0 0 0 0 0 0 0 0 0 0 0 0 0 0 0.05 0"/><feBlend in2="BackgroundImageFix" mode="normal" result="effect1_dropShadow"/><feColorMatrix in="SourceAlpha" type="matrix" values="0 0 0 0 0 0 0 0 0 0 0 0 0 0 0 0 0 0 127 0"/><feOffset dy="2"/><feGaussianBlur stdDeviation="2.5"/><feColorMatrix type="matrix" values="0 0 0 0 0 0 0 0 0 0 0 0 0 0 0 0 0 0 0.2 0"/><feBlend in2="effect1_dropShadow" mode="normal" result="effect2_dropShadow"/><feBlend in="SourceGraphic" in2="effect2_dropShadow" mode="normal" result="shape"/></filter><filter id="b" color-interpolation-filters="sRGB" filterUnits="userSpaceOnUse" height="181" width="380" x="-10" y="36"><feFlood flood-opacity="0" result="BackgroundImageFix"/><feColorMatrix in="SourceAlpha" type="matrix" values="0 0 0 0 0 0 0 0 0 0 0 0 0 0 0 0 0 0 127 0"/><feOffset dy="12"/><feGaussianBlur stdDeviation="20"/><feColorMatrix type="matrix" values="0 0 0 0 0 0 0 0 0 0 0 0 0 0 0 0 0 0 0.05 0"/><feBlend in2="BackgroundImageFix" mode="normal" result="effect1_dropShadow"/><feColorMatrix in="SourceAlpha" type="matrix" values="0 0 0 0 0 0 0 0 0 0 0 0 0 0 0 0 0 0 127 0"/><feOffset dy="2"/><feGaussianBlur stdDeviation="2.5"/><feColorMatrix type="matrix" values="0 0 0 0 0 0 0 0 0 0 0 0 0 0 0 0 0 0 0.2 0"/><feBlend in2="effect1_dropShadow" mode="normal" result="effect2_dropShadow"/><feBlend in="SourceGraphic" in2="effect2_dropShadow" mode="normal" result="shape"/></filter><filter id="c" color-interpolation-filters="sRGB" filterUnits="userSpaceOnUse" height="181" width="380" x="-10" y="201"><feFlood flood-opacity="0" result="BackgroundImageFix"/><feColorMatrix in="SourceAlpha" type="matrix" values="0 0 0 0 0 0 0 0 0 0 0 0 0 0 0 0 0 0 127 0"/><feOffset dy="12"/><feGaussianBlur stdDeviation="20"/><feColorMatrix type="matrix" values="0 0 0 0 0 0 0 0 0 0 0 0 0 0 0 0 0 0 0.05 0"/><feBlend in2="BackgroundImageFix" mode="normal" result="effect1_dropShadow"/><feColorMatrix in="SourceAlpha" type="matrix" values="0 0 0 0 0 0 0 0 0 0 0 0 0 0 0 0 0 0 127 0"/><feOffset dy="2"/><feGaussianBlur stdDeviation="2.5"/><feColorMatrix type="matrix" values="0 0 0 0 0 0 0 0 0 0 0 0 0 0 0 0 0 0 0.2 0"/><feBlend in2="effect1_dropShadow" mode="normal" result="effect2_dropShadow"/><feBlend in="SourceGraphic" in2="effect2_dropShadow" mode="normal" result="shape"/></filter><filter id="d" color-interpolation-filters="sRGB" filterUnits="userSpaceOnUse" height="181" width="380" x="-10" y="322"><feFlood flood-opacity="0" result="BackgroundImageFix"/><feColorMatrix in="SourceAlpha" type="matrix" values="0 0 0 0 0 0 0 0 0 0 0 0 0 0 0 0 0 0 127 0"/><feOffset dy="12"/><feGaussianBlur stdDeviation="20"/><feColorMatrix type="matrix" values="0 0 0 0 0 0 0 0 0 0 0 0 0 0 0 0 0 0 0.05 0"/><feBlend in2="BackgroundImageFix" mode="normal" result="effect1_dropShadow"/><feColorMatrix in="SourceAlpha" type="matrix" values="0 0 0 0 0 0 0 0 0 0 0 0 0 0 0 0 0 0 127 0"/><feOffset dy="2"/><feGaussianBlur stdDeviation="2.5"/><feColorMatrix type="matrix" values="0 0 0 0 0 0 0 0 0 0 0 0 0 0 0 0 0 0 0.2 0"/><feBlend in2="effect1_dropShadow" mode="normal" result="effect2_dropShadow"/><feBlend in="SourceGraphic" in2="effect2_dropShadow" mode="normal" result="shape"/></filter><filter id="e" color-interpolation-filters="sRGB" filterUnits="userSpaceOnUse" height="181" width="380" x="310" y="201"><feFlood flood-opacity="0" result="BackgroundImageFix"/><feColorMatrix in="SourceAlpha" type="matrix" values="0 0 0 0 0 0 0 0 0 0 0 0 0 0 0 0 0 0 127 0"/><feOffset dy="12"/><feGaussianBlur stdDeviation="20"/><feColorMatrix type="matrix" values="0 0 0 0 0 0 0 0 0 0 0 0 0 0 0 0 0 0 0.05 0"/><feBlend in2="BackgroundImageFix" mode="normal" result="effect1_dropShadow"/><feColorMatrix in="SourceAlpha" type="matrix" values="0 0 0 0 0 0 0 0 0 0 0 0 0 0 0 0 0 0 127 0"/><feOffset dy="2"/><feGaussianBlur stdDeviation="2.5"/><feColorMatrix type="matrix" values="0 0 0 0 0 0 0 0 0 0 0 0 0 0 0 0 0 0 0.2 0"/><feBlend in2="effect1_dropShadow" mode="normal" result="effect2_dropShadow"/><feBlend in="SourceGraphic" in2="effect2_dropShadow" mode="normal" result="shape"/></filter><clipPath id="f"><path d="m0 10c0-5.52284 4.47715-10 10-10h660c5.523 0 10 4.47715 10 10v461c0 5.523-4.477 10-10 10h-660c-5.52284 0-10-4.477-10-10z"/></clipPath><g clip-path="url(#f)"><path d="m0 10c0-5.52284 4.47715-10 10-10h660c5.523 0 10 4.47715 10 10v461c0 5.523-4.477 10-10 10h-660c-5.52284 0-10-4.477-10-10z" fill="#fff"/><path d="m32.8203 40.5469v4.4531h-1.5v-11.375h4.1953c1.2448 0 2.2188.3177 2.9219.9531.7083.6354 1.0625 1.4766 1.0625 2.5235 0 1.1041-.3464 1.9557-1.0391 2.5546-.6875.5938-1.6744.8907-2.9609.8907zm0-1.2266h2.6953c.8021 0 1.4167-.1875 1.8438-.5625.4271-.3802.6406-.9271.6406-1.6406 0-.6771-.2135-1.2188-.6406-1.625-.4271-.4063-1.013-.6172-1.7578-.6328h-2.7813zm7.875 1.375c0-.8281.1615-1.5729.4844-2.2344.3281-.6614.7812-1.1718 1.3594-1.5312.5833-.3594 1.2474-.5391 1.9921-.5391 1.1511 0 2.0808.3985 2.7891 1.1953.7136.7969 1.0703 1.8568 1.0703 3.1797v.1016c0 .8229-.1588 1.5625-.4765 2.2187-.3125.6511-.7631 1.1589-1.3516 1.5235-.5833.3646-1.2552.5468-2.0156.5468-1.1459 0-2.0755-.3984-2.7891-1.1953-.7083-.7968-1.0625-1.8515-1.0625-3.164zm1.4531.1719c0 .9375.2162 1.6901.6485 2.2578.4375.5677 1.0208.8516 1.75.8516.7343 0 1.3177-.2865 1.75-.8594.4323-.5781.6484-1.3854.6484-2.4219 0-.9271-.2213-1.6771-.6641-2.25-.4374-.5781-1.0208-.8672-1.75-.8672-.7135 0-1.289.2839-1.7265.8516s-.6563 1.3802-.6563 2.4375zm7.7032-.1641c0-1.2969.3073-2.3385.9218-3.125.6146-.7916 1.4193-1.1875 2.4141-1.1875.9896 0 1.7734.3386 2.3516 1.0156v-4.4062h1.4453v12h-1.3282l-.0703-.9062c-.5781.7083-1.3828 1.0624-2.414 1.0624-.9792 0-1.7787-.401-2.3985-1.2031-.6145-.8021-.9218-1.8489-.9218-3.1406zm1.4453.1641c0 .9583.1979 1.7083.5937 2.25.3959.5417.9427.8125 1.6406.8125.9167 0 1.586-.4115 2.0079-1.2344v-3.8828c-.4323-.7969-1.0964-1.1953-1.9922-1.1953-.7084 0-1.2604.2734-1.6563.8203-.3958.5469-.5937 1.3568-.5937 2.4297zm7.5547-.1719c0-.8281.1614-1.5729.4843-2.2344.3282-.6614.7813-1.1718 1.3594-1.5312.5833-.3594 1.2474-.5391 1.9922-.5391 1.151 0 2.0807.3985 2.7891 1.1953.7135.7969 1.0703 1.8568 1.0703 3.1797v.1016c0 .8229-.1589 1.5625-.4766 2.2187-.3125.6511-.763 1.1589-1.3515 1.5235-.5834.3646-1.2553.5468-2.0157.5468-1.1458 0-2.0755-.3984-2.789-1.1953-.7084-.7968-1.0625-1.8515-1.0625-3.164zm1.4531.1719c0 .9375.2161 1.6901.6484 2.2578.4375.5677 1.0209.8516 1.75.8516.7344 0 1.3177-.2865 1.75-.8594.4323-.5781.6485-1.3854.6485-2.4219 0-.9271-.2214-1.6771-.6641-2.25-.4375-.5781-1.0208-.8672-1.75-.8672-.7135 0-1.2891.2839-1.7266.8516s-.6562 1.3802-.6562 2.4375zm15.2109 0c0 1.2917-.2968 2.3307-.8906 3.1172-.5938.7812-1.3906 1.1718-2.3906 1.1718-1.0677 0-1.8933-.3776-2.4766-1.1328l-.0703.9766h-1.3281v-12h1.4453v4.4766c.5833-.724 1.388-1.086 2.4141-1.086 1.026 0 1.8307.388 2.414 1.1641.5886.776.8828 1.8385.8828 3.1875zm-1.4453-.1641c0-.9843-.1901-1.7448-.5703-2.2812-.3802-.5365-.9271-.8047-1.6406-.8047-.9532 0-1.638.4427-2.0547 1.3281v3.6563c.4427.8854 1.1328 1.3281 2.0703 1.3281.6927 0 1.2318-.2682 1.6172-.8047s.5781-1.3438.5781-2.4219zm4.6406-4.1562.0469 1.0625c.6458-.8125 1.4896-1.2188 2.5313-1.2188 1.7864 0 2.6875 1.0078 2.7031 3.0235v5.5859h-1.4453v-5.5938c-.0052-.6093-.1459-1.0598-.4219-1.3515-.2708-.2917-.6953-.4375-1.2734-.4375-.4688 0-.8802.125-1.2344.375s-.6302.5781-.8281.9844v6.0234h-1.4453v-8.4531zm10.9688 8.6093c-1.1458 0-2.0781-.375-2.7969-1.125-.7187-.7552-1.0781-1.763-1.0781-3.0234v-.2656c0-.8386.1588-1.586.4765-2.2422.323-.6615.7709-1.1771 1.3438-1.5469.5781-.375 1.2031-.5625 1.875-.5625 1.099 0 1.9531.362 2.5625 1.086.6094.7239.9141 1.7604.9141 3.1093v.6016h-5.7266c.0208.8333.263 1.5078.7266 2.0234.4687.5105 1.0625.7657 1.7812.7657.5104 0 .9427-.1042 1.2969-.3125.3542-.2084.6641-.4844.9297-.8282l.8828.6875c-.7083 1.0886-1.7708 1.6328-3.1875 1.6328zm-.1797-7.5781c-.5833 0-1.0729.2136-1.4688.6407-.3958.4218-.6406 1.0156-.7343 1.7812h4.2343v-.1094c-.0416-.7344-.2395-1.3021-.5937-1.7031-.3542-.4063-.8333-.6094-1.4375-.6094zm.7031-4.5781h1.75l-2.0937 2.2969h-1.1641zm13.3439 9.7578c0-.3906-.149-.6927-.445-.9062-.292-.2188-.805-.4063-1.54-.5625-.729-.1563-1.309-.3438-1.7417-.5625-.4271-.2188-.7448-.4792-.9531-.7813-.2031-.3021-.3047-.6614-.3047-1.0781 0-.6927.2917-1.2787.875-1.7578.5885-.4792 1.3385-.7188 2.2505-.7188.958 0 1.734.2474 2.328.7422.599.4948.898 1.1276.898 1.8984h-1.453c0-.3958-.169-.7369-.508-1.0234-.333-.2864-.755-.4297-1.265-.4297-.527 0-.938.1146-1.235.3438-.297.2291-.445.5286-.445.8984 0 .349.138.612.414.7891s.773.3463 1.492.5078c.724.1614 1.31.3542 1.758.5781.448.224.779.4948.992.8125.219.3125.328.6953.328 1.1484 0 .7553-.302 1.362-.906 1.8204-.604.4531-1.388.6796-2.352.6796-.677 0-1.276-.1197-1.7965-.3593-.5208-.2396-.9297-.5729-1.2266-1-.2916-.4323-.4375-.8985-.4375-1.3985h1.4454c.026.4844.2187.8698.5782 1.1563.364.2812.844.4219 1.437.4219.547 0 .985-.1094 1.313-.3282.333-.2239.5-.5208.5-.8906zm2.945-2.0625c0-.8281.162-1.5729.485-2.2344.328-.6614.781-1.1718 1.359-1.5312.583-.3594 1.247-.5391 1.992-.5391 1.151 0 2.081.3985 2.789 1.1953.714.7969 1.071 1.8568 1.071 3.1797v.1016c0 .8229-.159 1.5625-.477 2.2187-.313.6511-.763 1.1589-1.352 1.5235-.583.3646-1.255.5468-2.015.5468-1.146 0-2.076-.3984-2.789-1.1953-.709-.7968-1.063-1.8515-1.063-3.164zm1.453.1719c0 .9375.216 1.6901.649 2.2578.437.5677 1.021.8516 1.75.8516.734 0 1.317-.2865 1.75-.8594.432-.5781.648-1.3854.648-2.4219 0-.9271-.221-1.6771-.664-2.25-.437-.5781-1.021-.8672-1.75-.8672-.713 0-1.289.2839-1.726.8516-.438.5677-.657 1.3802-.657 2.4375zm13.274 3.2969c-.563.6614-1.388.9921-2.477.9921-.901 0-1.588-.2604-2.062-.7812-.469-.526-.706-1.3021-.711-2.3281v-5.5h1.445v5.4609c0 1.2813.521 1.9219 1.563 1.9219 1.104 0 1.838-.4115 2.203-1.2344v-6.1484h1.445v8.4531h-1.375zm5.57-9.6641v2.0469h1.578v1.1172h-1.578v5.2421c0 .3386.07.5938.211.7657.141.1666.38.25.719.25.166 0 .396-.0313.687-.0938v1.1719c-.38.1042-.75.1562-1.109.1562-.646 0-1.133-.1953-1.461-.5859s-.492-.9453-.492-1.6641v-5.2421h-1.539v-1.1172h1.539v-2.0469zm6.781 10.6562c-1.146 0-2.078-.375-2.797-1.125-.718-.7552-1.078-1.763-1.078-3.0234v-.2656c0-.8386.159-1.586.477-2.2422.323-.6615.771-1.1771 1.344-1.5469.578-.375 1.203-.5625 1.875-.5625 1.099 0 1.953.362 2.562 1.086.609.7239.914 1.7604.914 3.1093v.6016h-5.726c.02.8333.263 1.5078.726 2.0234.469.5105 1.063.7657 1.781.7657.511 0 .943-.1042 1.297-.3125.354-.2084.664-.4844.93-.8282l.883.6875c-.709 1.0886-1.771 1.6328-3.188 1.6328zm-.179-7.5781c-.584 0-1.073.2136-1.469.6407-.396.4218-.641 1.0156-.734 1.7812h4.234v-.1094c-.042-.7344-.24-1.3021-.594-1.7031-.354-.4063-.833-.6094-1.437-.6094zm-.016-3.25 1.172-1.3281h1.25v.0781l-1.985 2.1407h-.882l-1.961-2.1407v-.0781h1.226zm6.531 9.4922h4.946v1.1797h-6.711v-1.0625l4.664-6.1953h-4.594v-1.1953h6.406v1.0234zm1.555-9.4922 1.172-1.3281h1.25v.0781l-1.985 2.1407h-.882l-1.961-2.1407v-.0781h1.226zm8.406 10.8281c-1.146 0-2.078-.375-2.797-1.125-.718-.7552-1.078-1.763-1.078-3.0234v-.2656c0-.8386.159-1.586.477-2.2422.323-.6615.771-1.1771 1.343-1.5469.579-.375 1.204-.5625 1.876-.5625 1.098 0 1.953.362 2.562 1.086.609.7239.914 1.7604.914 3.1093v.6016h-5.726c.02.8333.263 1.5078.726 2.0234.469.5105 1.063.7657 1.781.7657.511 0 .943-.1042 1.297-.3125.354-.2084.664-.4844.93-.8282l.883.6875c-.709 1.0886-1.771 1.6328-3.188 1.6328zm-.179-7.5781c-.584 0-1.073.2136-1.469.6407-.396.4218-.641 1.0156-.735 1.7812h4.235v-.1094c-.042-.7344-.24-1.3021-.594-1.7031-.354-.4063-.833-.6094-1.437-.6094z" fill="#718096"/><g filter="url(#a)"><path d="m350 69c0-2.7614 2.239-5 5-5h290c2.761 0 5 2.2386 5 5v91c0 2.761-2.239 5-5 5h-290c-2.761 0-5-2.239-5-5z" fill="#fff"/><path d="m350 68c0-2.2091 1.791-4 4-4h292c2.209 0 4 1.7909 4 4z" fill="#ecc94b"/><path d="m365.32 100v-11.375h3.211c.99 0 1.865.2188 2.625.6562.761.4376 1.347 1.0599 1.758 1.8672.417.8073.628 1.7344.633 2.7813v.7265c0 1.073-.208 2.0131-.625 2.8204-.412.8073-1.003 1.427-1.774 1.8593-.765.4323-1.658.6537-2.679.6641zm1.5-10.1406v8.914h1.578c1.157 0 2.055-.3593 2.696-1.0781.646-.7187.968-1.7422.968-3.0703v-.6641c0-1.2916-.304-2.2942-.914-3.0078-.604-.7187-1.463-1.0833-2.578-1.0937zm12.282 10.2966c-1.146 0-2.079-.3748-2.797-1.1248-.719-.7552-1.078-1.763-1.078-3.0234v-.2656c0-.8386.158-1.586.476-2.2422.323-.6615.771-1.1771 1.344-1.5469.578-.375 1.203-.5625 1.875-.5625 1.099 0 1.953.362 2.562 1.086.61.7239.914 1.7604.914 3.1093v.6016h-5.726c.021.8333.263 1.5078.726 2.0234.469.5105 1.063.7657 1.782.7657.51 0 .942-.1042 1.297-.3125.354-.2084.664-.4844.929-.8282l.883.6875c-.708 1.0886-1.771 1.6326-3.187 1.6326zm-.18-7.5779c-.583 0-1.073.2136-1.469.6407-.396.4218-.641 1.0156-.734 1.7812h4.234v-.1094c-.042-.7344-.239-1.3021-.594-1.7031-.354-.4063-.833-.6094-1.437-.6094zm12.312 3.2891c0 1.2917-.296 2.3307-.89 3.1172-.594.7812-1.391 1.1716-2.391 1.1716-1.068 0-1.893-.3774-2.476-1.1326l-.071.9766h-1.328v-12h1.445v4.4766c.584-.724 1.388-1.086 2.415-1.086 1.026 0 1.83.388 2.414 1.1641.588.776.882 1.8385.882 3.1875zm-1.445-.1641c0-.9843-.19-1.7448-.57-2.2812-.38-.5365-.927-.8047-1.641-.8047-.953 0-1.638.4427-2.055 1.3281v3.6563c.443.8854 1.133 1.3281 2.071 1.3281.692 0 1.232-.2682 1.617-.8047s.578-1.3438.578-2.4219zm8.492 4.2969c-.083-.1667-.151-.4635-.203-.8906-.672.6979-1.474 1.0466-2.406 1.0466-.833 0-1.518-.2341-2.055-.7029-.531-.4739-.797-1.0729-.797-1.7969 0-.8802.334-1.5624 1-2.0468.672-.4896 1.615-.7344 2.828-.7344h1.407v-.6641c0-.5052-.151-.9062-.453-1.2031-.303-.3021-.748-.4531-1.336-.4531-.516 0-.948.1302-1.297.3906s-.524.5755-.524.9453h-1.453c0-.4218.149-.8281.446-1.2187.302-.3959.708-.7084 1.218-.9375.516-.2292 1.081-.3438 1.696-.3438.974 0 1.737.2448 2.289.7344.552.4844.838 1.1536.859 2.0078v3.8906c0 .7761.099 1.3933.297 1.8516v.125zm-2.398-1.1016c.453 0 .883-.1172 1.289-.3515.406-.2344.7-.5391.883-.9141v-1.7344h-1.133c-1.771 0-2.656.5183-2.656 1.5547 0 .4531.151.8073.453 1.0625s.69.3828 1.164.3828zm7.844-9.3984v2.0469h1.578v1.1172h-1.578v5.2421c0 .3386.07.5938.211.7657.14.1666.38.25.718.25.167 0 .396-.0313.688-.0938v1.1719c-.38.104-.75.156-1.11.156-.645 0-1.132-.1951-1.461-.5857-.328-.3906-.492-.9453-.492-1.6641v-5.2421h-1.539v-1.1172h1.539v-2.0469zm6.781 10.656c-1.146 0-2.078-.3748-2.797-1.1248-.719-.7552-1.078-1.763-1.078-3.0234v-.2656c0-.8386.159-1.586.476-2.2422.323-.6615.771-1.1771 1.344-1.5469.578-.375 1.203-.5625 1.875-.5625 1.099 0 1.953.362 2.563 1.086.609.7239.914 1.7604.914 3.1093v.6016h-5.727c.021.8333.263 1.5078.727 2.0234.468.5105 1.062.7657 1.781.7657.51 0 .943-.1042 1.297-.3125.354-.2084.664-.4844.929-.8282l.883.6875c-.708 1.0886-1.771 1.6326-3.187 1.6326zm-.18-7.5779c-.583 0-1.073.2136-1.469.6407-.395.4218-.64 1.0156-.734 1.7812h4.234v-.1094c-.041-.7344-.239-1.3021-.593-1.7031-.355-.4063-.834-.6094-1.438-.6094zm10.695 7.4219h-1.445v-12h1.445zm5.829.156c-1.146 0-2.079-.3748-2.797-1.1248-.719-.7552-1.078-1.763-1.078-3.0234v-.2656c0-.8386.158-1.586.476-2.2422.323-.6615.771-1.1771 1.344-1.5469.578-.375 1.203-.5625 1.875-.5625 1.099 0 1.953.362 2.562 1.086.61.7239.914 1.7604.914 3.1093v.6016h-5.726c.021.8333.263 1.5078.726 2.0234.469.5105 1.063.7657 1.782.7657.51 0 .942-.1042 1.297-.3125.354-.2084.664-.4844.929-.8282l.883.6875c-.708 1.0886-1.771 1.6326-3.187 1.6326zm-.18-7.5779c-.583 0-1.073.2136-1.469.6407-.396.4218-.641 1.0156-.734 1.7812h4.234v-.1094c-.042-.7344-.239-1.3021-.594-1.7031-.354-.4063-.833-.6094-1.437-.6094zm10.375 7.4219c-.083-.1667-.151-.4635-.203-.8906-.672.6979-1.474 1.0466-2.406 1.0466-.834 0-1.519-.2341-2.055-.7029-.531-.4739-.797-1.0729-.797-1.7969 0-.8802.333-1.5624 1-2.0468.672-.4896 1.615-.7344 2.828-.7344h1.406v-.6641c0-.5052-.151-.9062-.453-1.2031-.302-.3021-.747-.4531-1.336-.4531-.515 0-.948.1302-1.297.3906s-.523.5755-.523.9453h-1.453c0-.4218.148-.8281.445-1.2187.302-.3959.708-.7084 1.219-.9375.516-.2292 1.081-.3438 1.695-.3438.974 0 1.737.2448 2.289.7344.552.4844.839 1.1536.86 2.0078v3.8906c0 .7761.099 1.3933.296 1.8516v.125zm-2.399-1.1016c.454 0 .883-.1172 1.29-.3515.406-.2344.7-.5391.882-.9141v-1.7344h-1.132c-1.771 0-2.657.5183-2.657 1.5547 0 .4531.151.8073.453 1.0625s.69.3828 1.164.3828zm5.54-3.1953c0-1.3177.304-2.3646.914-3.1406.609-.7813 1.416-1.1719 2.421-1.1719 1.032 0 1.836.3646 2.415 1.0938l.07-.9375h1.32v8.25c0 1.0941-.325 1.9561-.976 2.5861-.646.63-1.516.945-2.61.945-.609 0-1.206-.13-1.789-.39-.583-.261-1.029-.618-1.336-1.071l.75-.867c.62.766 1.378 1.148 2.274 1.148.703 0 1.25-.197 1.64-.593.396-.396.594-.953.594-1.6722v-.7266c-.578.6667-1.367.9998-2.367.9998-.99 0-1.792-.3982-2.406-1.1951-.61-.7968-.914-1.8828-.914-3.2578zm1.453.1641c0 .9531.195 1.7031.586 2.25.39.5417.937.8125 1.64.8125.912 0 1.581-.4141 2.008-1.2422v-3.8594c-.443-.8073-1.107-1.2109-1.992-1.2109-.703 0-1.253.2734-1.649.8203-.395.5469-.593 1.3568-.593 2.4297zm13.093 3.2969c-.562.6614-1.388.9919-2.476.9919-.901 0-1.589-.2602-2.063-.781-.468-.526-.705-1.3021-.711-2.3281v-5.5h1.446v5.4609c0 1.2813.521 1.9219 1.562 1.9219 1.104 0 1.839-.4115 2.203-1.2344v-6.1484h1.446v8.4531h-1.375zm7.118.9919c-1.146 0-2.079-.3748-2.797-1.1248-.719-.7552-1.078-1.763-1.078-3.0234v-.2656c0-.8386.158-1.586.476-2.2422.323-.6615.771-1.1771 1.344-1.5469.578-.375 1.203-.5625 1.875-.5625 1.099 0 1.953.362 2.562 1.086.61.7239.914 1.7604.914 3.1093v.6016h-5.726c.021.8333.263 1.5078.726 2.0234.469.5105 1.063.7657 1.782.7657.51 0 .942-.1042 1.297-.3125.354-.2084.664-.4844.929-.8282l.883.6875c-.708 1.0886-1.771 1.6326-3.187 1.6326zm-.18-7.5779c-.583 0-1.073.2136-1.469.6407-.396.4218-.641 1.0156-.734 1.7812h4.234v-.1094c-.042-.7344-.239-1.3021-.594-1.7031-.354-.4063-.833-.6094-1.437-.6094z" fill="#000"/><path d="m350 122h300v38c0 2.761-2.239 5-5 5h-290c-2.761 0-5-2.239-5-5z" fill="#f8f8f8"/><path d="m370.504 144.197c-.965-.277-1.668-.617-2.109-1.019-.438-.407-.657-.907-.657-1.5 0-.672.268-1.227.803-1.664.539-.442 1.238-.662 2.098-.662.586 0 1.107.113 1.564.339.461.227.817.539 1.067.938.253.398.38.834.38 1.307h-1.13c0-.516-.165-.92-.493-1.213-.328-.297-.791-.446-1.388-.446-.555 0-.989.123-1.301.369-.309.243-.463.581-.463 1.014 0 .348.146.643.439.885.297.238.799.457 1.506.656.711.199 1.266.42 1.664.662.403.239.7.518.891.838.195.32.293.697.293 1.131 0 .691-.27 1.246-.809 1.664-.539.414-1.259.621-2.162.621-.586 0-1.133-.111-1.64-.334-.508-.226-.901-.535-1.178-.926-.274-.39-.41-.834-.41-1.33h1.131c0 .516.189.924.568 1.225.383.297.893.445 1.529.445.594 0 1.049-.121 1.365-.363.317-.242.475-.572.475-.99s-.146-.74-.439-.967c-.293-.231-.825-.457-1.594-.68zm7.125 0c-.965-.277-1.668-.617-2.109-1.019-.438-.407-.657-.907-.657-1.5 0-.672.268-1.227.803-1.664.539-.442 1.238-.662 2.098-.662.586 0 1.107.113 1.564.339.461.227.817.539 1.067.938.253.398.38.834.38 1.307h-1.13c0-.516-.165-.92-.493-1.213-.328-.297-.791-.446-1.388-.446-.555 0-.989.123-1.301.369-.309.243-.463.581-.463 1.014 0 .348.146.643.439.885.297.238.799.457 1.506.656.711.199 1.266.42 1.664.662.403.239.7.518.891.838.195.32.293.697.293 1.131 0 .691-.27 1.246-.809 1.664-.539.414-1.259.621-2.162.621-.586 0-1.133-.111-1.64-.334-.508-.226-.901-.535-1.178-.926-.274-.39-.41-.834-.41-1.33h1.131c0 .516.189.924.568 1.225.383.297.893.445 1.529.445.594 0 1.049-.121 1.366-.363.316-.242.474-.572.474-.99s-.146-.74-.439-.967c-.293-.231-.825-.457-1.594-.68zm.135-6.029.879-.996h.937v.058l-1.488 1.606h-.662l-1.471-1.606v-.058h.92zm4.271 9.264c0-.188.055-.344.164-.469.113-.125.281-.188.504-.188s.391.063.504.188c.117.125.176.281.176.469 0 .179-.059.33-.176.451-.113.121-.281.181-.504.181s-.391-.06-.504-.181c-.109-.121-.164-.272-.164-.451zm.006-5.174c0-.188.055-.344.164-.469.113-.125.281-.187.504-.187s.391.062.504.187c.117.125.176.281.176.469 0 .18-.059.33-.176.451-.113.121-.281.182-.504.182s-.391-.061-.504-.182c-.109-.121-.164-.271-.164-.451zm7.289 5.742h-1.125v-8.531h1.125zm7.893-3.814h-5.871v-.885h5.871zm3.252 3.814h-1.125v-8.531h1.125zm4.886-1.494 2.438-7.037h1.23l-3.164 8.531h-.996l-3.158-8.531h1.225zm10.688-3.873c-.164-.028-.342-.041-.533-.041-.711 0-1.194.303-1.448.908v4.5h-1.084v-6.34h1.055l.018.733c.355-.567.859-.85 1.511-.85.211 0 .371.027.481.082zm.597 2.138c0-.621.122-1.179.364-1.675.246-.496.586-.879 1.019-1.149.438-.269.936-.404 1.494-.404.864 0 1.561.299 2.092.896.535.598.803 1.393.803 2.385v.076c0 .618-.119 1.172-.357 1.664-.235.489-.573.87-1.014 1.143-.438.273-.942.41-1.512.41-.859 0-1.556-.299-2.092-.896-.531-.598-.797-1.389-.797-2.373zm1.09.129c0 .704.162 1.268.487 1.694.328.426.765.638 1.312.638.551 0 .988-.214 1.313-.644.324-.434.486-1.039.486-1.817 0-.695-.166-1.257-.498-1.687-.328-.434-.766-.65-1.313-.65-.535 0-.966.212-1.294.638-.329.426-.493 1.035-.493 1.828zm8.584 2.332c.387 0 .725-.117 1.014-.351.289-.235.449-.527.48-.879h1.026c-.02.363-.145.709-.375 1.037-.231.328-.539.59-.926.785-.383.196-.789.293-1.219.293-.863 0-1.55-.287-2.062-.861-.508-.578-.762-1.367-.762-2.367v-.182c0-.617.113-1.166.34-1.646.226-.481.551-.854.973-1.12.425-.265.927-.398 1.505-.398.711 0 1.301.213 1.77.639.473.425.725.978.756 1.658h-1.026c-.031-.41-.187-.746-.468-1.008-.278-.266-.621-.398-1.032-.398-.55 0-.978.199-1.283.597-.301.395-.451.967-.451 1.717v.205c0 .731.15 1.293.451 1.688.301.394.731.591 1.289.591zm-.252-7.236.879-.996h.938v.059l-1.489 1.605h-.662l-1.47-1.605v-.059h.92zm5.016 1.664.035.797c.485-.609 1.117-.914 1.899-.914 1.339 0 2.015.756 2.027 2.268v4.189h-1.084v-4.195c-.004-.457-.109-.795-.316-1.014-.204-.219-.522-.328-.956-.328-.351 0-.66.094-.925.281-.266.188-.473.434-.621.738v4.518h-1.084v-6.34zm6.773 6.34h-1.089v-6.34h1.089zm.012-8.994h1.313l-1.571 1.723h-.873zm3.545 6.058-.68.709v2.227h-1.084v-9h1.084v5.443l.58-.697 1.975-2.086h1.318l-2.466 2.649 2.754 3.691h-1.272z" fill="#7c7c7c"/></g><g filter="url(#b)"><path d="m30 69c0-2.7614 2.2386-5 5-5h290c2.761 0 5 2.2386 5 5v91c0 2.761-2.239 5-5 5h-290c-2.7614 0-5-2.239-5-5z" fill="#fff"/><path d="m30 68c0-2.2091 1.7909-4 4-4h292c2.209 0 4 1.7909 4 4z" fill="#ecc94b"/><path d="m53.6875 96.3906c-.1406 1.2032-.5859 2.1328-1.3359 2.7891-.7448.651-1.737.9763-2.9766.9763-1.3438 0-2.4219-.4815-3.2344-1.4451-.8073-.9635-1.2109-2.2526-1.2109-3.8671v-1.0938c0-1.0573.1875-1.987.5625-2.7891.3802-.802.9167-1.4166 1.6094-1.8437.6927-.4323 1.4948-.6484 2.4062-.6484 1.2083 0 2.1771.3385 2.9063 1.0156.7291.6718 1.1536 1.6041 1.2734 2.7968h-1.5078c-.1302-.9062-.4141-1.5624-.8516-1.9687-.4323-.4063-1.039-.6094-1.8203-.6094-.9583 0-1.7109.3542-2.2578 1.0625-.5417.7084-.8125 1.7162-.8125 3.0235v1.1015c0 1.2344.2578 2.2162.7734 2.9453.5157.7292 1.237 1.0938 2.1641 1.0938.8333 0 1.4714-.1875 1.9141-.5625.4479-.3802.7448-1.0391.8906-1.9766zm-4.3906-9.7422 1.1719-1.3281h1.25v.0781l-1.9844 2.1407h-.8828l-1.961-2.1407v-.0781h1.2266zm9.7265 13.5076c-1.1458 0-2.0781-.3748-2.7968-1.1248-.7188-.7552-1.0782-1.763-1.0782-3.0234v-.2656c0-.8386.1589-1.586.4766-2.2422.3229-.6615.7708-1.1771 1.3438-1.5469.5781-.375 1.2031-.5625 1.875-.5625 1.0989 0 1.9531.362 2.5624 1.086.6094.7239.9141 1.7604.9141 3.1093v.6016h-5.7265c.0208.8333.263 1.5078.7265 2.0234.4688.5105 1.0625.7657 1.7813.7657.5104 0 .9427-.1042 1.2968-.3125.3542-.2084.6641-.4844.9297-.8282l.8828.6875c-.7083 1.0886-1.7708 1.6326-3.1875 1.6326zm-.1796-7.5779c-.5834 0-1.073.2136-1.4688.6407-.3958.4218-.6406 1.0156-.7344 1.7812h4.2344v-.1094c-.0417-.7344-.2396-1.3021-.5938-1.7031-.3541-.4063-.8333-.6094-1.4374-.6094zm10.0781 5.1797c0-.3906-.1485-.6927-.4453-.9062-.2917-.2188-.8047-.4063-1.5391-.5625-.7292-.1563-1.3099-.3438-1.7422-.5625-.4271-.2188-.7448-.4792-.9531-.7813-.2031-.3021-.3047-.6614-.3047-1.0781 0-.6927.2917-1.2787.875-1.7578.5885-.4792 1.3385-.7188 2.25-.7188.9583 0 1.7344.2474 2.3281.7422.599.4948.8985 1.1276.8985 1.8984h-1.4532c0-.3958-.1692-.7369-.5078-1.0234-.3333-.2864-.7552-.4297-1.2656-.4297-.526 0-.9375.1146-1.2344.3438-.2969.2291-.4453.5286-.4453.8984 0 .349.138.612.4141.7891.276.1771.7734.3463 1.4922.5078.7239.1614 1.3099.3542 1.7578.5781.4479.224.7786.4948.9922.8125.2187.3125.3281.6953.3281 1.1484 0 .7553-.3021 1.362-.9063 1.8204-.6041.4531-1.388.6794-2.3515.6794-.6771 0-1.2761-.12-1.7969-.3591-.5208-.2396-.9297-.5729-1.2266-1-.2916-.4323-.4375-.8985-.4375-1.3985h1.4454c.026.4844.2187.8698.5781 1.1563.3646.2812.8437.4219 1.4375.4219.5468 0 .9844-.1094 1.3125-.3282.3333-.2239.5-.5208.5-.8906zm5.6875-1.6719-.9063.9453v2.9688h-1.4453v-12h1.4453v7.2578l.7735-.9297 2.6328-2.7812h1.7578l-3.2891 3.5312 3.6719 4.9219h-1.6953zm10.9687 3.9141c-.0833-.1667-.151-.4635-.2031-.8906-.6719.6979-1.474 1.0466-2.4062 1.0466-.8334 0-1.5183-.2341-2.0547-.7029-.5313-.4739-.7969-1.0729-.7969-1.7969 0-.8802.3333-1.5624 1-2.0468.6719-.4896 1.6146-.7344 2.8281-.7344h1.4063v-.6641c0-.5052-.1511-.9062-.4532-1.2031-.302-.3021-.7474-.4531-1.3359-.4531-.5156 0-.9479.1302-1.2969.3906-.3489.2604-.5234.5755-.5234.9453h-1.4531c0-.4218.1484-.8281.4453-1.2187.3021-.3959.7083-.7084 1.2187-.9375.5157-.2292 1.0808-.3438 1.6953-.3438.974 0 1.737.2448 2.2891.7344.5521.4844.8385 1.1536.8594 2.0078v3.8906c0 .7761.0989 1.3933.2969 1.8516v.125zm-2.3984-1.1016c.4531 0 .8828-.1172 1.2891-.3515.4062-.2344.7005-.5391.8828-.9141v-1.7344h-1.1328c-1.7709 0-2.6563.5183-2.6563 1.5547 0 .4531.151.8073.4531 1.0625s.6901.3828 1.1641.3828zm1.3359-10.8984h1.75l-2.0937 2.2969h-1.1641zm10.086 12h-1.4454v-12h1.4454zm3.8906 0h-1.4453v-8.4531h1.4453zm-1.5625-10.6953c0-.2344.0703-.4323.2109-.5938.1459-.1614.3594-.2421.6406-.2421.2813 0 .4948.0807.6407.2421.1458.1615.2187.3594.2187.5938s-.0729.4297-.2187.5859c-.1459.1563-.3594.2344-.6407.2344-.2812 0-.4947-.0781-.6406-.2344-.1406-.1562-.2109-.3515-.2109-.5859zm5.2503 2.2422.047 1.0625c.645-.8125 1.489-1.2188 2.531-1.2188 1.786 0 2.687 1.0078 2.703 3.0235v5.5859h-1.445v-5.5938c-.006-.6093-.146-1.0598-.422-1.3515-.271-.2917-.696-.4375-1.274-.4375-.468 0-.88.125-1.234.375s-.63.5781-.828.9844v6.0234h-1.446v-8.4531zm7.117 4.1562c0-1.3177.305-2.3646.914-3.1406.609-.7813 1.417-1.1719 2.422-1.1719 1.031 0 1.836.3646 2.414 1.0938l.07-.9375h1.321v8.25c0 1.0941-.326 1.9561-.977 2.5861-.646.63-1.516.945-2.609.945-.61 0-1.206-.13-1.79-.39-.583-.261-1.028-.618-1.335-1.071l.75-.867c.619.766 1.377 1.148 2.273 1.148.703 0 1.25-.197 1.641-.593.395-.396.593-.953.593-1.6722v-.7266c-.578.6667-1.367.9998-2.367.9998-.989 0-1.791-.3982-2.406-1.1951-.609-.7968-.914-1.8828-.914-3.2578zm1.453.1641c0 .9531.195 1.7031.586 2.25.391.5417.937.8125 1.641.8125.911 0 1.58-.4141 2.007-1.2422v-3.8594c-.442-.8073-1.106-1.2109-1.992-1.2109-.703 0-1.252.2734-1.648.8203s-.594 1.3568-.594 2.4297zm10.664 2.1719 2.094-6.4922h1.476l-3.031 8.4531h-1.101l-3.063-8.4531h1.477zm6.531 1.9609h-1.445v-8.4531h1.445zm-1.562-10.6953c0-.2344.07-.4323.211-.5938.146-.1614.359-.2421.64-.2421.282 0 .495.0807.641.2421.146.1615.219.3594.219.5938s-.073.4297-.219.5859c-.146.1563-.359.2344-.641.2344-.281 0-.494-.0781-.64-.2344-.141-.1562-.211-.3515-.211-.5859zm8.805 8.4531c0-.3906-.149-.6927-.446-.9062-.291-.2188-.804-.4063-1.539-.5625-.729-.1563-1.31-.3438-1.742-.5625-.427-.2188-.745-.4792-.953-.7813-.203-.3021-.305-.6614-.305-1.0781 0-.6927.292-1.2787.875-1.7578.589-.4792 1.339-.7188 2.25-.7188.958 0 1.734.2474 2.328.7422.599.4948.899 1.1276.899 1.8984h-1.453c0-.3958-.17-.7369-.508-1.0234-.334-.2864-.755-.4297-1.266-.4297-.526 0-.937.1146-1.234.3438-.297.2291-.446.5286-.446.8984 0 .349.138.612.414.7891.277.1771.774.3463 1.493.5078.724.1614 1.31.3542 1.757.5781.448.224.779.4948.993.8125.218.3125.328.6953.328 1.1484 0 .7553-.302 1.362-.906 1.8204-.605.4531-1.388.6794-2.352.6794-.677 0-1.276-.12-1.797-.3591-.521-.2396-.93-.5729-1.226-1-.292-.4323-.438-.8985-.438-1.3985h1.445c.026.4844.219.8698.579 1.1563.364.2812.843.4219 1.437.4219.547 0 .984-.1094 1.313-.3282.333-.2239.5-.5208.5-.8906zm5.289-8.2578v2.0469h1.578v1.1172h-1.578v5.2421c0 .3386.07.5938.211.7657.14.1666.38.25.718.25.167 0 .396-.0313.688-.0938v1.1719c-.38.104-.75.156-1.11.156-.645 0-1.132-.1951-1.461-.5857-.328-.3906-.492-.9453-.492-1.6641v-5.2421h-1.539v-1.1172h1.539v-2.0469zm4.843 10.5h-1.445v-8.4531h1.445zm-1.562-10.6953c0-.2344.07-.4323.211-.5938.146-.1614.359-.2421.64-.2421.282 0 .495.0807.641.2421.146.1615.219.3594.219.5938s-.073.4297-.219.5859c-.146.1563-.359.2344-.641.2344-.281 0-.494-.0781-.64-.2344-.141-.1562-.211-.3515-.211-.5859zm7.273 9.6719c.516 0 .966-.1563 1.352-.4688.385-.3125.599-.7031.64-1.1719h1.368c-.026.4844-.193.9453-.5 1.3829-.308.4374-.719.7864-1.235 1.0468-.51.2604-1.052.3904-1.625.3904-1.151 0-2.067-.3826-2.75-1.1482-.677-.7708-1.015-1.8229-1.015-3.1562v-.2422c0-.8229.151-1.5547.453-2.1953.302-.6407.734-1.1381 1.297-1.4922.567-.3542 1.237-.5313 2.007-.5313.948 0 1.735.2839 2.36.8516.63.5677.966 1.3047 1.008 2.2109h-1.368c-.041-.5469-.25-.9948-.625-1.3437-.369-.3542-.828-.5313-1.375-.5313-.734 0-1.304.2657-1.711.7969-.401.526-.601 1.2891-.601 2.2891v.2734c0 .974.2 1.724.601 2.25.402.526.974.7891 1.719.7891zm7.344-2.8907-.906.9453v2.9688h-1.446v-12h1.446v7.2578l.773-.9297 2.633-2.7812h1.758l-3.289 3.5312 3.672 4.9219h-1.696zm10.969 3.9141c-.084-.1667-.151-.4635-.203-.8906-.672.6979-1.474 1.0466-2.407 1.0466-.833 0-1.518-.2341-2.054-.7029-.532-.4739-.797-1.0729-.797-1.7969 0-.8802.333-1.5624 1-2.0468.672-.4896 1.614-.7344 2.828-.7344h1.406v-.6641c0-.5052-.151-.9062-.453-1.2031-.302-.3021-.747-.4531-1.336-.4531-.516 0-.948.1302-1.297.3906s-.523.5755-.523.9453h-1.453c0-.4218.148-.8281.445-1.2187.302-.3959.708-.7084 1.219-.9375.515-.2292 1.08-.3438 1.695-.3438.974 0 1.737.2448 2.289.7344.552.4844.839 1.1536.859 2.0078v3.8906c0 .7761.099 1.3933.297 1.8516v.125zm-2.399-1.1016c.453 0 .883-.1172 1.289-.3515.407-.2344.701-.5391.883-.9141v-1.7344h-1.133c-1.77 0-2.656.5183-2.656 1.5547 0 .4531.151.8073.453 1.0625s.69.3828 1.164.3828zm1.336-10.8984h1.75l-2.093 2.2969h-1.165zm8.133 7.6953c0-.8281.162-1.5729.484-2.2344.329-.6614.782-1.1718 1.36-1.5312.583-.3594 1.247-.5391 1.992-.5391 1.151 0 2.081.3985 2.789 1.1953.714.7969 1.07 1.8568 1.07 3.1797v.1016c0 .8229-.158 1.5625-.476 2.2187-.313.6511-.763 1.1589-1.352 1.5235-.583.3646-1.255.5466-2.015.5466-1.146 0-2.076-.3982-2.789-1.1951-.709-.7968-1.063-1.8515-1.063-3.164zm1.453.1719c0 .9375.216 1.6901.649 2.2578.437.5677 1.02.8516 1.75.8516.734 0 1.317-.2865 1.75-.8594.432-.5781.648-1.3854.648-2.4219 0-.9271-.221-1.6771-.664-2.25-.438-.5781-1.021-.8672-1.75-.8672-.714 0-1.289.2839-1.727.8516-.437.5677-.656 1.3802-.656 2.4375zm9.625 4.1328h-1.445v-12h1.445zm5.086-2.1172 1.969-6.3359h1.547l-3.399 9.7581c-.526 1.406-1.362 2.109-2.507 2.109l-.274-.023-.539-.102v-1.172l.391.031c.489 0 .869-.099 1.14-.296.276-.198.503-.56.68-1.086l.32-.8598-3.015-8.3593h1.578zm6.172-6.3359.039.9375c.62-.7292 1.456-1.0938 2.508-1.0938 1.182 0 1.987.4532 2.414 1.3594.281-.4062.646-.7344 1.094-.9844.453-.25.987-.375 1.601-.375 1.854 0 2.797.9818 2.828 2.9453v5.6641h-1.445v-5.5781c0-.6042-.138-1.0547-.414-1.3516-.276-.3021-.74-.4531-1.391-.4531-.536 0-.981.1614-1.336.4844-.354.3177-.559.7474-.617 1.289v5.6094h-1.453v-5.5391c0-1.2291-.601-1.8437-1.805-1.8437-.947 0-1.596.4036-1.945 1.2109v6.1719h-1.445v-8.4531zm19.812 4.3203c0 1.2864-.294 2.3229-.882 3.1094-.589.7864-1.386 1.1794-2.391 1.1794-1.026 0-1.833-.3253-2.422-.9763v4.0703h-1.445v-11.7031h1.32l.07.9375c.589-.7292 1.407-1.0938 2.454-1.0938 1.015 0 1.817.3828 2.406 1.1485.594.7656.89 1.8307.89 3.1953zm-1.445-.1641c0-.9531-.203-1.7057-.609-2.2578s-.964-.8281-1.672-.8281c-.875 0-1.531.388-1.969 1.164v4.0391c.432.7708 1.094 1.1563 1.985 1.1563.692 0 1.242-.2735 1.648-.8204.411-.552.617-1.3697.617-2.4531zm4.86 4.2969h-1.446v-8.4531h1.446zm-1.563-10.6953c0-.2344.07-.4323.211-.5938.146-.1614.359-.2421.641-.2421.281 0 .494.0807.64.2421.146.1615.219.3594.219.5938s-.073.4297-.219.5859c-.146.1563-.359.2344-.64.2344-.282 0-.495-.0781-.641-.2344-.141-.1562-.211-.3515-.211-.5859zm9.102 10.6953c-.084-.1667-.151-.4635-.204-.8906-.671.6979-1.473 1.0466-2.406 1.0466-.833 0-1.518-.2341-2.054-.7029-.532-.4739-.797-1.0729-.797-1.7969 0-.8802.333-1.5624 1-2.0468.672-.4896 1.614-.7344 2.828-.7344h1.406v-.6641c0-.5052-.151-.9062-.453-1.2031-.302-.3021-.747-.4531-1.336-.4531-.516 0-.948.1302-1.297.3906s-.523.5755-.523.9453h-1.453c0-.4218.148-.8281.445-1.2187.302-.3959.708-.7084 1.219-.9375.515-.2292 1.08-.3438 1.695-.3438.974 0 1.737.2448 2.289.7344.552.4844.839 1.1536.859 2.0078v3.8906c0 .7761.099 1.3933.297 1.8516v.125zm-2.399-1.1016c.453 0 .883-.1172 1.289-.3515.406-.2344.701-.5391.883-.9141v-1.7344h-1.133c-1.771 0-2.656.5183-2.656 1.5547 0 .4531.151.8073.453 1.0625s.69.3828 1.164.3828zm1.336-10.8984h1.75l-2.094 2.2969h-1.164zm4.195 7.7031c0-1.2969.308-2.3385.922-3.125.615-.7916 1.42-1.1875 2.414-1.1875.99 0 1.774.3386 2.352 1.0156v-4.4062h1.445v12h-1.328l-.07-.9062c-.578.7083-1.383 1.0622-2.414 1.0622-.979 0-1.779-.4008-2.399-1.2029-.614-.8021-.922-1.8489-.922-3.1406zm1.446.1641c0 .9583.198 1.7083.594 2.25.395.5417.942.8125 1.64.8125.917 0 1.586-.4115 2.008-1.2344v-3.8828c-.432-.7969-1.096-1.1953-1.992-1.1953-.709 0-1.261.2734-1.656.8203-.396.5469-.594 1.3568-.594 2.4297zm13.156 4.1328c-.083-.1667-.151-.4635-.203-.8906-.672.6979-1.474 1.0466-2.406 1.0466-.834 0-1.519-.2341-2.055-.7029-.531-.4739-.797-1.0729-.797-1.7969 0-.8802.333-1.5624 1-2.0468.672-.4896 1.615-.7344 2.828-.7344h1.406v-.6641c0-.5052-.151-.9062-.453-1.2031-.302-.3021-.747-.4531-1.336-.4531-.515 0-.948.1302-1.296.3906-.349.2604-.524.5755-.524.9453h-1.453c0-.4218.148-.8281.445-1.2187.302-.3959.709-.7084 1.219-.9375.516-.2292 1.081-.3438 1.695-.3438.974 0 1.737.2448 2.289.7344.552.4844.839 1.1536.86 2.0078v3.8906c0 .7761.099 1.3933.297 1.8516v.125zm-2.398-1.1016c.453 0 .882-.1172 1.289-.3515.406-.2344.7-.5391.882-.9141v-1.7344h-1.132c-1.771 0-2.657.5183-2.657 1.5547 0 .4531.151.8073.454 1.0625.302.2552.69.3828 1.164.3828z" fill="#000"/><path d="m30 122h300v38c0 2.761-2.239 5-5 5h-290c-2.7614 0-5-2.239-5-5z" fill="#f8f8f8"/><path d="m50.5039 144.197c-.9648-.277-1.668-.617-2.1094-1.019-.4375-.407-.6562-.907-.6562-1.5 0-.672.2676-1.227.8027-1.664.5391-.442 1.2383-.662 2.0977-.662.5859 0 1.1074.113 1.5644.339.461.227.8164.539 1.0664.938.2539.398.3809.834.3809 1.307h-1.1309c0-.516-.164-.92-.4922-1.213-.3281-.297-.791-.446-1.3886-.446-.5547 0-.9883.123-1.3008.369-.3086.243-.4629.581-.4629 1.014 0 .348.1465.643.4395.885.2968.238.7988.457 1.5058.656.7109.199 1.2656.42 1.6641.662.4023.239.6992.518.8906.838.1953.32.293.697.293 1.131 0 .691-.2696 1.246-.8086 1.664-.5391.414-1.2598.621-2.1621.621-.586 0-1.1328-.111-1.6407-.334-.5078-.226-.9004-.535-1.1777-.926-.2734-.39-.4101-.834-.4101-1.33h1.1308c0 .516.1895.924.5684 1.225.3828.297.8925.445 1.5293.445.5937 0 1.0488-.121 1.3652-.363s.4746-.572.4746-.99-.1465-.74-.4394-.967c-.293-.231-.8243-.457-1.5938-.68zm7.125 0c-.9648-.277-1.668-.617-2.1094-1.019-.4375-.407-.6562-.907-.6562-1.5 0-.672.2676-1.227.8027-1.664.5391-.442 1.2383-.662 2.0977-.662.5859 0 1.1074.113 1.5644.339.461.227.8164.539 1.0664.938.2539.398.3809.834.3809 1.307h-1.1309c0-.516-.164-.92-.4922-1.213-.3281-.297-.791-.446-1.3886-.446-.5547 0-.9883.123-1.3008.369-.3086.243-.4629.581-.4629 1.014 0 .348.1465.643.4395.885.2968.238.7988.457 1.5058.656.7109.199 1.2656.42 1.6641.662.4023.239.6992.518.8906.838.1953.32.293.697.293 1.131 0 .691-.2696 1.246-.8086 1.664-.5391.414-1.2598.621-2.1621.621-.586 0-1.1328-.111-1.6407-.334-.5078-.226-.9004-.535-1.1777-.926-.2734-.39-.4101-.834-.4101-1.33h1.1308c0 .516.1895.924.5684 1.225.3828.297.8925.445 1.5293.445.5937 0 1.0488-.121 1.3652-.363s.4746-.572.4746-.99-.1465-.74-.4394-.967c-.293-.231-.8243-.457-1.5938-.68zm.1348-6.029.8789-.996h.9375v.058l-1.4883 1.606h-.6621l-1.4707-1.606v-.058h.9199zm4.2715 9.264c0-.188.0546-.344.164-.469.1133-.125.2813-.188.5039-.188.2227 0 .3907.063.5039.188.1172.125.1758.281.1758.469 0 .179-.0586.33-.1758.451-.1132.121-.2812.181-.5039.181-.2226 0-.3906-.06-.5039-.181-.1094-.121-.164-.272-.164-.451zm.0058-5.174c0-.188.0547-.344.1641-.469.1133-.125.2812-.187.5039-.187.2226 0 .3906.062.5039.187.1172.125.1758.281.1758.469 0 .18-.0586.33-.1758.451-.1133.121-.2813.182-.5039.182-.2227 0-.3906-.061-.5039-.182-.1094-.121-.1641-.271-.1641-.451zm7.2891 5.742h-1.125v-8.531h1.125zm7.8926-3.814h-5.8711v-.885h5.8711zm3.2519 3.814h-1.125v-8.531h1.125zm4.8867-1.494 2.4375-7.037h1.2305l-3.1641 8.531h-.9961l-3.1582-8.531h1.2246zm10.6875-3.873c-.164-.028-.3418-.041-.5332-.041-.7109 0-1.1933.303-1.4472.908v4.5h-1.084v-6.34h1.0547l.0175.733c.3555-.567.8594-.85 1.5118-.85.2109 0 .3711.027.4804.082zm.5977 2.138c0-.621.1211-1.179.3633-1.675.2461-.496.5859-.879 1.0195-1.149.4375-.269.9355-.404 1.4941-.404.8636 0 1.5606.299 2.0916.896.535.598.803 1.393.803 2.385v.076c0 .618-.119 1.172-.357 1.664-.235.489-.573.87-1.014 1.143-.438.273-.942.41-1.5118.41-.8594 0-1.5567-.299-2.0918-.896-.5313-.598-.7969-1.389-.7969-2.373zm1.0898.129c0 .704.1621 1.268.4864 1.694.3281.426.7656.638 1.3125.638.5508 0 .9878-.214 1.3128-.644.324-.434.486-1.039.486-1.817 0-.695-.166-1.257-.498-1.687-.328-.434-.766-.65-1.3126-.65-.5351 0-.9668.212-1.2949.638s-.4922 1.035-.4922 1.828zm8.5837 2.332c.387 0 .725-.117 1.014-.351.289-.235.449-.527.48-.879h1.026c-.02.363-.145.709-.375 1.037-.231.328-.539.59-.926.785-.383.196-.789.293-1.219.293-.863 0-1.55-.287-2.062-.861-.508-.578-.762-1.367-.762-2.367v-.182c0-.617.113-1.166.34-1.646.226-.481.551-.854.973-1.12.425-.265.927-.398 1.505-.398.711 0 1.301.213 1.77.639.473.425.725.978.756 1.658h-1.026c-.031-.41-.187-.746-.468-1.008-.278-.266-.621-.398-1.032-.398-.55 0-.978.199-1.283.597-.301.395-.451.967-.451 1.717v.205c0 .731.15 1.293.451 1.688.301.394.731.591 1.289.591zm-.252-7.236.879-.996h.938v.059l-1.489 1.605h-.662l-1.47-1.605v-.059h.92zm5.016 1.664.035.797c.485-.609 1.117-.914 1.899-.914 1.339 0 2.015.756 2.027 2.268v4.189h-1.084v-4.195c-.004-.457-.109-.795-.316-1.014-.204-.219-.522-.328-.956-.328-.351 0-.66.094-.925.281-.266.188-.473.434-.621.738v4.518h-1.084v-6.34zm6.773 6.34h-1.089v-6.34h1.089zm.012-8.994h1.313l-1.571 1.723h-.873zm3.545 6.058-.68.709v2.227h-1.084v-9h1.084v5.443l.58-.697 1.975-2.086h1.318l-2.466 2.649 2.754 3.691h-1.272z" fill="#7c7c7c"/></g><path d="m39.6719 204.93c-1.2865-.37-2.224-.823-2.8125-1.36-.5834-.541-.875-1.208-.875-2 0-.896.3567-1.635 1.0703-2.218.7187-.589 1.651-.883 2.7969-.883.7812 0 1.4765.151 2.0859.453.6146.302 1.0885.719 1.4219 1.25.3385.531.5078 1.112.5078 1.742h-1.5078c0-.687-.2188-1.226-.6563-1.617-.4375-.396-1.0547-.594-1.8515-.594-.7396 0-1.3177.164-1.7344.492-.4115.323-.6172.774-.6172 1.352 0 .463.1953.857.5859 1.18.3959.317 1.0651.609 2.0079.875.9479.265 1.6874.559 2.2187.882.5365.318.9323.69 1.1875 1.118.2604.427.3906.929.3906 1.507 0 .922-.3594 1.662-1.0781 2.219-.7187.552-1.6797.828-2.8828.828-.7813 0-1.5104-.148-2.1875-.445-.6771-.302-1.2005-.714-1.5703-1.234-.3646-.521-.5469-1.112-.5469-1.774h1.5078c0 .688.2526 1.232.7578 1.633.5104.396 1.1901.594 2.0391.594.7917 0 1.3984-.162 1.8203-.485s.6328-.763.6328-1.32-.1953-.987-.5859-1.289c-.3907-.307-1.099-.609-2.125-.906zm7.8828-5.43v2.047h1.5781v1.117h-1.5781v5.242c0 .339.0703.594.2109.766.1406.167.3802.25.7188.25.1666 0 .3958-.031.6875-.094v1.172c-.3802.104-.75.156-1.1094.156-.6458 0-1.1328-.195-1.4609-.586-.3282-.39-.4922-.945-.4922-1.664v-5.242h-1.5391v-1.117h1.5391v-2.047zm8.4922 9.664c-.5625.662-1.388.992-2.4766.992-.901 0-1.5885-.26-2.0625-.781-.4687-.526-.7057-1.302-.7109-2.328v-5.5h1.4453v5.461c0 1.281.5208 1.922 1.5625 1.922 1.1042 0 1.8385-.412 2.2031-1.235v-6.148h1.4453v8.453h-1.375zm3.2578-3.461c0-1.297.3073-2.338.9219-3.125.6145-.792 1.4192-1.187 2.414-1.187.9896 0 1.7735.338 2.3516 1.015v-4.406h1.4453v12h-1.3281l-.0703-.906c-.5782.708-1.3829 1.062-2.4141 1.062-.9792 0-1.7786-.401-2.3984-1.203-.6146-.802-.9219-1.849-.9219-3.141zm1.4453.164c0 .959.1979 1.709.5938 2.25.3958.542.9427.813 1.6406.813.9166 0 1.5859-.412 2.0078-1.235v-3.883c-.4323-.796-1.0964-1.195-1.9922-1.195-.7083 0-1.2604.274-1.6562.821-.3959.546-.5938 1.356-.5938 2.429zm11.4453 4.289c-1.1458 0-2.0781-.375-2.7969-1.125-.7187-.755-1.0781-1.763-1.0781-3.023v-.266c0-.838.1589-1.586.4766-2.242.3229-.661.7708-1.177 1.3437-1.547.5782-.375 1.2032-.562 1.875-.562 1.099 0 1.9532.362 2.5625 1.086.6094.724.9141 1.76.9141 3.109v.602h-5.7266c.0209.833.263 1.507.7266 2.023.4687.51 1.0625.766 1.7812.766.5105 0 .9427-.105 1.2969-.313s.6641-.484.9297-.828l.8828.687c-.7083 1.089-1.7708 1.633-3.1875 1.633zm-.1797-7.578c-.5833 0-1.0729.214-1.4687.641-.3959.422-.6407 1.015-.7344 1.781h4.2344v-.109c-.0417-.735-.2396-1.302-.5938-1.703-.3541-.407-.8333-.61-1.4375-.61zm6.5235-1.031.0468 1.062c.6459-.812 1.4896-1.218 2.5313-1.218 1.7864 0 2.6875 1.007 2.7031 3.023v5.586h-1.4453v-5.594c-.0052-.609-.1458-1.06-.4219-1.351-.2708-.292-.6953-.438-1.2734-.438-.4688 0-.8802.125-1.2344.375s-.6302.578-.8281.985v6.023h-1.4453v-8.453zm9.4218-2.047v2.047h1.5782v1.117h-1.5782v5.242c0 .339.0703.594.211.766.1406.167.3802.25.7187.25.1667 0 .3959-.031.6875-.094v1.172c-.3802.104-.75.156-1.1093.156-.6459 0-1.1329-.195-1.461-.586-.3281-.39-.4922-.945-.4922-1.664v-5.242h-1.539v-1.117h1.539v-2.047zm8.4922 9.664c-.5625.662-1.388.992-2.4765.992-.9011 0-1.5886-.26-2.0625-.781-.4688-.526-.7058-1.302-.711-2.328v-5.5h1.4453v5.461c0 1.281.5209 1.922 1.5625 1.922 1.1042 0 1.8386-.412 2.2032-1.235v-6.148h1.4453v8.453h-1.375zm-.2031-10.25c0 .453-.1615.833-.4844 1.141-.3229.302-.7213.453-1.1953.453-.4792 0-.8802-.154-1.2031-.461-.3177-.307-.4766-.685-.4766-1.133s.1589-.831.4766-1.148c.3229-.318.7239-.477 1.2031-.477s.8776.159 1.1953.477c.3229.317.4844.7.4844 1.148zm-2.5859 0c0 .245.0859.456.2578.633.1771.177.3932.265.6484.265.25 0 .4636-.085.6406-.257.1771-.172.2657-.386.2657-.641s-.0886-.471-.2657-.648c-.1718-.183-.3854-.274-.6406-.274-.2604 0-.4765.091-.6484.274-.1719.182-.2578.398-.2578.648zm7.7579 2.633.039.937c.62-.729 1.456-1.093 2.508-1.093 1.182 0 1.987.453 2.414 1.359.281-.406.646-.734 1.094-.984.453-.25.987-.375 1.601-.375 1.854 0 2.797.981 2.828 2.945v5.664h-1.445v-5.578c0-.604-.138-1.055-.414-1.352-.276-.302-.74-.453-1.391-.453-.536 0-.982.162-1.336.485-.354.317-.56.747-.617 1.289v5.609h-1.453v-5.539c0-1.229-.602-1.844-1.805-1.844-.948 0-1.596.404-1.945 1.211v6.172h-1.445v-8.453zm12.625 10.719-.82-.563c.489-.682.744-1.385.765-2.109v-1.305h1.414v1.133c0 .526-.13 1.052-.39 1.578-.256.526-.578.948-.969 1.266zm9.515-6.18-.906.945v2.969h-1.445v-12h1.445v7.258l.774-.93 2.632-2.781h1.758l-3.289 3.531 3.672 4.922h-1.695zm7.711-6.586v2.047h1.579v1.117h-1.579v5.242c0 .339.071.594.211.766.141.167.381.25.719.25.167 0 .396-.031.688-.094v1.172c-.381.104-.75.156-1.11.156-.646 0-1.133-.195-1.461-.586-.328-.39-.492-.945-.492-1.664v-5.242h-1.539v-1.117h1.539v-2.047zm6.782 10.656c-1.146 0-2.078-.375-2.797-1.125-.719-.755-1.078-1.763-1.078-3.023v-.266c0-.838.159-1.586.476-2.242.323-.661.771-1.177 1.344-1.547.578-.375 1.203-.562 1.875-.562 1.099 0 1.953.362 2.563 1.086.609.724.914 1.76.914 3.109v.602h-5.727c.021.833.263 1.507.727 2.023.468.51 1.062.766 1.781.766.51 0 .943-.105 1.297-.313s.664-.484.929-.828l.883.687c-.708 1.089-1.771 1.633-3.187 1.633zm-.18-7.578c-.583 0-1.073.214-1.469.641-.396.422-.64 1.015-.734 1.781h4.234v-.109c-.041-.735-.239-1.302-.594-1.703-.354-.407-.833-.61-1.437-.61zm9.242.266c-.219-.037-.456-.055-.711-.055-.948 0-1.591.404-1.929 1.211v6h-1.446v-8.453h1.407l.023.976c.474-.755 1.146-1.132 2.016-1.132.281 0 .494.036.64.109zm4.242 5.039 1.969-6.336h1.547l-3.398 9.758c-.526 1.406-1.362 2.109-2.508 2.109l-.274-.023-.539-.102v-1.172l.391.031c.489 0 .87-.099 1.141-.296.276-.198.502-.56.679-1.086l.321-.86-3.016-8.359h1.578zm.821-9.883h1.75l-2.094 2.297h-1.164zm5.351 3.547.039.937c.62-.729 1.456-1.093 2.508-1.093 1.182 0 1.987.453 2.414 1.359.281-.406.646-.734 1.094-.984.453-.25.987-.375 1.602-.375 1.854 0 2.796.981 2.828 2.945v5.664h-1.446v-5.578c0-.604-.138-1.055-.414-1.352-.276-.302-.739-.453-1.39-.453-.537 0-.982.162-1.336.485-.354.317-.56.747-.618 1.289v5.609h-1.453v-5.539c0-1.229-.601-1.844-1.804-1.844-.948 0-1.597.404-1.946 1.211v6.172h-1.445v-8.453zm21.563 6.211c0-.391-.149-.693-.446-.906-.291-.219-.804-.407-1.539-.563-.729-.156-1.31-.344-1.742-.562-.427-.219-.745-.48-.953-.782-.203-.302-.305-.661-.305-1.078 0-.693.292-1.278.875-1.758.589-.479 1.339-.718 2.25-.718.959 0 1.735.247 2.328.742.599.495.899 1.127.899 1.898h-1.453c0-.396-.169-.737-.508-1.023-.333-.287-.755-.43-1.266-.43-.526 0-.937.115-1.234.344s-.445.529-.445.898c0 .349.138.612.414.789s.773.347 1.492.508c.724.162 1.31.354 1.758.578s.778.495.992.813c.219.312.328.695.328 1.148 0 .755-.302 1.362-.906 1.821-.604.453-1.388.679-2.352.679-.677 0-1.276-.12-1.797-.359-.52-.24-.929-.573-1.226-1-.292-.432-.438-.899-.438-1.399h1.446c.026.485.218.87.578 1.157.364.281.844.422 1.437.422.547 0 .985-.11 1.313-.329.333-.224.5-.52.5-.89zm6.836 2.398c-1.146 0-2.078-.375-2.797-1.125-.719-.755-1.078-1.763-1.078-3.023v-.266c0-.838.159-1.586.476-2.242.323-.661.771-1.177 1.344-1.547.578-.375 1.203-.562 1.875-.562 1.099 0 1.953.362 2.562 1.086.61.724.915 1.76.915 3.109v.602h-5.727c.021.833.263 1.507.727 2.023.468.51 1.062.766 1.781.766.51 0 .943-.105 1.297-.313s.664-.484.929-.828l.883.687c-.708 1.089-1.771 1.633-3.187 1.633zm-.18-7.578c-.583 0-1.073.214-1.469.641-.396.422-.64 1.015-.734 1.781h4.234v-.109c-.041-.735-.239-1.302-.593-1.703-.355-.407-.834-.61-1.438-.61zm10.695 7.422h-1.445v-12h1.445zm3.891 0h-1.453v-8.453h1.453zm.016-11.992h1.75l-2.094 2.297h-1.164zm9.523 7.859c0 1.292-.297 2.331-.891 3.117-.593.782-1.39 1.172-2.39 1.172-1.068 0-1.893-.377-2.477-1.133l-.07.977h-1.328v-12h1.445v4.477c.583-.724 1.388-1.086 2.414-1.086s1.831.388 2.414 1.164c.589.776.883 1.838.883 3.187zm-1.445-.164c0-.984-.19-1.745-.571-2.281-.38-.537-.927-.805-1.64-.805-.953 0-1.638.443-2.055 1.328v3.657c.443.885 1.133 1.328 2.07 1.328.693 0 1.232-.269 1.618-.805.385-.536.578-1.344.578-2.422zm4.843 4.297h-1.453v-8.453h1.453zm.016-11.992h1.75l-2.094 2.297h-1.164zm6.563 11.992v-11.375h3.21c.99 0 1.865.219 2.626.656.76.438 1.346 1.06 1.757 1.867.417.808.628 1.735.633 2.782v.726c0 1.073-.208 2.013-.625 2.821-.411.807-1.002 1.427-1.773 1.859-.766.432-1.659.654-2.68.664zm1.5-10.141v8.914h1.578c1.156 0 2.054-.359 2.695-1.078.646-.718.969-1.742.969-3.07v-.664c0-1.292-.305-2.294-.914-3.008-.604-.719-1.464-1.083-2.578-1.094zm12.281 10.297c-1.146 0-2.078-.375-2.797-1.125-.719-.755-1.078-1.763-1.078-3.023v-.266c0-.838.159-1.586.476-2.242.323-.661.771-1.177 1.344-1.547.578-.375 1.203-.562 1.875-.562 1.099 0 1.953.362 2.563 1.086.609.724.914 1.76.914 3.109v.602h-5.727c.021.833.263 1.507.727 2.023.468.51 1.062.766 1.781.766.51 0 .943-.105 1.297-.313s.664-.484.93-.828l.882.687c-.708 1.089-1.771 1.633-3.187 1.633zm-.18-7.578c-.583 0-1.073.214-1.469.641-.395.422-.64 1.015-.734 1.781h4.234v-.109c-.041-.735-.239-1.302-.593-1.703-.355-.407-.834-.61-1.438-.61zm12.313 3.289c0 1.292-.297 2.331-.891 3.117-.594.782-1.391 1.172-2.391 1.172-1.067 0-1.893-.377-2.476-1.133l-.07.977h-1.329v-12h1.446v4.477c.583-.724 1.388-1.086 2.414-1.086s1.83.388 2.414 1.164c.588.776.883 1.838.883 3.187zm-1.446-.164c0-.984-.19-1.745-.57-2.281-.38-.537-.927-.805-1.641-.805-.953 0-1.638.443-2.054 1.328v3.657c.442.885 1.133 1.328 2.07 1.328.693 0 1.232-.269 1.617-.805.386-.536.578-1.344.578-2.422zm8.492 4.297c-.083-.167-.151-.464-.203-.891-.671.698-1.474 1.047-2.406 1.047-.833 0-1.518-.234-2.055-.703-.531-.474-.796-1.073-.796-1.797 0-.88.333-1.562 1-2.047.671-.489 1.614-.734 2.828-.734h1.406v-.664c0-.505-.151-.906-.453-1.203-.302-.302-.748-.453-1.336-.453-.516 0-.948.13-1.297.39-.349.261-.523.576-.523.946h-1.454c0-.422.149-.829.446-1.219.302-.396.708-.708 1.219-.938.515-.229 1.08-.343 1.695-.343.974 0 1.737.244 2.289.734.552.484.838 1.154.859 2.008v3.89c0 .776.099 1.394.297 1.852v.125zm-2.398-1.102c.453 0 .883-.117 1.289-.351.406-.235.701-.539.883-.914v-1.735h-1.133c-1.771 0-2.656.519-2.656 1.555 0 .453.151.807.453 1.063.302.255.69.382 1.164.382zm7.844-9.398v2.047h1.578v1.117h-1.578v5.242c0 .339.07.594.211.766.14.167.38.25.719.25.166 0 .395-.031.687-.094v1.172c-.38.104-.75.156-1.109.156-.646 0-1.133-.195-1.461-.586-.328-.39-.493-.945-.493-1.664v-5.242h-1.539v-1.117h1.539v-2.047zm4.64 2.047.047 1.062c.646-.812 1.49-1.218 2.532-1.218 1.786 0 2.687 1.007 2.703 3.023v5.586h-1.446v-5.594c-.005-.609-.145-1.06-.422-1.351-.27-.292-.695-.438-1.273-.438-.469 0-.88.125-1.234.375s-.631.578-.828.985v6.023h-1.446v-8.453zm9.032 8.453h-1.453v-8.453h1.453zm.015-11.992h1.75l-2.093 2.297h-1.164zm7.907 11.992h-1.446v-12h1.446zm3.89 0h-1.445v-8.453h1.445zm-1.562-10.695c0-.235.07-.433.211-.594.145-.162.359-.242.64-.242s.495.08.641.242c.146.161.219.359.219.594 0 .234-.073.429-.219.586-.146.156-.36.234-.641.234s-.495-.078-.64-.234c-.141-.157-.211-.352-.211-.586zm3.539 6.398c0-1.318.304-2.364.914-3.141.609-.781 1.416-1.171 2.422-1.171 1.031 0 1.836.364 2.414 1.093l.07-.937h1.32v8.25c0 1.094-.325 1.956-.976 2.586-.646.63-1.516.945-2.61.945-.609 0-1.205-.13-1.789-.39-.583-.261-1.028-.618-1.336-1.071l.75-.867c.62.766 1.378 1.148 2.274 1.148.703 0 1.25-.197 1.64-.593.396-.396.594-.953.594-1.672v-.727c-.578.667-1.367 1-2.367 1-.99 0-1.792-.398-2.406-1.195-.61-.797-.914-1.883-.914-3.258zm1.453.164c0 .953.195 1.703.586 2.25.39.542.937.813 1.64.813.912 0 1.581-.414 2.008-1.242v-3.86c-.442-.807-1.107-1.211-1.992-1.211-.703 0-1.253.274-1.648.821-.396.546-.594 1.356-.594 2.429zm13.094 4.133c-.084-.167-.151-.464-.204-.891-.671.698-1.473 1.047-2.406 1.047-.833 0-1.518-.234-2.054-.703-.532-.474-.797-1.073-.797-1.797 0-.88.333-1.562 1-2.047.672-.489 1.614-.734 2.828-.734h1.406v-.664c0-.505-.151-.906-.453-1.203-.302-.302-.747-.453-1.336-.453-.516 0-.948.13-1.297.39-.349.261-.523.576-.523.946h-1.453c0-.422.148-.829.445-1.219.302-.396.708-.708 1.219-.938.515-.229 1.08-.343 1.695-.343.974 0 1.737.244 2.289.734.552.484.839 1.154.859 2.008v3.89c0 .776.099 1.394.297 1.852v.125zm-2.399-1.102c.453 0 .883-.117 1.289-.351.406-.235.701-.539.883-.914v-1.735h-1.133c-1.771 0-2.656.519-2.656 1.555 0 .453.151.807.453 1.063.302.255.69.382 1.164.382zm5.836 3.368-.82-.563c.489-.682.745-1.385.765-2.109v-1.305h1.414v1.133c0 .526-.13 1.052-.39 1.578-.255.526-.578.948-.969 1.266zm12.078-4.508c0-.391-.148-.693-.445-.906-.292-.219-.805-.407-1.539-.563-.729-.156-1.31-.344-1.742-.562-.427-.219-.745-.48-.953-.782-.204-.302-.305-.661-.305-1.078 0-.693.292-1.278.875-1.758.588-.479 1.338-.718 2.25-.718.958 0 1.734.247 2.328.742.599.495.898 1.127.898 1.898h-1.453c0-.396-.169-.737-.507-1.023-.334-.287-.756-.43-1.266-.43-.526 0-.938.115-1.234.344-.297.229-.446.529-.446.898 0 .349.138.612.414.789s.774.347 1.492.508c.724.162 1.31.354 1.758.578s.779.495.992.813c.219.312.329.695.329 1.148 0 .755-.303 1.362-.907 1.821-.604.453-1.388.679-2.351.679-.677 0-1.276-.12-1.797-.359-.521-.24-.93-.573-1.227-1-.291-.432-.437-.899-.437-1.399h1.445c.026.485.219.87.578 1.157.365.281.844.422 1.438.422.547 0 .984-.11 1.312-.329.334-.224.5-.52.5-.89zm6.836 2.398c-1.146 0-2.078-.375-2.797-1.125-.718-.755-1.078-1.763-1.078-3.023v-.266c0-.838.159-1.586.477-2.242.323-.661.771-1.177 1.343-1.547.579-.375 1.204-.562 1.876-.562 1.098 0 1.953.362 2.562 1.086s.914 1.76.914 3.109v.602h-5.726c.02.833.263 1.507.726 2.023.469.51 1.063.766 1.781.766.511 0 .943-.105 1.297-.313s.664-.484.93-.828l.883.687c-.709 1.089-1.771 1.633-3.188 1.633zm-.179-7.578c-.584 0-1.073.214-1.469.641-.396.422-.641 1.015-.735 1.781h4.235v-.109c-.042-.735-.24-1.302-.594-1.703-.354-.407-.833-.61-1.437-.61zm11.085-3.078v2.047h1.579v1.117h-1.579v5.242c0 .339.071.594.211.766.141.167.381.25.719.25.167 0 .396-.031.688-.094v1.172c-.381.104-.75.156-1.11.156-.646 0-1.133-.195-1.461-.586-.328-.39-.492-.945-.492-1.664v-5.242h-1.539v-1.117h1.539v-2.047zm8.493 10.5c-.084-.167-.151-.464-.204-.891-.671.698-1.473 1.047-2.406 1.047-.833 0-1.518-.234-2.054-.703-.532-.474-.797-1.073-.797-1.797 0-.88.333-1.562 1-2.047.672-.489 1.614-.734 2.828-.734h1.406v-.664c0-.505-.151-.906-.453-1.203-.302-.302-.747-.453-1.336-.453-.516 0-.948.13-1.297.39-.349.261-.523.576-.523.946h-1.453c0-.422.148-.829.445-1.219.302-.396.708-.708 1.219-.938.515-.229 1.08-.343 1.695-.343.974 0 1.737.244 2.289.734.552.484.839 1.154.859 2.008v3.89c0 .776.099 1.394.297 1.852v.125zm-2.399-1.102c.453 0 .883-.117 1.289-.351.406-.235.701-.539.883-.914v-1.735h-1.133c-1.771 0-2.656.519-2.656 1.555 0 .453.151.807.453 1.063.302.255.69.382 1.164.382zm8.242-2.812-.906.945v2.969h-1.445v-12h1.445v7.258l.774-.93 2.632-2.781h1.758l-3.289 3.531 3.672 4.922h-1.695zm11.68-6.586v2.047h1.578v1.117h-1.578v5.242c0 .339.07.594.211.766.141.167.38.25.719.25.166 0 .396-.031.687-.094v1.172c-.38.104-.75.156-1.109.156-.646 0-1.133-.195-1.461-.586-.328-.39-.492-.945-.492-1.664v-5.242h-1.539v-1.117h1.539v-2.047zm8.492 10.5c-.083-.167-.151-.464-.203-.891-.672.698-1.474 1.047-2.406 1.047-.833 0-1.518-.234-2.055-.703-.531-.474-.797-1.073-.797-1.797 0-.88.334-1.562 1-2.047.672-.489 1.615-.734 2.828-.734h1.407v-.664c0-.505-.151-.906-.453-1.203-.303-.302-.748-.453-1.336-.453-.516 0-.948.13-1.297.39-.349.261-.524.576-.524.946h-1.453c0-.422.149-.829.446-1.219.302-.396.708-.708 1.218-.938.516-.229 1.081-.343 1.696-.343.974 0 1.737.244 2.289.734.552.484.838 1.154.859 2.008v3.89c0 .776.099 1.394.297 1.852v.125zm-2.398-1.102c.453 0 .883-.117 1.289-.351.406-.235.7-.539.883-.914v-1.735h-1.133c-1.771 0-2.656.519-2.656 1.555 0 .453.151.807.453 1.063.302.255.69.382 1.164.382zm8.242-2.812-.906.945v2.969h-1.446v-12h1.446v7.258l.773-.93 2.633-2.781h1.758l-3.289 3.531 3.672 4.922h-1.696zm9.102 4.07c-1.146 0-2.079-.375-2.797-1.125-.719-.755-1.078-1.763-1.078-3.023v-.266c0-.838.158-1.586.476-2.242.323-.661.771-1.177 1.344-1.547.578-.375 1.203-.562 1.875-.562 1.099 0 1.953.362 2.562 1.086.61.724.914 1.76.914 3.109v.602h-5.726c.021.833.263 1.507.726 2.023.469.51 1.063.766 1.782.766.51 0 .942-.105 1.297-.313.354-.208.664-.484.929-.828l.883.687c-.708 1.089-1.771 1.633-3.187 1.633zm-.18-7.578c-.583 0-1.073.214-1.469.641-.396.422-.64 1.015-.734 1.781h4.234v-.109c-.042-.735-.239-1.302-.594-1.703-.354-.407-.833-.61-1.437-.61zm.703-4.578h1.75l-2.094 2.297h-1.164zm9.992 12h-1.445v-12h1.445zm3.891 0h-1.453v-8.453h1.453zm.015-11.992h1.75l-2.093 2.297h-1.164zm9.524 7.859c0 1.292-.297 2.331-.891 3.117-.593.782-1.39 1.172-2.39 1.172-1.068 0-1.894-.377-2.477-1.133l-.07.977h-1.328v-12h1.445v4.477c.583-.724 1.388-1.086 2.414-1.086s1.831.388 2.414 1.164c.589.776.883 1.838.883 3.187zm-1.445-.164c0-.984-.191-1.745-.571-2.281-.38-.537-.927-.805-1.64-.805-.954 0-1.638.443-2.055 1.328v3.657c.443.885 1.133 1.328 2.07 1.328.693 0 1.232-.269 1.617-.805.386-.536.579-1.344.579-2.422zm4.843 4.297h-1.453v-8.453h1.453zm.016-11.992h1.75l-2.094 2.297h-1.164z" fill="#718096"/><g filter="url(#c)"><path d="m30 234c0-2.761 2.2386-5 5-5h290c2.761 0 5 2.239 5 5v91c0 2.761-2.239 5-5 5h-290c-2.7614 0-5-2.239-5-5z" fill="#fff"/><path d="m30 233c0-2.209 1.7909-4 4-4h292c2.209 0 4 1.791 4 4z" fill="#c53030"/><path d="m49.0859 263.008 3.25-9.383h1.6407l-4.2188 11.375h-1.3281l-4.2109-11.375h1.6328zm9.3594 2.148c-1.1458 0-2.0781-.375-2.7969-1.125-.7187-.755-1.0781-1.763-1.0781-3.023v-.266c0-.838.1589-1.586.4766-2.242.3229-.661.7708-1.177 1.3437-1.547.5782-.375 1.2032-.562 1.875-.562 1.099 0 1.9532.362 2.5625 1.086.6094.724.9141 1.76.9141 3.109v.602h-5.7266c.0209.833.263 1.507.7266 2.023.4687.51 1.0625.766 1.7812.766.5105 0 .9427-.105 1.2969-.313s.6641-.484.9297-.828l.8828.687c-.7083 1.089-1.7708 1.633-3.1875 1.633zm-.1797-7.578c-.5833 0-1.0729.214-1.4687.641-.3959.422-.6407 1.015-.7344 1.781h4.2344v-.109c-.0417-.735-.2396-1.302-.5938-1.703-.3541-.407-.8333-.61-1.4375-.61zm6.7266 7.422h-1.4453v-12h1.4453zm5.8281.156c-1.1458 0-2.0781-.375-2.7969-1.125-.7187-.755-1.0781-1.763-1.0781-3.023v-.266c0-.838.1589-1.586.4766-2.242.3229-.661.7708-1.177 1.3437-1.547.5782-.375 1.2032-.562 1.875-.562 1.099 0 1.9532.362 2.5625 1.086.6094.724.9141 1.76.9141 3.109v.602h-5.7266c.0209.833.263 1.507.7266 2.023.4687.51 1.0625.766 1.7812.766.5105 0 .9427-.105 1.2969-.313s.6641-.484.9297-.828l.8828.687c-.7083 1.089-1.7708 1.633-3.1875 1.633zm-.1797-7.578c-.5833 0-1.0729.214-1.4687.641-.3959.422-.6407 1.015-.7344 1.781h4.2344v-.109c-.0417-.735-.2396-1.302-.5938-1.703-.3541-.407-.8333-.61-1.4375-.61zm7.1172-3.078v2.047h1.5781v1.117h-1.5781v5.242c0 .339.0703.594.211.766.1406.167.3802.25.7187.25.1667 0 .3958-.031.6875-.094v1.172c-.3802.104-.75.156-1.1094.156-.6458 0-1.1328-.195-1.4609-.586-.3281-.39-.4922-.945-.4922-1.664v-5.242h-1.5391v-1.117h1.5391v-2.047zm7.3594 3.344c-.2188-.037-.4557-.055-.711-.055-.9479 0-1.5911.404-1.9296 1.211v6h-1.4454v-8.453h1.4063l.0234.976c.474-.755 1.1459-1.132 2.0157-1.132.2812 0 .4948.036.6406.109zm2.7812-.274c.6407-.786 1.474-1.179 2.5-1.179 1.7865 0 2.6875 1.007 2.7032 3.023v5.586h-1.4454v-5.594c-.0052-.609-.1458-1.06-.4218-1.351-.2709-.292-.6953-.438-1.2735-.438-.4687 0-.8802.125-1.2343.375-.3542.25-.6302.578-.8282.985v6.023h-1.4453v-12h1.4453zm11.8204 7.43v-7.336h-1.336v-1.117h1.336v-.719c0-.943.2682-1.677.8042-2.203.542-.526 1.305-.789 2.289-.789.584 0 1.321.159 2.211.476l-.242 1.219c-.651-.26-1.271-.39-1.859-.39-.62 0-1.068.14-1.344.421-.271.277-.406.693-.406 1.25v.735h1.726v1.117h-1.726v7.336zm6.0232 0h-1.453v-8.453h1.453zm4.711-3.914-.906.945v2.969h-1.445v-12h1.445v7.258l.773-.93 2.633-2.781h1.758l-3.289 3.531 3.672 4.922h-1.696zm7.711-6.586v2.047h1.578v1.117h-1.578v5.242c0 .339.07.594.211.766.141.167.38.25.719.25.166 0 .396-.031.687-.094v1.172c-.38.104-.75.156-1.109.156-.646 0-1.133-.195-1.461-.586-.328-.39-.492-.945-.492-1.664v-5.242h-1.539v-1.117h1.539v-2.047zm4.844 10.5h-1.446v-8.453h1.446zm-1.563-10.695c0-.235.071-.433.211-.594.146-.162.36-.242.641-.242s.495.08.641.242c.145.161.218.359.218.594 0 .234-.073.429-.218.586-.146.156-.36.234-.641.234s-.495-.078-.641-.234c-.14-.157-.211-.352-.211-.586zm6.672 8.734 2.094-6.492h1.477l-3.032 8.453h-1.101l-3.063-8.453h1.477zm6.328-6.492.047 1.062c.646-.812 1.49-1.218 2.531-1.218 1.787 0 2.688 1.007 2.704 3.023v5.586h-1.446v-5.594c-.005-.609-.146-1.06-.422-1.351-.27-.292-.695-.438-1.273-.438-.469 0-.88.125-1.234.375-.355.25-.631.578-.829.985v6.023h-1.445v-8.453zm9.032 8.453h-1.454v-8.453h1.454zm.015-11.992h1.75l-2.094 2.297h-1.164zm5.758 10.969c.516 0 .966-.157 1.352-.469.385-.313.599-.703.64-1.172h1.367c-.026.484-.192.945-.5 1.383-.307.437-.718.786-1.234 1.047-.51.26-1.052.39-1.625.39-1.151 0-2.068-.383-2.75-1.148-.677-.771-1.016-1.823-1.016-3.156v-.243c0-.823.151-1.554.454-2.195.302-.641.734-1.138 1.296-1.492.568-.354 1.237-.531 2.008-.531.948 0 1.735.283 2.36.851.63.568.966 1.305 1.007 2.211h-1.367c-.041-.547-.25-.995-.625-1.344-.37-.354-.828-.531-1.375-.531-.734 0-1.304.266-1.711.797-.401.526-.601 1.289-.601 2.289v.274c0 .973.2 1.723.601 2.25.401.526.974.789 1.719.789zm6.43-6.407c.64-.786 1.474-1.179 2.5-1.179 1.786 0 2.687 1.007 2.703 3.023v5.586h-1.445v-5.594c-.006-.609-.146-1.06-.422-1.351-.271-.292-.696-.438-1.274-.438-.469 0-.88.125-1.234.375s-.63.578-.828.985v6.023h-1.446v-12h1.446zm11.82 7.43v-7.336h-1.336v-1.117h1.336v-.719c0-.943.268-1.677.805-2.203.541-.526 1.304-.789 2.289-.789.583 0 1.32.159 2.211.476l-.243 1.219c-.651-.26-1.27-.39-1.859-.39-.62 0-1.068.14-1.344.421-.27.277-.406.693-.406 1.25v.735h1.727v1.117h-1.727v7.336zm6.023 0h-1.453v-8.453h1.453zm6.438-7.156c-.219-.037-.456-.055-.711-.055-.948 0-1.591.404-1.93 1.211v6h-1.445v-8.453h1.406l.024.976c.474-.755 1.146-1.132 2.015-1.132.282 0 .495.036.641.109zm4.687 7.312c-1.145 0-2.078-.375-2.796-1.125-.719-.755-1.079-1.763-1.079-3.023v-.266c0-.838.159-1.586.477-2.242.323-.661.771-1.177 1.344-1.547.578-.375 1.203-.562 1.875-.562 1.099 0 1.953.362 2.562 1.086.61.724.914 1.76.914 3.109v.602h-5.726c.021.833.263 1.507.726 2.023.469.51 1.063.766 1.782.766.51 0 .942-.105 1.296-.313.355-.208.665-.484.93-.828l.883.687c-.708 1.089-1.771 1.633-3.188 1.633zm-.179-7.578c-.584 0-1.073.214-1.469.641-.396.422-.641 1.015-.734 1.781h4.234v-.109c-.042-.735-.24-1.302-.594-1.703-.354-.407-.833-.61-1.437-.61zm6.515-1.031.039.937c.62-.729 1.456-1.093 2.508-1.093 1.183 0 1.987.453 2.414 1.359.282-.406.646-.734 1.094-.984.453-.25.987-.375 1.602-.375 1.854 0 2.797.981 2.828 2.945v5.664h-1.446v-5.578c0-.604-.138-1.055-.414-1.352-.276-.302-.739-.453-1.39-.453-.537 0-.982.162-1.336.485-.354.317-.56.747-.617 1.289v5.609h-1.454v-5.539c0-1.229-.601-1.844-1.804-1.844-.948 0-1.597.404-1.946 1.211v6.172h-1.445v-8.453z" fill="#000"/><path d="m30 287h300v38c0 2.761-2.239 5-5 5h-290c-2.7614 0-5-2.239-5-5z" fill="#f8f8f8"/><path d="m50.5039 309.197c-.9648-.277-1.668-.617-2.1094-1.019-.4375-.407-.6562-.907-.6562-1.5 0-.672.2676-1.227.8027-1.664.5391-.442 1.2383-.662 2.0977-.662.5859 0 1.1074.113 1.5644.339.461.227.8164.539 1.0664.938.2539.398.3809.834.3809 1.307h-1.1309c0-.516-.164-.92-.4922-1.213-.3281-.297-.791-.446-1.3886-.446-.5547 0-.9883.123-1.3008.369-.3086.243-.4629.581-.4629 1.014 0 .348.1465.643.4395.885.2968.238.7988.457 1.5058.656.7109.199 1.2656.42 1.6641.662.4023.239.6992.518.8906.838.1953.32.293.697.293 1.131 0 .691-.2696 1.246-.8086 1.664-.5391.414-1.2598.621-2.1621.621-.586 0-1.1328-.111-1.6407-.334-.5078-.226-.9004-.535-1.1777-.926-.2734-.39-.4101-.834-.4101-1.33h1.1308c0 .516.1895.924.5684 1.225.3828.297.8925.445 1.5293.445.5937 0 1.0488-.121 1.3652-.363s.4746-.572.4746-.99-.1465-.74-.4394-.967c-.293-.231-.8243-.457-1.5938-.68zm7.125 0c-.9648-.277-1.668-.617-2.1094-1.019-.4375-.407-.6562-.907-.6562-1.5 0-.672.2676-1.227.8027-1.664.5391-.442 1.2383-.662 2.0977-.662.5859 0 1.1074.113 1.5644.339.461.227.8164.539 1.0664.938.2539.398.3809.834.3809 1.307h-1.1309c0-.516-.164-.92-.4922-1.213-.3281-.297-.791-.446-1.3886-.446-.5547 0-.9883.123-1.3008.369-.3086.243-.4629.581-.4629 1.014 0 .348.1465.643.4395.885.2968.238.7988.457 1.5058.656.7109.199 1.2656.42 1.6641.662.4023.239.6992.518.8906.838.1953.32.293.697.293 1.131 0 .691-.2696 1.246-.8086 1.664-.5391.414-1.2598.621-2.1621.621-.586 0-1.1328-.111-1.6407-.334-.5078-.226-.9004-.535-1.1777-.926-.2734-.39-.4101-.834-.4101-1.33h1.1308c0 .516.1895.924.5684 1.225.3828.297.8925.445 1.5293.445.5937 0 1.0488-.121 1.3652-.363s.4746-.572.4746-.99-.1465-.74-.4394-.967c-.293-.231-.8243-.457-1.5938-.68zm.1348-6.029.8789-.996h.9375v.058l-1.4883 1.606h-.6621l-1.4707-1.606v-.058h.9199zm4.2715 9.264c0-.188.0546-.344.164-.469.1133-.125.2813-.188.5039-.188.2227 0 .3907.063.5039.188.1172.125.1758.281.1758.469 0 .179-.0586.33-.1758.451-.1132.121-.2812.181-.5039.181-.2226 0-.3906-.06-.5039-.181-.1094-.121-.164-.272-.164-.451zm.0058-5.174c0-.188.0547-.344.1641-.469.1133-.125.2812-.187.5039-.187.2226 0 .3906.062.5039.187.1172.125.1758.281.1758.469 0 .18-.0586.33-.1758.451-.1133.121-.2813.182-.5039.182-.2227 0-.3906-.061-.5039-.182-.1094-.121-.1641-.271-.1641-.451zm7.2891 5.742h-1.125v-8.531h1.125zm7.8926-3.814h-5.8711v-.885h5.8711zm3.2519 3.814h-1.125v-8.531h1.125zm4.8867-1.494 2.4375-7.037h1.2305l-3.1641 8.531h-.9961l-3.1582-8.531h1.2246zm10.6875-3.873c-.164-.028-.3418-.041-.5332-.041-.7109 0-1.1933.303-1.4472.908v4.5h-1.084v-6.34h1.0547l.0175.733c.3555-.567.8594-.85 1.5118-.85.2109 0 .3711.027.4804.082zm.5977 2.138c0-.621.1211-1.179.3633-1.675.2461-.496.5859-.879 1.0195-1.149.4375-.269.9355-.404 1.4941-.404.8636 0 1.5606.299 2.0916.896.535.598.803 1.393.803 2.385v.076c0 .618-.119 1.172-.357 1.664-.235.489-.573.87-1.014 1.143-.438.273-.942.41-1.5118.41-.8594 0-1.5567-.299-2.0918-.896-.5313-.598-.7969-1.389-.7969-2.373zm1.0898.129c0 .704.1621 1.268.4864 1.694.3281.426.7656.638 1.3125.638.5508 0 .9878-.214 1.3128-.644.324-.434.486-1.039.486-1.817 0-.695-.166-1.257-.498-1.687-.328-.434-.766-.65-1.3126-.65-.5351 0-.9668.212-1.2949.638s-.4922 1.035-.4922 1.828zm8.5837 2.332c.387 0 .725-.117 1.014-.351.289-.235.449-.527.48-.879h1.026c-.02.363-.145.709-.375 1.037-.231.328-.539.59-.926.785-.383.196-.789.293-1.219.293-.863 0-1.55-.287-2.062-.861-.508-.578-.762-1.367-.762-2.367v-.182c0-.617.113-1.166.34-1.646.226-.481.551-.854.973-1.12.425-.265.927-.398 1.505-.398.711 0 1.301.213 1.77.639.473.425.725.978.756 1.658h-1.026c-.031-.41-.187-.746-.468-1.008-.278-.266-.621-.398-1.032-.398-.55 0-.978.199-1.283.597-.301.395-.451.967-.451 1.717v.205c0 .731.15 1.293.451 1.688.301.394.731.591 1.289.591zm-.252-7.236.879-.996h.938v.059l-1.489 1.605h-.662l-1.47-1.605v-.059h.92zm5.016 1.664.035.797c.485-.609 1.117-.914 1.899-.914 1.339 0 2.015.756 2.027 2.268v4.189h-1.084v-4.195c-.004-.457-.109-.795-.316-1.014-.204-.219-.522-.328-.956-.328-.351 0-.66.094-.925.281-.266.188-.473.434-.621.738v4.518h-1.084v-6.34zm6.773 6.34h-1.089v-6.34h1.089zm.012-8.994h1.313l-1.571 1.723h-.873zm3.545 6.058-.68.709v2.227h-1.084v-9h1.084v5.443l.58-.697 1.975-2.086h1.318l-2.466 2.649 2.754 3.691h-1.272z" fill="#7c7c7c"/></g><g filter="url(#d)"><path d="m30 355c0-2.761 2.2386-5 5-5h290c2.761 0 5 2.239 5 5v91c0 2.761-2.239 5-5 5h-290c-2.7614 0-5-2.239-5-5z" fill="#fff"/><path d="m30 354c0-2.209 1.7909-4 4-4h292c2.209 0 4 1.791 4 4z" fill="#2b6cb0"/><path d="m46.8281 384.773h5.3907v1.227h-6.8985v-11.375h1.5078zm6.4922-3.078c0-.828.1615-1.573.4844-2.234.3281-.662.7812-1.172 1.3594-1.531.5833-.36 1.2474-.539 1.9921-.539 1.1511 0 2.0808.398 2.7891 1.195.7136.797 1.0703 1.857 1.0703 3.18v.101c0 .823-.1588 1.563-.4765 2.219-.3125.651-.7631 1.159-1.3516 1.523-.5833.365-1.2552.547-2.0156.547-1.1459 0-2.0755-.398-2.7891-1.195-.7083-.797-1.0625-1.852-1.0625-3.164zm1.4531.172c0 .938.2162 1.69.6485 2.258.4375.568 1.0208.852 1.75.852.7343 0 1.3177-.287 1.75-.86.4323-.578.6484-1.385.6484-2.422 0-.927-.2213-1.677-.6641-2.25-.4374-.578-1.0208-.867-1.75-.867-.7135 0-1.289.284-1.7265.852-.4375.567-.6563 1.38-.6563 2.437zm7.711-.164c0-1.318.3047-2.364.914-3.141.6094-.781 1.4167-1.171 2.4219-1.171 1.0313 0 1.8359.364 2.4141 1.093l.0703-.937h1.3203v8.25c0 1.094-.3255 1.956-.9766 2.586-.6458.63-1.5156.945-2.6093.945-.6094 0-1.2058-.13-1.7891-.39-.5833-.261-1.0286-.618-1.3359-1.071l.75-.867c.6198.766 1.3776 1.148 2.2734 1.148.7031 0 1.25-.197 1.6406-.593.3959-.396.5938-.953.5938-1.672v-.727c-.5781.667-1.3672 1-2.3672 1-.9896 0-1.7917-.398-2.4063-1.195-.6093-.797-.914-1.883-.914-3.258zm1.4531.164c0 .953.1953 1.703.5859 2.25.3907.542.9375.813 1.6407.813.9114 0 1.5807-.414 2.0078-1.242v-3.86c-.4427-.807-1.1068-1.211-1.9922-1.211-.7031 0-1.2526.274-1.6485.821-.3958.546-.5937 1.356-.5937 2.429zm9.4453 4.133h-1.4453v-8.453h1.4453zm-1.5625-10.695c0-.235.0703-.433.2109-.594.1459-.162.3594-.242.6407-.242.2812 0 .4948.08.6406.242.1458.161.2187.359.2187.594 0 .234-.0729.429-.2187.586-.1458.156-.3594.234-.6406.234-.2813 0-.4948-.078-.6407-.234-.1406-.157-.2109-.352-.2109-.586zm7.2735 9.672c.5156 0 .9661-.157 1.3515-.469.3854-.313.599-.703.6406-1.172h1.3672c-.026.484-.1927.945-.5 1.383-.3073.437-.7187.786-1.2343 1.047-.5105.26-1.0521.39-1.625.39-1.1511 0-2.0678-.383-2.75-1.148-.6771-.771-1.0157-1.823-1.0157-3.156v-.243c0-.823.1511-1.554.4531-2.195.3021-.641.7344-1.138 1.2969-1.492.5677-.354 1.237-.531 2.0078-.531.948 0 1.7344.283 2.3594.851.6302.568.9662 1.305 1.0078 2.211h-1.3672c-.0416-.547-.25-.995-.625-1.344-.3698-.354-.8281-.531-1.375-.531-.7343 0-1.3047.266-1.7109.797-.401.526-.6016 1.289-.6016 2.289v.274c0 .973.2006 1.723.6016 2.25.401.526.974.789 1.7188.789zm7.3437-2.891-.9063.945v2.969h-1.4453v-12h1.4453v7.258l.7735-.93 2.6328-2.781h1.7578l-3.2891 3.531 3.6719 4.922h-1.6953zm10.9687 3.914c-.0833-.167-.151-.464-.2031-.891-.6719.698-1.4739 1.047-2.4062 1.047-.8334 0-1.5183-.234-2.0547-.703-.5313-.474-.7969-1.073-.7969-1.797 0-.88.3333-1.562 1-2.047.6719-.489 1.6146-.734 2.8281-.734h1.4063v-.664c0-.505-.1511-.906-.4531-1.203-.3021-.302-.7474-.453-1.336-.453-.5156 0-.9479.13-1.2968.39-.349.261-.5235.576-.5235.946h-1.4531c0-.422.1484-.829.4453-1.219.3021-.396.7083-.708 1.2187-.938.5157-.229 1.0808-.343 1.6954-.343.9739 0 1.7369.244 2.289.734.5521.484.8386 1.154.8594 2.008v3.89c0 .776.099 1.394.2969 1.852v.125zm-2.3984-1.102c.4531 0 .8828-.117 1.2891-.351.4062-.235.7005-.539.8828-.914v-1.735h-1.1328c-1.7709 0-2.6563.519-2.6563 1.555 0 .453.1511.807.4532 1.063.302.255.6901.382 1.164.382zm1.336-10.898h1.75l-2.0938 2.297h-1.1641zm8.1332 7.695c0-.828.161-1.573.484-2.234.328-.662.781-1.172 1.359-1.531.584-.36 1.248-.539 1.992-.539 1.152 0 2.081.398 2.79 1.195.713.797 1.07 1.857 1.07 3.18v.101c0 .823-.159 1.563-.477 2.219-.312.651-.763 1.159-1.351 1.523-.584.365-1.255.547-2.016.547-1.146 0-2.075-.398-2.789-1.195-.708-.797-1.062-1.852-1.062-3.164zm1.453.172c0 .938.216 1.69.648 2.258.438.568 1.021.852 1.75.852.734 0 1.318-.287 1.75-.86.432-.578.649-1.385.649-2.422 0-.927-.222-1.677-.665-2.25-.437-.578-1.02-.867-1.75-.867-.713 0-1.289.284-1.726.852-.438.567-.656 1.38-.656 2.437zm9.625 4.133h-1.446v-12h1.446zm5.086-2.117 1.968-6.336h1.547l-3.398 9.758c-.526 1.406-1.362 2.109-2.508 2.109l-.273-.023-.539-.102v-1.172l.39.031c.49 0 .87-.099 1.141-.296.276-.198.502-.56.679-1.086l.321-.86-3.016-8.359h1.578zm6.171-6.336.04.937c.619-.729 1.455-1.093 2.507-1.093 1.183 0 1.987.453 2.414 1.359.282-.406.646-.734 1.094-.984.453-.25.987-.375 1.602-.375 1.854 0 2.797.981 2.828 2.945v5.664h-1.445v-5.578c0-.604-.138-1.055-.414-1.352-.277-.302-.74-.453-1.391-.453-.537 0-.982.162-1.336.485-.354.317-.56.747-.617 1.289v5.609h-1.453v-5.539c0-1.229-.602-1.844-1.805-1.844-.948 0-1.596.404-1.945 1.211v6.172h-1.446v-8.453zm19.813 4.32c0 1.287-.294 2.323-.883 3.11-.588.786-1.385 1.179-2.39 1.179-1.026 0-1.834-.325-2.422-.976v4.07h-1.446v-11.703h1.321l.07.937c.589-.729 1.406-1.093 2.453-1.093 1.016 0 1.818.382 2.406 1.148.594.766.891 1.831.891 3.195zm-1.445-.164c0-.953-.203-1.706-.61-2.258-.406-.552-.963-.828-1.672-.828-.875 0-1.531.388-1.968 1.164v4.039c.432.771 1.093 1.157 1.984 1.157.693 0 1.242-.274 1.648-.821.412-.552.618-1.37.618-2.453zm4.859 4.297h-1.445v-8.453h1.445zm-1.562-10.695c0-.235.07-.433.211-.594.145-.162.359-.242.64-.242s.495.08.641.242c.146.161.219.359.219.594 0 .234-.073.429-.219.586-.146.156-.36.234-.641.234s-.495-.078-.64-.234c-.141-.157-.211-.352-.211-.586zm9.101 10.695c-.083-.167-.151-.464-.203-.891-.672.698-1.474 1.047-2.406 1.047-.834 0-1.518-.234-2.055-.703-.531-.474-.797-1.073-.797-1.797 0-.88.334-1.562 1-2.047.672-.489 1.615-.734 2.828-.734h1.407v-.664c0-.505-.151-.906-.454-1.203-.302-.302-.747-.453-1.336-.453-.515 0-.947.13-1.296.39-.349.261-.524.576-.524.946h-1.453c0-.422.149-.829.445-1.219.302-.396.709-.708 1.219-.938.516-.229 1.081-.343 1.695-.343.974 0 1.737.244 2.29.734.552.484.838 1.154.859 2.008v3.89c0 .776.099 1.394.297 1.852v.125zm-2.398-1.102c.453 0 .882-.117 1.289-.351.406-.235.7-.539.883-.914v-1.735h-1.133c-1.771 0-2.657.519-2.657 1.555 0 .453.152.807.454 1.063.302.255.69.382 1.164.382zm1.336-10.898h1.75l-2.094 2.297h-1.164zm4.195 7.703c0-1.297.307-2.338.922-3.125.614-.792 1.419-1.187 2.414-1.187.989 0 1.773.338 2.351 1.015v-4.406h1.446v12h-1.328l-.071-.906c-.578.708-1.383 1.062-2.414 1.062-.979 0-1.778-.401-2.398-1.203-.615-.802-.922-1.849-.922-3.141zm1.445.164c0 .959.198 1.709.594 2.25.396.542.943.813 1.641.813.916 0 1.586-.412 2.007-1.235v-3.883c-.432-.796-1.096-1.195-1.992-1.195-.708 0-1.26.274-1.656.821-.396.546-.594 1.356-.594 2.429zm13.156 4.133c-.083-.167-.151-.464-.203-.891-.671.698-1.474 1.047-2.406 1.047-.833 0-1.518-.234-2.055-.703-.531-.474-.796-1.073-.796-1.797 0-.88.333-1.562 1-2.047.671-.489 1.614-.734 2.828-.734h1.406v-.664c0-.505-.151-.906-.453-1.203-.302-.302-.748-.453-1.336-.453-.516 0-.948.13-1.297.39-.349.261-.523.576-.523.946h-1.454c0-.422.149-.829.446-1.219.302-.396.708-.708 1.219-.938.515-.229 1.08-.343 1.695-.343.974 0 1.737.244 2.289.734.552.484.838 1.154.859 2.008v3.89c0 .776.099 1.394.297 1.852v.125zm-2.398-1.102c.453 0 .883-.117 1.289-.351.406-.235.701-.539.883-.914v-1.735h-1.133c-1.771 0-2.656.519-2.656 1.555 0 .453.151.807.453 1.063.302.255.69.382 1.164.382z" fill="#000"/><path d="m30 408h300v38c0 2.761-2.239 5-5 5h-290c-2.7614 0-5-2.239-5-5z" fill="#f8f8f8"/><g fill="#7c7c7c"><path d="m50.5039 430.197c-.9648-.277-1.668-.617-2.1094-1.019-.4375-.407-.6562-.907-.6562-1.5 0-.672.2676-1.227.8027-1.664.5391-.442 1.2383-.662 2.0977-.662.5859 0 1.1074.113 1.5644.339.461.227.8164.539 1.0664.938.2539.398.3809.834.3809 1.307h-1.1309c0-.516-.164-.92-.4922-1.213-.3281-.297-.791-.446-1.3886-.446-.5547 0-.9883.123-1.3008.369-.3086.243-.4629.581-.4629 1.014 0 .348.1465.643.4395.885.2968.238.7988.457 1.5058.656.7109.199 1.2656.42 1.6641.662.4023.239.6992.518.8906.838.1953.32.293.697.293 1.131 0 .691-.2696 1.246-.8086 1.664-.5391.414-1.2598.621-2.1621.621-.586 0-1.1328-.111-1.6407-.334-.5078-.226-.9004-.535-1.1777-.926-.2734-.39-.4101-.834-.4101-1.33h1.1308c0 .516.1895.924.5684 1.225.3828.297.8925.445 1.5293.445.5937 0 1.0488-.121 1.3652-.363s.4746-.572.4746-.99-.1465-.74-.4394-.967c-.293-.231-.8243-.457-1.5938-.68zm7.125 0c-.9648-.277-1.668-.617-2.1094-1.019-.4375-.407-.6562-.907-.6562-1.5 0-.672.2676-1.227.8027-1.664.5391-.442 1.2383-.662 2.0977-.662.5859 0 1.1074.113 1.5644.339.461.227.8164.539 1.0664.938.2539.398.3809.834.3809 1.307h-1.1309c0-.516-.164-.92-.4922-1.213-.3281-.297-.791-.446-1.3886-.446-.5547 0-.9883.123-1.3008.369-.3086.243-.4629.581-.4629 1.014 0 .348.1465.643.4395.885.2968.238.7988.457 1.5058.656.7109.199 1.2656.42 1.6641.662.4023.239.6992.518.8906.838.1953.32.293.697.293 1.131 0 .691-.2696 1.246-.8086 1.664-.5391.414-1.2598.621-2.1621.621-.586 0-1.1328-.111-1.6407-.334-.5078-.226-.9004-.535-1.1777-.926-.2734-.39-.4101-.834-.4101-1.33h1.1308c0 .516.1895.924.5684 1.225.3828.297.8925.445 1.5293.445.5937 0 1.0488-.121 1.3652-.363s.4746-.572.4746-.99-.1465-.74-.4394-.967c-.293-.231-.8243-.457-1.5938-.68zm.1348-6.029.8789-.996h.9375v.058l-1.4883 1.606h-.6621l-1.4707-1.606v-.058h.9199zm4.2715 9.264c0-.188.0546-.344.164-.469.1133-.125.2813-.188.5039-.188.2227 0 .3907.063.5039.188.1172.125.1758.281.1758.469 0 .179-.0586.33-.1758.451-.1132.121-.2812.181-.5039.181-.2226 0-.3906-.06-.5039-.181-.1094-.121-.164-.272-.164-.451zm.0058-5.174c0-.188.0547-.344.1641-.469.1133-.125.2812-.187.5039-.187.2226 0 .3906.062.5039.187.1172.125.1758.281.1758.469 0 .18-.0586.33-.1758.451-.1133.121-.2813.182-.5039.182-.2227 0-.3906-.061-.5039-.182-.1094-.121-.1641-.271-.1641-.451zm7.2891 5.742h-1.125v-8.531h1.125zm7.8926-3.814h-5.8711v-.885h5.8711zm3.2519 3.814h-1.125v-8.531h1.125zm4.8867-1.494 2.4375-7.037h1.2305l-3.1641 8.531h-.9961l-3.1582-8.531h1.2246zm10.6875-3.873c-.164-.028-.3418-.041-.5332-.041-.7109 0-1.1933.303-1.4472.908v4.5h-1.084v-6.34h1.0547l.0175.733c.3555-.567.8594-.85 1.5118-.85.2109 0 .3711.027.4804.082zm.5977 2.138c0-.621.1211-1.179.3633-1.675.2461-.496.5859-.879 1.0195-1.149.4375-.269.9355-.404 1.4941-.404.8636 0 1.5606.299 2.0916.896.535.598.803 1.393.803 2.385v.076c0 .618-.119 1.172-.357 1.664-.235.489-.573.87-1.014 1.143-.438.273-.942.41-1.5118.41-.8594 0-1.5567-.299-2.0918-.896-.5313-.598-.7969-1.389-.7969-2.373zm1.0898.129c0 .704.1621 1.268.4864 1.694.3281.426.7656.638 1.3125.638.5508 0 .9878-.214 1.3128-.644.324-.434.486-1.039.486-1.817 0-.695-.166-1.257-.498-1.687-.328-.434-.766-.65-1.3126-.65-.5351 0-.9668.212-1.2949.638s-.4922 1.035-.4922 1.828zm8.5837 2.332c.387 0 .725-.117 1.014-.351.289-.235.449-.527.48-.879h1.026c-.02.363-.145.709-.375 1.037-.231.328-.539.59-.926.785-.383.196-.789.293-1.219.293-.863 0-1.55-.287-2.062-.861-.508-.578-.762-1.367-.762-2.367v-.182c0-.617.113-1.166.34-1.646.226-.481.551-.854.973-1.12.425-.265.927-.398 1.505-.398.711 0 1.301.213 1.77.639.473.425.725.978.756 1.658h-1.026c-.031-.41-.187-.746-.468-1.008-.278-.266-.621-.398-1.032-.398-.55 0-.978.199-1.283.597-.301.395-.451.967-.451 1.717v.205c0 .731.15 1.293.451 1.688.301.394.731.591 1.289.591zm-.252-7.236.879-.996h.938v.059l-1.489 1.605h-.662l-1.47-1.605v-.059h.92zm5.016 1.664.035.797c.485-.609 1.117-.914 1.899-.914 1.339 0 2.015.756 2.027 2.268v4.189h-1.084v-4.195c-.004-.457-.109-.795-.316-1.014-.204-.219-.522-.328-.956-.328-.351 0-.66.094-.925.281-.266.188-.473.434-.621.738v4.518h-1.084v-6.34zm6.773 6.34h-1.089v-6.34h1.089zm.012-8.994h1.313l-1.571 1.723h-.873zm3.545 6.058-.68.709v2.227h-1.084v-9h1.084v5.443l.58-.697 1.975-2.086h1.318l-2.466 2.649 2.754 3.691h-1.272z"/><path d="m144.834 433.08h4.881v.92h-6.211v-.844l4.676-6.761h-4.6v-.926h5.947v.826zm8.854-2.883c-.965-.277-1.668-.617-2.11-1.019-.437-.407-.656-.907-.656-1.5 0-.672.267-1.227.803-1.664.539-.442 1.238-.662 2.097-.662.586 0 1.108.113 1.565.339.461.227.816.539 1.066.938.254.398.381.834.381 1.307h-1.131c0-.516-.164-.92-.492-1.213-.328-.297-.791-.446-1.389-.446-.554 0-.988.123-1.301.369-.308.243-.462.581-.462 1.014 0 .348.146.643.439.885.297.238.799.457 1.506.656.711.199 1.266.42 1.664.662.402.239.699.518.891.838.195.32.293.697.293 1.131 0 .691-.27 1.246-.809 1.664-.539.414-1.26.621-2.162.621-.586 0-1.133-.111-1.641-.334-.508-.226-.9-.535-1.178-.926-.273-.39-.41-.834-.41-1.33h1.131c0 .516.19.924.569 1.225.382.297.892.445 1.529.445.594 0 1.049-.121 1.365-.363s.475-.572.475-.99-.147-.74-.44-.967c-.293-.231-.824-.457-1.593-.68zm.134-6.029.879-.996h.938v.058l-1.489 1.606h-.662l-1.47-1.606v-.058h.92zm4.272 9.264c0-.188.054-.344.164-.469.113-.125.281-.188.504-.188.222 0 .39.063.504.188.117.125.175.281.175.469 0 .179-.058.33-.175.451-.114.121-.282.181-.504.181-.223 0-.391-.06-.504-.181-.11-.121-.164-.272-.164-.451zm.006-5.174c0-.188.054-.344.164-.469.113-.125.281-.187.504-.187.222 0 .39.062.503.187.118.125.176.281.176.469 0 .18-.058.33-.176.451-.113.121-.281.182-.503.182-.223 0-.391-.061-.504-.182-.11-.121-.164-.271-.164-.451zm9.363 5.742h-1.09v-7.225l-2.185.803v-.984l3.105-1.166h.17zm9.287-3.814h-5.871v-.885h5.871zm5.918.064c-.227.27-.498.486-.814.65-.313.164-.657.246-1.032.246-.492 0-.922-.121-1.289-.363-.363-.242-.644-.582-.844-1.019-.199-.442-.298-.928-.298-1.459 0-.571.107-1.084.322-1.541.219-.457.527-.807.926-1.049.398-.242.863-.363 1.394-.363.844 0 1.508.316 1.992.949.489.629.733 1.488.733 2.578v.316c0 1.66-.328 2.873-.985 3.639-.656.762-1.646 1.152-2.97 1.172h-.211v-.914h.228c.895-.016 1.582-.248 2.063-.697.48-.454.742-1.168.785-2.145zm-1.67 0c.363 0 .697-.111 1.002-.334.309-.223.533-.498.674-.826v-.434c0-.711-.154-1.289-.463-1.734s-.699-.668-1.172-.668c-.477 0-.859.184-1.148.551-.289.363-.434.843-.434 1.441 0 .582.139 1.063.416 1.442.281.374.656.562 1.125.562zm10.406-1.617c-.164-.028-.342-.041-.533-.041-.711 0-1.193.303-1.447.908v4.5h-1.084v-6.34h1.055l.017.733c.356-.567.859-.85 1.512-.85.211 0 .371.027.48.082zm.598 2.138c0-.621.121-1.179.363-1.675.246-.496.586-.879 1.02-1.149.437-.269.935-.404 1.494-.404.863 0 1.56.299 2.092.896.535.598.802 1.393.802 2.385v.076c0 .618-.119 1.172-.357 1.664-.234.489-.572.87-1.014 1.143-.437.273-.941.41-1.511.41-.86 0-1.557-.299-2.092-.896-.531-.598-.797-1.389-.797-2.373zm1.09.129c0 .704.162 1.268.486 1.694.328.426.766.638 1.313.638.55 0 .988-.214 1.312-.644.324-.434.486-1.039.486-1.817 0-.695-.166-1.257-.498-1.687-.328-.434-.765-.65-1.312-.65-.535 0-.967.212-1.295.638s-.492 1.035-.492 1.828zm8.584 2.332c.386 0 .724-.117 1.013-.351.29-.235.45-.527.481-.879h1.025c-.019.363-.144.709-.375 1.037-.23.328-.539.59-.925.785-.383.196-.79.293-1.219.293-.864 0-1.551-.287-2.063-.861-.508-.578-.761-1.367-.761-2.367v-.182c0-.617.113-1.166.339-1.646.227-.481.551-.854.973-1.12.426-.265.928-.398 1.506-.398.711 0 1.301.213 1.769.639.473.425.725.978.756 1.658h-1.025c-.031-.41-.188-.746-.469-1.008-.277-.266-.621-.398-1.031-.398-.551 0-.979.199-1.283.597-.301.395-.451.967-.451 1.717v.205c0 .731.15 1.293.451 1.688.301.394.73.591 1.289.591zm-.252-7.236.879-.996h.937v.059l-1.488 1.605h-.662l-1.471-1.605v-.059h.92zm5.015 1.664.036.797c.484-.609 1.117-.914 1.898-.914 1.34 0 2.016.756 2.027 2.268v4.189h-1.084v-4.195c-.004-.457-.109-.795-.316-1.014-.203-.219-.521-.328-.955-.328-.352 0-.66.094-.926.281-.265.188-.473.434-.621.738v4.518h-1.084v-6.34zm6.774 6.34h-1.09v-6.34h1.09zm.012-8.994h1.312l-1.57 1.723h-.873zm3.545 6.058-.68.709v2.227h-1.084v-9h1.084v5.443l.58-.697 1.975-2.086h1.318l-2.467 2.649 2.754 3.691h-1.271z"/></g></g><g filter="url(#e)"><path d="m350 234c0-2.761 2.239-5 5-5h290c2.761 0 5 2.239 5 5v91c0 2.761-2.239 5-5 5h-290c-2.761 0-5-2.239-5-5z" fill="#fff"/><path d="m350 233c0-2.209 1.791-4 4-4h292c2.209 0 4 1.791 4 4z" fill="#ecc94b"/><path d="m374.07 259.68c0 1.114-.187 2.088-.562 2.922-.375.828-.906 1.46-1.594 1.898-.687.438-1.49.656-2.406.656-.896 0-1.69-.218-2.383-.656-.693-.443-1.232-1.07-1.617-1.883-.38-.818-.576-1.763-.586-2.836v-.82c0-1.094.19-2.06.57-2.899.38-.838.917-1.479 1.61-1.921.697-.448 1.494-.672 2.39-.672.912 0 1.714.221 2.406.664.698.437 1.235 1.075 1.61 1.914.375.833.562 1.805.562 2.914zm-1.492-.735c0-1.349-.271-2.383-.812-3.101-.542-.724-1.3-1.086-2.274-1.086-.948 0-1.695.362-2.242 1.086-.542.718-.82 1.718-.836 3v.836c0 1.307.274 2.336.82 3.086.552.744 1.31 1.117 2.274 1.117.969 0 1.719-.352 2.25-1.055.531-.708.804-1.721.82-3.039zm5.086 6.055h-1.445v-12h1.445zm5.086-2.117 1.969-6.336h1.547l-3.399 9.758c-.526 1.406-1.362 2.109-2.508 2.109l-.273-.023-.539-.102v-1.172l.391.031c.489 0 .869-.099 1.14-.296.276-.198.503-.56.68-1.086l.32-.86-3.016-8.359h1.579zm6.172-6.336.039.937c.62-.729 1.456-1.093 2.508-1.093 1.182 0 1.987.453 2.414 1.359.281-.406.646-.734 1.094-.984.453-.25.987-.375 1.601-.375 1.854 0 2.797.981 2.828 2.945v5.664h-1.445v-5.578c0-.604-.138-1.055-.414-1.352-.276-.302-.74-.453-1.391-.453-.536 0-.982.162-1.336.485-.354.317-.56.747-.617 1.289v5.609h-1.453v-5.539c0-1.229-.602-1.844-1.805-1.844-.948 0-1.596.404-1.945 1.211v6.172h-1.445v-8.453zm19.812 4.32c0 1.287-.294 2.323-.882 3.11-.589.786-1.386 1.179-2.391 1.179-1.026 0-1.833-.325-2.422-.976v4.07h-1.445v-11.703h1.32l.07.937c.589-.729 1.407-1.093 2.454-1.093 1.015 0 1.817.382 2.406 1.148.594.766.89 1.831.89 3.195zm-1.445-.164c0-.953-.203-1.706-.609-2.258-.407-.552-.964-.828-1.672-.828-.875 0-1.531.388-1.969 1.164v4.039c.432.771 1.094 1.157 1.984 1.157.693 0 1.243-.274 1.649-.821.411-.552.617-1.37.617-2.453zm4.859 4.297h-1.445v-8.453h1.445zm-1.562-10.695c0-.235.07-.433.211-.594.146-.162.359-.242.641-.242.281 0 .494.08.64.242.146.161.219.359.219.594 0 .234-.073.429-.219.586-.146.156-.359.234-.64.234-.282 0-.495-.078-.641-.234-.141-.157-.211-.352-.211-.586zm9.102 10.695c-.084-.167-.152-.464-.204-.891-.672.698-1.474 1.047-2.406 1.047-.833 0-1.518-.234-2.055-.703-.531-.474-.796-1.073-.796-1.797 0-.88.333-1.562 1-2.047.671-.489 1.614-.734 2.828-.734h1.406v-.664c0-.505-.151-.906-.453-1.203-.302-.302-.748-.453-1.336-.453-.516 0-.948.13-1.297.39-.349.261-.523.576-.523.946h-1.454c0-.422.149-.829.446-1.219.302-.396.708-.708 1.218-.938.516-.229 1.081-.343 1.696-.343.974 0 1.737.244 2.289.734.552.484.838 1.154.859 2.008v3.89c0 .776.099 1.394.297 1.852v.125zm-2.399-1.102c.453 0 .883-.117 1.289-.351.406-.235.701-.539.883-.914v-1.735h-1.133c-1.771 0-2.656.519-2.656 1.555 0 .453.151.807.453 1.063.302.255.69.382 1.164.382zm1.336-10.898h1.75l-2.094 2.297h-1.164zm4.195 7.703c0-1.297.308-2.338.922-3.125.615-.792 1.419-1.187 2.414-1.187.99 0 1.774.338 2.352 1.015v-4.406h1.445v12h-1.328l-.07-.906c-.578.708-1.383 1.062-2.414 1.062-.98 0-1.779-.401-2.399-1.203-.614-.802-.922-1.849-.922-3.141zm1.446.164c0 .959.198 1.709.593 2.25.396.542.943.813 1.641.813.917 0 1.586-.412 2.008-1.235v-3.883c-.432-.796-1.097-1.195-1.992-1.195-.709 0-1.261.274-1.657.821-.395.546-.593 1.356-.593 2.429zm13.156 4.133c-.083-.167-.151-.464-.203-.891-.672.698-1.474 1.047-2.407 1.047-.833 0-1.518-.234-2.054-.703-.531-.474-.797-1.073-.797-1.797 0-.88.333-1.562 1-2.047.672-.489 1.615-.734 2.828-.734h1.406v-.664c0-.505-.151-.906-.453-1.203-.302-.302-.747-.453-1.336-.453-.515 0-.948.13-1.297.39-.349.261-.523.576-.523.946h-1.453c0-.422.148-.829.445-1.219.302-.396.708-.708 1.219-.938.515-.229 1.081-.343 1.695-.343.974 0 1.737.244 2.289.734.552.484.839 1.154.86 2.008v3.89c0 .776.099 1.394.297 1.852v.125zm-2.399-1.102c.454 0 .883-.117 1.289-.351.407-.235.701-.539.883-.914v-1.735h-1.133c-1.77 0-2.656.519-2.656 1.555 0 .453.151.807.453 1.063.302.255.69.382 1.164.382zm11.211-.078h4.946v1.18h-6.711v-1.062l4.664-6.196h-4.594v-1.195h6.406v1.023zm13.938.157c.516 0 .966-.157 1.351-.469.386-.313.599-.703.641-1.172h1.367c-.026.484-.192.945-.5 1.383-.307.437-.719.786-1.234 1.047-.511.26-1.052.39-1.625.39-1.151 0-2.068-.383-2.75-1.148-.677-.771-1.016-1.823-1.016-3.156v-.243c0-.823.151-1.554.453-2.195s.735-1.138 1.297-1.492c.568-.354 1.237-.531 2.008-.531.948 0 1.734.283 2.359.851.631.568.967 1.305 1.008 2.211h-1.367c-.042-.547-.25-.995-.625-1.344-.37-.354-.828-.531-1.375-.531-.734 0-1.305.266-1.711.797-.401.526-.601 1.289-.601 2.289v.274c0 .973.2 1.723.601 2.25.401.526.974.789 1.719.789zm-.336-9.649 1.172-1.328h1.25v.078l-1.985 2.141h-.882l-1.961-2.141v-.078h1.226zm8.828 10.828c-1.146 0-2.078-.375-2.797-1.125-.719-.755-1.078-1.763-1.078-3.023v-.266c0-.838.159-1.586.477-2.242.323-.661.77-1.177 1.343-1.547.579-.375 1.203-.562 1.875-.562 1.099 0 1.954.362 2.563 1.086s.914 1.76.914 3.109v.602h-5.727c.021.833.263 1.507.727 2.023.469.51 1.062.766 1.781.766.511 0 .943-.105 1.297-.313s.664-.484.93-.828l.883.687c-.709 1.089-1.771 1.633-3.188 1.633zm-.18-7.578c-.583 0-1.073.214-1.468.641-.396.422-.641 1.015-.735 1.781h4.235v-.109c-.042-.735-.24-1.302-.594-1.703-.354-.407-.833-.61-1.438-.61zm10.078 5.18c0-.391-.148-.693-.445-.906-.291-.219-.805-.407-1.539-.563-.729-.156-1.31-.344-1.742-.562-.427-.219-.745-.48-.953-.782-.203-.302-.305-.661-.305-1.078 0-.693.292-1.278.875-1.758.589-.479 1.339-.718 2.25-.718.958 0 1.735.247 2.328.742.599.495.899 1.127.899 1.898h-1.453c0-.396-.17-.737-.508-1.023-.334-.287-.755-.43-1.266-.43-.526 0-.937.115-1.234.344s-.446.529-.446.898c0 .349.138.612.415.789.276.177.773.347 1.492.508.724.162 1.31.354 1.758.578.447.224.778.495.992.813.218.312.328.695.328 1.148 0 .755-.302 1.362-.906 1.821-.605.453-1.388.679-2.352.679-.677 0-1.276-.12-1.797-.359-.521-.24-.93-.573-1.226-1-.292-.432-.438-.899-.438-1.399h1.445c.026.485.219.87.578 1.157.365.281.844.422 1.438.422.547 0 .984-.11 1.312-.329.334-.224.5-.52.5-.89zm5.688-1.672-.906.945v2.969h-1.446v-12h1.446v7.258l.773-.93 2.633-2.781h1.758l-3.289 3.531 3.672 4.922h-1.696zm9.102 4.07c-1.146 0-2.079-.375-2.797-1.125-.719-.755-1.078-1.763-1.078-3.023v-.266c0-.838.158-1.586.476-2.242.323-.661.771-1.177 1.344-1.547.578-.375 1.203-.562 1.875-.562 1.099 0 1.953.362 2.562 1.086.61.724.914 1.76.914 3.109v.602h-5.726c.021.833.263 1.507.726 2.023.469.51 1.063.766 1.782.766.51 0 .942-.105 1.297-.313.354-.208.664-.484.929-.828l.883.687c-.708 1.089-1.771 1.633-3.187 1.633zm-.18-7.578c-.583 0-1.073.214-1.469.641-.396.422-.641 1.015-.734 1.781h4.234v-.109c-.042-.735-.239-1.302-.594-1.703-.354-.407-.833-.61-1.437-.61zm.703-4.578h1.75l-2.094 2.297h-1.164zm5.898 4.57c.641-.786 1.474-1.179 2.5-1.179 1.787 0 2.688 1.007 2.704 3.023v5.586h-1.446v-5.594c-.005-.609-.146-1.06-.422-1.351-.27-.292-.695-.438-1.273-.438-.469 0-.88.125-1.234.375-.355.25-.631.578-.829.985v6.023h-1.445v-12h1.445zm6.985 3.125c0-.828.161-1.573.484-2.234.328-.662.781-1.172 1.36-1.531.583-.36 1.247-.539 1.992-.539 1.151 0 2.08.398 2.789 1.195.713.797 1.07 1.857 1.07 3.18v.101c0 .823-.159 1.563-.476 2.219-.313.651-.763 1.159-1.352 1.523-.583.365-1.255.547-2.016.547-1.145 0-2.075-.398-2.789-1.195-.708-.797-1.062-1.852-1.062-3.164zm1.453.172c0 .938.216 1.69.648 2.258.438.568 1.021.852 1.75.852.735 0 1.318-.287 1.75-.86.433-.578.649-1.385.649-2.422 0-.927-.222-1.677-.664-2.25-.438-.578-1.021-.867-1.75-.867-.714 0-1.289.284-1.727.852-.437.567-.656 1.38-.656 2.437zm13.516-4.32v9.43c0 1.625-.737 2.437-2.211 2.437-.318 0-.612-.047-.883-.141v-1.156c.166.042.385.063.656.063.323 0 .568-.089.734-.266.172-.172.258-.474.258-.906v-9.461zm-1.594-2.242c0-.229.07-.425.211-.586.146-.167.357-.25.633-.25.281 0 .494.08.64.242.146.161.219.359.219.594 0 .234-.073.429-.219.586-.146.156-.359.234-.64.234-.282 0-.493-.078-.633-.234-.141-.157-.211-.352-.211-.586zm9.148 10.695c-.083-.167-.151-.464-.203-.891-.672.698-1.474 1.047-2.406 1.047-.833 0-1.518-.234-2.055-.703-.531-.474-.797-1.073-.797-1.797 0-.88.334-1.562 1-2.047.672-.489 1.615-.734 2.828-.734h1.407v-.664c0-.505-.151-.906-.453-1.203-.303-.302-.748-.453-1.336-.453-.516 0-.948.13-1.297.39-.349.261-.524.576-.524.946h-1.453c0-.422.149-.829.446-1.219.302-.396.708-.708 1.218-.938.516-.229 1.081-.343 1.696-.343.974 0 1.737.244 2.289.734.552.484.838 1.154.859 2.008v3.89c0 .776.099 1.394.297 1.852v.125zm-2.398-1.102c.453 0 .883-.117 1.289-.351.406-.235.7-.539.883-.914v-1.735h-1.133c-1.771 0-2.656.519-2.656 1.555 0 .453.151.807.453 1.063.302.255.69.382 1.164.382zm7.242-.078h4.945v1.18h-6.711v-1.062l4.664-6.196h-4.593v-1.195h6.406v1.023zm9.344-.937 1.969-6.336h1.546l-3.398 9.758c-.526 1.406-1.362 2.109-2.508 2.109l-.273-.023-.539-.102v-1.172l.39.031c.49 0 .87-.099 1.141-.296.276-.198.502-.56.68-1.086l.32-.86-3.016-8.359h1.578zm7.172-1.797-.907.945v2.969h-1.445v-12h1.445v7.258l.774-.93 2.633-2.781h1.757l-3.289 3.531 3.672 4.922h-1.695zm10.968 3.914c-.083-.167-.151-.464-.203-.891-.672.698-1.474 1.047-2.406 1.047-.833 0-1.518-.234-2.055-.703-.531-.474-.797-1.073-.797-1.797 0-.88.334-1.562 1-2.047.672-.489 1.615-.734 2.829-.734h1.406v-.664c0-.505-.151-.906-.453-1.203-.302-.302-.748-.453-1.336-.453-.516 0-.948.13-1.297.39-.349.261-.524.576-.524.946h-1.453c0-.422.149-.829.446-1.219.302-.396.708-.708 1.218-.938.516-.229 1.081-.343 1.696-.343.974 0 1.737.244 2.289.734.552.484.838 1.154.859 2.008v3.89c0 .776.099 1.394.297 1.852v.125zm-2.398-1.102c.453 0 .883-.117 1.289-.351.406-.235.701-.539.883-.914v-1.735h-1.133c-1.771 0-2.656.519-2.656 1.555 0 .453.151.807.453 1.063.302.255.69.382 1.164.382z" fill="#000"/><path d="m350 287h300v38c0 2.761-2.239 5-5 5h-290c-2.761 0-5-2.239-5-5z" fill="#f8f8f8"/><g fill="#7c7c7c"><path d="m370.504 309.197c-.965-.277-1.668-.617-2.109-1.019-.438-.407-.657-.907-.657-1.5 0-.672.268-1.227.803-1.664.539-.442 1.238-.662 2.098-.662.586 0 1.107.113 1.564.339.461.227.817.539 1.067.938.253.398.38.834.38 1.307h-1.13c0-.516-.165-.92-.493-1.213-.328-.297-.791-.446-1.388-.446-.555 0-.989.123-1.301.369-.309.243-.463.581-.463 1.014 0 .348.146.643.439.885.297.238.799.457 1.506.656.711.199 1.266.42 1.664.662.403.239.7.518.891.838.195.32.293.697.293 1.131 0 .691-.27 1.246-.809 1.664-.539.414-1.259.621-2.162.621-.586 0-1.133-.111-1.64-.334-.508-.226-.901-.535-1.178-.926-.274-.39-.41-.834-.41-1.33h1.131c0 .516.189.924.568 1.225.383.297.893.445 1.529.445.594 0 1.049-.121 1.365-.363.317-.242.475-.572.475-.99s-.146-.74-.439-.967c-.293-.231-.825-.457-1.594-.68zm7.125 0c-.965-.277-1.668-.617-2.109-1.019-.438-.407-.657-.907-.657-1.5 0-.672.268-1.227.803-1.664.539-.442 1.238-.662 2.098-.662.586 0 1.107.113 1.564.339.461.227.817.539 1.067.938.253.398.38.834.38 1.307h-1.13c0-.516-.165-.92-.493-1.213-.328-.297-.791-.446-1.388-.446-.555 0-.989.123-1.301.369-.309.243-.463.581-.463 1.014 0 .348.146.643.439.885.297.238.799.457 1.506.656.711.199 1.266.42 1.664.662.403.239.7.518.891.838.195.32.293.697.293 1.131 0 .691-.27 1.246-.809 1.664-.539.414-1.259.621-2.162.621-.586 0-1.133-.111-1.64-.334-.508-.226-.901-.535-1.178-.926-.274-.39-.41-.834-.41-1.33h1.131c0 .516.189.924.568 1.225.383.297.893.445 1.529.445.594 0 1.049-.121 1.366-.363.316-.242.474-.572.474-.99s-.146-.74-.439-.967c-.293-.231-.825-.457-1.594-.68zm.135-6.029.879-.996h.937v.058l-1.488 1.606h-.662l-1.471-1.606v-.058h.92zm4.271 9.264c0-.188.055-.344.164-.469.113-.125.281-.188.504-.188s.391.063.504.188c.117.125.176.281.176.469 0 .179-.059.33-.176.451-.113.121-.281.181-.504.181s-.391-.06-.504-.181c-.109-.121-.164-.272-.164-.451zm.006-5.174c0-.188.055-.344.164-.469.113-.125.281-.187.504-.187s.391.062.504.187c.117.125.176.281.176.469 0 .18-.059.33-.176.451-.113.121-.281.182-.504.182s-.391-.061-.504-.182c-.109-.121-.164-.271-.164-.451zm7.289 5.742h-1.125v-8.531h1.125zm7.893-3.814h-5.871v-.885h5.871zm3.252 3.814h-1.125v-8.531h1.125zm4.886-1.494 2.438-7.037h1.23l-3.164 8.531h-.996l-3.158-8.531h1.225zm10.688-3.873c-.164-.028-.342-.041-.533-.041-.711 0-1.194.303-1.448.908v4.5h-1.084v-6.34h1.055l.018.733c.355-.567.859-.85 1.511-.85.211 0 .371.027.481.082zm.597 2.138c0-.621.122-1.179.364-1.675.246-.496.586-.879 1.019-1.149.438-.269.936-.404 1.494-.404.864 0 1.561.299 2.092.896.535.598.803 1.393.803 2.385v.076c0 .618-.119 1.172-.357 1.664-.235.489-.573.87-1.014 1.143-.438.273-.942.41-1.512.41-.859 0-1.556-.299-2.092-.896-.531-.598-.797-1.389-.797-2.373zm1.09.129c0 .704.162 1.268.487 1.694.328.426.765.638 1.312.638.551 0 .988-.214 1.313-.644.324-.434.486-1.039.486-1.817 0-.695-.166-1.257-.498-1.687-.328-.434-.766-.65-1.313-.65-.535 0-.966.212-1.294.638-.329.426-.493 1.035-.493 1.828zm8.584 2.332c.387 0 .725-.117 1.014-.351.289-.235.449-.527.48-.879h1.026c-.02.363-.145.709-.375 1.037-.231.328-.539.59-.926.785-.383.196-.789.293-1.219.293-.863 0-1.55-.287-2.062-.861-.508-.578-.762-1.367-.762-2.367v-.182c0-.617.113-1.166.34-1.646.226-.481.551-.854.973-1.12.425-.265.927-.398 1.505-.398.711 0 1.301.213 1.77.639.473.425.725.978.756 1.658h-1.026c-.031-.41-.187-.746-.468-1.008-.278-.266-.621-.398-1.032-.398-.55 0-.978.199-1.283.597-.301.395-.451.967-.451 1.717v.205c0 .731.15 1.293.451 1.688.301.394.731.591 1.289.591zm-.252-7.236.879-.996h.938v.059l-1.489 1.605h-.662l-1.47-1.605v-.059h.92zm5.016 1.664.035.797c.485-.609 1.117-.914 1.899-.914 1.339 0 2.015.756 2.027 2.268v4.189h-1.084v-4.195c-.004-.457-.109-.795-.316-1.014-.204-.219-.522-.328-.956-.328-.351 0-.66.094-.925.281-.266.188-.473.434-.621.738v4.518h-1.084v-6.34zm6.773 6.34h-1.089v-6.34h1.089zm.012-8.994h1.313l-1.571 1.723h-.873zm3.545 6.058-.68.709v2.227h-1.084v-9h1.084v5.443l.58-.697 1.975-2.086h1.318l-2.466 2.649 2.754 3.691h-1.272z"/><path d="m464.834 312.08h4.881v.92h-6.211v-.844l4.676-6.761h-4.6v-.926h5.947v.826zm8.854-2.883c-.965-.277-1.668-.617-2.11-1.019-.437-.407-.656-.907-.656-1.5 0-.672.267-1.227.803-1.664.539-.442 1.238-.662 2.097-.662.586 0 1.108.113 1.565.339.461.227.816.539 1.066.938.254.398.381.834.381 1.307h-1.131c0-.516-.164-.92-.492-1.213-.328-.297-.791-.446-1.389-.446-.554 0-.988.123-1.301.369-.308.243-.462.581-.462 1.014 0 .348.146.643.439.885.297.238.799.457 1.506.656.711.199 1.266.42 1.664.662.402.239.699.518.891.838.195.32.293.697.293 1.131 0 .691-.27 1.246-.809 1.664-.539.414-1.26.621-2.162.621-.586 0-1.133-.111-1.641-.334-.508-.226-.9-.535-1.178-.926-.273-.39-.41-.834-.41-1.33h1.131c0 .516.19.924.569 1.225.382.297.892.445 1.529.445.594 0 1.049-.121 1.365-.363s.475-.572.475-.99-.147-.74-.44-.967c-.293-.231-.824-.457-1.593-.68zm.134-6.029.879-.996h.938v.058l-1.489 1.606h-.662l-1.47-1.606v-.058h.92zm4.272 9.264c0-.188.054-.344.164-.469.113-.125.281-.188.504-.188.222 0 .39.063.504.188.117.125.175.281.175.469 0 .179-.058.33-.175.451-.114.121-.282.181-.504.181-.223 0-.391-.06-.504-.181-.11-.121-.164-.272-.164-.451zm.006-5.174c0-.188.054-.344.164-.469.113-.125.281-.187.504-.187.222 0 .39.062.503.187.118.125.176.281.176.469 0 .18-.058.33-.176.451-.113.121-.281.182-.503.182-.223 0-.391-.061-.504-.182-.11-.121-.164-.271-.164-.451zm9.363 5.742h-1.09v-7.225l-2.185.803v-.984l3.105-1.166h.17zm9.287-3.814h-5.871v-.885h5.871zm5.918.064c-.227.27-.498.486-.814.65-.313.164-.657.246-1.032.246-.492 0-.922-.121-1.289-.363-.363-.242-.644-.582-.844-1.019-.199-.442-.298-.928-.298-1.459 0-.571.107-1.084.322-1.541.219-.457.527-.807.926-1.049.398-.242.863-.363 1.394-.363.844 0 1.508.316 1.992.949.489.629.733 1.488.733 2.578v.316c0 1.66-.328 2.873-.985 3.639-.656.762-1.646 1.152-2.97 1.172h-.211v-.914h.228c.895-.016 1.582-.248 2.063-.697.48-.454.742-1.168.785-2.145zm-1.67 0c.363 0 .697-.111 1.002-.334.309-.223.533-.498.674-.826v-.434c0-.711-.154-1.289-.463-1.734s-.699-.668-1.172-.668c-.477 0-.859.184-1.148.551-.289.363-.434.843-.434 1.441 0 .582.139 1.063.416 1.442.281.374.656.562 1.125.562zm10.406-1.617c-.164-.028-.342-.041-.533-.041-.711 0-1.193.303-1.447.908v4.5h-1.084v-6.34h1.055l.017.733c.356-.567.859-.85 1.512-.85.211 0 .371.027.48.082zm.598 2.138c0-.621.121-1.179.363-1.675.246-.496.586-.879 1.02-1.149.437-.269.935-.404 1.494-.404.863 0 1.56.299 2.092.896.535.598.802 1.393.802 2.385v.076c0 .618-.119 1.172-.357 1.664-.234.489-.572.87-1.014 1.143-.437.273-.941.41-1.511.41-.86 0-1.557-.299-2.092-.896-.531-.598-.797-1.389-.797-2.373zm1.09.129c0 .704.162 1.268.486 1.694.328.426.766.638 1.313.638.55 0 .988-.214 1.312-.644.324-.434.486-1.039.486-1.817 0-.695-.166-1.257-.498-1.687-.328-.434-.765-.65-1.312-.65-.535 0-.967.212-1.295.638s-.492 1.035-.492 1.828zm8.584 2.332c.386 0 .724-.117 1.013-.351.29-.235.45-.527.481-.879h1.025c-.019.363-.144.709-.375 1.037-.23.328-.539.59-.925.785-.383.196-.79.293-1.219.293-.864 0-1.551-.287-2.063-.861-.508-.578-.761-1.367-.761-2.367v-.182c0-.617.113-1.166.339-1.646.227-.481.551-.854.973-1.12.426-.265.928-.398 1.506-.398.711 0 1.301.213 1.769.639.473.425.725.978.756 1.658h-1.025c-.031-.41-.188-.746-.469-1.008-.277-.266-.621-.398-1.031-.398-.551 0-.979.199-1.283.597-.301.395-.451.967-.451 1.717v.205c0 .731.15 1.293.451 1.688.301.394.73.591 1.289.591zm-.252-7.236.879-.996h.937v.059l-1.488 1.605h-.662l-1.471-1.605v-.059h.92zm5.015 1.664.036.797c.484-.609 1.117-.914 1.898-.914 1.34 0 2.016.756 2.027 2.268v4.189h-1.084v-4.195c-.004-.457-.109-.795-.316-1.014-.203-.219-.521-.328-.955-.328-.352 0-.66.094-.926.281-.265.188-.473.434-.621.738v4.518h-1.084v-6.34zm6.774 6.34h-1.09v-6.34h1.09zm.012-8.994h1.312l-1.57 1.723h-.873zm3.545 6.058-.68.709v2.227h-1.084v-9h1.084v5.443l.58-.697 1.975-2.086h1.318l-2.467 2.649 2.754 3.691h-1.271z"/></g></g></g></svg>