<svg width="505" height="105" viewBox="0 0 505 105" fill="none" xmlns="http://www.w3.org/2000/svg">
    <path d="M202 0H272L264 15.5H211L202 0Z" fill="#BBD8B3" />
    <path d="M272 0L237 50.5L202 0V22.5006C202 25.1066 202.783 27.6524 204.248 29.8078L237 78L269.752 29.8078C271.217 27.6524 272 25.1066 272 22.5006V0Z" fill="#3F6C51" />
    <circle r="17" transform="matrix(-1 0 0 1 237 75)" fill="#F7B801" />
    <path d="M53.712 104.72C46.512 104.72 39.936 103.28 33.984 100.4C28.128 97.424 23.088 93.536 18.864 88.736C14.64 83.84 11.376 78.272 9.072 72.032C6.768 65.792 5.616 59.408 5.616 52.88C5.616 46.064 6.816 39.536 9.216 33.296C11.712 27.056 15.12 21.536 19.44 16.736C23.76 11.936 28.848 8.144 34.704 5.35999C40.656 2.47999 47.088 1.04 54 1.04C61.2 1.04 67.728 2.576 73.584 5.648C79.44 8.624 84.48 12.56 88.704 17.456C92.928 22.352 96.192 27.92 98.496 34.16C100.8 40.304 101.952 46.592 101.952 53.024C101.952 59.84 100.704 66.368 98.208 72.608C95.808 78.848 92.448 84.368 88.128 89.168C83.904 93.872 78.816 97.664 72.864 100.544C67.008 103.328 60.624 104.72 53.712 104.72ZM18.72 52.88C18.72 58.064 19.536 63.104 21.168 68C22.896 72.8 25.296 77.072 28.368 80.816C31.44 84.56 35.136 87.536 39.456 89.744C43.776 91.952 48.576 93.056 53.856 93.056C59.328 93.056 64.224 91.904 68.544 89.6C72.864 87.2 76.512 84.128 79.488 80.384C82.56 76.544 84.864 72.224 86.4 67.424C88.032 62.624 88.848 57.776 88.848 52.88C88.848 47.696 87.984 42.704 86.256 37.904C84.624 33.008 82.224 28.736 79.056 25.088C75.984 21.344 72.288 18.368 67.968 16.16C63.744 13.952 59.04 12.848 53.856 12.848C48.384 12.848 43.488 14 39.168 16.304C34.848 18.608 31.152 21.632 28.08 25.376C25.104 29.12 22.8 33.392 21.168 38.192C19.536 42.992 18.72 47.888 18.72 52.88ZM119.959 104V1.75999H132.919V92.48H189.943V104H119.959Z" fill="#A29F15" />
    <path d="M389.656 104V24.944L355.672 85.568H348.328L314.2 24.944V104H301.24V1.75999H314.92L351.928 68.144L389.08 1.75999H402.616V104H389.656ZM427.099 104V1.75999H469.723C474.235 1.75999 478.363 2.71999 482.107 4.63999C485.947 6.464 489.211 8.96 491.899 12.128C494.683 15.2 496.843 18.704 498.379 22.64C499.915 26.48 500.683 30.416 500.683 34.448C500.683 38.672 499.963 42.752 498.523 46.688C497.083 50.624 495.019 54.128 492.331 57.2C489.739 60.272 486.571 62.72 482.827 64.544C479.179 66.368 475.099 67.28 470.587 67.28H440.059V104H427.099ZM440.059 55.76H469.867C472.555 55.76 474.955 55.232 477.067 54.176C479.275 53.024 481.147 51.488 482.683 49.568C484.219 47.552 485.419 45.248 486.283 42.656C487.147 40.064 487.579 37.328 487.579 34.448C487.579 31.472 487.051 28.688 485.995 26.096C485.035 23.504 483.691 21.248 481.963 19.328C480.331 17.408 478.363 15.92 476.059 14.864C473.851 13.808 471.499 13.28 469.003 13.28H440.059V55.76Z" fill="#A29F15" />
</svg>