<svg fill="none" height="38" viewBox="0 0 122 38" width="122" xmlns="http://www.w3.org/2000/svg"><path d="m91.0365 30.426v-15.2l-5.9536 11.3191h-2.44l-5.9536-11.3191v15.2h-4.4896v-22.96171h4.8149l6.832 13.06551 6.8971-13.06551h4.7824v22.96171zm9.3115 0v-22.96171h9.793c1.063 0 2.039.22639 2.928.67915.911.43118 1.692 1.01331 2.342 1.74639.651.71147 1.161 1.53077 1.529 2.45787.37.9055.553 1.8218.553 2.7489 0 .9702-.173 1.9189-.52 2.846-.347.9055-.835 1.714-1.464 2.4255s-1.388 1.2829-2.277 1.7141c-.889.4311-1.865.6468-2.928.6468h-5.466v7.697zm4.49-11.6102h5.205c.825 0 1.508-.3342 2.05-1.0026.564-.6684.846-1.5739.846-2.7166 0-.5821-.087-1.0995-.261-1.5523-.173-.4744-.401-.8732-.683-1.1966-.281-.3234-.618-.5605-1.008-.7115-.369-.1724-.749-.2587-1.139-.2587h-5.01z" fill="#336319"/><path d="m49.6133 7.46429h17.1387l-1.9588 3.86871h-12.9764z" fill="#629e41"/><path clip-rule="evenodd" d="m58.1827 20.0689 8.5693-12.60461v3.71321c0 1.892-.5608 3.7423-1.6122 5.3194l-3.5166 5.275c-.9857-.7457-2.2173-1.1886-3.5533-1.1886-1.2684 0-2.4426.3992-3.4018 1.0777l-3.4426-5.1641c-1.0514-1.5771-1.6122-3.4274-1.6122-5.3194v-3.71321z" fill="#336319" fill-rule="evenodd"/><path d="m58.0699 30.6111c-2.3538 0-4.262-1.8904-4.262-4.2223 0-2.3318 1.9082-4.2222 4.262-4.2222s4.262 1.8904 4.262 4.2222c0 2.3319-1.9082 4.2223-4.262 4.2223z" fill="#ffd600"/><path d="m17.036 30.7494c-1.6917 0-3.2316-.3234-4.6197-.9702-1.3664-.6684-2.54846-1.5416-3.54615-2.6196-.976-1.0996-1.73511-2.3501-2.27734-3.7515-.54222-1.4014-.81333-2.8352-.81333-4.3013 0-1.5307.28196-2.9969.84587-4.3983.5856-1.4013 1.37724-2.6411 2.37493-3.7191 1.01942-1.07799 2.22312-1.92967 3.61122-2.55489 1.3881-.64681 2.8954-.97022 4.5221-.97022 1.67 0 3.1883.34497 4.5547 1.0349 1.3881.66839 2.5701 1.55231 3.5461 2.65191s1.7351 2.3501 2.2773 3.7515c.5423 1.4014.8134 2.8244.8134 4.2689 0 1.5308-.282 2.9969-.8459 4.3983-.5639 1.3799-1.3447 2.6088-2.3424 3.6868-.9977 1.0565-2.1905 1.9081-3.5787 2.5549-1.3881.6252-2.8954.9379-4.5221.9379zm-6.7019-11.6426c0 .9918.1519 1.9512.4555 2.8783.3037.9272.7374 1.7464 1.3013 2.4579.5856.7115 1.2906 1.2829 2.1147 1.7141.8459.4311 1.8002.6468 2.8629.6468 1.0845 0 2.0388-.2157 2.863-.6468.8458-.4528 1.5508-1.0457 2.1146-1.7788.5856-.733 1.0194-1.5523 1.3014-2.4578.3036-.9272.4554-1.865.4554-2.8137 0-.9918-.1626-1.9511-.488-2.8783-.3036-.9271-.7482-1.7463-1.3338-2.4578-.5639-.7115-1.2688-1.2721-2.1147-1.6817-.8241-.4312-1.7568-.6468-2.7979-.6468-1.0844 0-2.0496.2263-2.8954.6791-.8459.4312-1.5508 1.0133-2.1147 1.7464-.5639.7115-.9977 1.5308-1.3013 2.4579-.282.9055-.423 1.8326-.423 2.7812zm21.435 11.4809v-22.9617h4.4896v19.0485h11.777v3.9132z" fill="#336319"/></svg>