<svg width="201" height="271" viewBox="0 0 201 271" fill="none" xmlns="http://www.w3.org/2000/svg">
  <path fill-rule="evenodd" clip-rule="evenodd" d="M35.0779 239.478C31.6584 239.313 33.0337 233.337 33.2791 231.143C35.9865 223.127 35.35 214.381 36.4148 205.979C37.0782 198.136 37.9305 190.317 38.6474 182.48C40.0555 166.571 50.1669 134.185 61.7058 128.976C63.1594 122.604 69.163 116.656 76.7589 116.656C81.9396 110.529 88.1753 106.217 96.1734 107.087C99.4786 107.238 102.684 110.74 105.851 111.416C107.624 111.661 123.361 111.032 126.513 112.902C128.709 114.029 130.691 116.11 130.046 118.76C129.015 121.971 132.217 118.497 138.895 121.924C152.513 130.095 144.375 141.026 144.015 141.365C152.513 153.178 159.94 162.761 163.377 177.2C165.604 187.92 165.353 198.986 167.219 209.76C167.878 213.496 168.889 217.105 169.983 220.733C171.169 225.481 171.745 237.315 172.398 237.421C173.589 237.716 171.71 240.158 170.449 240.16C135.482 245.955 99.9644 240.4 64.8096 239.492C54.9024 239.148 44.9846 239.069 35.0779 239.478Z" fill="white" />
  <path fill-rule="evenodd" clip-rule="evenodd" d="M88.0758 142.408C88.0596 142.248 87.8437 142.248 87.8271 142.408L87.5802 144.789C87.2798 147.697 86.9907 150.599 86.781 153.521C86.5197 157.164 86.3449 160.806 86.2607 164.458C85.9669 177.174 85.9085 189.898 85.8838 202.618C84.162 202.499 82.4401 202.384 80.7172 202.273C79.5484 202.198 78.3795 202.125 77.2104 202.054L74.2295 201.874V201.874L73.0023 201.798C72.173 201.747 71.2308 201.538 70.6509 202.272C70.4188 202.566 70.3024 202.948 70.5188 203.297C71.0179 204.101 71.7846 204.073 72.6517 204.108C73.4699 204.141 74.2881 204.173 75.1062 204.205C76.8595 204.273 78.6126 204.337 80.3664 204.386C82.2069 204.438 84.0465 204.48 85.8863 204.511C85.9049 209.881 86.1273 215.244 86.3677 220.608L86.4765 223.022C86.7708 229.55 87.0873 236.083 87.5369 242.602C87.5739 243.136 88.3296 243.135 88.3662 242.602C88.8726 235.261 89.2066 227.904 89.5379 220.552C89.7782 215.222 89.9179 209.891 89.9845 204.559C90.2278 204.56 90.4709 204.564 90.714 204.565C97.6193 204.595 104.523 204.625 111.428 204.56C111.417 204.574 111.405 204.587 111.398 204.605C110.898 205.784 110.85 207.288 110.863 208.553C110.877 210.003 111.072 211.436 111.407 212.847C112.605 217.901 115.695 222.427 119.215 226.169L119.33 226.291C120.16 227.168 121.112 228.048 121.622 229.165C122.143 230.304 122.323 231.638 122.58 232.862L122.61 233.003L123.615 237.639C123.934 239.112 124.025 241.26 125.192 242.322C126.28 243.313 127.722 242.796 128.234 241.519C128.634 240.523 128.236 239.429 127.999 238.433L126.143 230.638C125.838 229.366 125.504 228.087 124.846 226.945C124.172 225.775 123.183 224.927 122.175 224.059C120.265 222.416 118.511 220.535 117.028 218.499C115.546 216.463 114.279 214.219 113.391 211.859C112.946 210.678 112.581 209.451 112.33 208.214C112.091 207.04 112.093 205.824 111.837 204.663C111.82 204.582 111.752 204.527 111.674 204.503C111.693 204.451 111.665 204.381 111.592 204.377L105.945 204.014C100.925 203.69 95.9048 203.359 90.8893 202.98L90.003 202.916V202.916C90.0719 195.801 90.0135 188.685 89.8848 181.568C89.767 175.042 89.7645 168.514 89.5703 161.988C89.4736 158.749 89.2654 155.518 89.0336 152.286C88.7965 148.981 88.417 145.703 88.0758 142.408ZM141.102 180.25C141.163 179.887 140.706 179.663 140.496 179.994C138.091 183.781 136.932 187.895 136.443 192.326C136.011 196.237 136.138 200.205 136.353 204.126C136.583 208.309 136.85 212.491 137.121 216.671L137.536 223.081V223.081L138.579 239.152C138.654 240.302 138.915 241.347 139.906 241.881C140.031 241.986 140.162 242.08 140.314 242.161C140.85 242.447 141.56 242.302 141.869 241.754L141.745 241.835C141.637 241.903 141.758 241.808 142.109 241.551L142.407 241.166V241.166C142.623 240.841 142.761 240.521 142.817 240.135C142.903 239.535 142.792 238.877 142.752 238.274L142.069 227.735V227.735C141.537 219.543 140.916 211.353 140.448 203.156C140.23 199.336 140.077 195.512 140.181 191.685C140.284 187.88 140.478 184.01 141.102 180.25ZM120.299 109.706L120.166 109.683C115.389 108.891 110.195 109.039 105.83 111.339C105.794 111.358 105.811 111.418 105.851 111.416L107.256 111.36C111.704 111.186 116.138 111.083 120.512 112.127L120.96 112.235C122.535 112.619 124.179 113.089 125.445 114.128C126.654 115.122 127.256 116.654 127.835 118.065L127.912 118.251C128.5 119.645 129.243 120.966 130.531 121.837C132.198 122.966 134.204 122.828 136.116 122.981C139.483 123.251 142.235 125.689 143.605 128.672C144.434 130.478 144.788 132.503 144.858 134.479C144.894 135.484 144.899 136.529 144.765 137.528C144.722 137.848 144.327 139.012 144.125 138.984C143.677 138.922 143.268 139.155 143.128 139.513C142.022 138.445 140.884 137.408 139.709 136.408C136.781 133.917 133.627 131.659 130.306 129.719C127.771 128.237 125.097 126.77 122.328 125.661C122.548 125.656 122.764 125.7 122.973 125.809C123.065 125.856 123.156 125.742 123.084 125.666C122.212 124.749 121.167 124.618 120.114 124.863C119.889 124.791 119.664 124.722 119.438 124.657C119.326 124.624 119.27 124.779 119.362 124.838L119.621 125.004V125.004C118.472 125.388 117.344 126.144 116.451 126.74C113.885 128.453 111.628 130.547 109.339 132.602L108.923 132.974C106.908 134.771 104.842 136.518 102.553 137.96C101.355 138.714 100.096 139.412 98.776 139.932C97.6438 140.377 95.8003 140.658 95.27 141.853C94.7986 142.425 94.9955 143.156 95.5476 143.541C96.4786 144.564 98.3411 143.903 99.4505 143.477C100.788 142.963 102.084 142.345 103.319 141.62C105.718 140.213 107.931 138.463 109.991 136.602C112.143 134.658 114.173 132.593 116.266 130.589C117.173 129.72 118.059 128.831 118.968 127.963L119.424 127.532C119.887 127.097 120.548 126.42 121.254 126.011C122.584 126.803 123.935 127.564 125.254 128.377C127.094 129.512 128.88 130.729 130.639 131.987C134.024 134.407 137.232 137.118 140.211 140.023C145.673 145.352 150.327 151.436 154.392 157.879L154.701 158.37C157.011 162.058 159.196 165.864 160.745 169.939C162.45 174.423 163.279 179.138 163.729 183.898C164.176 188.624 164.327 193.373 164.826 198.094C165.338 202.936 166.348 207.672 167.496 212.398L167.769 213.518C168.808 217.751 169.88 221.984 170.414 226.317C170.699 228.631 170.871 230.977 170.832 233.31C170.793 235.657 170.424 237.952 170.126 240.274C170.012 241.163 170.888 241.906 171.672 242.024C172.574 242.159 173.348 241.584 173.629 240.747C174.502 238.139 174.661 235.255 174.634 232.517C174.606 229.737 174.251 226.975 173.751 224.243C172.769 218.87 171.252 213.607 169.983 208.298C168.865 203.618 168.115 198.93 167.711 194.136C167.291 189.163 167.039 184.172 166.273 179.234C165.517 174.359 164.095 169.703 161.949 165.258C159.996 161.211 157.561 157.402 155.008 153.709C151.908 149.226 148.503 144.959 144.697 141.072C145.039 141.057 145.39 140.947 145.713 140.746C146.699 140.131 147.158 138.929 147.299 137.831C147.63 135.263 147.55 132.582 146.889 130.071C145.823 126.021 143.055 122.422 139.044 120.962C138.011 120.586 136.914 120.449 135.82 120.422C134.781 120.396 133.647 120.531 132.646 120.203C131.051 119.679 130.367 117.803 129.769 116.38L129.741 116.315C128.973 114.502 128.052 112.949 126.389 111.817C124.615 110.609 122.392 110.06 120.299 109.706V109.706ZM74.9153 116.874C73.48 116.376 71.6855 116.828 70.2818 117.262C68.7181 117.747 67.273 118.639 66.0341 119.698C64.7271 120.815 63.6469 122.195 62.8838 123.736L62.8108 123.884C62.1138 125.314 61.3199 127.277 61.6714 128.847C61.6815 128.892 61.693 128.935 61.7061 128.976C58.8583 130.377 56.2283 132.131 53.938 134.355C51.2712 136.944 49.0132 139.89 47.1023 143.072C39.5128 155.713 38.177 170.895 37.2806 185.311L37.0571 188.966C36.5704 196.859 36.0008 204.733 34.5212 212.517L34.4132 213.079C32.8317 221.229 30.5677 229.441 30.797 237.802C30.8659 240.307 34.5713 240.29 34.6787 237.802C35.0831 228.437 37.2704 219.396 38.7516 210.178C41.3577 193.96 40.0519 177.24 43.7445 161.185C45.1936 154.884 47.4384 148.773 50.644 143.148C52.2274 140.37 54.0391 137.685 56.1612 135.288C57.987 133.226 59.8847 131.241 62.0184 129.507C62.7003 130.19 64.0625 129.842 64.4185 128.847C64.663 128.164 64.5917 127.364 64.7487 126.648C64.8943 125.984 65.0951 125.325 65.3626 124.699C65.8959 123.452 66.6787 122.254 67.5823 121.245C68.5585 120.154 69.6804 119.247 70.9358 118.499C72.1998 117.745 73.5822 117.52 74.9153 116.969C74.9602 116.951 74.9645 116.891 74.9153 116.874ZM69.3387 203.547C69.3366 203.481 69.2589 203.45 69.2112 203.494C68.708 203.957 68.4038 204.62 68.0335 205.19C67.6064 205.846 67.1578 206.488 66.6875 207.115C65.7452 208.369 64.6961 209.551 63.6387 210.71C62.6553 211.787 61.6071 212.819 60.5199 213.792C59.3418 214.846 58.0217 215.786 56.9514 216.953C54.7182 219.388 54.3573 222.731 53.8861 225.869L53.8345 226.209C53.5472 228.071 53.2897 229.939 53.0576 231.809C52.9447 232.718 52.8321 233.629 52.7401 234.541L52.712 234.83C52.63 235.723 52.6079 236.629 53.1211 237.409C53.6705 238.243 54.9195 238.536 55.6621 237.736C56.938 236.361 56.6987 233.919 56.8647 232.15C57.0018 230.688 57.1574 229.227 57.3315 227.768L57.4201 227.039C57.6254 225.38 57.792 223.688 58.1719 222.057C58.5069 220.622 59.1451 219.538 60.1922 218.498C61.2471 217.45 62.3432 216.472 63.3169 215.343C64.3497 214.147 65.2812 212.863 66.1206 211.524C66.8386 210.379 67.414 209.132 67.9413 207.887L68.0287 207.679C68.5383 206.465 69.3785 204.884 69.3387 203.547ZM50.9176 151.39C50.9064 151.22 50.6559 151.218 50.6522 151.39C50.6205 152.846 50.5901 154.303 50.5598 155.76C50.3164 167.498 50.4664 179.264 49.2876 190.962C48.7317 196.478 47.708 201.912 46.5234 207.324C45.9172 210.093 45.2813 212.856 44.677 215.626C44.0882 218.325 43.4567 221.037 42.9896 223.762C42.5306 226.439 42.1195 229.137 41.935 231.849L41.9122 232.203C41.8328 233.517 41.4536 235.449 42.1776 236.613C42.9622 237.875 44.4642 237.897 45.3048 236.693C46.0941 235.563 45.8979 233.552 46.0373 232.203C46.179 230.829 46.3289 229.454 46.4991 228.083C46.8312 225.409 47.2688 222.741 47.7239 220.085C48.6717 214.554 50.0465 209.092 51.0613 203.57C52.1013 197.912 52.8405 192.213 52.8717 186.452C52.9026 180.641 52.2871 174.843 51.9764 169.045C51.6607 163.157 51.3019 157.273 50.9176 151.39ZM106.419 114.879C106.104 113.818 104.99 113.154 103.904 113.452C102.909 113.726 102.087 114.933 102.477 115.965C102.901 117.092 103.643 118.053 104.269 119.077C104.847 120.023 105.69 120.768 106.278 121.698L105.63 122.396C105.305 122.745 104.98 123.091 104.651 123.432L103.519 124.603C102.638 125.513 101.751 126.418 100.84 127.296C98.1586 129.88 95.4352 132.379 92.4327 134.591C91.7492 135.095 91.0604 135.595 90.3523 136.064L90.0883 136.239C89.6025 136.557 89.0605 136.869 88.4736 136.815C87.0476 136.684 85.7591 135.171 84.7791 134.23L84.7278 134.181C82.2994 131.872 80.0507 129.348 78.0848 126.634C77.6483 126.031 77.2256 125.418 76.814 124.797C77.7645 123.688 77.5375 121.523 77.5899 120.178C77.6269 119.232 77.6297 118.285 77.6348 117.339L77.6374 117.148C77.649 116.535 77.6766 115.948 77.2786 115.443C77.2555 115.414 77.2075 115.415 77.178 115.431C76.6329 115.716 76.4649 116.194 76.2323 116.73L76.208 116.785C75.9249 117.429 75.6538 118.078 75.3796 118.725C75.0924 119.402 74.8291 120.09 74.5623 120.775C74.4381 121.094 74.3196 121.414 74.2037 121.736C74.1331 121.942 74.06 122.146 73.985 122.35L73.9673 122.366C73.8682 122.45 73.7841 122.539 73.7118 122.631C73.4076 122.783 73.1659 123.06 73.0525 123.466C72.8057 124.352 73.3165 125.075 73.7721 125.778C75.6229 128.634 77.7327 131.357 80.0778 133.826C81.2427 135.053 82.468 136.225 83.7437 137.336L83.9667 137.529C85.1127 138.513 86.3569 139.445 87.8874 139.675C89.6785 139.944 91.1361 139.054 92.5072 138.029L92.644 137.926C93.9438 136.943 95.2174 135.926 96.4513 134.861C98.9672 132.691 101.361 130.361 103.485 127.805C105.551 125.318 107.593 122.538 108.867 119.546C108.945 119.364 108.74 119.173 108.58 119.325C107.958 119.917 107.36 120.541 106.768 121.172C106.752 120.242 106.924 119.304 106.828 118.369C106.712 117.231 106.745 115.974 106.419 114.879Z" fill="black" />
  <path fill-rule="evenodd" clip-rule="evenodd" d="M64.847 74.9106C65.2674 69.4758 64.6159 63.7793 66.7133 58.6135C70.3702 50.0424 80.6248 47.1847 88.5747 43.9215C91.7596 42.9813 102.476 42.8499 106.205 41.6055C114.645 38.7891 116.662 35.4334 123.368 40.7959C124.5 41.712 125.209 42.7076 125.725 44.0679L125.704 44.0737C125.852 44.6408 125.693 45.2067 125.361 45.6389C128.269 48.6084 129.485 53.0604 127.994 57.0133C123.125 67.2998 123.354 72.8618 124.922 83.9203C126.971 94.2441 122.29 98.0153 114.537 103.633C114.853 104.244 114.918 105.057 114.507 105.596C105.542 118.183 88.6386 124.192 74.1558 117.804C68.2771 115.189 65.6526 108.934 64.1548 103.291C62.41 96.9709 61.8739 90.3117 63.2943 83.8741C63.8673 80.8969 64.6136 77.9411 64.847 74.9106Z" fill="white" />
  <path fill-rule="evenodd" clip-rule="evenodd" d="M116.558 14.6968C115.47 14.5335 114.648 15.208 114.257 16.1588L114.237 16.21C114.111 16.5335 113.971 16.8482 113.821 17.1575C111.098 15.8228 107.212 16.1658 105.489 18.8687C104.259 20.7991 105.009 23.0902 105.473 25.1373L105.777 26.4861C105.189 26.8601 104.745 27.5299 104.766 28.2234L104.769 28.2768L104.893 30.1577C104.5 29.76 104.141 29.3269 103.82 28.8655C103.599 28.4607 103.36 28.0629 103.104 27.6775C101.594 25.4095 98.2062 27.3806 99.4518 29.8095C99.6907 30.2779 99.9596 30.7217 100.248 31.1495C100.574 31.7806 100.841 32.4293 101.046 33.0958C100.457 33.3521 100.004 33.9213 99.9561 34.7805C99.8446 36.7869 100.899 38.461 102.576 39.5128C103.07 39.8222 103.58 39.8823 104.042 39.7674C104.123 39.877 104.204 39.9866 104.282 40.0979C103.613 40.6406 103.01 41.2594 102.492 41.9453C100.931 41.7119 99.3616 41.6023 97.7921 41.5988C95.8741 40.6601 93.5775 40.6795 91.5162 41.0313C90.1892 41.2576 88.9152 41.6978 87.6094 42.0142C86.2329 42.3465 84.8351 42.3589 83.4426 42.5852C81.6874 42.8698 80.148 43.6794 79.1802 44.9717C78.1168 45.0035 76.9985 45.4384 76.0714 46.0288C73.9128 47.4042 71.7665 48.7989 69.6132 50.1831C68.7868 50.7145 68.4778 51.5628 68.6297 52.5091L68.64 52.5696L68.7126 52.962L68.5422 53.2036C67.8833 54.1333 67.1662 55.1072 66.7397 56.1334C65.9506 57.2701 65.2376 58.4616 64.6059 59.6902C63.7548 61.3413 63.0524 63.0914 62.5764 64.8875C62.4579 65.3418 62.3393 65.7996 62.2615 66.2628C62.15 66.9169 62.3216 67.4242 62.4154 68.0518C62.5322 68.8473 62.5747 69.6534 62.6985 70.4506C62.7817 70.9792 63.2311 71.2391 63.7017 71.2532C63.5248 72.5985 63.3974 73.9526 63.2753 75.2961C63.1037 77.2159 62.9869 79.141 62.8861 81.0661C62.3659 81.821 61.3025 82.4185 60.5346 82.6253C59.4712 82.9099 58.3565 82.6006 57.3515 82.2382C56.7198 82.0101 56.2014 82.8039 56.5093 83.3342C57.4771 84.9994 59.5473 84.9924 61.1149 84.2552C61.7784 83.9441 62.3606 83.4933 62.7923 82.9064C62.7658 83.465 62.7374 84.0236 62.7091 84.584L62.6828 85.0916C62.364 91.0193 61.6758 97.1509 62.7905 103.02C64.7209 113.187 73.1417 120.928 83.4284 121.529C88.8264 121.844 93.3215 120.251 95.5568 119.363C97.7921 118.474 96.9233 116.662 95.3716 117.18C92.6985 118.072 87.7877 119.402 83.393 118.828C73.0352 117.475 64.252 112.302 65.1544 90.0252C65.2824 86.8661 65.6764 83.7054 65.7613 80.5464C65.8427 77.4581 65.8126 74.368 65.9488 71.2815L65.9943 70.2284C66.0475 68.9979 66.1043 67.7617 66.1966 66.5297C66.308 66.0524 66.4 65.568 66.5363 65.0996C66.9061 63.825 67.3891 62.5858 67.9889 61.4032C68.1216 61.5039 68.2702 61.5764 68.4313 61.6047C69.6539 61.8239 70.8004 61.762 71.9452 61.2529C72.4796 61.0178 72.9502 60.7049 73.389 60.3178C73.5978 60.1357 73.7376 59.9589 73.8473 59.775C74.4011 59.7839 74.9549 59.6177 75.3017 59.22C75.6972 58.7666 75.763 58.2984 75.6081 57.8649L75.5919 57.8217L75.6308 57.8075C76.0979 59.0149 77.0286 60.0773 78.0495 60.7951C79.6632 61.9335 81.682 62.2623 83.6177 62.2924C85.7551 62.3242 88.0093 61.9954 90.1184 61.6595C90.6757 61.5711 91.2295 61.4703 91.7727 61.3342C91.794 61.3554 91.8152 61.3802 91.8382 61.4014C93.6483 63.1321 96.1944 63.5775 98.491 62.5893C99.818 62.0184 100.931 61.0991 101.915 60.0455C101.929 60.5971 101.957 61.1486 102.005 61.6948L102.025 61.9118C102.123 62.9291 102.311 64.0083 103.081 64.7425C104.325 65.9322 106.129 65.4549 107.564 64.6806C107.563 64.7177 107.563 64.7566 107.563 64.7955C107.175 66.1108 106.786 67.4277 106.397 68.7447L106.313 69.0253C106.03 69.9604 105.719 70.8968 105.634 71.8755C105.471 73.7458 106.717 75.5931 108.798 74.9655C109.889 74.6375 110.763 73.7207 111.602 72.9863L112.131 72.5295C110.763 76.9967 109.815 81.623 109.727 86.2846C109.721 86.5374 109.939 86.7283 110.179 86.7372C110.742 86.7601 111.347 86.6488 111.913 86.4243C111.945 86.4225 111.977 86.4207 112.011 86.4154C112.977 86.2758 113.874 85.9275 114.665 85.4131C114.483 85.9912 114.401 86.6116 114.449 87.2604C114.461 87.4178 114.707 87.4726 114.743 87.2993C115.199 85.056 117.827 83.3607 120.091 83.7903C122.523 84.2517 124.313 86.3412 124.752 88.7188C125.223 91.2733 124.322 94.2272 122.653 96.1983C121.886 97.1069 120.875 97.8653 119.676 98.0562C119.127 98.1428 118.557 98.1128 118.025 97.9572C117.798 97.8901 117.586 97.7964 117.37 97.708C117.055 97.5807 116.687 97.5612 116.39 97.4269C115.716 97.1246 115.038 97.7451 115.38 98.4363C115.677 99.0391 115.944 99.4457 116.438 99.7568C116.038 100.245 115.675 100.924 115.541 101.106C114.854 102.032 114.157 102.907 113.375 103.754C112.579 104.613 111.71 105.398 110.792 106.124L110.406 106.429C109.521 107.13 108.751 107.779 108.127 108.785C107.635 109.579 108.272 110.655 109.194 110.643C112.078 110.602 114.175 108.071 115.668 105.859C115.88 105.543 116.08 105.209 116.266 104.866C116.333 104.974 116.408 105.074 116.491 105.166L116.326 105.608C115.838 106.909 117.942 107.76 118.552 106.545C118.996 105.665 119.511 104.827 120.084 104.035C120.422 103.987 120.753 103.782 120.937 103.517C121.403 102.843 121.925 102.163 122.365 101.445C122.609 101.213 122.861 100.991 123.117 100.773C123.191 100.839 123.267 100.904 123.34 100.973C123.662 101.707 124.06 102.377 124.554 103.008L124.66 103.142C125.605 104.333 126.837 105.552 128.361 105.843C128.827 105.932 129.274 105.354 128.862 104.984C127.795 104.026 126.534 103.374 125.55 102.304C125.065 101.777 124.62 101.197 124.238 100.589L124.15 100.448C124.087 100.344 124.021 100.239 123.954 100.133C124.398 99.8311 124.842 99.527 125.286 99.223C126.509 100.267 128.101 100.744 129.453 101.608L129.588 101.696C130.81 102.513 132.098 100.706 131.118 99.7144C130.038 98.6253 129.136 97.3265 128.178 96.1159C128.628 95.2875 128.841 94.308 128.921 93.3181C128.953 93.0379 128.977 92.7575 129.002 92.4771C129.688 92.4877 130.379 92.2526 130.962 91.8478L131.184 91.6905C131.893 91.9167 132.638 92.0263 133.351 92.0069C135.028 91.9574 135.715 90.0429 134.666 88.832C133.595 87.5945 131.721 87.3241 130.237 87.9251C130.189 87.9004 130.14 87.8738 130.092 87.8473C130.163 87.522 130.147 87.227 130.066 86.9679L130.09 86.8098C130.416 86.3094 130.631 85.738 130.712 85.1343C130.777 84.6561 130.764 84.1822 130.653 83.71C130.616 83.5529 130.539 83.3901 130.481 83.2262C130.601 82.9218 130.672 82.6071 130.694 82.2907C130.728 82.2505 130.762 82.2094 130.794 82.1648C131.53 81.1315 131.381 79.8865 130.68 79.0503C130.677 78.9971 130.672 78.9439 130.665 78.8911C130.706 78.7988 130.744 78.7056 130.778 78.6114C131.463 77.9211 131.966 77.0904 131.872 76.061C131.817 75.4554 131.568 74.9102 131.191 74.5027C131.258 74.3051 131.264 74.0762 131.183 73.8851C131.785 72.2859 131.709 70.36 131.276 68.5715C131.371 68.2993 131.421 68.004 131.41 67.6911C131.361 66.3635 130.21 65.1438 128.848 65.1597C128.684 65.1611 128.53 65.1825 128.383 65.2138L128.381 65.1821C128.329 64.7837 128.219 64.4155 128.059 64.0851C128.138 64.0566 128.211 64.0158 128.274 63.9615C129.147 64.4268 130.071 64.7824 131.04 65.0248C131.752 65.203 132.481 64.3942 132.039 63.7264C131.833 63.4165 131.607 63.1382 131.362 62.884C131.71 62.886 132.062 62.9095 132.419 62.9553C133.059 63.0384 133.774 62.6017 134.19 62.0113C134.706 62.5133 135.225 63.0136 135.743 63.5139C137.056 64.7849 139.04 63.8498 139.247 62.1739C139.638 62.0696 140.002 61.8928 140.322 61.64C142.393 62.5381 144.62 63.0313 146.897 63.125C148.532 63.1922 149.488 61.29 148.723 59.9465C148.21 59.045 147.573 58.2353 146.839 57.5317C147.978 57.88 149.155 58.131 150.356 58.2919C151.006 58.3785 151.924 57.8411 152.184 57.2454C153.179 54.9543 153.094 52.5661 151.949 50.3369C151.905 50.2485 151.855 50.1636 151.807 50.0788C151.689 49.7836 151.56 49.4919 151.42 49.2055C152.828 47.7383 152.95 45.5568 152.191 43.7307C152.496 43.2375 152.612 42.6435 152.405 42.1061C151.816 40.5593 150.967 39.131 149.895 37.9041C149.997 37.7061 150.088 37.4958 150.164 37.2695C150.767 35.4398 150.068 33.2319 148.658 31.9573C147.771 31.1548 146.752 30.6739 145.664 30.3663C145.206 29.5567 144.617 28.8266 143.93 28.2114C143.904 28.1531 143.877 28.0947 143.847 28.0364C142.778 26.0247 140.832 24.9463 138.746 24.6971C138.664 23.9104 138.134 23.1591 137.362 22.9152C137.15 22.2346 136.833 21.584 136.398 20.9936C135.713 20.0637 134.575 19.6253 133.503 20.2352C132.916 20.5693 132.353 20.9529 131.826 21.3772C131.589 21.2662 131.321 21.1944 131.018 21.1715L130.941 21.1668L129.197 21.0784C128.466 20.7549 127.737 20.4155 127.006 20.0849C126.567 19.7226 126.077 19.4203 125.543 19.1958C124.938 18.943 124.318 18.7998 123.697 18.752C123.193 18.5876 122.685 18.4427 122.169 18.3295C120.955 18.0644 119.684 17.9159 118.425 17.9283C118.399 17.6025 118.386 17.2728 118.389 16.9392L118.391 16.7721C118.419 15.7026 117.565 14.8488 116.558 14.6968ZM117.781 100.266C117.954 100.303 118.129 100.333 118.304 100.354C118.251 100.485 118.198 100.616 118.147 100.747C118.005 100.826 117.862 100.902 117.719 100.973C117.761 100.733 117.786 100.49 117.781 100.266ZM126.871 97.5671L126.989 97.7835C127.008 97.8189 127.027 97.8539 127.045 97.8883C126.796 97.8689 126.544 97.8742 126.297 97.9024L126.297 97.8761C126.329 97.8653 126.361 97.8554 126.391 97.8406C126.562 97.7585 126.721 97.6666 126.871 97.5671ZM121.958 87.6935C120.393 87.7846 119.066 88.0244 117.643 88.7086L117.521 88.7683C116.263 89.3924 114.182 90.545 114.357 92.1978C114.406 92.6681 114.748 93.163 115.286 93.1259C116.76 93.0252 117.602 91.5402 118.6 90.6139C119.607 89.6805 120.843 88.7206 122.063 88.0789C122.235 87.9885 122.167 87.7026 121.979 87.6934L121.958 87.6935ZM129.057 65.9163C129.432 65.9287 129.306 66.2928 129.113 65.9888C129.098 65.964 129.078 65.9393 129.057 65.9163ZM108.809 41.6055C112.361 41.6988 115.937 43.7945 118.598 45.9129C120.913 47.7558 122.913 49.9478 124.683 52.3104C125.138 53.4871 125.529 54.6883 125.86 55.8983C126.077 56.6974 126.213 57.5052 126.396 58.3113L126.452 58.5585C126.595 58.8258 126.702 59.1134 126.779 59.4105C126.457 59.7337 126.038 59.9651 125.578 60.0749C125.429 60.1102 125.306 60.1868 125.208 60.2882C124.837 59.6699 124.513 59.0172 124.325 58.3253L124.318 58.2933C123.605 57.1267 122.831 55.9964 122.001 54.9048C119.711 51.8908 117.19 49.1436 114.159 46.8579C111.86 45.1255 109.291 43.7678 106.559 42.8857C107.228 42.3467 107.987 41.9203 108.809 41.6055Z" fill="black" />
  <path fill-rule="evenodd" clip-rule="evenodd" d="M81.1101 107.291C82.2996 106.806 83.3608 105.998 84.1367 104.965C84.4064 104.605 84.4764 104.226 84.4198 103.879C84.3562 103.489 84.1252 103.136 83.8103 102.899C83.4944 102.661 83.0992 102.544 82.7171 102.603C82.3851 102.655 82.0547 102.837 81.7931 103.214L81.7385 103.289C81.2772 103.912 80.6761 104.424 79.9912 104.754C79.3311 105.072 78.5928 105.22 77.8288 105.134C76.3737 104.969 75.3708 104.183 74.3048 103.116C74.1726 102.981 74.0404 102.842 73.9076 102.7C73.8237 102.572 73.7072 102.49 73.5779 102.447C73.4344 102.399 73.272 102.402 73.1233 102.454C72.9799 102.504 72.8516 102.598 72.7656 102.724C72.6839 102.844 72.6376 102.992 72.6526 103.163C72.7502 104.269 73.3292 105.257 74.1516 106.032C75.0651 106.893 76.2759 107.489 77.4158 107.698C78.6717 107.928 79.9514 107.763 81.1101 107.291V107.291ZM76.8233 90.2215C75.4872 91.0329 73.4514 92.9249 74.8888 94.9365C76.5807 96.7102 79.0166 94.6766 80.217 93.7568C81.3301 93.044 82.5807 94.8773 81.548 95.7096C72.8739 102.126 69.3537 90.4336 76.1476 89.2674C76.8956 89.1389 77.1734 89.9704 76.8233 90.2215ZM92.3674 82.7578C92.2198 80.927 89.429 80.5113 89.1514 82.3229C88.9028 83.9457 89.1955 85.4365 89.9271 86.8975C90.6262 88.2934 92.3832 87.6422 92.5161 86.3711C92.6942 84.6674 92.4592 83.8966 92.3674 82.7578ZM71.1237 81.9473C70.7346 81.4381 70.1729 81.0906 69.4998 81.287C67.3969 81.9009 68.0167 84.8837 68.7552 86.3356C69.1565 87.124 70.4537 87.3239 71.0399 86.6297C71.9953 85.4977 72.4529 83.2369 71.2382 82.1217C71.2053 82.0641 71.1687 82.006 71.1237 81.9473ZM89.9567 74.7469L89.6245 74.6889C88.5969 74.5113 87.3192 74.3407 86.5923 75.1661C86.2067 75.6038 86.074 76.4173 86.5923 76.8363C87.5038 77.5734 88.5117 77.2878 89.6041 77.3502C90.5043 77.4018 91.3696 77.5506 92.2367 77.7983C94.1391 78.3415 95.6893 79.3333 97.3141 80.4222C97.5273 80.5651 97.7449 80.2926 97.6432 80.0934C96.7053 78.2579 94.8876 76.7502 93.0669 75.8311C92.0952 75.3406 91.0318 74.9336 89.9567 74.7469ZM73.0407 73.9247L72.7865 73.9767C70.0197 74.5545 66.4249 75.7088 65.1147 78.424C65.0648 78.8079 65.1176 78.8902 65.1605 78.944L65.1747 78.9618C65.2101 79.0078 65.2383 79.071 65.4048 79.1233C65.4511 79.1123 65.4978 79.1006 65.5449 79.0883C66.1455 78.931 66.6207 78.7144 67.0807 78.4896L67.5795 78.2441C68.1582 77.9606 68.7419 77.6875 69.3606 77.4858C70.681 77.0555 72.039 76.7524 73.4181 76.5906C73.717 76.5556 74.0049 76.4548 74.2319 76.282C74.4475 76.1181 74.6122 75.891 74.6872 75.5893C74.7845 75.1988 74.7566 74.9031 74.5468 74.5508C74.3892 74.2863 74.1635 74.1029 73.9044 73.9976C73.6403 73.8902 73.3396 73.8649 73.0407 73.9247Z" fill="black" />
  <path fill-rule="evenodd" clip-rule="evenodd" d="M92.5864 108.399C91.1539 105.046 88.0273 102.581 84.4276 101.68C81.7841 101.021 79.0099 101.042 76.3152 101.304C74.9033 101.44 73.389 101.551 72.0584 102.075C70.9222 102.523 69.9963 103.369 69.3001 104.362C68.4714 105.538 67.9077 106.885 67.5119 108.265C67.4557 108.462 67.4029 108.659 67.3536 108.858C67.5257 109.9 67.8911 110.786 68.8566 111.441C69.7988 112.08 70.923 112.342 72.0436 112.435C72.1535 112.382 72.2597 112.328 72.3571 112.272C74.1034 111.273 75.3325 108.913 77.5367 109.232C79.5038 109.518 80.7986 111.99 81.9684 113.44C85.7233 113.878 89.4754 112.75 92.5306 110.605C92.6857 109.871 92.6947 109.13 92.5864 108.399M64.8016 105.855C65.102 105.013 65.4803 104.197 65.9288 103.429C67.4113 100.888 69.6873 98.8632 72.389 97.7058C78.7803 94.9717 87.05 96.899 92.2114 101.383C93.9746 102.916 95.7573 105.169 96.2964 107.592C96.4574 107.624 96.6094 107.707 96.7345 107.825C100.464 105.479 104.304 103.223 107.309 99.971C109.491 97.6085 111.009 94.8126 111.938 91.7403C112.014 91.4874 112.423 91.5244 112.41 91.8042C112.407 91.8696 112.403 91.9349 112.4 92.0004C112.438 91.8801 112.622 91.942 112.636 92.0588C113.136 95.791 113.762 99.748 113.186 103.5C112.841 105.738 111.824 107.377 110.463 109.147C109.005 111.044 107.355 112.808 105.667 114.5C104.596 115.574 103.478 116.813 102.167 117.6C100.642 118.515 98.912 119.211 97.2845 119.917C95.6288 120.637 93.9484 121.303 92.2362 121.879C88.8135 123.037 85.2759 123.837 81.6765 124.187C78.7945 124.467 75.5008 124.771 72.7389 123.688C70.622 122.858 68.9133 121.358 67.558 119.552C66.0825 117.586 64.9161 115.347 64.2714 112.985C63.6013 110.532 64.6605 106.251 64.8016 105.855" fill="black" />
</svg>