<svg width="240" height="324" viewBox="0 0 240 324" fill="none" xmlns="http://www.w3.org/2000/svg">
<path fill-rule="evenodd" clip-rule="evenodd" d="M58.921 176.597C60.7624 169.453 62.4559 166.425 65.7271 163.942C68.7868 161.619 73.2533 159.669 79.7705 158.244C86.5584 157.057 86.7508 153.528 88.4528 147.857C88.9493 146.152 91.4098 145.698 92.4717 146.927C92.6214 146.765 92.7775 146.617 92.9391 146.484C92.7945 145.671 93.9782 143.34 93.9387 142.562C93.5259 134.444 96.1808 130.367 102.807 128.851C104.248 128.522 114.037 128.327 115.442 128.716C121.585 130.415 127.632 135.808 126.707 142.305C128.635 144.826 130.522 146.364 133.497 147.176C140.117 148.017 146.737 148.764 153.359 149.404C166.322 151.438 178.475 158.3 186.782 168.309C187.548 169.233 187.769 170.487 187.093 171.472C187.623 173.741 190.604 179.246 188.258 180.801C192.116 190.03 200.993 207.868 201.009 212.964C201.079 234.373 198.767 262.24 177.645 274.087C176.8 274.919 176.679 275.839 176.313 277.076C175.384 280.974 172.011 283.759 168.32 283.532C150.136 283.936 132.524 281.717 114.34 281.61C106.321 281.562 96.6766 282.76 89.7104 283.557C82.7441 284.355 75.712 283.649 69.0268 281.61C68.4631 282.497 67.3233 283.015 66.1672 282.76C59.2368 281.382 53.6324 277.111 48.7512 272.442C47.2595 269.728 41.4342 261.995 43.7497 259.303C41.6507 250.428 41.7598 240.892 45.4897 232.441C44.961 230.892 45.9247 229.189 45.4897 227.589C45.1749 226.432 44.3687 225.953 43.9629 224.806C43.3919 223.193 44.0129 221.029 44.6558 219.383C44.9193 218.563 44.1709 217.68 43.9629 216.842C42.9765 212.894 45.2353 213.242 46.8637 210.602C46.8395 210.594 46.416 208.709 46.4179 208.719C46.1686 207.373 46.7932 205.65 47.338 204.527C47.7063 203.768 48.4951 203.293 49.2789 203.38C48.4896 200.699 47.4913 198.469 46.4179 195.887C44.5194 191.336 42.1164 186.977 39.3903 182.857C38.2739 181.17 39.7733 179.216 41.5799 179.101C47.4273 178.729 53.2107 177.887 58.921 176.597Z" fill="white"/>
<path fill-rule="evenodd" clip-rule="evenodd" d="M75.9865 211.017C78.3252 210.1 80.8436 209.593 83.3745 209.396C82.0119 209.158 80.6452 208.927 79.2675 208.809C78.3062 208.726 77.4149 208.735 76.6923 209.464C76.2104 209.95 75.9844 210.576 75.6675 211.151C75.771 211.104 75.8788 211.06 75.9865 211.017ZM50.8839 202.441C54.7142 202.636 58.5487 203.546 62.0135 205.197C63.4311 205.873 64.7156 206.85 65.0916 208.456C65.2818 209.276 65.2353 210.124 65.1341 210.952C65.0578 211.58 65.0388 212.381 64.4937 212.806C64.4008 212.877 64.3015 212.932 64.198 212.972C65.4761 213.549 66.6932 214.243 67.7749 214.957C68.7635 215.61 69.7796 216.616 70.236 217.751C70.274 217.622 70.312 217.502 70.3501 217.388C71.1275 215.088 72.3254 213.205 74.212 211.939C73.8782 211.789 73.648 211.434 73.7557 210.944C74.2036 208.896 76.0947 207.116 78.2304 207.243C80.5691 207.38 83.0811 208.232 85.1961 209.308C85.967 209.291 86.7362 209.301 87.4966 209.335C87.6275 209.339 87.6212 209.517 87.4966 209.532C86.8796 209.61 86.2627 209.697 85.6458 209.798C84.1796 210.033 82.7177 210.331 81.2876 210.7C79.5719 211.145 77.7973 211.59 76.1937 212.366C73.0841 213.873 71.1592 217.813 71.5543 221.241C71.6198 221.803 71.8374 223.502 72.6172 223.327C73.2761 223.179 73.5381 221.803 73.7684 221.293C74.3853 219.941 75.4966 219.057 76.8297 218.459C78.3951 217.755 80.0705 217.28 81.6932 216.726C82.612 216.411 83.5311 216.096 84.4522 215.783C85.3944 215.46 86.2902 215.014 87.2937 215.24C87.9001 215.378 87.9698 216.1 87.6296 216.515C87.112 217.147 86.343 217.333 85.5973 217.593C84.6127 217.935 83.6304 218.278 82.648 218.62C81.1292 219.148 79.5381 219.594 78.0573 220.241L78.1036 220.346C78.2242 220.313 78.3658 220.433 78.3423 220.581C78.1205 221.949 77.812 223.529 78.1545 224.899C78.4247 225.985 79.3777 227.188 80.6156 226.869C80.4212 226.691 80.3494 226.385 80.4804 226.102C80.9707 225.053 87.393 220.915 87.9656 222.452C87.9846 222.506 87.9256 222.547 87.8789 222.538C87.3909 222.437 86.5733 223.269 86.1827 223.534C85.6186 223.914 85.0461 224.286 84.4881 224.677C83.8775 225.104 83.2818 225.552 82.7008 226.015C82.2444 226.379 81.9001 226.757 81.3763 226.941C81.6508 227.072 81.8686 227.315 81.9613 227.625C82.198 228.435 82.6543 229.122 83.4466 229.479C84.2768 229.851 85.2127 229.616 86.0874 229.707C87.2789 229.828 88.3184 230.394 89.1867 231.204C91.0099 232.907 91.9247 235.908 94.4747 236.713C95.998 237.193 97.6881 236.891 99.2304 236.673C100.952 236.43 102.63 236.238 104.364 236.492C106.025 236.735 107.594 237.309 109.111 238.011C110.533 238.668 112.105 239.413 113.366 240.393C113.626 239.592 113.888 238.799 114.087 237.982C114.556 236.048 114.809 234.078 114.871 232.091C114.928 230.2 114.822 228.3 114.659 226.416C114.579 225.476 114.452 224.54 114.372 223.599C114.351 223.362 114.309 223.109 114.277 222.855C112.025 221.526 109.659 220.507 107.274 219.459C107.267 219.457 107.261 219.452 107.254 219.451C107.18 219.417 107.109 219.385 107.035 219.353C107.037 219.349 107.039 219.345 107.043 219.34C106.77 219.174 106.58 218.952 106.466 218.702C103.029 216.422 100.156 213.309 98.0134 209.678C97.1156 208.156 96.2515 206.577 95.0768 205.244C93.8261 203.821 92.3409 202.976 90.5029 202.536C88.3543 202.021 86.1402 201.712 83.9388 201.536C82.7367 201.441 81.3932 201.293 80.0832 201.3C79.1705 201.306 78.277 201.384 77.4571 201.61C76.2423 201.944 75.5325 202.868 74.7698 203.802C74.0409 204.698 73.3163 205.597 72.636 206.531C71.9918 207.416 71.3832 208.331 70.855 209.291C70.5381 209.866 70.2444 210.458 69.9973 211.068C69.9106 211.284 69.7966 211.529 69.7437 211.753C69.6909 211.979 69.7881 212.218 69.5346 212.218C70.5804 212.233 70.5698 213.905 69.5304 213.843C65.4613 213.607 71.2902 205.66 72.1418 204.552C73.3482 202.984 74.5923 200.938 76.5233 200.209C76.5508 200.198 76.5804 200.188 76.6078 200.179C76.0458 199.647 75.6022 199.009 75.1775 198.36C74.7402 197.692 74.2186 196.927 74.0747 196.134C73.9839 195.629 74.6113 195.342 74.9092 195.783C75.3423 196.428 75.5515 197.244 75.8747 197.952C76.2043 198.67 76.6057 199.349 76.9226 200.074C77.6853 199.839 78.5092 199.732 79.348 199.696C78.2895 198.263 76.4813 195.498 76.2635 195.143C75.262 193.499 74.3092 191.804 73.3987 190.106C72.4144 188.268 71.5712 186.353 70.6289 184.493C70.0944 183.439 69.5557 182.375 68.962 181.352C68.7571 181.002 68.5374 180.651 68.2881 180.332C68.2395 180.268 68.1782 180.216 68.1212 180.156C68.0557 180.12 67.9881 180.08 67.9501 180.059C67.608 179.863 67.4874 179.406 67.2468 179.116C66.862 178.649 66.4099 178.594 65.8311 178.588C64.5975 178.575 63.3592 178.624 62.1275 178.658C60.317 178.708 58.5085 178.78 56.7001 178.875C56.1529 178.905 55.6078 178.935 55.0606 178.968C52.4304 179.125 49.8022 179.33 47.1804 179.581C44.8606 179.803 42.5409 180.165 40.2191 180.338C43.3628 187.809 46.8487 195.145 50.7954 202.226C50.8353 202.297 50.8651 202.369 50.8839 202.441ZM68.326 221.688C68.8331 221.921 69.3253 222.21 69.7837 222.54C69.7077 222.027 69.6887 221.486 69.7098 220.942C69.3316 221.348 68.8478 221.581 68.326 221.688ZM46.6815 208.836C46.7174 208.84 46.7512 208.86 46.7681 208.895C47.4695 210.343 47.1761 211.96 46.0308 213.095C45.4308 213.687 44.123 214.355 44.1655 215.327C44.2014 216.113 45.0568 216.772 45.4223 217.421C45.7625 218.026 45.8892 218.689 45.6167 219.345C45.2681 220.184 44.2942 220.518 43.9604 221.342C43.5378 222.388 44.2244 223.65 44.7061 224.561C45.154 225.404 45.7331 226.247 46.1174 227.139C48.6927 228.473 50.9977 230.519 52.9794 232.596C55.1491 234.868 57.0104 237.542 60.4561 237.474C60.8005 237.468 61.0625 237.65 61.2188 237.901C62.178 237.946 63.1392 237.965 64.0984 237.969C65.7843 237.977 67.4702 237.96 69.154 237.907C69.2723 237.5 69.1857 236.946 69.1923 236.601C69.2132 235.492 69.2237 234.384 69.2702 233.275C69.2829 232.966 69.2956 232.655 69.3082 232.347C68.7019 233.444 67.5188 233.943 66.1709 233.866C64.0033 233.74 61.823 233.385 59.6768 233.065C58.5463 232.898 57.4181 232.708 56.292 232.505C55.3667 232.341 54.0611 232.383 53.4146 231.641C53.2625 231.468 53.254 231.151 53.4927 231.034C54.1329 230.719 54.5364 230.895 55.2401 231.03C56.0977 231.197 56.9575 231.356 57.8197 231.504C59.4739 231.791 61.1322 232.057 62.7949 232.292C63.7413 232.425 64.6899 232.556 65.6385 232.66C66.4667 232.748 67.4005 232.869 68.0681 232.246C69.4139 230.986 68.6596 228.874 67.8082 227.602C67.7913 227.577 67.7913 227.553 67.7977 227.532C66.9949 227.344 66.1942 227.124 65.3956 226.97C63.8596 226.674 62.3132 226.425 60.7646 226.203C57.5829 225.749 54.3801 225.448 51.1817 225.146C50.3894 225.07 50.381 223.823 51.1817 223.897C55.7768 224.318 60.3949 224.717 64.9287 225.603C66.0653 225.822 67.1937 226.072 68.3153 226.353C68.8456 226.484 69.4139 226.689 69.9695 226.696C70.0033 226.696 70.0373 226.696 70.0709 226.693C71.1589 226.66 71.3174 225.728 70.7195 224.952C70.6456 224.857 70.5695 224.762 70.4913 224.671C69.435 223.411 68.119 222.57 66.7627 221.699C65.2435 221.492 63.7287 221.031 62.2413 220.693C58.5695 219.856 54.8977 219.019 51.2237 218.184C50.5035 218.019 50.8096 216.912 51.5301 217.075C54.3188 217.707 57.1075 218.339 59.8965 218.971L63.978 219.896C64.7935 220.08 65.812 220.45 66.7711 220.583C67.2442 220.649 67.7026 220.657 68.1167 220.56C69.454 220.243 69.5216 218.571 68.9449 217.578C68.2984 216.462 67.0773 215.764 65.9935 215.132C64.1153 214.035 62.1167 213.247 60.1646 212.338C59.8181 212.262 59.4716 212.186 59.1251 212.11C57.1096 211.666 54.8068 211.449 52.9096 210.635C52.3413 210.394 52.6521 209.498 53.2139 209.51C54.6864 209.542 56.2266 210.066 57.6653 210.377C59.2223 210.715 60.7815 211.051 62.3385 211.387C62.4949 211.421 63.4202 211.717 63.5596 211.651C63.6484 211.609 63.6801 211.301 63.7096 211.098C63.8049 210.43 63.8744 209.728 63.7709 209.058C63.5427 207.555 62.2899 206.85 61.0223 206.273C58.1998 204.99 55.1047 204.187 52.0244 203.865C51.3146 203.791 50.6047 203.745 49.8906 203.722C49.0521 203.696 48.3611 203.548 47.9364 204.375C47.2688 205.677 46.9012 207.351 46.6815 208.836ZM50.6016 256.04C51.2166 253.912 51.0493 251.64 51.4706 249.47C51.688 248.35 51.9848 247.239 52.3089 246.146C52.5705 245.263 53.0067 244.324 53.0562 243.403C53.0591 243.341 52.9867 243.306 52.9368 243.334C52.0691 243.831 51.4028 244.906 50.908 245.749C50.3156 246.758 49.8632 247.815 49.4984 248.926C48.7712 251.14 48.1741 253.81 49.112 256.04C49.3911 256.704 50.3713 256.837 50.6016 256.04ZM69.6082 227.856C69.0884 227.805 68.5687 227.706 68.049 227.589C68.63 228.156 69.1666 228.838 69.4647 229.595C69.511 229.014 69.5703 228.435 69.6483 227.858C69.6356 227.858 69.6208 227.858 69.6082 227.856ZM74.603 272.149C75.5195 271.509 76.1873 270.614 76.9645 269.825C77.7289 269.049 76.534 267.853 75.7694 268.63C75.1063 269.303 74.5306 270.144 73.7501 270.689C73.3745 270.95 73.2006 271.424 73.4468 271.845C73.6644 272.217 74.2284 272.41 74.603 272.149ZM79.7141 247.559C78.0411 246.835 76.3957 246.047 74.6447 245.526C73.5983 245.214 73.1553 246.846 74.1954 247.156C75.808 247.636 77.3204 248.352 78.861 249.018C79.8501 249.446 80.7098 247.989 79.7141 247.559ZM97.3826 247.052C97.7918 246.042 96.156 245.607 95.7529 246.603C95.2887 247.749 94.7567 248.865 94.2926 250.011C93.8838 251.021 95.5192 251.457 95.9223 250.461C96.3864 249.315 96.9186 248.198 97.3826 247.052ZM114.822 267.219C115.094 267.583 115.548 267.78 115.978 267.523C116.337 267.307 116.557 266.734 116.281 266.366C115.475 265.292 114.659 264.231 113.715 263.273C112.95 262.497 111.755 263.693 112.52 264.469C113.363 265.324 114.102 266.26 114.822 267.219ZM117.315 154.064C116.539 154.594 115.86 155.238 115.197 155.901C114.426 156.671 115.622 157.866 116.392 157.096C116.951 156.538 117.514 155.971 118.168 155.524C118.546 155.266 118.716 154.785 118.471 154.367C118.252 153.993 117.692 153.807 117.315 154.064ZM91.9438 181.273C92.3824 182.151 92.7772 183.012 92.8022 184.011C92.8288 185.099 94.5189 185.099 94.4921 184.011C94.4598 182.704 93.9781 181.571 93.4032 180.419C92.9169 179.444 91.4596 180.302 91.9438 181.273ZM82.6348 159.42C81.7262 158.815 80.8809 160.28 81.7815 160.88C82.5116 161.367 83.242 161.854 83.9721 162.341C84.8804 162.947 85.7256 161.482 84.8252 160.881C84.0951 160.394 83.365 159.907 82.6348 159.42ZM123.011 197.627C123.166 198.701 124.795 198.242 124.641 197.178C124.403 195.533 124.113 193.91 123.667 192.308C123.375 191.259 121.746 191.708 122.038 192.757C122.484 194.359 122.774 195.982 123.011 197.627ZM128.937 216.995C130.025 216.972 130.025 215.281 128.937 215.304C127.952 215.325 126.985 215.584 126.035 215.821C124.979 216.085 125.429 217.716 126.484 217.452C127.287 217.251 128.105 217.013 128.937 216.995ZM131.124 256.01C131.498 256.192 131.882 256.356 132.259 256.529C133.016 256.875 133.772 257.221 134.528 257.569C136.103 258.292 137.677 259.017 139.249 259.746C142.397 261.203 145.569 262.61 148.725 264.051C151.943 265.522 155.152 267.012 158.357 268.51C159.867 269.215 161.389 269.894 162.908 270.581C164.206 271.169 165.811 272.195 167.236 272.292C167.31 272.297 167.334 272.204 167.292 272.156C166.754 271.544 165.895 271.187 165.187 270.789C164.464 270.382 163.728 269.999 162.995 269.611C161.466 268.801 159.936 267.997 158.393 267.216C155.306 265.653 152.214 264.102 149.121 262.553C145.966 260.972 142.815 259.381 139.633 257.857C138.135 257.14 136.635 256.424 135.134 255.711C134.321 255.325 133.508 254.939 132.695 254.554C132.343 254.387 131.996 254.208 131.636 254.059C131.159 253.862 130.796 253.902 130.304 253.78C129.501 253.582 129.154 254.603 129.77 255.048C130.278 255.414 130.545 255.727 131.124 256.01ZM142.408 273.348C142.581 272.926 142.218 272.413 141.818 272.307C141.338 272.181 140.953 272.473 140.778 272.898C140.315 274.026 139.655 275.06 138.805 275.934C138.046 276.715 139.24 277.911 140 277.129C141.065 276.034 141.83 274.754 142.408 273.348ZM150.709 246.208C151.479 245.437 150.284 244.242 149.514 245.012L147.323 247.203C146.553 247.974 147.748 249.17 148.518 248.399L150.709 246.208ZM173.181 242.635C174.756 243.097 176.593 243.522 177.667 244.866C177.719 244.932 177.807 244.848 177.776 244.782C176.401 241.931 172.459 240.932 169.73 239.933C167.8 239.226 165.819 238.64 163.822 238.117C164.021 235.838 163.471 233.395 163.279 231.127C163.075 228.705 162.909 226.277 162.823 223.848C162.736 221.37 162.715 218.875 162.797 216.396C162.878 213.926 163.198 211.487 163.339 209.026C163.352 208.788 163.021 208.776 162.949 208.973C162.12 211.257 161.766 213.787 161.496 216.196C161.218 218.677 161.125 221.15 161.161 223.646C161.198 226.212 161.347 228.771 161.551 231.329C161.648 232.541 161.761 233.752 161.867 234.963C161.948 235.888 161.986 236.805 162.174 237.7C160.97 237.404 159.762 237.124 158.559 236.852C154.721 235.986 150.867 235.182 147.045 234.245C145.169 233.785 143.32 233.235 141.452 232.746C139.694 232.285 137.837 231.727 136.032 231.521C135.388 231.448 135.306 232.329 135.732 232.629C137.2 233.659 139.149 234.377 140.844 234.954C142.545 235.533 144.313 235.95 146.057 236.378C149.693 237.273 153.363 238.005 157.028 238.766C160.688 239.528 164.355 240.283 167.974 241.222C169.717 241.674 171.454 242.128 173.181 242.635ZM181.811 197.402C182.752 197.954 183.601 196.492 182.664 195.942C181.437 195.221 180.129 194.68 178.811 194.152C177.8 193.747 177.364 195.383 178.362 195.783C179.546 196.257 180.708 196.754 181.811 197.402ZM185.218 260.218C186.162 260.765 187.012 259.304 186.071 258.758C184.75 257.992 183.303 257.481 181.934 256.81C180.96 256.333 180.104 257.792 181.081 258.27C182.45 258.941 183.897 259.452 185.218 260.218ZM186.751 224.56C185.839 225.427 184.621 225.836 183.473 226.291C182.472 226.688 182.911 228.322 183.922 227.921C185.353 227.354 186.81 226.836 187.946 225.756C188.737 225.005 187.539 223.811 186.751 224.56ZM176.658 176.135C175.655 176.528 176.095 178.163 177.108 177.765C178.231 177.325 179.391 176.989 180.515 176.548C181.518 176.155 181.079 174.52 180.066 174.918C178.942 175.358 177.782 175.694 176.658 176.135ZM158.854 156.9C157.789 156.721 157.335 158.35 158.405 158.531C159.733 158.755 161.04 159.017 162.299 159.505C163.316 159.898 163.752 158.263 162.748 157.874C161.489 157.387 160.182 157.125 158.854 156.9ZM152.971 203.732C153.949 203.251 153.091 201.794 152.119 202.272C151.093 202.776 150.031 203.166 148.913 203.404C147.848 203.631 148.302 205.261 149.362 205.035C150.621 204.766 151.819 204.299 152.971 203.732ZM147.415 177.352C146.363 177.064 145.918 178.695 146.966 178.983C148.809 179.488 150.707 179.751 152.564 180.2C153.622 180.456 154.07 178.826 153.013 178.57C151.156 178.12 149.258 177.858 147.415 177.352ZM123.845 169.074C122.775 169.272 123.231 170.901 124.294 170.705C125.426 170.495 126.573 170.492 127.72 170.491C128.81 170.491 128.808 168.8 127.72 168.8C126.417 168.801 125.13 168.836 123.845 169.074ZM46.9732 177.907C49.7344 177.643 52.4999 177.432 55.2696 177.273C55.3987 177.267 55.5253 177.259 55.6544 177.252C55.6689 177.223 55.688 177.195 55.7072 177.165C56.6112 175.838 57.2767 174.511 57.8534 173.01C58.4049 171.582 58.9394 170.109 59.7886 168.819C60.7573 167.351 62.0651 166.201 63.4983 165.205C64.3677 165.79 65.1745 166.475 65.9127 167.2C66.6895 167.964 67.8849 166.769 67.1078 166.005C66.4518 165.36 65.7517 164.764 65.0116 164.226C65.8662 163.706 66.7381 163.218 67.5887 162.732C70.7769 160.913 74.0408 159.23 77.3725 157.692C78.921 156.975 80.4886 156.339 82.0668 155.694C82.9163 155.348 83.7548 154.902 84.6041 154.5C84.5429 153.9 84.7225 153.228 85.183 152.833C85.5232 152.543 85.7872 152.435 86.1929 152.231C86.2837 152.199 86.3387 152.18 86.364 152.169C86.345 152.173 86.2901 152.19 86.1994 152.22C85.9837 152.319 85.9668 152.29 86.1485 152.133C86.1591 151.791 86.8332 151.068 86.9872 150.715C87.5239 149.504 87.6908 148.223 88.483 147.12C89.5753 145.6 91.4091 145.026 93.1184 145.541C93.2957 143.713 93.3422 141.805 94.0309 140.173C94.0499 140.129 94.1112 140.109 94.1387 140.158C94.857 141.382 94.9182 142.745 94.9732 144.157C95.026 145.482 94.9755 146.837 94.802 148.153C94.9119 148.238 95.0239 148.318 95.1401 148.396C95.6851 148.756 96.2725 149.033 96.8894 149.238C98.064 149.626 99.2957 149.796 100.527 149.855C103.707 150.007 106.984 149.686 110.11 149.14C113.273 148.589 118.122 147.76 120.936 146.177C122.793 145.133 124.506 143.859 126.243 142.624C125.613 140.595 125.453 138.414 126.087 136.7C126.163 136.495 126.484 136.457 126.545 136.7C126.942 138.336 127.058 139.98 127.587 141.597C127.595 141.621 127.603 141.646 127.612 141.669C127.777 141.557 127.941 141.447 128.106 141.337C128.487 141.086 129.004 141.274 129.232 141.633C132.881 147.384 138.659 147.714 144.727 148.741C151.367 149.865 158.041 151.078 164.425 153.279C170.531 155.384 176.366 158.448 180.989 163.026C182.035 164.063 183.014 165.167 183.937 166.32C183.044 166.433 182.157 166.608 181.283 166.883C180.247 167.209 180.692 168.84 181.732 168.513C182.856 168.16 183.993 167.985 185.142 167.898C188.282 172.197 190.731 177.071 192.849 181.868C196.911 191.066 199.555 200.862 200.772 210.835C200.104 210.434 199.424 210.053 198.727 209.698C197.758 209.205 196.904 210.664 197.874 211.158C198.95 211.706 199.996 212.31 201.009 212.964C201.452 217.33 201.624 221.723 201.52 226.11C201.272 236.568 199.861 247.332 196.669 257.309C195.103 262.206 193.029 267.063 189.938 271.202C188.539 273.076 186.951 274.767 185.079 276.177C184.172 276.861 183.213 277.472 182.201 277.988C180.898 278.656 179.199 278.876 178.075 279.82C177.706 280.131 177.42 280.541 177.205 281.004C177.329 281.883 177.344 282.764 177.103 283.644C177.027 283.919 176.82 284.142 176.565 284.25C176.56 284.326 176.56 284.4 176.56 284.472C176.56 284.506 176.51 284.514 176.503 284.481C176.493 284.415 176.482 284.35 176.472 284.282C176.389 284.309 176.303 284.322 176.214 284.322C173.005 284.334 169.792 284.256 166.578 284.147C166.827 283.386 167.096 282.631 167.354 281.869C167.705 280.835 166.072 280.395 165.725 281.42C165.422 282.31 165.106 283.192 164.825 284.086C161.382 283.958 157.94 283.804 154.504 283.69C147.196 283.447 139.891 283.367 132.581 283.213C121.229 282.972 109.795 282.479 98.4261 282.961C98.0329 282.126 97.5929 281.311 97.1756 280.487C96.6834 279.516 95.2256 280.372 95.7162 281.341C96.0063 281.913 96.3067 282.478 96.5921 283.049C94.2895 283.169 91.9892 283.327 89.6938 283.542C85.7769 283.91 81.8978 284.563 77.9851 284.969C74.0072 285.383 70.1154 285.309 66.1689 284.652C65.4591 284.534 65.0408 284.104 64.8675 283.572C64.8614 283.57 64.857 283.566 64.8529 283.559C64.6501 283.322 64.4598 283.126 64.2635 282.955C64.0288 282.803 63.7753 282.674 63.4774 282.559C62.9218 282.348 62.3429 282.219 61.7555 282.133C61.1091 282.036 60.4541 282.027 59.8077 281.947C59.2628 281.877 58.7302 281.773 58.198 281.647C57.2408 281.418 56.3323 281.12 55.4281 280.725C54.6401 280.381 53.9283 279.886 53.2563 279.347C51.8661 278.33 50.6621 277.033 49.6098 275.684C48.9971 274.896 48.4203 274.078 47.8964 273.226C46.9837 271.751 46.2063 270.219 45.4203 268.674C45.1351 268.216 44.8749 267.747 44.637 267.268C46.1729 266.816 47.7236 266.447 49.3518 266.421C50.4403 266.403 50.4401 264.712 49.3518 264.73C47.4844 264.76 45.718 265.196 43.963 265.716C43.8775 265.489 43.7955 265.26 43.7196 265.028C43.5105 264.544 43.3372 264.047 43.1936 263.544C43.1093 263.316 43.0246 263.088 42.9401 262.86C42.7499 262.069 42.5598 261.276 42.3675 260.484C41.9851 259.216 41.6832 257.929 41.4612 256.625C41.2753 255.767 41.1316 254.902 41.0344 254.027C40.7387 251.907 40.4978 249.792 40.4809 247.649C40.5063 246.328 40.5908 245.009 40.7344 243.696C40.7957 242.804 40.8992 241.917 41.0386 241.035C41.2203 239.725 41.3999 238.428 41.702 237.134C41.9281 236.259 42.1541 235.384 42.3802 234.509C42.9443 232.685 43.6098 230.897 44.3769 229.149C44.4189 229.039 44.6325 228.798 44.7612 228.796C44.8584 228.794 44.9938 228.883 44.9494 229.001C44.945 229.012 44.941 229.024 44.9365 229.035C44.9809 228.936 45.0232 228.834 45.0675 228.735C45.1056 228.642 45.2534 228.456 45.3675 228.458C45.3739 228.458 45.3804 228.458 45.3887 228.46C45.3591 228.439 45.3316 228.412 45.3041 228.38C44.5457 227.482 44.0534 226.3 43.5105 225.26C43.0605 224.402 42.6358 223.498 42.5133 222.528C42.4058 221.676 42.5513 220.837 43.0858 220.148C43.6943 219.364 44.8394 218.996 44.2034 217.863C43.4809 216.574 42.4182 215.456 43.4767 213.991C44.0154 213.245 44.8689 212.835 45.5027 212.186C46.2316 211.436 46.5783 210.432 46.5591 209.407C46.5147 209.432 46.4556 209.42 46.4344 209.356C45.8218 207.505 46.2654 205.472 46.8929 203.669C47.2351 202.69 47.96 202.422 48.8027 202.373C45.1522 195.24 41.736 187.993 38.6915 180.579C38.5901 180.336 38.4908 180.093 38.3917 179.85C38.2436 179.486 38.5563 179.002 38.9175 178.922C41.5499 178.345 44.2922 178.161 46.9732 177.907Z" fill="black"/>
<path fill-rule="evenodd" clip-rule="evenodd" d="M75.1029 96.1525C76.553 78.4678 80.9685 62.8046 101.716 62.1367C111.079 62.2204 120.637 64.2103 129.247 67.892C150.174 78.3889 156.814 116.745 138.376 132.185C138.486 132.247 138.512 132.428 138.383 132.515C134.574 135.078 130.34 137.188 126.099 138.96C114.803 143.737 101.506 145.812 89.9862 140.63C72.406 133.147 72.1424 112.324 75.1029 96.1525V96.1525Z" fill="white"/>
<path fill-rule="evenodd" clip-rule="evenodd" d="M40.4988 87.9097C39.7763 87.2587 39.2375 86.4048 38.965 85.4474C38.7157 84.5745 38.6988 83.6214 38.9629 82.7506C39.246 81.8164 39.8565 81.0725 39.7192 80.1003C39.7044 80.0052 39.6854 79.9058 39.6558 79.8065C39.1277 77.9762 37.8284 76.6552 38.2932 74.6263C38.4242 74.0535 38.6713 73.5378 39.0157 73.132C38.9777 72.6924 38.9439 72.2486 38.9164 71.8048C38.1537 70.0189 38.1812 67.8969 38.9946 66.1385C39.0939 65.2381 39.2439 64.3462 39.4551 63.4691C39.358 62.6934 39.4932 61.8396 39.7425 61.1612C40.1804 59.9674 40.7217 58.7911 41.309 57.6341C41.2399 57.3177 41.271 56.9834 41.4455 56.686C41.7628 56.1456 42.1822 55.6705 42.6108 55.2061C42.914 54.6645 43.2193 54.1272 43.522 53.5969C43.6623 53.3532 43.8172 53.0829 43.9879 52.7965C43.5227 51.933 43.2742 51.0914 43.7663 50.0758C43.9511 49.6943 44.4594 49.413 44.878 49.438C45.3354 49.4652 45.797 49.4857 46.2611 49.5033C47.1286 48.4554 48.1116 47.5147 49.165 46.9732C50.2319 46.0686 51.3136 45.181 52.3657 44.2743C52.6636 44.0164 52.9636 43.7586 53.2615 43.5007C53.2636 43.4944 53.2657 43.4859 53.2678 43.4796C53.4875 42.6786 53.7347 41.8881 53.9819 41.0934C54.1361 40.601 54.1826 40.0853 54.6622 39.8169C55.6636 39.2568 57.2037 39.168 58.353 39.0729C58.4671 38.9715 58.5812 38.8722 58.6953 38.7707C58.1735 37.38 58.2664 35.9027 58.9235 34.5099C59.1474 34.0365 59.9249 33.823 60.3516 34.1358C61.3361 34.8586 62.5044 35.1143 63.6601 35.0087C65.3587 33.7025 72.2101 27.7961 73.2687 27.1726C73.2818 27.1502 73.2924 27.1278 73.3063 27.1056C73.9015 26.155 74.6242 25.3916 75.4368 24.7795C75.5527 24.6584 75.6687 24.5371 75.7847 24.4158C75.6827 23.6911 75.4141 22.9913 74.9819 22.4058C74.9354 22.3382 74.8826 22.2727 74.8298 22.2093C74.0734 21.3089 74.9967 20.1507 76.053 20.6221C76.1291 20.6559 76.2051 20.6897 76.2812 20.7256C77.0933 21.0879 77.9918 21.4816 78.9275 21.8139C79.27 21.6856 79.619 21.5693 79.9374 21.4412L83.3464 20.0702C83.9075 19.8445 84.5008 19.6532 85.0435 19.388C85.2328 18.1285 86.4945 17.3026 87.8048 17.3457C87.7292 17.1039 87.6163 16.8691 87.4572 16.6466C87.4108 16.581 87.3601 16.5176 87.3073 16.4563C86.6333 15.6722 87.5333 14.2181 88.4967 14.9156C88.5643 14.9642 88.634 15.0128 88.7016 15.0614C88.9693 15.2493 89.2433 15.4256 89.5203 15.5964C89.9637 15.4028 90.4632 15.3586 90.9858 15.5634C92.1432 16.0167 93.2101 16.4777 94.229 17.1882C94.2704 17.2172 94.3133 17.2415 94.3551 17.2688C94.8609 16.6575 95.6639 16.2488 96.3871 16.2532C96.4019 16.2532 96.4133 16.253 96.4264 16.2528C96.967 15.4288 97.9581 14.9498 98.9151 15.0663C98.8505 13.8838 100.034 12.8285 101.111 12.7002C102.37 12.5506 103.504 13.2816 103.882 14.51C103.987 14.852 104.092 15.1942 104.197 15.5363C105.175 15.0428 106.206 14.6647 107.284 14.476C109.737 14.0461 112.136 14.5039 114.5 15.1853C114.737 15.2533 114.973 15.3233 115.209 15.393C115.546 15.0022 115.862 14.6022 116.164 14.2287C116.686 13.5841 117.939 14.0998 117.854 14.9283C117.796 15.5 118.028 15.9113 118.402 16.2036C118.812 16.2636 119.209 16.2818 119.807 16.2697C120.598 16.2537 120.958 16.2289 121.785 15.9064C122.17 15.7563 122.65 15.3618 122.874 15.0075C123.735 13.6492 125.922 13.2833 126.964 14.5785C128.06 14.0985 129.444 14.7605 130.052 15.6938C130.37 16.1818 131.035 16.4546 131.871 16.6892C132.498 16.8651 133.14 16.9982 133.785 17.1147C134.072 16.7248 134.677 16.4633 135.121 16.7903C135.422 17.0124 135.714 17.2404 136.002 17.4742C138.222 17.7802 140.431 17.7912 142.548 16.9251C144.341 16.1917 145.986 18.1947 145.691 19.8762C146.21 20.1465 146.773 20.3264 147.286 20.6096C148.404 21.228 149.323 22.2055 149.883 23.354C149.983 23.5596 150.074 23.7684 150.16 23.9783C150.578 24.3188 150.992 24.6684 151.395 25.0372C152.067 24.6927 152.737 24.3482 153.409 24.0037C153.911 23.7458 154.759 23.9255 154.858 24.5933C155.021 25.6923 155.416 26.6033 155.98 27.3662C157.814 28.33 159.578 29.4121 161.266 30.6147C163.207 31.2234 165.271 31.5785 166.968 31.9779C167.549 32.1153 167.866 32.874 167.538 33.3792C167.192 33.9139 166.845 34.4486 166.501 34.9833C167.466 35.9259 168.373 36.9108 169.228 37.9295C171.609 40.7616 173.602 43.8664 175.385 47.155C176.09 47.4403 176.796 47.7235 177.502 48.0088C178.182 48.2836 178.488 49.074 177.937 49.6552C177.675 49.9321 177.44 50.2238 177.24 50.5302C178.239 52.1851 179.416 53.6941 181.061 54.6833C181.562 54.9834 181.938 55.4547 182.139 55.9894C182.31 56.1035 182.479 56.2261 182.646 56.3508C183.111 56.7017 183.392 57.4668 182.847 57.9212C182.464 58.2424 182.105 58.6228 181.801 59.0434C181.735 59.2823 181.668 59.5232 181.6 59.762C183.13 61.1696 184.402 62.8055 185.357 64.64C185.583 64.6041 185.815 64.6273 186.003 64.7668C187.71 66.0286 187.761 68.0385 187.074 69.835C187.488 72.5424 187.222 75.3174 186.423 77.9403C187.473 78.9886 188.105 80.5018 188.363 81.9601C188.817 84.5217 188.849 88.4613 188.967 91.0757C190.112 92.181 190.928 93.6119 191.382 95.1505C191.764 95.3407 192.147 95.5309 192.529 95.7212C192.869 95.8902 193.119 96.3362 193.097 96.7124C193 98.5321 192.25 99.9693 191.255 101.271C190.902 102.275 190.38 103.201 189.696 104.089C189.223 104.697 188.76 105.281 188.352 105.938C188.31 106.003 188.285 106.065 188.266 106.107C188.426 106.28 188.559 106.568 188.676 106.773C189.652 108.493 189.666 110.509 188.28 112.008C188.802 112.435 188.819 113.297 188.359 113.825C185.361 117.251 182.861 121.417 178.702 123.237C178.683 123.269 178.666 123.3 178.651 123.332C179.494 125.361 179.608 126.416 178.919 128.512C178.915 128.531 178.909 128.548 178.902 128.567C178.535 129.666 177.859 131.427 176.64 131.769C176.255 131.877 175.877 131.925 175.503 131.923C174.535 132.855 173.57 133.79 172.604 134.724C172.52 135.187 172.467 135.654 172.45 136.125C172.423 136.913 171.681 137.552 170.883 137.319C170.602 137.237 169.047 135.726 168.761 135.734C168.618 135.878 168.478 136.021 168.339 136.167C167.826 136.706 167.114 137.556 167.054 138.12C166.94 139.183 166.243 140.401 165.117 140.616C164.695 141.045 164.019 141.174 163.501 140.614C163.467 140.578 163.433 140.542 163.397 140.511C163.342 140.504 163.29 140.498 163.235 140.491C162.985 141.235 162.736 141.979 162.485 142.721C161.992 144.184 160.112 145.124 158.777 144.27C158.561 144.399 158.35 144.537 158.139 144.674C157.818 144.879 157.492 145.088 157.159 145.285C157.14 145.34 157.121 145.395 157.104 145.448C156.888 146.105 155.992 146.458 155.441 146.08C155.27 146.135 155.095 146.179 154.917 146.215C153.985 146.399 153.047 146.348 152.147 146.037C151.503 145.818 150.888 145.397 150.195 145.34C150.152 145.336 150.107 145.339 150.063 145.338C149.498 146.497 148.206 147.495 147.188 147.834C145.855 148.279 144.49 148.12 143.275 147.576C142.948 148.231 142.536 148.851 142.045 149.425C141.772 149.742 141.28 149.675 140.999 149.425C140.465 148.952 139.935 148.477 139.405 148C139.022 147.853 138.635 147.675 138.232 147.51C136.97 146.995 135.586 146.781 134.419 146.036C133.865 145.682 133.344 145.231 132.914 144.708C132.105 144.24 131.362 143.659 130.693 142.992C130.359 142.994 130.011 142.916 129.673 142.744C128.259 142.026 127.516 140.563 127.45 139.067C126.305 136.372 125.629 133.498 125.443 130.556C125.384 129.59 125.373 128.616 125.447 127.65C125.498 126.969 125.669 126.515 125.927 125.9C126.014 125.699 126.092 125.515 126.153 125.312C126.138 124.661 126.13 124.01 126.121 123.362C125.946 122.814 125.633 122.305 125.198 121.876C124.524 121.212 124.216 119.834 124.828 119.014C125.228 118.484 125.625 117.953 126.024 117.423C125.912 115.146 125.367 111.524 126.576 111.143C126.527 110.805 126.423 110.471 126.364 110.135C126.081 108.521 126.25 107.077 127.108 105.665C127.288 105.371 127.44 105.111 127.564 104.858C127.642 104.393 127.721 103.928 127.799 103.463C127.919 102.746 128.038 102.024 128.139 101.297C128.192 100.371 128.24 99.4452 128.293 98.5173C128.342 97.6635 128.397 96.8096 128.454 95.9536C128.43 95.5711 128.397 95.1886 128.348 94.806C128.059 92.5255 127.127 91.6823 125.513 90.0971C125.259 90.057 125.008 90.0126 124.761 89.9619C123.609 89.723 122.405 89.3532 121.22 89.4863C119.933 89.63 118.782 90.1859 117.531 89.4758C117.164 89.2644 116.354 88.6811 116.285 88.2182C116.28 88.1886 116.274 88.1633 116.266 88.1443C116.179 88.1316 116.067 88.121 115.997 88.1189C115.004 88.0851 114.056 88.4761 113.054 88.3683C111.869 88.2415 110.809 87.7152 110.111 86.9353C109.218 87.1551 108.305 87.2545 107.378 87.1319C106.6 87.0304 105.903 86.7768 105.214 86.4006C104.714 86.1301 104.872 86.0519 104.327 86.2717C103.087 86.7747 101.965 87.4383 100.569 87.0938C99.8439 86.9163 99.2185 86.5253 98.6925 85.999C98.5678 85.8765 98.3565 85.6926 98.215 85.5193C97.5516 85.8553 95.8826 86.6141 95.608 86.6817C94.8305 86.8719 94.0065 86.8423 93.2502 86.5887C92.6946 86.4027 92.0143 85.8955 91.5263 85.7919C90.8946 85.6567 89.4918 86.5359 88.7375 86.8381C87.415 87.3686 86.0143 87.4996 84.6749 86.9522C84.2143 86.7641 83.3185 86.0138 82.9742 86.0202C82.4143 86.7113 80.8509 90.4924 80.3819 91.8725C78.4826 97.4521 77.9903 114.874 78.8671 119.318C78.9009 119.449 78.9368 119.578 78.9727 119.709C80.0502 123.575 81.172 127.506 82.9742 131.108C84.6749 134.502 87.0263 137.558 90.4002 139.411C93.8988 141.335 98.0058 141.84 101.94 141.58C104.473 141.415 106.964 140.906 109.414 140.267C110.695 139.936 111.964 139.566 113.228 139.181C113.779 139.014 114.339 138.858 114.88 138.663C115.835 138.319 116.335 138.291 117.25 138.733C118.083 139.135 118.296 140.32 117.863 141.066C117.157 142.284 115.864 142.368 114.616 142.723C113.344 143.085 112.068 143.431 110.783 143.742C108.322 144.334 105.821 144.788 103.298 144.997C98.7812 145.376 94.127 144.792 90.0157 142.821C89.5509 142.597 89.103 142.358 88.6699 142.1C88.8305 142.324 88.9932 142.548 89.158 142.77C89.6143 143.385 89.2763 144.431 88.6361 144.767C88.4333 144.873 88.2305 144.974 88.0256 145.074C87.9981 145.139 87.9685 145.205 87.9347 145.27C87.3495 146.445 86.1242 147.138 84.8756 147.439C83.3925 147.794 81.7319 147.542 80.2234 147.498C78.8249 147.455 77.4263 147.413 76.0298 147.371C75.7002 147.363 75.3706 147.352 75.0411 147.341C73.3805 147.291 71.722 147.242 70.0636 147.191C68.5847 147.147 68.6544 147.261 67.2664 146.669C66.6474 146.403 66.1403 146.027 65.7136 145.526C65.4474 145.408 65.1896 145.272 64.9425 145.118C64.1481 144.623 63.4425 143.96 62.7918 143.228C61.6868 143.577 60.1382 143.254 59.9227 141.865C59.5763 139.644 56.6904 138.695 55.3425 137.089C54.2544 135.793 53.477 134.096 53.5171 132.467C50.7749 131.139 49.2833 127.641 48.9347 124.674C48.772 123.298 48.7974 121.825 48.5629 120.426C48.4594 120.314 48.3664 120.196 48.2882 120.069C47.5995 118.955 46.9995 117.807 46.4713 116.632C45.753 116.114 44.8889 115.795 43.9847 115.742C41.7622 115.613 41.3439 112.614 43.4629 111.892C43.4734 111.887 43.4819 111.885 43.4925 111.881C42.9178 110.444 42.9664 108.742 43.6636 107.381C43.634 107.233 43.6066 107.088 43.5791 106.94C42.3897 105.661 41.7073 103.884 41.7833 102.153C41.2404 101.77 40.6319 101.474 39.9664 101.29C38.9375 101.007 38.9312 99.7516 39.6918 99.1894C39.9981 98.9633 40.2516 98.6991 40.4629 98.4074C39.9368 96.8265 40.1439 94.9983 41.2192 93.7006C40.5368 92.8257 39.8544 91.9507 39.172 91.0757C38.7199 90.4966 38.4812 89.5138 39.172 88.9643C39.6136 88.6113 40.0551 88.2605 40.4988 87.9097Z" fill="black"/>
<path fill-rule="evenodd" clip-rule="evenodd" d="M90.31 120.752C89.5852 119.473 87.4222 119.681 87.0916 121.173C86.4208 124.198 90.0269 126.992 92.7658 127.062C95.4876 127.131 98.5414 124.813 98.1474 121.886C98.05 121.162 97.0833 121.25 96.7537 121.704L96.6257 121.878C95.7306 123.081 94.5494 124.326 92.8881 124.033C92.1996 123.912 91.5743 123.481 91.1581 122.928C90.6561 122.259 90.7112 121.461 90.31 120.752ZM107.617 98.6196C107.248 98.5179 106.876 98.5573 106.549 98.6963C105.819 98.8301 105.209 99.4388 104.995 100.134C104.978 100.194 104.959 100.253 104.939 100.312L104.906 100.4L104.994 100.177C104.953 100.396 104.775 100.627 104.71 100.847C104.631 101.118 104.612 101.425 104.639 101.723C104.407 101.726 104.175 101.734 103.943 101.754L103.72 101.774C102.468 101.89 101.094 102.104 100.353 103.185C99.936 103.793 100.327 104.887 101.092 105.004C102.271 105.185 103.286 104.533 104.46 104.402C105.57 104.278 106.731 104.349 107.827 104.55C110.089 104.963 112.168 105.881 114.372 106.456L114.672 106.532V106.532L114.672 106.531C115.049 106.622 115.478 106.097 115.105 105.789C113.339 104.338 111.078 103.162 108.85 102.446C109.175 101.929 109.275 101.249 109.053 100.695C109.019 100.58 108.976 100.468 108.931 100.357L108.838 100.128V100.128C108.828 100.02 108.808 99.9131 108.778 99.8085L108.773 99.7765V99.7765L108.77 99.7784V99.7784C108.604 99.2393 108.171 98.7726 107.617 98.6196ZM85.0863 98.7031C84.6033 98.2197 83.9246 98.2911 83.4206 98.6716L83.3537 98.724V98.724C82.8786 98.9351 82.4854 99.3965 82.2272 99.8241C81.9591 100.268 81.781 100.72 81.774 101.209C80.6049 101.213 79.485 101.564 78.6266 102.508C78.3494 102.813 78.1601 103.283 78.3126 103.696L78.4035 103.942V103.942C78.6917 104.722 79.9876 105.172 80.428 104.254L80.4483 104.209C80.9163 103.119 82.7127 103.234 83.6674 103.345C84.3329 103.423 84.9902 103.589 85.6329 103.774C85.8593 103.839 86.0837 103.91 86.3079 103.983L86.532 104.055C86.6516 104.094 87.2744 104.432 86.8869 104.352C86.7828 104.331 86.7044 104.482 86.8107 104.533C87.2725 104.754 87.7652 104.314 87.7343 103.818C87.6809 102.957 86.3135 102.484 85.6555 102.187L85.6162 102.169C85.3639 102.053 85.0996 101.941 84.8269 101.837C84.9802 101.609 85.107 101.355 85.2124 101.083C85.3121 100.826 85.3787 100.576 85.4152 100.303C85.4512 100.169 85.4512 100.036 85.4152 99.9021L85.4098 99.8638V99.8638C85.4283 99.7755 85.4372 99.6842 85.4359 99.5922L85.4398 99.5565H85.4359C85.4231 99.2346 85.2952 98.9121 85.0863 98.7031ZM92.8031 107.877C90.9476 108.45 87.8863 110.013 88.8533 112.425C90.2035 114.639 93.7843 113.012 95.5194 112.296C97.0783 111.779 97.89 113.965 96.3826 114.624C83.9265 119.554 83.9723 106.543 92.3514 106.734C93.274 106.755 93.303 107.686 92.8031 107.877ZM109.283 90.9122L108.967 90.8198C107.322 90.3432 105.643 89.5202 104.183 90.8043C103.609 91.3086 103.491 92.3565 103.901 92.9855C104.836 94.4186 106.222 94.1997 107.732 94.3218C108.881 94.4148 110.013 94.7526 111.086 95.1746C111.963 95.5198 112.776 96.0057 113.544 96.5476C114.298 97.0804 114.813 97.9133 115.587 98.3929C115.87 98.5687 116.198 98.3878 116.3 98.1027C116.661 97.0914 116.051 95.8315 115.535 94.9698C114.905 93.9186 113.948 93.0588 112.92 92.4083C111.793 91.6958 110.548 91.2844 109.283 90.9122V90.9122ZM85.3177 89.824C82.5376 89.8231 79.8625 91.37 78.3076 93.6376C77.7792 94.408 78.1665 95.5492 78.9249 95.9929C79.7758 96.4908 80.6856 96.1322 81.2463 95.4187L81.2795 95.3755C82.1713 94.1875 83.3208 93.2519 84.6834 92.6428C85.3483 92.3454 86.0835 92.1042 86.8027 91.9819L87.0351 91.942C87.3608 91.8874 87.7387 91.8353 88.0333 91.8863C88.1911 91.907 88.3361 91.9592 88.4696 92.0387C88.4053 92.1791 88.5712 92.3481 88.7244 92.264C89.4152 91.8844 89.3305 91.2073 88.7599 90.681C87.9526 89.9364 86.3603 89.8242 85.3177 89.824Z" fill="black"/>
<path fill-rule="evenodd" clip-rule="evenodd" d="M91.4972 116.101C93.8467 115.042 98.0658 115.966 99.5974 116.333C103.158 117.188 106.741 119.034 107.848 121.926C109.095 125.186 106.606 126.212 106.24 126.044C103.775 126.218 100.839 124.668 98.2561 124.268C96.1591 123.94 93.9469 123.654 91.9821 122.539C90.5476 123.329 87.3076 123.755 84.6927 124.446C82.4658 125.033 81.5009 126.307 79.4364 126.037C76.962 125.712 77.9749 120.506 80.7325 118.397C83.7507 116.088 88.8553 115.152 91.4972 116.101ZM86.845 138.361C88.9006 138.863 89.0386 134.356 89.2689 132.763C89.4488 131.519 90.4635 128.311 93.0358 128.45C95.6082 128.588 96.5751 131.276 96.4446 132.948C96.36 134.032 95.3614 139.523 98.5488 140.218C100.581 140.21 102.932 140.073 105.069 139.679C107.584 139.109 110.854 137.114 111.718 141.043C112.029 142.457 100.95 146.658 96.0343 147.038C91.0488 148.049 85.2156 146.495 81.666 142.679C80.8585 141.811 78.5842 138.208 78.4221 137.326C78.0816 135.471 78.8699 134.278 81.1638 134.931C82.7843 135.797 85.5231 138.039 86.845 138.361Z" fill="black"/>
<path fill-rule="evenodd" clip-rule="evenodd" d="M72.8216 109.153C75.3866 111.805 79.6686 112.566 83.0812 111.144C91.8438 107.481 87.5548 96.0578 80.797 92.99C79.9528 92.7795 78.8252 92.2801 77.797 92.1668C77.704 92.1212 77.5016 92.2532 77.2564 92.1283C69.8047 92.9606 68.1078 104.532 72.8216 109.153M101.085 109.832C103.961 113.649 109.31 114.827 113.68 113.052C122.312 109.651 119.251 99.5216 113.344 95.5503C100.867 90.8602 95.7152 102.794 101.085 109.832M119.799 101.374C119.807 101.37 119.815 101.369 119.823 101.365C119.777 101.345 119.732 101.325 119.686 101.304C119.701 101.343 119.717 101.381 119.731 101.42C119.754 101.404 119.774 101.386 119.799 101.374M66.8825 97.2481C67.5868 97.2496 68.6043 97.3654 69.1874 97.8542C70.6253 93.0031 75.9328 88.5134 80.5485 91.7872C84.1834 92.9566 86.8806 95.5501 88.4136 98.9981C91.1776 97.3533 95.5238 98.0557 97.9206 100.231C99.4904 95.0418 103.354 93.2248 107.952 92.9566C112.971 92.1342 117.973 97.0103 119.534 100.922C120.832 100.774 122.771 100.361 123.992 101.162C131.916 99.0834 145.77 97.9373 147.381 99.0923C148.529 99.533 149.159 102.244 147.555 102.39C146.158 102.192 147.718 100.404 146.31 100.209C138.805 99.7433 131.519 101.255 124.094 101.89C123.431 102.782 121.289 103.08 120.146 102.722C121.946 109.357 118.061 113.872 112.239 115.224C103.225 117.296 95.3827 109.229 97.7398 100.838C95.0092 99.4791 91.8683 99.5374 88.8936 100.253C93.8643 118.554 64.4016 117.733 69.0032 98.4813C65.9408 100.005 65.2758 97.5556 66.8825 97.2481" fill="black"/>
</svg>
