<svg width="155" height="210" viewBox="0 0 155 210" fill="none" xmlns="http://www.w3.org/2000/svg">
  <path fill-rule="evenodd" clip-rule="evenodd" d="M122.35 142.455C121.437 139.641 122.524 136.39 121.814 133.356C121.57 132.156 121.108 127.698 120.643 125.091C120.383 123.632 121.938 123.18 122.177 122.598C123.858 117.369 111.593 105.068 110.845 104.615C109.723 103.964 108.73 103.403 107.634 102.738C104.436 101.611 100.602 98.4735 97.7029 100.489C92.6802 92.9819 94.6672 83.7333 91.9417 82.6341C89.2162 81.5349 81.1677 79.3132 76.5663 82.1502C73.8082 84.1989 74.0115 87.7259 72.7531 90.6345C72.0144 92.0037 71.6515 93.9871 70.7917 94.8801C67.87 97.9143 64.2266 98.4374 60.1534 98.9524C59.8432 98.9916 59.5168 98.1445 59.2153 98.2491C52.3446 100.633 44.3498 101.329 36.5687 114.679C35.4698 116.588 32.5052 119.651 33.4965 121.858C26.9652 137.105 20.5387 171.425 38.4599 179.984C39.0327 180.352 42.9189 178.38 43.5521 178.398C44.6077 178.428 42.5852 181.001 43.5521 180.543C50.6511 181.084 89.7132 179.689 104.686 181.084C114.983 181.006 121.504 182.819 123.882 181.006C122.931 178.7 122.975 176.23 123.276 173.792C125.464 172.158 122.759 160.637 122.988 157.263C125.036 154.798 123.405 145.552 122.35 142.455Z" fill="white" />
  <path fill-rule="evenodd" clip-rule="evenodd" d="M119.085 125.58C118.103 127.014 117.2 128.491 116.385 130.027C115.964 130.819 115.571 131.627 115.218 132.451C115.145 130.669 115.129 128.865 114.921 127.1C114.906 126.973 114.695 126.911 114.672 127.066C114.443 128.667 114.405 130.309 114.319 131.926C114.219 131.895 114.109 131.878 113.987 131.878C112.809 131.878 111.647 131.975 110.473 132.07C109.946 132.113 109.396 132.146 108.859 132.23C109.291 131.751 109.693 131.245 110.065 130.717C110.444 130.178 110.877 129.337 110.217 128.819C109.487 128.248 108.057 128.995 107.352 129.286C106.995 129.433 106.644 129.593 106.299 129.763C105.864 128.539 104.53 128.376 103.385 128.545C102.57 128.666 101.778 128.946 100.983 129.16C99.9738 129.43 98.9603 129.685 97.9431 129.924C96.1113 130.355 94.267 130.731 92.414 131.057C92.365 131 92.2971 130.955 92.2063 130.932C91.5719 130.773 90.8718 130.895 90.2209 130.907C89.5518 130.919 88.8826 130.918 88.2134 130.905C87.0181 130.88 85.8239 130.87 84.6288 130.849C84.289 130.642 83.8583 130.346 83.7528 129.957C83.6212 129.471 84.0324 128.933 84.2233 128.52C84.9564 126.932 85.2128 125.156 84.9251 123.427C84.8738 123.119 84.7682 122.782 84.6157 122.466C85.9251 122.607 87.2175 122.702 88.5341 122.745C91.1629 122.831 93.7917 122.921 96.4218 122.941C101.68 122.98 106.939 122.98 112.198 122.942C115.171 122.92 118.138 122.893 121.108 122.74C120.866 123.048 120.63 123.363 120.4 123.682C120.353 123.668 120.291 123.694 120.298 123.753C120.3 123.773 120.303 123.794 120.305 123.815C119.886 124.402 119.482 125 119.085 125.58M113.238 180.165C112.016 180.126 110.794 180.086 109.572 180.047C107.173 179.971 104.774 179.894 102.376 179.817C97.624 179.666 92.8722 179.519 88.1196 179.387C83.3784 179.256 78.635 179.117 73.8925 179.266C69.1392 179.415 64.398 179.8 59.6536 180.109C57.016 180.281 54.3765 180.429 51.734 180.501C49.2173 180.568 46.6784 180.466 44.1656 180.646C44.0812 180.022 44.1432 179.4 44.1341 178.779C44.9583 178.301 45.7673 177.793 46.5669 177.294C49.4819 175.474 52.2372 173.414 54.8362 171.163C55.2357 170.817 55.6274 170.464 56.0152 170.107C55.7453 170.699 55.9613 171.462 56.7348 171.713C57.678 172.018 58.6438 171.91 59.6234 171.887C60.6183 171.863 61.6131 171.841 62.608 171.82C64.5525 171.778 66.4971 171.741 68.4417 171.709C72.2405 171.645 76.0395 171.597 79.8387 171.566C87.4822 171.505 95.1205 171.609 102.763 171.747C104.912 171.786 107.059 171.835 109.208 171.786C110.283 171.762 111.362 171.754 112.436 171.696C113.297 171.649 114.162 171.527 115.023 171.417C115.131 172.921 115.244 174.425 115.371 175.928C115.454 176.92 115.54 177.913 115.625 178.905C115.66 179.314 115.663 179.732 115.72 180.121C114.894 180.166 114.073 180.191 113.238 180.165M114.078 137.688C114.048 138.84 114.032 139.992 114.024 141.144C113.925 141.087 113.813 141.045 113.687 141.026C112.351 140.821 110.92 140.977 109.568 141C108.261 141.022 106.95 141.014 105.644 141.076C104.336 141.138 103.028 141.212 101.72 141.28C101.106 141.312 100.499 141.34 99.8901 141.423C99.4728 141.48 98.9392 141.476 98.4934 141.596C100.363 139.777 102.223 137.948 104.088 136.125C104.144 136.07 104.184 136.013 104.213 135.954C105.456 135.193 106.65 134.337 107.731 133.356C108.588 133.688 109.564 133.73 110.473 133.804C111.648 133.9 112.808 133.997 113.987 133.997C114.067 133.997 114.142 133.989 114.212 133.975C114.154 135.212 114.11 136.449 114.078 137.688M65.5252 160.056C68.38 160.972 71.473 160.961 74.443 161.145C77.6092 161.34 80.7706 161.502 83.9404 161.626C90.2713 161.873 96.598 162.209 102.928 162.476C106.544 162.628 110.158 162.796 113.772 162.979C114.029 162.992 114.273 162.926 114.489 162.805C114.61 165.195 114.753 167.583 114.918 169.97C114.939 170.269 114.962 170.567 114.983 170.866C113.282 170.651 111.594 170.446 109.88 170.301C107.955 170.138 106.032 170 104.105 169.872C100.35 169.622 96.5882 169.287 92.826 169.165C85.1568 168.916 77.4707 169.001 69.7986 169.056C67.6278 169.071 65.4571 169.092 63.2864 169.119C62.2011 169.132 61.1159 169.146 60.0306 169.162C58.9399 169.178 57.7677 169.064 56.7349 169.447C56.7251 169.45 56.7168 169.456 56.7071 169.459C59.8228 166.495 62.614 163.22 65.5252 160.056M75.5609 150.581C80.3319 151.453 85.1777 151.393 90.0138 151.479C94.9622 151.568 99.9173 151.509 104.867 151.52C107.678 151.525 110.514 151.649 113.315 151.398C113.646 151.369 113.902 151.243 114.085 151.064C114.136 154.055 114.23 157.045 114.359 160.034C114.177 159.956 113.979 159.909 113.772 159.897C107.448 159.523 101.124 159.185 94.7918 158.978C88.4649 158.771 82.1302 158.525 75.7999 158.602C72.7107 158.64 69.444 158.441 66.3972 159.117C67.555 157.882 68.7377 156.67 69.9749 155.509C71.7785 153.816 73.7032 152.231 75.5609 150.581M79.2059 147.06C79.2123 147.052 79.2155 147.044 79.2203 147.037C79.2375 147.049 79.2585 147.058 79.286 147.058C83.7521 146.957 88.7625 148.371 92.9395 146.2C94.8043 145.231 96.3486 143.699 97.8477 142.227C97.8485 142.238 97.8495 142.249 97.8503 142.26C97.8601 142.379 97.9105 142.523 98.0311 142.576C98.5238 142.793 99.1008 142.807 99.6298 142.885C100.238 142.974 100.836 143.026 101.449 143.063C102.803 143.144 104.155 143.231 105.509 143.307C106.86 143.384 108.216 143.39 109.568 143.424C110.924 143.458 112.345 143.623 113.687 143.429C113.81 143.411 113.92 143.372 114.017 143.318C114.019 145.061 114.035 146.804 114.051 148.546C114.054 148.83 114.06 149.114 114.063 149.398C113.882 149.231 113.633 149.115 113.315 149.087C110.826 148.867 108.318 148.964 105.82 148.973C103.368 148.981 100.915 148.989 98.4621 148.997C93.5096 149.014 88.5611 149.062 83.6094 149.157C81.2014 149.203 78.804 149.407 76.4312 149.798C77.3919 148.919 78.3259 148.015 79.2059 147.06M40.4007 178.753C39.4864 179.034 38.5788 178.912 37.6627 179.105C37.6064 179.116 37.5544 179.138 37.5068 179.167C34.7634 177.991 32.9348 175.629 31.6833 172.983C30.3642 170.194 29.4549 167.212 28.8459 164.19C27.59 157.959 27.5879 151.498 28.2379 145.194C28.8766 139.001 30.1411 132.841 31.9457 126.885C33.1848 122.796 34.7638 118.664 36.9563 114.935C39.4881 116.638 41.4515 119.09 43.3011 121.487C45.5114 124.351 47.5032 127.382 49.2861 130.532C49.1017 131.071 49.0731 131.748 48.9847 132.23C48.8143 133.16 48.6603 134.101 48.5393 135.039C48.2808 137.044 48.0327 139.049 47.7684 141.053C47.2457 145.015 46.6216 148.966 45.9322 152.903C45.8764 153.222 45.9656 153.491 46.1297 153.694C44.7623 154.417 43.4127 155.173 42.0978 155.992C39.207 157.793 36.5053 159.891 34.3841 162.582C34.329 162.652 34.4154 162.745 34.4836 162.682C39.0323 158.462 44.6836 155.813 50.232 153.195C53.0675 151.856 55.889 150.497 58.6094 148.932C61.4543 147.297 64.1673 145.448 66.7677 143.445C69.7369 141.158 72.532 138.657 75.1521 135.974C75.4608 135.658 75.386 135.262 75.1538 135.012C75.2322 134.987 75.2955 134.919 75.2996 134.804C75.3625 133.052 75.8866 131.559 76.9127 130.141C77.8645 128.826 79.0776 127.741 80.1719 126.551C80.6582 126.022 81.1229 125.471 81.5378 124.883C81.965 124.278 82.2252 123.61 82.597 122.978C83.0313 122.239 83.4008 122.616 83.6021 123.285C83.8303 124.043 83.8162 124.931 83.7245 125.71C83.6275 126.535 83.3774 127.339 83.0171 128.084C82.6788 128.784 82.2887 129.496 82.5164 130.299C82.8907 131.618 84.4952 132.381 85.7108 132.678C87.0643 133.009 88.4802 132.945 89.8508 132.773C91.5672 132.558 93.2755 132.244 94.9722 131.909C96.9371 131.522 98.8905 131.075 100.828 130.57C101.74 130.332 102.644 130.02 103.564 129.824C103.892 129.754 104.499 129.649 104.885 129.82C99.9296 132.786 94.5277 134.761 89.0411 136.483C88.3595 136.696 88.639 137.73 89.3367 137.559C95.2309 136.112 100.776 133.427 106.054 130.485C106.135 130.44 106.203 130.371 106.253 130.288C106.784 130.101 107.324 129.938 107.874 129.803C108.12 129.743 109.386 129.324 109.544 129.485C109.768 129.713 108.992 130.454 108.799 130.669C107.42 132.203 105.779 133.455 104.003 134.49C102.202 135.54 100.286 136.376 98.3602 137.166C96.2033 138.051 93.9235 138.746 91.8269 139.763C90.994 140.167 91.5784 141.539 92.4559 141.261C93.5867 140.902 94.6855 140.375 95.7844 139.927C96.718 139.547 97.6517 139.167 98.5799 138.773C99.2271 138.499 99.8698 138.216 100.506 137.919C99.5529 138.82 98.5993 139.721 97.6459 140.622C95.995 142.183 94.4263 143.961 92.408 145.055C90.414 146.136 88.1392 146.262 85.9197 146.239C84.8054 146.227 83.6959 146.192 82.5816 146.237C81.4089 146.284 80.3674 146.465 79.2561 146.836C79.2356 146.842 79.2207 146.855 79.2082 146.869C79.1693 146.821 79.1034 146.797 79.0353 146.838C76.0154 148.63 73.2626 150.956 70.6152 153.254C67.8866 155.623 65.3192 158.142 62.8729 160.803C60.5314 163.35 58.2085 165.906 55.6606 168.25C53.1728 170.538 50.5142 172.615 47.7381 174.538C46.2255 175.586 44.6755 176.595 43.0718 177.496C42.2147 177.978 41.3444 178.464 40.4007 178.753M40.6548 109.795C41.7362 108.575 42.9002 107.445 44.1319 106.399C44.6754 106.561 45.2458 106.606 45.8207 106.612C46.6979 106.62 47.577 106.657 48.4542 106.648C50.1432 106.631 51.8316 106.577 53.521 106.568C56.9754 106.549 60.4308 106.548 63.8851 106.578C64.3377 106.582 64.6642 106.388 64.8658 106.106C65.565 106.902 66.2857 107.679 67.0124 108.444C68.1931 109.688 69.4518 110.874 70.7916 111.955C70.5308 111.957 70.27 111.959 70.0106 111.957C68.8158 111.949 67.6208 111.942 66.4261 111.935C64.0284 111.922 61.6307 111.912 59.233 111.905C54.4662 111.893 49.6845 111.933 44.9238 112.178C43.6025 112.246 42.2708 112.273 40.9541 112.403C40.24 112.473 39.5267 112.555 38.8132 112.631C38.6672 112.646 38.5272 112.666 38.3898 112.688C39.0885 111.68 39.8412 110.712 40.6548 109.795M59.7463 98.924C59.7141 98.9459 59.6793 98.9655 59.6484 98.9889C59.5783 99.0418 59.5893 99.1374 59.672 99.1695C59.782 99.2126 59.8976 99.2452 60.0166 99.271C60.3779 99.7971 60.6602 100.448 60.8573 100.777C61.4237 101.724 62.0749 102.626 62.7375 103.507C62.8707 103.684 63.0064 103.859 63.1427 104.034C59.9343 104.026 56.7274 104.042 53.5209 104.164C51.8327 104.228 50.1387 104.282 48.454 104.409C47.7613 104.462 47.069 104.549 46.3785 104.636C49.9724 102.028 54.0141 100.036 58.2012 98.5578C58.1954 98.5643 58.1896 98.5691 58.1838 98.5755C58.0916 98.6782 58.2293 98.8114 58.3331 98.7254C58.8778 98.2732 59.3506 98.4854 59.7463 98.924M75.9579 129.581C75.8668 129.72 75.7772 129.863 75.6897 130.01C75.4793 129.799 75.1854 129.658 74.8068 129.647C70.6036 129.515 66.4025 129.4 62.1971 129.397C60.1231 129.396 58.0303 129.326 55.959 129.429C54.9189 129.48 53.8792 129.542 52.8396 129.601C52.1128 129.643 51.3406 129.694 50.6309 129.905C48.995 127.033 47.1791 124.271 45.196 121.63C49.6954 122.184 54.2719 122.125 58.7967 122.279C63.9233 122.453 69.0528 122.491 74.1812 122.613C75.5879 122.646 76.9946 122.683 78.4011 122.723C79.127 122.743 79.853 122.764 80.579 122.786C80.8059 122.793 81.0407 122.799 81.2758 122.793C81.2581 122.83 81.2401 122.867 81.2225 122.903C80.8267 123.724 80.3289 124.479 79.7489 125.181C78.5157 126.671 77.0262 127.955 75.9579 129.581M70.4439 138.43C70.2882 137.995 69.9089 137.661 69.3046 137.689C65.8607 137.846 62.4105 137.955 58.9706 138.182C57.2949 138.293 55.6124 138.368 53.9395 138.515C53.0766 138.591 52.2153 138.732 51.3561 138.844C50.7671 138.922 50.1503 139.011 49.5853 139.221C49.6949 138.007 49.7915 136.791 49.8754 135.574C49.9427 134.597 49.9631 133.61 49.9579 132.63C49.9554 132.133 49.9386 131.634 49.9147 131.138C49.9654 131.149 50.0163 131.154 50.0663 131.147C50.1544 131.137 50.2367 131.126 50.3131 131.106C51.1049 131.417 52.0011 131.485 52.8396 131.545C53.8343 131.617 54.8287 131.692 55.8234 131.764C57.9398 131.915 60.0761 131.905 62.1971 131.975C66.3724 132.111 70.5485 132.191 74.7247 132.303C74.5309 133.138 74.5241 133.995 74.8342 134.803C74.6182 134.731 74.3695 134.764 74.1572 134.975C72.9543 136.168 71.7155 137.319 70.4439 138.43M58.2958 147.304C58.2108 147.068 58.0503 146.852 57.8604 146.705C57.1302 146.14 55.7971 146.465 54.9206 146.508C53.8829 146.559 52.8451 146.61 51.8075 146.661C51.4926 146.676 49.8853 146.759 48.7048 147.011C48.9487 145.162 49.17 143.309 49.3679 141.453C49.4094 141.064 49.4478 140.674 49.4859 140.284C50.042 140.464 50.6465 140.53 51.2201 140.557C52.0797 140.598 52.9432 140.668 53.8037 140.681C55.5227 140.708 57.2513 140.623 58.9706 140.595C62.0668 140.543 65.1634 140.395 68.2582 140.272C65.151 142.804 61.8678 145.115 58.443 147.216C58.3942 147.246 58.3446 147.275 58.2958 147.304M48.5166 148.402C48.7782 148.437 49.0376 148.448 49.236 148.469C50.232 148.569 51.2125 148.661 52.2136 148.676C53.2062 148.69 54.1987 148.705 55.1913 148.719C55.4024 148.722 55.6135 148.725 55.8246 148.728C53.2109 150.162 50.5169 151.446 47.861 152.797C48.095 151.334 48.3135 149.869 48.5166 148.402M76.997 115.763C82.9536 118.304 90.5937 118.535 95.7127 114.313C96.2213 114.453 96.7839 114.5 97.2331 114.545C98.2422 114.647 99.2421 114.74 100.256 114.772C102.232 114.834 104.211 114.927 106.188 114.951C110.188 115.001 114.188 115.024 118.188 115.06C118.528 115.063 118.801 114.959 119.007 114.792C119.412 115.481 119.789 116.188 120.133 116.913C120.635 117.97 121.06 119.062 121.409 120.179C121.334 120.166 121.257 120.157 121.173 120.156C115.917 120.064 110.656 120.216 105.398 120.238C100.139 120.26 94.8809 120.238 89.6221 120.275C88.1668 120.286 86.7223 120.286 85.2706 120.394C84.5152 120.451 83.7507 120.476 83.0024 120.598C82.9188 120.612 82.8336 120.624 82.7478 120.636C81.7451 120.047 80.5003 120.17 79.3542 120.149C78.0382 120.124 76.7223 120.101 75.4064 120.082C72.82 120.043 70.2333 120.015 67.6466 119.997C62.5129 119.962 57.3918 120.094 52.2614 120.273C49.7088 120.363 47.1659 120.514 44.6462 120.909C44.477 120.689 44.3094 120.468 44.1381 120.25C42.3527 117.978 40.2362 115.069 37.2983 114.366C37.411 114.181 37.5253 113.998 37.6414 113.816C39.6769 114.355 41.9224 114.327 44.002 114.44C46.3992 114.57 48.7913 114.66 51.1914 114.719C55.9621 114.837 60.7319 114.911 65.5036 114.984C66.828 115.004 68.1523 115.025 69.4766 115.047C70.1909 115.059 70.9053 115.073 71.6197 115.084C72.0188 115.09 72.3756 115.089 72.7559 114.956C73.1081 114.833 73.4513 114.648 73.7919 114.495C73.9108 114.442 74.0074 114.363 74.0862 114.269C75.0214 114.83 75.9904 115.334 76.997 115.763M100.273 107.313C101.022 107.521 101.795 107.556 102.587 107.616C103.627 107.695 104.664 107.708 105.707 107.715C107.369 107.726 109.031 107.714 110.692 107.668C111.406 107.649 111.823 107.169 111.947 106.62C111.964 106.634 111.982 106.647 111.999 106.662C114.021 108.334 115.854 110.247 117.406 112.365C113.667 112.377 109.927 112.379 106.188 112.405C104.211 112.418 102.232 112.499 100.256 112.551C99.2864 112.576 98.3311 112.656 97.3656 112.748C97.3465 112.75 97.3263 112.752 97.3068 112.754C97.4091 112.635 97.5106 112.515 97.6098 112.391C98.7639 110.956 99.7131 109.187 100.273 107.313M124.585 182.681C124.915 181.77 124.787 180.793 124.768 179.834C124.749 178.851 124.739 177.868 124.735 176.885C124.729 174.962 124.716 173.04 124.695 171.118C124.652 167.229 124.607 163.337 124.455 159.451C124.154 151.768 123.573 144.104 122.626 136.472C122.166 132.762 121.594 129.061 120.819 125.403C120.83 125.388 120.84 125.373 120.851 125.358C121.623 124.322 122.502 123.365 123.26 122.322C123.328 122.229 123.356 122.111 123.355 121.991C123.383 121.977 123.41 121.963 123.439 121.947C124.068 121.587 123.5 120.607 122.871 120.971C122.943 120.929 121.898 118.237 121.788 117.966C121.39 116.992 120.943 116.04 120.438 115.117C120.134 114.561 119.808 114.016 119.467 113.481C119.408 113.081 119.193 112.711 118.824 112.513C118.176 111.581 117.476 110.686 116.73 109.832C113.676 106.339 109.862 103.519 105.695 101.511C105.093 101.221 104.473 100.979 103.855 100.725C103.197 100.455 102.587 100.102 101.939 99.8191C100.885 99.3581 99.8434 99.3845 98.8075 99.8726C98.7189 99.9144 98.7824 100.051 98.8724 100.028C99.5394 99.853 100.223 99.8237 100.891 100.013C101.546 100.199 102.044 100.609 102.616 100.952C103.636 101.562 104.775 101.96 105.82 102.53C107.201 103.283 108.551 104.111 109.843 105.019C108.505 105.09 107.166 105.142 105.826 105.177C104.831 105.204 103.837 105.209 102.844 105.267C102.137 105.308 101.401 105.296 100.695 105.411C100.865 104.235 100.865 103.048 100.652 101.903C100.652 101.902 100.652 101.902 100.652 101.901C100.601 101.625 100.538 101.351 100.462 101.081C100.298 100.504 99.7752 100.418 99.3953 100.636C99.3576 100.608 99.3197 100.581 99.2833 100.551C98.8282 100.18 98.4186 99.7362 98.0624 99.2698C97.3224 98.3006 96.7244 97.1787 96.2716 96.0478C95.8128 94.9026 95.4878 93.7044 95.1695 92.5139C95.0099 91.917 94.8371 91.3233 94.6745 90.7269C94.5331 90.2084 94.4302 89.6356 94.1706 89.1632C94.1219 89.0747 93.9753 89.0914 93.952 89.1919C93.8145 89.7837 93.8872 90.4587 93.9124 91.0621C93.9403 91.7318 93.9786 92.3954 94.0674 93.06C94.2515 94.4392 94.5484 95.795 95.0242 97.1045C95.4803 98.3604 96.0823 99.5324 96.8999 100.59C97.4431 101.293 98.2145 102.224 99.1081 102.603C99.2249 103.922 99.2115 105.243 98.9011 106.549C98.495 108.259 97.7174 109.885 96.6491 111.277C94.409 114.197 90.9433 115.846 87.3277 116.186C83.5869 116.538 79.7589 115.698 76.3976 114.046C72.6589 112.209 69.5574 109.375 66.7716 106.315C65.1657 104.552 63.5005 102.816 62.0122 100.951C61.7484 100.62 61.3263 99.9485 60.8255 99.3437C61.3352 99.3391 61.8581 99.2625 62.3092 99.2044C63.2425 99.0841 64.1546 98.898 65.0666 98.6651C66.7718 98.2298 68.5698 97.624 70.0598 96.6658C73.2126 94.638 74.4433 92.0658 74.8637 88.5221C74.9966 87.4018 73.0671 87.1298 72.8874 88.2535C72.6114 89.9808 72.1937 90.8214 71.6446 92.4807C71.1164 94.0756 70.3514 94.6698 68.8891 95.5489C67.5163 96.3744 65.9562 96.8539 64.4439 97.3493C63.6058 97.6239 62.7579 97.8743 61.9127 98.1266C61.3747 98.2873 60.736 98.4274 60.1903 98.6755C59.9055 98.4247 59.6085 98.2355 59.3094 98.1639C59.3313 98.1267 59.3028 98.0691 59.2477 98.08C59.1598 98.0977 59.0722 98.1172 58.9844 98.1354C58.8961 98.1417 58.8082 98.1592 58.7205 98.191C53.4529 99.3362 48.3944 101.775 44.1049 105.097C43.8886 105.188 43.6795 105.299 43.4804 105.439C43.3779 105.511 43.31 105.626 43.2905 105.745C42.6456 106.273 42.0199 106.822 41.4153 107.389C36.5462 111.962 33.4611 118.044 31.3013 124.3C29.1737 130.463 27.7336 136.926 26.9417 143.397C26.1343 149.992 26.0413 156.725 27.2122 163.284C27.841 166.806 28.8588 170.266 30.3612 173.515C31.7104 176.432 33.9064 179.755 37.3557 180.11C37.3668 180.122 37.3771 180.133 37.3896 180.144C38.7429 181.263 40.7579 180.49 42.1729 179.821C42.3972 179.715 42.6197 179.604 42.8413 179.489C42.7242 179.942 42.6714 180.416 42.647 180.86C42.5961 181.782 43.8911 181.834 44.1363 181.069C46.2355 181.439 48.4032 181.445 50.5264 181.433C52.8987 181.42 55.2702 181.337 57.6399 181.225C62.3414 181.002 67.0374 180.662 71.7421 180.508C81.2683 180.194 90.8206 180.864 100.339 181.201C103.009 181.295 105.68 181.39 108.35 181.484C111.078 181.581 113.803 181.599 116.51 181.97C117.505 182.106 117.886 181.127 117.605 180.517C117.675 180.107 117.606 179.658 117.567 179.175C117.496 178.274 117.428 177.372 117.365 176.469C117.241 174.71 117.122 172.949 117.009 171.189C116.779 167.622 116.582 164.053 116.39 160.483C116.008 153.387 115.715 146.285 115.5 139.181C115.448 137.45 115.379 135.718 115.293 133.988C115.396 133.824 115.499 133.659 115.598 133.493C115.929 132.939 116.253 132.382 116.588 131.831C117.26 130.725 117.936 129.627 118.642 128.544C119.253 127.608 119.882 126.687 120.54 125.785C121.356 132.707 122.082 139.637 122.415 146.603C122.782 154.276 122.977 161.961 123.083 169.642C123.112 171.788 123.132 173.934 123.155 176.08C123.167 177.198 123.179 178.314 123.17 179.432C123.161 180.501 123 181.67 123.377 182.681C123.598 183.271 124.368 183.282 124.585 182.681Z" fill="black" />
  <path fill-rule="evenodd" clip-rule="evenodd" d="M104.219 47.6128C100.118 41.9462 92.5676 40.3166 86.0197 41.6948C73.2187 44.0376 60.9886 53.8427 58.7267 67.1774C55.1979 75.2447 57.4513 87.9514 67.714 88.9007C69.1751 88.9835 70.6224 88.6458 72.086 88.8281C81.0192 90.2607 91.5754 96.3933 99.483 89.1611C99.8794 89.4462 100.401 89.584 100.846 89.4115C104.212 88.1057 104.37 84.328 104.657 81.2226C105.027 77.2102 105.375 73.1955 105.699 69.1792C105.815 62.2529 108.55 53.5977 104.219 47.6128V47.6128Z" fill="white" />
  <path fill-rule="evenodd" clip-rule="evenodd" d="M79.4008 33.1734C84.7903 32.8857 94.7209 35.3641 99.4227 38.2697C107.084 43.0038 107.677 52.4474 107.365 54.0803C107.246 54.7034 106.867 55.2801 106.273 55.0885C106.777 59.3788 106.737 61.8309 106.822 66.146L106.88 69.0269C106.918 70.9475 106.95 72.8683 106.958 74.7897C107.152 74.7172 107.343 74.8061 107.414 74.9926C107.432 75.0378 107.37 75.0625 107.34 75.0364C106.999 74.7377 107.242 75.4185 107.359 75.557C107.522 75.7474 107.792 75.9268 107.982 76.0898L108.497 76.5376V76.5376L109.012 76.9844C109.677 77.5607 110.321 78.1383 110.942 78.7591L111.11 78.9296C112.241 80.083 113.659 81.1993 114.363 82.6912C115.036 84.1157 114.828 85.7308 113.711 86.8664C113.304 87.2787 112.83 87.594 112.314 87.8323C113.232 89.3501 113.366 91.357 112.408 92.9185C111.449 94.4857 109.604 95.3063 107.827 95.1803C107.773 95.4035 107.688 95.6214 107.576 95.8281C106.872 97.1278 105.471 97.2965 104.142 97.2269L104.09 97.2241C101.099 97.0514 98.2219 96.2994 95.6021 94.8378C94.6934 94.8994 93.883 94.15 93.7056 93.3281C93.228 93.3104 92.7477 93.2705 92.2579 93.2144C90.8048 93.046 89.3148 92.7323 88.0336 91.9912C87.8371 91.8775 87.9285 91.5775 88.1469 91.5719C89.7078 91.5363 91.2701 91.6446 92.8282 91.4748C94.2582 91.3198 95.7822 90.9241 97.1153 90.3857C99.5113 89.4159 101.566 87.7707 102.7 85.4911C104.168 82.5404 104.034 78.9967 104.194 75.7912C104.371 72.243 104.589 68.6981 104.821 65.1536L104.934 63.4545C105.16 60.1428 105.347 58.3711 105.92 54.9337C104.194 55.0885 97.024 52.4976 94.7944 48.2596C90.5626 57.2753 69.1224 53.5855 68.1715 67.4652C68.1634 67.5829 67.9778 67.5501 67.9709 67.4377L67.9532 67.1213C67.9447 66.965 67.9369 66.8112 67.9316 66.6586L67.9273 66.5063L67.5903 66.5104C67.5903 66.5527 67.5302 66.5679 67.5152 66.5227C67.1973 65.6171 65.6828 65.9089 65.0237 66.1241C64.4302 66.3185 63.8708 66.6171 63.3687 66.9857C62.3604 67.7255 61.5785 68.7214 61.3193 69.9664C60.8267 72.3309 62.3263 74.7392 64.317 75.8803C65.5723 76.5994 66.9476 77.0638 68.151 77.8789C69.2139 78.5981 70.2045 79.4405 71.0627 80.3981C74.4629 84.1912 76.4632 89.9446 74.8545 94.9515C74.7317 95.3337 74.407 95.7705 73.9772 95.8323C73.2663 95.9351 72.5554 95.8309 72.157 95.1515C72.0015 94.8857 71.9278 94.583 71.9442 94.2844C71.6686 95.2349 70.7748 96.1748 69.9507 96.5282C68.8278 97.0104 67.563 96.8664 66.5724 96.2445L66.4472 96.3375C64.8363 97.5279 63.0367 98.6129 60.9727 98.394C59.4773 98.235 58.0092 97.4707 57.1823 96.2652C56.0826 96.8857 54.9078 97.3801 53.6962 97.7171L53.5672 97.7527C51.9003 98.2083 49.774 98.6261 48.218 97.7007C46.7239 96.8116 46.2273 94.8705 46.5779 93.25C46.6202 93.057 46.6734 92.8693 46.7389 92.6871C45.6146 92.7472 44.4917 92.6392 43.4247 92.3077C42.3345 91.9692 41.2948 91.3185 40.7722 90.2638C40.1828 89.0705 40.3397 87.7145 40.7791 86.4994C41.4818 84.55 42.6115 82.8157 44.0182 81.3049C45.371 79.8508 47.0028 78.6171 48.6987 77.5888L48.9846 77.417C50.5112 76.5029 52.3522 75.4317 54.156 75.5022C54.1506 75.4789 54.1465 75.4568 54.1437 75.4337C53.8708 73.4159 53.9022 71.3583 53.8381 69.3241C53.7794 67.4529 53.7126 65.5816 53.6689 63.709C53.598 60.5253 53.6211 57.3282 54.0346 54.1666C54.4016 51.3611 55.062 48.6253 56.2668 46.0568C57.5316 43.3583 59.4364 41.0556 61.7887 39.2446C66.7252 35.4433 73.2458 33.5022 79.4008 33.1734ZM62.6333 70.5666C63.1709 69.5488 64.3948 69.2282 65.4686 69.4118C66.9736 69.6693 67.9969 70.99 68.8756 72.1256C69.798 73.3159 67.8741 74.4378 67.3789 73.2845L67.2615 73.012C66.864 72.0974 66.3945 71.133 65.5833 70.5364C64.7209 69.9036 63.5039 69.8104 62.7425 70.6515C62.6879 70.7132 62.5965 70.6337 62.6333 70.5666Z" fill="black" />
  <path fill-rule="evenodd" clip-rule="evenodd" d="M85.1882 75.6817C87.5271 75.3967 89.7943 76.1156 92.0808 76.478C93.288 76.6692 94.4968 76.812 95.7184 76.8651C95.9642 76.8759 96.2101 76.8822 96.456 76.8872C96.4788 76.6699 96.6 76.4704 96.8625 76.3508C97.4006 76.1059 97.8312 75.9955 98.422 76.0191C98.9628 76.0405 99.5054 76.0964 100.038 76.1942C101.005 76.3722 101.976 76.7761 102.683 77.4778C104.32 79.1015 104.071 81.7096 102.806 83.4782C100.193 87.1326 95.4238 87.3022 91.339 87.2546L90.962 87.2496C87.2427 87.1962 81.9214 87.753 80.2316 83.5045C79.6102 81.9422 79.6965 80.1314 80.4573 78.633C81.3648 76.8457 83.275 75.9148 85.1882 75.6817ZM96.8062 81.7664L96.7728 81.7677C95.058 81.8341 93.3434 81.8808 91.6277 81.9112C91.679 82.3536 91.7314 82.7961 91.7913 83.2375C91.8383 83.5849 91.8887 83.9318 91.9411 84.2784C91.9633 84.4251 92.0447 84.6529 92.0217 84.7983L92.0134 84.8558V84.8558C92.1015 84.8958 92.1814 84.9602 92.2409 85.0537C92.2616 85.086 92.2766 85.1186 92.2916 85.1511C93.6236 85.1616 95.0572 85.1357 96.4151 84.8926L96.4179 84.863V84.863C96.4425 84.6888 96.5147 84.5716 96.6105 84.4912C96.706 83.9358 96.6972 83.344 96.7341 82.7929C96.7571 82.4506 96.7821 82.1086 96.8062 81.7664ZM90.3172 81.9347C89.0812 81.9558 87.8447 81.9721 86.609 81.9569L86.048 81.9482V81.9482C86.1664 82.5863 86.2954 83.2222 86.4025 83.8646C86.5143 84.5341 85.9273 84.9597 85.4194 84.9425C85.4764 84.9519 85.5333 84.9616 85.5904 84.9696C87.1775 85.195 88.8254 85.1352 90.4361 85.1334C90.3494 84.6256 90.3845 84.0527 90.3716 83.6288L90.3691 83.5632C90.3445 83.0201 90.3272 82.4774 90.3172 81.9347ZM81.9216 81.8176C81.9645 82.1494 82.048 82.4741 82.1728 82.7765C82.7004 84.0538 83.91 84.6498 85.1898 84.9008C84.9677 84.8239 84.7914 84.6389 84.7469 84.3221C84.6359 83.5344 84.596 82.7336 84.5931 81.9338C83.7011 81.9254 82.8032 81.9063 81.9216 81.8176ZM101.457 81.5449C100.822 81.6953 100.084 81.6264 99.4614 81.6548C98.8778 81.6814 98.2938 81.7046 97.7101 81.7283C97.7376 82.1284 97.7645 82.5283 97.7936 82.9281C97.8312 83.4449 97.8347 83.991 97.9333 84.5056C99.108 84.103 100.161 83.4576 100.95 82.4254C101.147 82.1683 101.323 81.8665 101.457 81.5449ZM84.9197 77.7774C83.8627 78.0287 82.8622 78.5595 82.3246 79.5307C82.0055 80.107 81.8651 80.79 81.892 81.463C82.7855 81.3586 83.6943 81.319 84.5987 81.2863C84.6017 81.1227 84.6055 80.9594 84.6104 80.7964L84.6244 80.3787C84.649 79.5819 84.6614 78.5813 84.9197 77.7774ZM90.3911 77.8746L89.9258 77.8221C88.6333 77.6743 87.3415 77.5191 86.0489 77.608C85.8618 77.621 85.6719 77.6415 85.4816 77.6695C85.71 78.4971 85.6908 79.4692 85.7863 80.2886C85.8232 80.6054 85.8697 80.9196 85.9213 81.2326L86.1456 81.2221V81.2221C87.5325 81.1466 88.9208 81.1002 90.3089 81.0449C90.3088 80.7833 90.3102 80.5215 90.3144 80.2595L90.3195 79.9976C90.3353 79.3287 90.2923 78.5751 90.3911 77.8746ZM96.882 77.7684C95.5283 77.9878 94.1292 78.0345 92.7994 78.0361C92.2683 78.0368 91.7374 78.004 91.2069 77.9568C91.2414 78.2404 91.2594 78.5273 91.2854 78.807C91.3378 79.3722 91.3977 79.9365 91.4628 80.5003L91.5208 80.9936V80.9936C93.2269 80.916 94.9329 80.832 96.6386 80.7451L96.8793 80.7321V80.7321L96.9468 79.784C96.9927 79.1518 97.0432 78.5198 97.1146 77.8905L97.0611 77.8711V77.8711C96.9982 77.8451 96.9385 77.8094 96.882 77.7684ZM97.4698 78.0037C97.5444 78.8976 97.5857 79.7952 97.6405 80.6906L98.765 80.6303C98.9524 80.62 99.1398 80.6096 99.3272 80.5987C100.056 80.5565 100.992 80.335 101.713 80.5417C101.768 79.8842 101.58 79.2436 100.989 78.8019C99.9517 78.0261 98.6305 78.3024 97.4698 78.0037ZM93.6281 70.0128C95.3025 69.0501 99.5037 68.0661 99.7698 71.0914C99.8922 72.4836 98.8613 73.6371 97.6574 74.1519L97.6122 74.1709C96.4832 74.6369 94.4819 75.1632 93.5049 74.1527C92.6917 73.3116 93.7702 71.8035 94.7807 72.4925C95.3001 72.8465 96.3931 72.5857 96.9726 72.4172L97.0089 72.4066C97.6342 72.2221 98.4679 71.6316 98.2093 70.8585C97.9805 70.1747 97.0068 70.0498 96.3971 70.0276C95.4868 69.9949 94.601 70.207 93.6992 70.2761C93.5563 70.287 93.5122 70.0794 93.6281 70.0128ZM100.564 65.1481C102.836 65.0412 104.25 67.5325 103.727 69.5737C103.637 69.9259 103.245 70.2716 102.866 70.2321L102.771 70.2232C102.722 70.2186 102.673 70.2124 102.629 70.2C102.269 70.1 101.946 69.7244 101.973 69.3351L101.98 69.2216C102.033 68.2574 101.929 67.1464 100.787 66.9129C99.819 66.7148 99.2786 67.6503 99.2671 68.5114C99.2649 68.6643 99.0938 68.771 98.9592 68.6888C98.2593 68.2612 98.1382 67.4107 98.4055 66.6782C98.7443 65.7501 99.5921 65.1937 100.564 65.1481ZM83.6993 65.6824C85.3531 65.1284 87.1374 66.0135 87.9382 67.4814C88.2191 67.5631 88.4996 67.7805 88.4606 68.1133C88.4042 68.5922 88.3194 68.8942 87.9886 69.2573C87.4713 69.8254 86.5025 69.5349 86.2874 68.8356L86.2783 68.804C86.0341 67.9001 85.043 67.3036 84.1401 67.6201C83.0854 67.9896 83.116 69.108 82.3762 69.7595C82.2893 69.8361 82.185 69.8483 82.0808 69.7977C81.295 69.4165 81.4362 68.2691 81.7163 67.6124C82.0838 66.7506 82.7979 65.9842 83.6993 65.6824ZM81.4468 60.6403C82.7869 59.2674 86.2815 57.9389 87.1983 60.4741C87.3729 60.957 87.0011 61.6081 86.5004 61.7082C85.6804 61.8721 84.9528 61.5147 84.1383 61.5788C83.4788 61.631 82.791 61.8522 82.2638 62.2623C80.8036 63.3982 80.4824 65.3195 79.4649 66.7652C79.4154 66.8356 79.3192 66.806 79.3101 66.723C79.0784 64.6182 79.9789 62.1438 81.4468 60.6403ZM98.9245 59.2888C99.8138 58.9734 100.821 59.0004 101.715 59.2801C102.615 59.5621 103.442 60.0974 104.079 60.7969C104.368 61.1144 104.635 61.4648 104.85 61.8378C104.964 62.0355 105.084 62.4438 105.213 62.687C105.914 63.0931 106.213 64.0184 105.586 64.6768L105.558 64.7056L105.474 64.7892C105.137 65.1243 104.628 65.2695 104.168 65.1356C103.138 64.8365 103.013 64.0221 102.656 63.1577C102.421 62.5867 102.017 62.0815 101.528 61.7104C100.372 60.8337 98.4767 60.5544 97.0848 60.9675C97.0107 60.9896 96.9236 60.8948 96.9765 60.826C97.2402 60.483 97.3922 60.2015 97.7453 59.9248C98.1037 59.644 98.4949 59.4411 98.9245 59.2888Z" fill="black" />
  <path fill-rule="evenodd" clip-rule="evenodd" d="M103.262 59.7258C106.464 59.7258 108.292 60.4173 108.962 60.4711L108.982 60.4726C109.26 60.4905 109.51 60.5139 109.773 60.6157C110.737 60.9884 110.894 62.0035 110.331 62.6433C110.292 63.9671 110.465 65.5139 110.167 66.8419C109.8 72.4407 107.178 73.3855 105.687 73.7304C104.939 73.9035 104.052 73.9725 103.257 73.7896C101.9 73.7389 100.56 73.3126 99.4124 72.5704C97.8148 71.5359 96.6281 69.9458 96.2431 68.0587C96.0606 67.1592 95.9753 66.2229 96.0746 65.3086L96.0893 65.1826C95.57 64.9333 94.9682 64.8861 94.3479 64.8641C94.0516 64.8535 93.7595 64.844 93.4757 64.8566C93.1984 64.8877 92.9243 64.9291 92.6495 64.9855C92.3493 65.0764 92.0658 65.2265 91.8041 65.4642L91.786 65.8111C91.7369 66.6777 91.6236 67.5469 91.4488 68.3971C91.1907 69.6515 90.7756 70.8496 89.8921 71.7394C89.593 72.1879 89.223 72.5881 88.7737 72.9348C87.1418 74.1963 84.9247 74.6594 82.8898 74.485C78.7587 74.1311 76.3708 70.8386 75.8205 69.4313L75.7877 69.3461C75.3901 68.2998 75.0733 66.9424 73.8172 66.7176L73.5501 66.6694C72.9768 66.5614 72.4479 66.411 72.1118 65.8495C71.9645 65.6044 71.8887 65.3302 71.8701 65.0507C71.674 65.0659 71.4782 65.0803 71.2831 65.0943C69.7265 65.4248 60.39 65.7051 59.6448 65.7051C59.6448 65.7051 58.2122 66.3104 57.6074 65.8414C57.1882 65.5152 57.0503 65.0806 57.2811 64.5881C57.6293 63.8472 59.2357 63.4016 59.949 63.2605C59.949 63.2605 71.46 63.3564 72.2885 63.1987C72.8011 62.6681 73.7181 62.7407 74.4843 62.6568C75.1185 62.2027 76.0058 61.8986 76.7068 61.695C76.8496 61.6407 76.9911 61.5881 77.1286 61.5386C78.4135 61.0792 79.7491 60.8359 81.1051 60.7052C82.5033 60.5718 83.9057 60.6322 85.2958 60.8234C85.8816 60.9031 86.4619 61.0063 87.0382 61.1412C88.07 61.2778 89.0958 61.5027 90.128 61.7696L90.3345 61.8235C91.4215 62.1096 92.5384 62.3571 93.6636 62.1631C94.5796 62.0062 95.4606 61.6523 96.3052 61.2696L96.4151 61.2195C98.2722 60.3682 101.172 59.7258 103.262 59.7258ZM86.9264 62.8385C86.2412 62.6872 85.9486 63.7478 86.636 63.8996C87.1227 64.007 87.5353 64.2535 87.814 64.671L87.8434 64.7163C88.2174 65.3139 89.1631 64.7623 88.7865 64.1609C88.3628 63.4842 87.7044 63.0102 86.9264 62.8385ZM106.996 62.1809C106.754 62.01 106.388 62.1368 106.248 62.3782C106.094 62.6441 106.195 62.94 106.421 63.114L106.444 63.1309C106.652 63.2778 106.854 63.541 106.879 63.8107L106.882 63.8444C106.909 64.5502 108.001 64.5538 107.974 63.8444C107.947 63.1505 107.547 62.5707 106.996 62.1809Z" fill="black" />
</svg>